<?xml version="1.0" encoding="UTF-8"?>
<!DOCTYPE svg PUBLIC "-//W3C//DTD SVG 1.1//EN" "http://www.w3.org/Graphics/SVG/1.1/DTD/svg11.dtd">
<svg xmlns="http://www.w3.org/2000/svg" version="1.1" width="225px" height="225px" style="shape-rendering:geometricPrecision; text-rendering:geometricPrecision; image-rendering:optimizeQuality; fill-rule:evenodd; clip-rule:evenodd" xmlns:xlink="http://www.w3.org/1999/xlink">
<g><path style="opacity:0.97" fill="#fefefe" d="M 134.5,30.5 C 147.822,29.109 160.489,31.2757 172.5,37C 184.533,49.5191 184.199,61.8524 171.5,74C 163.349,79.6095 154.349,83.2762 144.5,85C 124.577,87.8923 104.577,90.059 84.5,91.5C 84.3689,102.273 87.5355,111.94 94,120.5C 107.161,103.223 123.995,98.0565 144.5,105C 155.632,113.362 157.465,123.529 150,135.5C 140.544,144.325 129.378,147.492 116.5,145C 109.321,143.659 102.821,140.826 97,136.5C 96.6667,136.833 96.3333,137.167 96,137.5C 94.1746,144.895 93.0079,152.395 92.5,160C 93.9107,174.868 95.4107,189.701 97,204.5C 95.5341,206.325 93.7008,206.825 91.5,206C 65.1976,192.365 45.6976,172.198 33,145.5C 27.7467,132.474 28.4133,119.807 35,107.5C 37.6667,103.5 41,100.167 45,97.5C 48.9615,66.0693 66.1281,45.9026 96.5,37C 109.115,33.6796 121.782,31.5129 134.5,30.5 Z M 139.5,39.5 C 149.806,38.3286 159.473,40.1619 168.5,45C 173.865,52.166 173.532,59.166 167.5,66C 160.623,71.073 152.956,74.4063 144.5,76C 125.25,78.9166 105.917,81.0833 86.5,82.5C 91.6572,64.5046 102.991,52.0046 120.5,45C 126.828,42.6729 133.162,40.8396 139.5,39.5 Z M 100.5,44.5 C 101.239,44.369 101.906,44.5357 102.5,45C 89.4751,54.8812 80.8084,67.7145 76.5,83.5C 69.5087,85.6656 62.6754,88.3323 56,91.5C 58.3296,74.6979 66.8296,61.8646 81.5,53C 87.8096,49.8523 94.1429,47.019 100.5,44.5 Z M 74.5,93.5 C 76.1395,106.794 81.1395,118.794 89.5,129.5C 87.2191,134.957 85.7191,140.623 85,146.5C 84.5186,158.852 84.5186,171.186 85,183.5C 71.327,165.151 61.6603,144.818 56,122.5C 55.0936,116.676 54.2603,110.842 53.5,105C 53.4393,103.289 54.1059,101.956 55.5,101C 61.7461,97.9798 68.0794,95.4798 74.5,93.5 Z M 44.5,109.5 C 46.1801,119.892 48.6801,130.225 52,140.5C 58.3672,155.901 65.7005,170.568 74,184.5C 60.3544,173.524 49.6877,160.191 42,144.5C 36.5887,132.255 37.4221,120.589 44.5,109.5 Z M 123.5,110.5 C 132.083,108.793 139.25,111.127 145,117.5C 146.508,127.35 142.341,133.516 132.5,136C 120.809,138.285 110.309,135.785 101,128.5C 100.685,127.092 101.018,125.759 102,124.5C 107.795,117.505 114.961,112.838 123.5,110.5 Z"/></g>
</svg>
