<?xml version="1.0" encoding="UTF-8"?>
<!DOCTYPE svg PUBLIC "-//W3C//DTD SVG 1.1//EN" "http://www.w3.org/Graphics/SVG/1.1/DTD/svg11.dtd">
<svg xmlns="http://www.w3.org/2000/svg" version="1.1" width="401px" height="399px" style="shape-rendering:geometricPrecision; text-rendering:geometricPrecision; image-rendering:optimizeQuality; fill-rule:evenodd; clip-rule:evenodd" xmlns:xlink="http://www.w3.org/1999/xlink">
<g><path style="opacity:1" fill="#bdbcbc" d="M 3.5,-0.5 C 135.833,-0.5 268.167,-0.5 400.5,-0.5C 400.5,0.166667 400.5,0.833333 400.5,1.5C 398.389,0.258442 396.389,0.258442 394.5,1.5C 263.833,1.5 133.167,1.5 2.5,1.5C 2.83333,0.833333 3.16667,0.166667 3.5,-0.5 Z"/></g>
<g><path style="opacity:1" fill="#9f9f9f" d="M 2.5,1.5 C 133.167,1.5 263.833,1.5 394.5,1.5C 393.653,2.96626 392.32,3.79959 390.5,4C 389.915,5.30238 389.249,6.46905 388.5,7.5C 384.996,4.057 380.662,2.72367 375.5,3.5C 254.915,3.18 134.582,3.51333 14.5,4.5C 12.2387,3.3516 9.90537,2.8516 7.5,3C 6.74332,4.51221 5.74332,5.84555 4.5,7C 5.33235,132.097 5.83235,257.264 6,382.5C 7.0945,384.078 7.92783,385.745 8.5,387.5C 6.5,388.833 4.83333,390.5 3.5,392.5C 3.31845,390.409 3.65178,388.409 4.5,386.5C 3.8351,260.373 3.16843,134.373 2.5,8.5C 2.5,6.16667 2.5,3.83333 2.5,1.5 Z"/></g>
<g><path style="opacity:1" fill="#d9d9d8" d="M -0.5,-0.5 C 0.166667,-0.5 0.833333,-0.5 1.5,-0.5C 0.501852,132.43 0.168518,265.43 0.5,398.5C 0.166667,398.5 -0.166667,398.5 -0.5,398.5C -0.5,265.5 -0.5,132.5 -0.5,-0.5 Z"/></g>
<g><path style="opacity:1" fill="#999999" d="M 388.5,7.5 C 387.432,8.43448 386.099,8.76781 384.5,8.5C 384.657,9.87344 384.49,11.2068 384,12.5C 378.167,17 373,22.1667 368.5,28C 367.207,28.49 365.873,28.6567 364.5,28.5C 364.657,29.8734 364.49,31.2068 364,32.5C 361.5,33.6667 359.667,35.5 358.5,38C 357.207,38.49 355.873,38.6567 354.5,38.5C 355.167,42.5 353.5,44.1667 349.5,43.5C 349.657,44.8734 349.49,46.2068 349,47.5C 346.5,48.6667 344.667,50.5 343.5,53C 342.207,53.49 340.873,53.6567 339.5,53.5C 339.657,54.8734 339.49,56.2068 339,57.5C 335.5,61 332,64.5 328.5,68C 327.207,68.49 325.873,68.6567 324.5,68.5C 325.167,72.5 323.5,74.1667 319.5,73.5C 320.167,77.5 318.5,79.1667 314.5,78.5C 315.167,82.5 313.5,84.1667 309.5,83.5C 309.657,84.8734 309.49,86.2068 309,87.5C 306.5,88.6667 304.667,90.5 303.5,93C 302.207,93.49 300.873,93.6567 299.5,93.5C 299.657,94.8734 299.49,96.2068 299,97.5C 295.5,101 292,104.5 288.5,108C 287.207,108.49 285.873,108.657 284.5,108.5C 285.167,112.5 283.5,114.167 279.5,113.5C 279.943,117.529 278.109,119.529 274,119.5C 273.51,120.793 273.343,122.127 273.5,123.5C 272.609,122.89 271.609,122.557 270.5,122.5C 270.423,121.25 269.756,120.417 268.5,120C 223.167,119.333 177.833,119.333 132.5,120C 130.347,120.099 128.681,120.933 127.5,122.5C 126.791,123.404 125.791,123.737 124.5,123.5C 124.768,125.099 124.434,126.432 123.5,127.5C 123.649,126.448 123.483,125.448 123,124.5C 121.093,126.609 120.26,129.109 120.5,132C 121.78,176.444 121.78,220.944 120.5,265.5C 120.62,267.588 121.62,268.922 123.5,269.5C 123.833,269.5 124.167,269.5 124.5,269.5C 126.368,270.263 128.035,271.263 129.5,272.5C 126.68,272.248 124.014,272.748 121.5,274C 120.663,275.011 120.33,276.178 120.5,277.5C 117.152,278.012 114.819,279.845 113.5,283C 112.207,283.49 110.873,283.657 109.5,283.5C 109.657,284.873 109.49,286.207 109,287.5C 106.5,288.667 104.667,290.5 103.5,293C 102.207,293.49 100.873,293.657 99.5,293.5C 99.6567,294.873 99.49,296.207 99,297.5C 95.5,301 92,304.5 88.5,308C 87.2068,308.49 85.8734,308.657 84.5,308.5C 85.1667,312.5 83.5,314.167 79.5,313.5C 80.1667,317.5 78.5,319.167 74.5,318.5C 75.1667,322.5 73.5,324.167 69.5,323.5C 69.6567,324.873 69.49,326.207 69,327.5C 66.5,328.667 64.6667,330.5 63.5,333C 62.2068,333.49 60.8734,333.657 59.5,333.5C 59.6567,334.873 59.49,336.207 59,337.5C 55.5,341 52,344.5 48.5,348C 47.2068,348.49 45.8734,348.657 44.5,348.5C 45.1667,352.5 43.5,354.167 39.5,353.5C 40.1667,357.5 38.5,359.167 34.5,358.5C 34.6567,359.873 34.49,361.207 34,362.5C 31.5,363.667 29.6667,365.5 28.5,368C 27.2068,368.49 25.8734,368.657 24.5,368.5C 24.6567,369.873 24.49,371.207 24,372.5C 21.5,373.667 19.6667,375.5 18.5,378C 17.2068,378.49 15.8734,378.657 14.5,378.5C 14.6567,379.873 14.49,381.207 14,382.5C 11.6451,383.692 9.81179,385.359 8.5,387.5C 7.92783,385.745 7.0945,384.078 6,382.5C 5.83235,257.264 5.33235,132.097 4.5,7C 5.74332,5.84555 6.74332,4.51221 7.5,3C 9.90537,2.8516 12.2387,3.3516 14.5,4.5C 134.582,3.51333 254.915,3.18 375.5,3.5C 380.662,2.72367 384.996,4.057 388.5,7.5 Z"/></g>
<g><path style="opacity:1" fill="#c1c1c1" d="M 1.5,-0.5 C 2.16667,-0.5 2.83333,-0.5 3.5,-0.5C 3.16667,0.166667 2.83333,0.833333 2.5,1.5C 2.5,3.83333 2.5,6.16667 2.5,8.5C 2.5,136.833 2.5,265.167 2.5,393.5C 2.5,395.167 2.5,396.833 2.5,398.5C 1.83333,398.5 1.16667,398.5 0.5,398.5C 0.168518,265.43 0.501852,132.43 1.5,-0.5 Z"/></g>
<g><path style="opacity:1" fill="#737373" d="M 399.5,5.5 C 399.833,5.5 400.167,5.5 400.5,5.5C 400.5,136.5 400.5,267.5 400.5,398.5C 269.167,398.5 137.833,398.5 6.5,398.5C 6.5,398.167 6.5,397.833 6.5,397.5C 137.167,397.5 267.833,397.5 398.5,397.5C 399.5,267.001 399.833,136.334 399.5,5.5 Z"/></g>
<g><path style="opacity:1" fill="#a3a3a3" d="M 2.5,8.5 C 3.16843,134.373 3.8351,260.373 4.5,386.5C 3.65178,388.409 3.31845,390.409 3.5,392.5C 3.5,393.167 3.16667,393.5 2.5,393.5C 2.5,265.167 2.5,136.833 2.5,8.5 Z"/></g>
<g><path style="opacity:1" fill="#333333" d="M 398.5,6.5 C 398.5,135.5 398.5,264.5 398.5,393.5C 270.167,394.165 141.833,394.832 13.5,395.5C 12.7025,395.043 12.3691,394.376 12.5,393.5C 140.479,392.674 268.479,392.174 396.5,392C 394.021,388.122 391.021,387.955 387.5,391.5C 265.846,390.563 144.179,390.063 22.5,390C 21.8366,388.482 20.8366,387.315 19.5,386.5C 20.9193,384.785 22.2527,382.952 23.5,381C 24.448,380.517 25.448,380.351 26.5,380.5C 26.5,377.167 28.1667,375.5 31.5,375.5C 31.5,372.167 33.1667,370.5 36.5,370.5C 36.5,367.167 38.1667,365.5 41.5,365.5C 41.5,362.167 43.1667,360.5 46.5,360.5C 46.6702,357.324 48.3369,355.324 51.5,354.5C 52.0121,351.649 53.6787,350.316 56.5,350.5C 56.5,347.167 58.1667,345.5 61.5,345.5C 61.5,342.167 63.1667,340.5 66.5,340.5C 66.6702,337.324 68.3369,335.324 71.5,334.5C 72.0121,331.649 73.6787,330.316 76.5,330.5C 76.5,327.167 78.1667,325.5 81.5,325.5C 81.5,322.167 83.1667,320.5 86.5,320.5C 86.6702,317.324 88.3369,315.324 91.5,314.5C 92.0121,311.649 93.6787,310.316 96.5,310.5C 96.5,307.167 98.1667,305.5 101.5,305.5C 101.5,302.167 103.167,300.5 106.5,300.5C 106.67,297.324 108.337,295.324 111.5,294.5C 112.012,291.649 113.679,290.316 116.5,290.5C 116.5,287.167 118.167,285.5 121.5,285.5C 122.682,281.979 124.682,278.979 127.5,276.5C 127.5,277.167 127.5,277.833 127.5,278.5C 151.491,279.833 175.824,280.5 200.5,280.5C 224.833,280.333 249.167,280.167 273.5,280C 275.983,279.433 276.65,278.267 275.5,276.5C 275.833,275.833 276.167,275.167 276.5,274.5C 276.263,273.209 276.596,272.209 277.5,271.5C 277.281,275.527 278.448,276.194 281,273.5C 281.5,224.501 281.667,175.501 281.5,126.5C 280.5,126.5 279.5,126.5 278.5,126.5C 278.167,126.5 277.833,126.5 277.5,126.5C 277.5,126.167 277.5,125.833 277.5,125.5C 278.833,125.5 280.167,125.5 281.5,125.5C 281.5,122.167 283.167,120.5 286.5,120.5C 286.67,117.324 288.337,115.324 291.5,114.5C 292.012,111.649 293.679,110.316 296.5,110.5C 296.5,107.167 298.167,105.5 301.5,105.5C 301.5,102.167 303.167,100.5 306.5,100.5C 306.67,97.3241 308.337,95.3241 311.5,94.5C 312.012,91.6493 313.679,90.3159 316.5,90.5C 316.5,87.1667 318.167,85.5 321.5,85.5C 321.5,82.1667 323.167,80.5 326.5,80.5C 326.67,77.3241 328.337,75.3241 331.5,74.5C 332.012,71.6493 333.679,70.3159 336.5,70.5C 336.5,67.1667 338.167,65.5 341.5,65.5C 341.5,62.1667 343.167,60.5 346.5,60.5C 346.67,57.3241 348.337,55.3241 351.5,54.5C 352.012,51.6493 353.679,50.3159 356.5,50.5C 356.5,47.1667 358.167,45.5 361.5,45.5C 361.5,42.1667 363.167,40.5 366.5,40.5C 366.5,37.1667 368.167,35.5 371.5,35.5C 371.5,32.1667 373.167,30.5 376.5,30.5C 376.5,27.1667 378.167,25.5 381.5,25.5C 381.5,22.1667 383.167,20.5 386.5,20.5C 386.5,17.1667 388.167,15.5 391.5,15.5C 391.629,13.7839 391.962,12.1172 392.5,10.5C 393.978,10.762 395.311,10.4287 396.5,9.5C 396.942,8.26133 397.609,7.26133 398.5,6.5 Z"/></g>
<g><path style="opacity:1" fill="#414041" d="M 392.5,10.5 C 391.962,12.1172 391.629,13.7839 391.5,15.5C 388.167,15.5 386.5,17.1667 386.5,20.5C 383.167,20.5 381.5,22.1667 381.5,25.5C 378.167,25.5 376.5,27.1667 376.5,30.5C 373.167,30.5 371.5,32.1667 371.5,35.5C 368.167,35.5 366.5,37.1667 366.5,40.5C 363.167,40.5 361.5,42.1667 361.5,45.5C 358.167,45.5 356.5,47.1667 356.5,50.5C 353.679,50.3159 352.012,51.6493 351.5,54.5C 348.337,55.3241 346.67,57.3241 346.5,60.5C 343.167,60.5 341.5,62.1667 341.5,65.5C 338.167,65.5 336.5,67.1667 336.5,70.5C 333.679,70.3159 332.012,71.6493 331.5,74.5C 328.337,75.3241 326.67,77.3241 326.5,80.5C 323.167,80.5 321.5,82.1667 321.5,85.5C 318.167,85.5 316.5,87.1667 316.5,90.5C 313.679,90.3159 312.012,91.6493 311.5,94.5C 308.337,95.3241 306.67,97.3241 306.5,100.5C 303.167,100.5 301.5,102.167 301.5,105.5C 298.167,105.5 296.5,107.167 296.5,110.5C 293.679,110.316 292.012,111.649 291.5,114.5C 288.337,115.324 286.67,117.324 286.5,120.5C 283.167,120.5 281.5,122.167 281.5,125.5C 280.167,125.5 278.833,125.5 277.5,125.5C 277.5,124.833 277.5,124.167 277.5,123.5C 287.913,114.591 297.913,105.091 307.5,95C 308.448,94.5172 309.448,94.3505 310.5,94.5C 310.351,93.448 310.517,92.448 311,91.5C 323.167,79.3333 335.333,67.1667 347.5,55C 348.448,54.5172 349.448,54.3505 350.5,54.5C 350.351,53.448 350.517,52.448 351,51.5C 364.701,37.6314 378.535,23.9648 392.5,10.5 Z"/></g>
<g><path style="opacity:1" fill="#8d8d8d" d="M 400.5,1.5 C 400.5,2.83333 400.5,4.16667 400.5,5.5C 400.167,5.5 399.833,5.5 399.5,5.5C 399.934,2.83381 398.934,1.66714 396.5,2C 356.912,41.0886 317.578,80.2553 278.5,119.5C 276.876,119.36 275.71,120.027 275,121.5C 274.833,170.668 274.333,219.668 273.5,268.5C 273.5,221.167 273.5,173.833 273.5,126.5C 273.5,125.5 273.5,124.5 273.5,123.5C 273.343,122.127 273.51,120.793 274,119.5C 278.109,119.529 279.943,117.529 279.5,113.5C 283.5,114.167 285.167,112.5 284.5,108.5C 285.873,108.657 287.207,108.49 288.5,108C 292,104.5 295.5,101 299,97.5C 299.49,96.2068 299.657,94.8734 299.5,93.5C 300.873,93.6567 302.207,93.49 303.5,93C 304.667,90.5 306.5,88.6667 309,87.5C 309.49,86.2068 309.657,84.8734 309.5,83.5C 313.5,84.1667 315.167,82.5 314.5,78.5C 318.5,79.1667 320.167,77.5 319.5,73.5C 323.5,74.1667 325.167,72.5 324.5,68.5C 325.873,68.6567 327.207,68.49 328.5,68C 332,64.5 335.5,61 339,57.5C 339.49,56.2068 339.657,54.8734 339.5,53.5C 340.873,53.6567 342.207,53.49 343.5,53C 344.667,50.5 346.5,48.6667 349,47.5C 349.49,46.2068 349.657,44.8734 349.5,43.5C 353.5,44.1667 355.167,42.5 354.5,38.5C 355.873,38.6567 357.207,38.49 358.5,38C 359.667,35.5 361.5,33.6667 364,32.5C 364.49,31.2068 364.657,29.8734 364.5,28.5C 365.873,28.6567 367.207,28.49 368.5,28C 373,22.1667 378.167,17 384,12.5C 384.49,11.2068 384.657,9.87344 384.5,8.5C 386.099,8.76781 387.432,8.43448 388.5,7.5C 389.249,6.46905 389.915,5.30238 390.5,4C 392.32,3.79959 393.653,2.96626 394.5,1.5C 396.389,0.258442 398.389,0.258442 400.5,1.5 Z"/></g>
<g><path style="opacity:1" fill="#666666" d="M 399.5,5.5 C 399.833,136.334 399.5,267.001 398.5,397.5C 398.5,396.833 398.5,396.167 398.5,395.5C 398.5,394.833 398.5,394.167 398.5,393.5C 398.5,264.5 398.5,135.5 398.5,6.5C 398.5,5.83333 398.5,5.16667 398.5,4.5C 398.103,3.47498 397.437,3.30831 396.5,4C 356.632,43.7013 316.965,83.5346 277.5,123.5C 276.833,123.833 276.167,124.167 275.5,124.5C 275.75,122.326 276.75,120.659 278.5,119.5C 317.578,80.2553 356.912,41.0886 396.5,2C 398.934,1.66714 399.934,2.83381 399.5,5.5 Z"/></g>
<g><path style="opacity:1" fill="#565656" d="M 398.5,4.5 C 396.139,6.19388 394.139,8.19388 392.5,10.5C 378.535,23.9648 364.701,37.6314 351,51.5C 350.517,52.448 350.351,53.448 350.5,54.5C 349.448,54.3505 348.448,54.5172 347.5,55C 335.333,67.1667 323.167,79.3333 311,91.5C 310.517,92.448 310.351,93.448 310.5,94.5C 309.448,94.3505 308.448,94.5172 307.5,95C 297.913,105.091 287.913,114.591 277.5,123.5C 316.965,83.5346 356.632,43.7013 396.5,4C 397.437,3.30831 398.103,3.47498 398.5,4.5 Z"/></g>
<g><path style="opacity:1" fill="#424242" d="M 398.5,4.5 C 398.5,5.16667 398.5,5.83333 398.5,6.5C 397.609,7.26133 396.942,8.26133 396.5,9.5C 395.311,10.4287 393.978,10.762 392.5,10.5C 394.139,8.19388 396.139,6.19388 398.5,4.5 Z"/></g>
<g><path style="opacity:1" fill="#939393" d="M 270.5,122.5 C 222.833,122.5 175.167,122.5 127.5,122.5C 128.681,120.933 130.347,120.099 132.5,120C 177.833,119.333 223.167,119.333 268.5,120C 269.756,120.417 270.423,121.25 270.5,122.5 Z"/></g>
<g><path style="opacity:1" fill="#b1b1b0" d="M 271.5,125.5 C 270.833,125.5 270.167,125.5 269.5,125.5C 223.335,124.335 177.002,124.168 130.5,125C 128.249,125.748 126.916,127.248 126.5,129.5C 126.5,175.833 126.5,222.167 126.5,268.5C 125.501,222.67 125.168,176.67 125.5,130.5C 124.974,127.192 126.307,125.026 129.5,124C 176.5,123.333 223.5,123.333 270.5,124C 271.056,124.383 271.389,124.883 271.5,125.5 Z"/></g>
<g><path style="opacity:1" fill="#c0c0bf" d="M 269.5,125.5 C 269.5,125.833 269.5,126.167 269.5,126.5C 268.833,126.5 268.167,126.5 267.5,126.5C 222.167,126.5 176.833,126.5 131.5,126.5C 129.589,127.075 127.922,128.075 126.5,129.5C 126.916,127.248 128.249,125.748 130.5,125C 177.002,124.168 223.335,124.335 269.5,125.5 Z"/></g>
<g><path style="opacity:1" fill="#939393" d="M 123.5,127.5 C 123.5,174.833 123.5,222.167 123.5,269.5C 121.62,268.922 120.62,267.588 120.5,265.5C 121.78,220.944 121.78,176.444 120.5,132C 120.26,129.109 121.093,126.609 123,124.5C 123.483,125.448 123.649,126.448 123.5,127.5 Z"/></g>
<g><path style="opacity:1" fill="#292929" d="M 277.5,126.5 C 277.833,126.5 278.167,126.5 278.5,126.5C 279.652,173.805 279.819,221.138 279,268.5C 278.768,269.737 278.268,270.737 277.5,271.5C 277.5,223.167 277.5,174.833 277.5,126.5 Z"/></g>
<g><path style="opacity:1" fill="#2e2e2e" d="M 278.5,126.5 C 279.5,126.5 280.5,126.5 281.5,126.5C 281.667,175.501 281.5,224.501 281,273.5C 278.448,276.194 277.281,275.527 277.5,271.5C 278.268,270.737 278.768,269.737 279,268.5C 279.819,221.138 279.652,173.805 278.5,126.5 Z"/></g>
<g><path style="opacity:1" fill="#e0e0de" d="M 267.5,126.5 C 268.167,126.5 268.833,126.5 269.5,126.5C 269.5,127.833 269.5,129.167 269.5,130.5C 269.167,130.5 268.833,130.5 268.5,130.5C 268.5,130.167 268.5,129.833 268.5,129.5C 223.336,128.501 178.003,128.168 132.5,128.5C 177.5,127.833 222.5,127.167 267.5,126.5 Z"/></g>
<g><path style="opacity:1" fill="#626261" d="M 277.5,123.5 C 277.5,124.167 277.5,124.833 277.5,125.5C 276.833,173.833 276.167,222.167 275.5,270.5C 275.5,221.833 275.5,173.167 275.5,124.5C 276.167,124.167 276.833,123.833 277.5,123.5 Z"/></g>
<g><path style="opacity:1" fill="#e7e7e6" d="M 132.5,128.5 C 178.003,128.168 223.336,128.501 268.5,129.5C 222.761,129.172 177.095,129.505 131.5,130.5C 131.5,130.167 131.5,129.833 131.5,129.5C 131.5,128.833 131.833,128.5 132.5,128.5 Z"/></g>
<g><path style="opacity:1" fill="#9f9e9e" d="M 127.5,122.5 C 175.167,122.5 222.833,122.5 270.5,122.5C 271.609,122.557 272.609,122.89 273.5,123.5C 273.5,124.5 273.5,125.5 273.5,126.5C 272.833,126.167 272.167,125.833 271.5,125.5C 271.389,124.883 271.056,124.383 270.5,124C 223.5,123.333 176.5,123.333 129.5,124C 126.307,125.026 124.974,127.192 125.5,130.5C 124.501,176.664 124.168,222.997 124.5,269.5C 124.167,269.5 123.833,269.5 123.5,269.5C 123.5,222.167 123.5,174.833 123.5,127.5C 124.434,126.432 124.768,125.099 124.5,123.5C 125.791,123.737 126.791,123.404 127.5,122.5 Z"/></g>
<g><path style="opacity:1" fill="#7e7d7d" d="M 278.5,119.5 C 276.75,120.659 275.75,122.326 275.5,124.5C 275.5,173.167 275.5,221.833 275.5,270.5C 274.684,272.144 273.35,273.31 271.5,274C 222.834,274.5 174.168,274.667 125.5,274.5C 173.5,273.833 221.5,273.167 269.5,272.5C 271.833,272.167 273.167,270.833 273.5,268.5C 274.333,219.668 274.833,170.668 275,121.5C 275.71,120.027 276.876,119.36 278.5,119.5 Z"/></g>
<g><path style="opacity:1" fill="#454545" d="M 277.5,125.5 C 277.5,125.833 277.5,126.167 277.5,126.5C 277.5,174.833 277.5,223.167 277.5,271.5C 276.596,272.209 276.263,273.209 276.5,274.5C 275.833,274.5 275.167,274.5 274.5,274.5C 275.234,273.292 275.567,271.959 275.5,270.5C 276.167,222.167 276.833,173.833 277.5,125.5 Z"/></g>
<g><path style="opacity:1" fill="#c5c4c3" d="M 131.5,126.5 C 130.542,127.962 129.376,129.295 128,130.5C 127.333,176.167 127.333,221.833 128,267.5C 128.383,268.056 128.883,268.389 129.5,268.5C 129.833,269.167 130.167,269.833 130.5,270.5C 128.938,270.267 127.605,269.6 126.5,268.5C 126.5,222.167 126.5,175.833 126.5,129.5C 127.922,128.075 129.589,127.075 131.5,126.5 Z"/></g>
<g><path style="opacity:1" fill="#e3e3e2" d="M 131.5,129.5 C 131.5,129.833 131.5,130.167 131.5,130.5C 130.505,176.095 130.172,221.761 130.5,267.5C 129.335,222.002 129.168,176.335 130,130.5C 130.383,129.944 130.883,129.611 131.5,129.5 Z"/></g>
<g><path style="opacity:1" fill="#f2f3f2" d="M 268.5,129.5 C 268.5,129.833 268.5,130.167 268.5,130.5C 268.5,130.833 268.5,131.167 268.5,131.5C 223.167,131.5 177.833,131.5 132.5,131.5C 132.5,176.833 132.5,222.167 132.5,267.5C 131.833,267.5 131.167,267.5 130.5,267.5C 130.172,221.761 130.505,176.095 131.5,130.5C 177.095,129.505 222.761,129.172 268.5,129.5 Z"/></g>
<g><path style="opacity:1" fill="#fdfdfd" d="M 268.5,131.5 C 268.5,176.833 268.5,222.167 268.5,267.5C 223.167,267.5 177.833,267.5 132.5,267.5C 132.5,222.167 132.5,176.833 132.5,131.5C 177.833,131.5 223.167,131.5 268.5,131.5 Z"/></g>
<g><path style="opacity:1" fill="#d6d5d5" d="M 269.5,126.5 C 270.674,127.514 271.34,128.847 271.5,130.5C 271.832,176.336 271.499,222.003 270.5,267.5C 270.832,221.664 270.499,175.997 269.5,130.5C 269.5,129.167 269.5,127.833 269.5,126.5 Z"/></g>
<g><path style="opacity:1" fill="#e4b4b3" d="M 145.5,139.5 C 145.5,139.167 145.5,138.833 145.5,138.5C 183.167,138.5 220.833,138.5 258.5,138.5C 260.027,138.427 261.027,139.094 261.5,140.5C 261.5,140.833 261.5,141.167 261.5,141.5C 260.609,140.89 259.609,140.557 258.5,140.5C 221.004,139.502 183.337,139.168 145.5,139.5 Z"/></g>
<g><path style="opacity:1" fill="#d88d8c" d="M 145.5,139.5 C 183.337,139.168 221.004,139.502 258.5,140.5C 220.124,140.173 181.79,140.506 143.5,141.5C 142.5,180.161 142.167,218.828 142.5,257.5C 142.167,257.5 141.833,257.5 141.5,257.5C 140.335,219.002 140.169,180.336 141,141.5C 142.11,139.963 143.61,139.297 145.5,139.5 Z"/></g>
<g><path style="opacity:1" fill="#bcbbba" d="M 269.5,126.5 C 269.5,126.167 269.5,125.833 269.5,125.5C 270.167,125.5 270.833,125.5 271.5,125.5C 272.167,125.833 272.833,126.167 273.5,126.5C 273.5,173.833 273.5,221.167 273.5,268.5C 273.167,268.5 272.833,268.5 272.5,268.5C 272.832,222.33 272.499,176.33 271.5,130.5C 271.34,128.847 270.674,127.514 269.5,126.5 Z"/></g>
<g><path style="opacity:1" fill="#f1dcdb" d="M 258.5,137.5 C 258.5,137.833 258.5,138.167 258.5,138.5C 220.833,138.5 183.167,138.5 145.5,138.5C 143.278,138.178 141.444,138.845 140,140.5C 139.5,179.499 139.333,218.499 139.5,257.5C 139.167,257.5 138.833,257.5 138.5,257.5C 138.5,217.5 138.5,177.5 138.5,137.5C 178.5,137.5 218.5,137.5 258.5,137.5 Z"/></g>
<g><path style="opacity:1" fill="#f8f4f1" d="M 262.5,141.5 C 263.268,142.263 263.768,143.263 264,144.5C 264.667,180.833 264.667,217.167 264,253.5C 263.768,254.737 263.268,255.737 262.5,256.5C 262.5,218.167 262.5,179.833 262.5,141.5 Z"/></g>
<g><path style="opacity:1" fill="#d7d7d6" d="M 131.5,126.5 C 176.833,126.5 222.167,126.5 267.5,126.5C 222.5,127.167 177.5,127.833 132.5,128.5C 131.833,128.5 131.5,128.833 131.5,129.5C 130.883,129.611 130.383,129.944 130,130.5C 129.168,176.335 129.335,222.002 130.5,267.5C 130.5,267.833 130.5,268.167 130.5,268.5C 130.167,268.5 129.833,268.5 129.5,268.5C 128.883,268.389 128.383,268.056 128,267.5C 127.333,221.833 127.333,176.167 128,130.5C 129.376,129.295 130.542,127.962 131.5,126.5 Z"/></g>
<g><path style="opacity:1" fill="#c34b49" d="M 258.5,141.5 C 258.5,143.167 258.5,144.833 258.5,146.5C 258.167,146.5 257.833,146.5 257.5,146.5C 257.047,145.542 256.381,144.708 255.5,144C 219.459,143.641 183.459,143.307 147.5,143C 145.859,144.129 144.859,145.629 144.5,147.5C 144.5,182.833 144.5,218.167 144.5,253.5C 143.336,217.336 143.169,181.002 144,144.5C 144.833,143.667 145.667,142.833 146.5,142C 183.832,141.5 221.165,141.333 258.5,141.5 Z"/></g>
<g><path style="opacity:1" fill="#bc3435" d="M 255.5,146.5 C 256.167,146.5 256.833,146.5 257.5,146.5C 256.838,148.47 256.172,150.47 255.5,152.5C 256.833,183.833 256.833,215.167 255.5,246.5C 256.172,248.53 256.838,250.53 257.5,252.5C 256.833,252.5 256.167,252.5 255.5,252.5C 254.167,217.167 254.167,181.833 255.5,146.5 Z"/></g>
<g><path style="opacity:1" fill="#d58684" d="M 259.5,143.5 C 260.499,181.33 260.832,219.33 260.5,257.5C 259.833,257.5 259.167,257.5 258.5,257.5C 259.476,219.524 259.809,181.524 259.5,143.5 Z"/></g>
<g><path style="opacity:1" fill="#bd3839" d="M 257.5,146.5 C 256.833,146.5 256.167,146.5 255.5,146.5C 255.038,145.12 254.038,144.453 252.5,144.5C 217.469,145.659 182.469,145.826 147.5,145C 146.504,181.094 146.17,217.26 146.5,253.5C 145.833,218.167 145.167,182.833 144.5,147.5C 144.859,145.629 145.859,144.129 147.5,143C 183.459,143.307 219.459,143.641 255.5,144C 256.381,144.708 257.047,145.542 257.5,146.5 Z"/></g>
<g><path style="opacity:1" fill="#bf3e3d" d="M 257.5,146.5 C 257.833,146.5 258.167,146.5 258.5,146.5C 258.832,182.004 258.498,217.337 257.5,252.5C 256.838,250.53 256.172,248.53 255.5,246.5C 256.833,215.167 256.833,183.833 255.5,152.5C 256.172,150.47 256.838,148.47 257.5,146.5 Z"/></g>
<g><path style="opacity:1" fill="#c04343" d="M 144.5,147.5 C 145.167,182.833 145.833,218.167 146.5,253.5C 146.5,254.167 146.5,254.833 146.5,255.5C 145.167,255.5 144.5,254.833 144.5,253.5C 144.5,218.167 144.5,182.833 144.5,147.5 Z"/></g>
<g><path style="opacity:1" fill="#ca6461" d="M 258.5,140.5 C 258.5,140.833 258.5,141.167 258.5,141.5C 221.165,141.333 183.832,141.5 146.5,142C 145.667,142.833 144.833,143.667 144,144.5C 143.169,181.002 143.336,217.336 144.5,253.5C 144.5,254.833 145.167,255.5 146.5,255.5C 183.485,257.494 220.818,258.16 258.5,257.5C 220.67,258.499 182.67,258.832 144.5,258.5C 143.508,258.672 142.842,258.338 142.5,257.5C 142.167,218.828 142.5,180.161 143.5,141.5C 181.79,140.506 220.124,140.173 258.5,140.5 Z"/></g>
<g><path style="opacity:1" fill="#e0aba9" d="M 258.5,141.5 C 258.5,141.167 258.5,140.833 258.5,140.5C 259.609,140.557 260.609,140.89 261.5,141.5C 261.5,180.167 261.5,218.833 261.5,257.5C 261.167,257.5 260.833,257.5 260.5,257.5C 260.832,219.33 260.499,181.33 259.5,143.5C 259.672,142.508 259.338,141.842 258.5,141.5 Z"/></g>
<g><path style="opacity:1" fill="#e7bdbb" d="M 145.5,138.5 C 145.5,138.833 145.5,139.167 145.5,139.5C 143.61,139.297 142.11,139.963 141,141.5C 140.169,180.336 140.335,219.002 141.5,257.5C 141.5,258.167 141.5,258.833 141.5,259.5C 140.833,259.167 140.167,258.833 139.5,258.5C 139.5,258.167 139.5,257.833 139.5,257.5C 139.333,218.499 139.5,179.499 140,140.5C 141.444,138.845 143.278,138.178 145.5,138.5 Z"/></g>
<g><path style="opacity:1" fill="#ba2f30" d="M 255.5,146.5 C 254.167,181.833 254.167,217.167 255.5,252.5C 255.389,253.117 255.056,253.617 254.5,254C 218.429,254.826 182.429,254.659 146.5,253.5C 146.17,217.26 146.504,181.094 147.5,145C 182.469,145.826 217.469,145.659 252.5,144.5C 254.038,144.453 255.038,145.12 255.5,146.5 Z"/></g>
<g><path style="opacity:1" fill="#b8282a" d="M 147.5,146.5 C 183.167,146.5 218.833,146.5 254.5,146.5C 253.167,181.833 253.167,217.167 254.5,252.5C 218.833,252.5 183.167,252.5 147.5,252.5C 147.5,217.167 147.5,181.833 147.5,146.5 Z"/></g>
<g><path style="opacity:1" fill="#b92d2f" d="M 152.5,148.5 C 184.428,149.326 216.428,149.826 248.5,150C 249.416,150.374 250.25,150.874 251,151.5C 249.871,167.357 249.371,183.357 249.5,199.5C 249.667,213.833 249.833,228.167 250,242.5C 251.505,244.298 251.672,246.132 250.5,248C 218.014,249.156 185.514,249.989 153,250.5C 152.692,249.692 152.192,249.025 151.5,248.5C 151.167,232.167 150.833,215.833 150.5,199.5C 150.528,182.349 151.195,165.349 152.5,148.5 Z"/></g>
<g><path style="opacity:1" fill="#bf3f3e" d="M 255.5,252.5 C 256.167,252.5 256.833,252.5 257.5,252.5C 256.71,253.794 255.71,254.961 254.5,256C 218.429,256.826 182.429,256.659 146.5,255.5C 146.5,254.833 146.5,254.167 146.5,253.5C 182.429,254.659 218.429,254.826 254.5,254C 255.056,253.617 255.389,253.117 255.5,252.5 Z"/></g>
<g><path style="opacity:1" fill="#c55452" d="M 258.5,141.5 C 259.338,141.842 259.672,142.508 259.5,143.5C 259.809,181.524 259.476,219.524 258.5,257.5C 220.818,258.16 183.485,257.494 146.5,255.5C 182.429,256.659 218.429,256.826 254.5,256C 255.71,254.961 256.71,253.794 257.5,252.5C 258.498,217.337 258.832,182.004 258.5,146.5C 258.5,144.833 258.5,143.167 258.5,141.5 Z"/></g>
<g><path style="opacity:1" fill="#eed5d2" d="M 261.5,140.5 C 262.167,140.5 262.5,140.833 262.5,141.5C 262.5,179.833 262.5,218.167 262.5,256.5C 262.714,258.144 262.38,259.644 261.5,261C 221.167,261.667 180.833,261.667 140.5,261C 139.748,260.329 139.414,259.496 139.5,258.5C 140.167,258.833 140.833,259.167 141.5,259.5C 180.33,260.499 219.33,260.832 258.5,260.5C 260.5,260.5 261.5,259.5 261.5,257.5C 261.5,218.833 261.5,180.167 261.5,141.5C 261.5,141.167 261.5,140.833 261.5,140.5 Z"/></g>
<g><path style="opacity:1" fill="#fbf9f7" d="M 258.5,138.5 C 258.5,138.167 258.5,137.833 258.5,137.5C 263.388,136.616 265.888,138.616 266,143.5C 266.667,180.5 266.667,217.5 266,254.5C 265.308,257.936 264.308,261.27 263,264.5C 261.333,263.833 259.667,263.167 258,262.5C 218.654,263.463 179.154,263.796 139.5,263.5C 138.263,263.444 137.263,262.944 136.5,262C 138.107,260.951 138.773,259.451 138.5,257.5C 138.833,257.5 139.167,257.5 139.5,257.5C 139.5,257.833 139.5,258.167 139.5,258.5C 139.414,259.496 139.748,260.329 140.5,261C 180.833,261.667 221.167,261.667 261.5,261C 262.38,259.644 262.714,258.144 262.5,256.5C 263.268,255.737 263.768,254.737 264,253.5C 264.667,217.167 264.667,180.833 264,144.5C 263.768,143.263 263.268,142.263 262.5,141.5C 262.5,140.833 262.167,140.5 261.5,140.5C 261.027,139.094 260.027,138.427 258.5,138.5 Z"/></g>
<g><path style="opacity:1" fill="#ebcecb" d="M 260.5,257.5 C 260.833,257.5 261.167,257.5 261.5,257.5C 261.5,259.5 260.5,260.5 258.5,260.5C 258.5,260.167 258.5,259.833 258.5,259.5C 259.5,259.167 260.167,258.5 260.5,257.5 Z"/></g>
<g><path style="opacity:1" fill="#d8908e" d="M 258.5,257.5 C 259.167,257.5 259.833,257.5 260.5,257.5C 260.167,258.5 259.5,259.167 258.5,259.5C 220.33,259.832 182.33,259.499 144.5,258.5C 182.67,258.832 220.67,258.499 258.5,257.5 Z"/></g>
<g><path style="opacity:1" fill="#e2aeab" d="M 141.5,257.5 C 141.833,257.5 142.167,257.5 142.5,257.5C 142.842,258.338 143.508,258.672 144.5,258.5C 182.33,259.499 220.33,259.832 258.5,259.5C 258.5,259.833 258.5,260.167 258.5,260.5C 219.33,260.832 180.33,260.499 141.5,259.5C 141.5,258.833 141.5,258.167 141.5,257.5 Z"/></g>
<g><path style="opacity:1" fill="#edecec" d="M 268.5,130.5 C 268.833,130.5 269.167,130.5 269.5,130.5C 270.499,175.997 270.832,221.664 270.5,267.5C 269.833,267.833 269.167,268.167 268.5,268.5C 222.997,268.832 177.664,268.499 132.5,267.5C 177.833,267.5 223.167,267.5 268.5,267.5C 268.5,222.167 268.5,176.833 268.5,131.5C 268.5,131.167 268.5,130.833 268.5,130.5 Z"/></g>
<g><path style="opacity:1" fill="#dfdfdf" d="M 130.5,268.5 C 130.5,268.167 130.5,267.833 130.5,267.5C 131.167,267.5 131.833,267.5 132.5,267.5C 177.664,268.499 222.997,268.832 268.5,268.5C 222.598,269.83 176.598,269.83 130.5,268.5 Z"/></g>
<g><path style="opacity:1" fill="#cdcccc" d="M 271.5,130.5 C 272.499,176.33 272.832,222.33 272.5,268.5C 271.244,268.461 270.244,268.961 269.5,270C 223.501,270.5 177.501,270.667 131.5,270.5C 131.167,270.5 130.833,270.5 130.5,270.5C 130.167,269.833 129.833,269.167 129.5,268.5C 129.833,268.5 130.167,268.5 130.5,268.5C 176.598,269.83 222.598,269.83 268.5,268.5C 269.167,268.167 269.833,267.833 270.5,267.5C 271.499,222.003 271.832,176.336 271.5,130.5 Z"/></g>
<g><path style="opacity:1" fill="#adadad" d="M 125.5,130.5 C 125.168,176.67 125.501,222.67 126.5,268.5C 127.605,269.6 128.938,270.267 130.5,270.5C 130.833,270.5 131.167,270.5 131.5,270.5C 177.665,271.665 223.998,271.832 270.5,271C 271.381,270.292 272.047,269.458 272.5,268.5C 272.833,268.5 273.167,268.5 273.5,268.5C 273.167,270.833 271.833,272.167 269.5,272.5C 222.833,272.5 176.167,272.5 129.5,272.5C 128.035,271.263 126.368,270.263 124.5,269.5C 124.168,222.997 124.501,176.664 125.5,130.5 Z"/></g>
<g><path style="opacity:1" fill="#bebebe" d="M 272.5,268.5 C 272.047,269.458 271.381,270.292 270.5,271C 223.998,271.832 177.665,271.665 131.5,270.5C 177.501,270.667 223.501,270.5 269.5,270C 270.244,268.961 271.244,268.461 272.5,268.5 Z"/></g>
<g><path style="opacity:1" fill="#5c5c5c" d="M 275.5,270.5 C 275.567,271.959 275.234,273.292 274.5,274.5C 224.904,275.329 175.237,275.829 125.5,276C 124.944,276.383 124.611,276.883 124.5,277.5C 124.167,277.5 123.833,277.5 123.5,277.5C 123.557,276.391 123.89,275.391 124.5,274.5C 124.833,274.5 125.167,274.5 125.5,274.5C 174.168,274.667 222.834,274.5 271.5,274C 273.35,273.31 274.684,272.144 275.5,270.5 Z"/></g>
<g><path style="opacity:1" fill="#8d8d8c" d="M 129.5,272.5 C 176.167,272.5 222.833,272.5 269.5,272.5C 221.5,273.167 173.5,273.833 125.5,274.5C 125.167,274.5 124.833,274.5 124.5,274.5C 122.57,274.771 121.236,275.771 120.5,277.5C 120.33,276.178 120.663,275.011 121.5,274C 124.014,272.748 126.68,272.248 129.5,272.5 Z"/></g>
<g><path style="opacity:1" fill="#414040" d="M 274.5,274.5 C 275.167,274.5 275.833,274.5 276.5,274.5C 276.167,275.167 275.833,275.833 275.5,276.5C 274.833,276.5 274.167,276.5 273.5,276.5C 224.833,276.5 176.167,276.5 127.5,276.5C 124.682,278.979 122.682,281.979 121.5,285.5C 118.167,285.5 116.5,287.167 116.5,290.5C 113.679,290.316 112.012,291.649 111.5,294.5C 108.337,295.324 106.67,297.324 106.5,300.5C 103.167,300.5 101.5,302.167 101.5,305.5C 98.1667,305.5 96.5,307.167 96.5,310.5C 93.6787,310.316 92.0121,311.649 91.5,314.5C 88.3369,315.324 86.6702,317.324 86.5,320.5C 83.1667,320.5 81.5,322.167 81.5,325.5C 78.1667,325.5 76.5,327.167 76.5,330.5C 73.6787,330.316 72.0121,331.649 71.5,334.5C 68.3369,335.324 66.6702,337.324 66.5,340.5C 63.1667,340.5 61.5,342.167 61.5,345.5C 58.1667,345.5 56.5,347.167 56.5,350.5C 53.6787,350.316 52.0121,351.649 51.5,354.5C 48.3369,355.324 46.6702,357.324 46.5,360.5C 43.1667,360.5 41.5,362.167 41.5,365.5C 38.1667,365.5 36.5,367.167 36.5,370.5C 33.1667,370.5 31.5,372.167 31.5,375.5C 28.1667,375.5 26.5,377.167 26.5,380.5C 25.448,380.351 24.448,380.517 23.5,381C 22.2527,382.952 20.9193,384.785 19.5,386.5C 18.5084,386.328 17.8417,386.662 17.5,387.5C 16.3406,389.25 14.674,390.25 12.5,390.5C 30.6316,371.868 48.9649,353.368 67.5,335C 68.448,334.517 69.448,334.351 70.5,334.5C 70.3505,333.448 70.5172,332.448 71,331.5C 83.1667,319.333 95.3333,307.167 107.5,295C 108.448,294.517 109.448,294.351 110.5,294.5C 110.351,293.448 110.517,292.448 111,291.5C 115.703,286.965 120.203,282.298 124.5,277.5C 124.611,276.883 124.944,276.383 125.5,276C 175.237,275.829 224.904,275.329 274.5,274.5 Z"/></g>
<g><path style="opacity:1" fill="#272727" d="M 127.5,276.5 C 176.167,276.5 224.833,276.5 273.5,276.5C 272.042,278.011 270.209,279.011 268,279.5C 221.239,278.503 174.405,278.17 127.5,278.5C 127.5,277.833 127.5,277.167 127.5,276.5 Z"/></g>
<g><path style="opacity:1" fill="#2e2e2e" d="M 273.5,276.5 C 274.167,276.5 274.833,276.5 275.5,276.5C 276.65,278.267 275.983,279.433 273.5,280C 249.167,280.167 224.833,280.333 200.5,280.5C 175.824,280.5 151.491,279.833 127.5,278.5C 174.405,278.17 221.239,278.503 268,279.5C 270.209,279.011 272.042,278.011 273.5,276.5 Z"/></g>
<g><path style="opacity:1" fill="#6f6f6f" d="M 124.5,274.5 C 123.89,275.391 123.557,276.391 123.5,277.5C 104.727,295.44 86.3941,313.94 68.5,333C 47.9644,353.037 27.2978,372.87 6.5,392.5C 44.4789,354.188 82.4789,315.854 120.5,277.5C 121.236,275.771 122.57,274.771 124.5,274.5 Z"/></g>
<g><path style="opacity:1" fill="#575757" d="M 123.5,277.5 C 123.833,277.5 124.167,277.5 124.5,277.5C 120.203,282.298 115.703,286.965 111,291.5C 110.517,292.448 110.351,293.448 110.5,294.5C 109.448,294.351 108.448,294.517 107.5,295C 95.3333,307.167 83.1667,319.333 71,331.5C 70.5172,332.448 70.3505,333.448 70.5,334.5C 69.448,334.351 68.448,334.517 67.5,335C 48.9649,353.368 30.6316,371.868 12.5,390.5C 11.8333,390.5 11.5,390.833 11.5,391.5C 8.43837,392.268 6.77171,394.268 6.5,397.5C 5.76109,397.631 5.09442,397.464 4.5,397C 5.58218,395.67 6.24885,394.17 6.5,392.5C 27.2978,372.87 47.9644,353.037 68.5,333C 86.3941,313.94 104.727,295.44 123.5,277.5 Z"/></g>
<g><path style="opacity:1" fill="#888888" d="M 120.5,277.5 C 82.4789,315.854 44.4789,354.188 6.5,392.5C 6.24885,394.17 5.58218,395.67 4.5,397C 5.09442,397.464 5.76109,397.631 6.5,397.5C 6.5,397.833 6.5,398.167 6.5,398.5C 5.16667,398.5 3.83333,398.5 2.5,398.5C 2.5,396.833 2.5,395.167 2.5,393.5C 3.16667,393.5 3.5,393.167 3.5,392.5C 4.83333,390.5 6.5,388.833 8.5,387.5C 9.81179,385.359 11.6451,383.692 14,382.5C 14.49,381.207 14.6567,379.873 14.5,378.5C 15.8734,378.657 17.2068,378.49 18.5,378C 19.6667,375.5 21.5,373.667 24,372.5C 24.49,371.207 24.6567,369.873 24.5,368.5C 25.8734,368.657 27.2068,368.49 28.5,368C 29.6667,365.5 31.5,363.667 34,362.5C 34.49,361.207 34.6567,359.873 34.5,358.5C 38.5,359.167 40.1667,357.5 39.5,353.5C 43.5,354.167 45.1667,352.5 44.5,348.5C 45.8734,348.657 47.2068,348.49 48.5,348C 52,344.5 55.5,341 59,337.5C 59.49,336.207 59.6567,334.873 59.5,333.5C 60.8734,333.657 62.2068,333.49 63.5,333C 64.6667,330.5 66.5,328.667 69,327.5C 69.49,326.207 69.6567,324.873 69.5,323.5C 73.5,324.167 75.1667,322.5 74.5,318.5C 78.5,319.167 80.1667,317.5 79.5,313.5C 83.5,314.167 85.1667,312.5 84.5,308.5C 85.8734,308.657 87.2068,308.49 88.5,308C 92,304.5 95.5,301 99,297.5C 99.49,296.207 99.6567,294.873 99.5,293.5C 100.873,293.657 102.207,293.49 103.5,293C 104.667,290.5 106.5,288.667 109,287.5C 109.49,286.207 109.657,284.873 109.5,283.5C 110.873,283.657 112.207,283.49 113.5,283C 114.819,279.845 117.152,278.012 120.5,277.5 Z"/></g>
<g><path style="opacity:1" fill="#303030" d="M 19.5,386.5 C 20.8366,387.315 21.8366,388.482 22.5,390C 144.179,390.063 265.846,390.563 387.5,391.5C 391.021,387.955 394.021,388.122 396.5,392C 268.479,392.174 140.479,392.674 12.5,393.5C 13.4737,391.915 14.9737,390.915 17,390.5C 17.4828,389.552 17.6495,388.552 17.5,387.5C 17.8417,386.662 18.5084,386.328 19.5,386.5 Z"/></g>
<g><path style="opacity:1" fill="#3b3b3b" d="M 17.5,387.5 C 17.6495,388.552 17.4828,389.552 17,390.5C 14.9737,390.915 13.4737,391.915 12.5,393.5C 12.3691,394.376 12.7025,395.043 13.5,395.5C 141.833,394.832 270.167,394.165 398.5,393.5C 398.5,394.167 398.5,394.833 398.5,395.5C 269.528,396.495 140.528,396.828 11.5,396.5C 11.5,394.833 11.5,393.167 11.5,391.5C 11.5,390.833 11.8333,390.5 12.5,390.5C 14.674,390.25 16.3406,389.25 17.5,387.5 Z"/></g>
<g><path style="opacity:1" fill="#404040" d="M 11.5,391.5 C 11.5,393.167 11.5,394.833 11.5,396.5C 140.528,396.828 269.528,396.495 398.5,395.5C 398.5,396.167 398.5,396.833 398.5,397.5C 267.833,397.5 137.167,397.5 6.5,397.5C 6.77171,394.268 8.43837,392.268 11.5,391.5 Z"/></g>
</svg>
