<?xml version="1.0" encoding="UTF-8"?>
<!DOCTYPE svg PUBLIC "-//W3C//DTD SVG 1.1//EN" "http://www.w3.org/Graphics/SVG/1.1/DTD/svg11.dtd">
<svg xmlns="http://www.w3.org/2000/svg" version="1.1" width="96px" height="96px" style="shape-rendering:geometricPrecision; text-rendering:geometricPrecision; image-rendering:optimizeQuality; fill-rule:evenodd; clip-rule:evenodd" xmlns:xlink="http://www.w3.org/1999/xlink">
<g><path style="opacity:0.939" fill="#fefffe" d="M 41.5,-0.5 C 45.1667,-0.5 48.8333,-0.5 52.5,-0.5C 66.806,14.1399 81.1393,28.8066 95.5,43.5C 95.5,46.1667 95.5,48.8333 95.5,51.5C 92.8619,53.824 89.8619,55.6574 86.5,57C 80.1561,59.1134 73.9895,61.6134 68,64.5C 67.3333,65.1667 67.3333,65.8333 68,66.5C 70.6855,67.6759 73.0188,69.3425 75,71.5C 75.5356,73.5672 75.0356,75.4006 73.5,77C 67.4122,78.5422 62.0789,81.3756 57.5,85.5C 59.1667,86.5 60.5,87.8333 61.5,89.5C 59.1612,91.9958 56.4945,93.9958 53.5,95.5C 49.8333,95.5 46.1667,95.5 42.5,95.5C 41.5088,93.5177 40.5088,91.5177 39.5,89.5C 36.3802,88.1054 33.2135,86.7721 30,85.5C 29.464,81.8954 30.6307,78.8954 33.5,76.5C 33.2907,75.914 32.9574,75.414 32.5,75C 26.1667,72.6667 19.8333,70.3333 13.5,68C 10.9613,66.9008 10.2946,65.2342 11.5,63C 14.6612,61.5869 17.6612,59.9203 20.5,58C 13.3636,55.3097 6.36356,52.4763 -0.5,49.5C -0.5,47.5 -0.5,45.5 -0.5,43.5C 13.1629,28.504 27.1629,13.8373 41.5,-0.5 Z M 44.5,3.5 C 46.9892,3.29777 49.3225,3.79777 51.5,5C 56.6667,10.1667 61.8333,15.3333 67,20.5C 67.6667,21.5 67.6667,22.5 67,23.5C 61.7992,16.345 59.2992,17.0117 59.5,25.5C 57.323,25.4139 55.323,24.7472 53.5,23.5C 50.8333,25.1667 48.1667,26.8333 45.5,28.5C 44.914,28.2907 44.414,27.9574 44,27.5C 43.3711,23.9937 42.3711,20.6604 41,17.5C 38.788,20.8037 36.9546,24.3037 35.5,28C 31.0284,28.7328 26.6951,28.2328 22.5,26.5C 29.181,18.1536 36.5143,10.487 44.5,3.5 Z"/></g>
<g><path style="opacity:0.752" fill="#fefffe" d="M 83.5,68.5 C 86.3198,68.2475 88.9865,68.7475 91.5,70C 93.2112,71.1332 93.7112,72.6332 93,74.5C 88.9215,75.6295 84.7548,75.7961 80.5,75C 79.4829,73.9505 79.3162,72.7839 80,71.5C 81.1451,70.3636 82.3117,69.3636 83.5,68.5 Z"/></g>
<g><path style="opacity:0.759" fill="#fefffe" d="M 22.5,76.5 C 29.1366,75.2818 30.8033,77.4485 27.5,83C 24.9117,84.6863 22.2451,84.8529 19.5,83.5C 18.1667,81.8333 18.1667,80.1667 19.5,78.5C 20.7387,78.0576 21.7387,77.3909 22.5,76.5 Z"/></g>
<g><path style="opacity:0.669" fill="#fefffe" d="M 77.5,76.5 C 81.7801,76.9489 83.4468,79.1155 82.5,83C 76.283,83.9693 74.6163,81.8027 77.5,76.5 Z"/></g>
</svg>
