<?xml version="1.0" encoding="UTF-8"?>
<!DOCTYPE svg PUBLIC "-//W3C//DTD SVG 1.1//EN" "http://www.w3.org/Graphics/SVG/1.1/DTD/svg11.dtd">
<svg xmlns="http://www.w3.org/2000/svg" version="1.1" width="460px" height="460px" style="shape-rendering:geometricPrecision; text-rendering:geometricPrecision; image-rendering:optimizeQuality; fill-rule:evenodd; clip-rule:evenodd" xmlns:xlink="http://www.w3.org/1999/xlink">
<g><path style="opacity:0.975" fill="#fff" d="M 250.5,118.5 C 270.885,114.665 286.051,121.665 296,139.5C 297.625,144.712 298.625,150.045 299,155.5C 306.924,149.454 314.757,143.287 322.5,137C 326.464,136.019 329.797,134.019 332.5,131C 341.958,126.405 351.625,122.405 361.5,119C 383.287,113.801 399.787,120.634 411,139.5C 412.963,149.829 412.963,160.162 411,170.5C 405.602,183.055 399.269,195.055 392,206.5C 383.667,218.833 375.333,231.167 367,243.5C 364.167,246.333 361.333,249.167 358.5,252C 343.25,255.753 338.083,250.253 343,235.5C 349.831,223.166 357.165,211.166 365,199.5C 370.727,190.043 375.394,180.043 379,169.5C 382.307,154.699 376.473,149.199 361.5,153C 358.911,154.197 356.244,155.197 353.5,156C 336.201,168.287 320.367,182.454 306,198.5C 281.994,226.163 259.66,255.163 239,285.5C 235.336,290.175 230.836,293.675 225.5,296C 217.147,297.667 211.813,294.333 209.5,286C 210.078,284.189 210.578,282.355 211,280.5C 223.987,259.199 236.987,237.866 250,216.5C 256.573,203.789 262.573,190.789 268,177.5C 272.862,156.37 264.695,148.87 243.5,155C 234.386,160.128 225.72,165.794 217.5,172C 184.97,203.619 157.137,238.786 134,277.5C 130.793,279.705 128.793,282.705 128,286.5C 116.36,303.407 104.36,320.073 92,336.5C 84.8199,344.299 76.6533,345.465 67.5,340C 64.6155,333.946 65.1155,328.113 69,322.5C 80.395,305.434 91.395,288.101 102,270.5C 118.662,247.183 134.329,223.183 149,198.5C 154.002,188.66 157.502,178.326 159.5,167.5C 158.228,154.73 151.228,149.23 138.5,151C 135.167,152.333 131.833,153.667 128.5,155C 120.142,160.513 112.142,166.513 104.5,173C 93.0811,184.35 81.7478,195.684 70.5,207C 62.5113,214.7 55.0113,214.2 48,205.5C 45.7138,197.546 47.3805,190.546 53,184.5C 68.1807,167.32 84.6807,151.487 102.5,137C 111.244,131.294 120.578,126.628 130.5,123C 157.466,113.069 175.633,121.569 185,148.5C 185.853,152.469 186.519,156.469 187,160.5C 205.13,141.856 226.297,127.856 250.5,118.5 Z"/></g>
<g><path style="opacity:0.952" fill="#dc1d2f" d="M 301.5,283.5 C 325.841,282.349 340.341,293.683 345,317.5C 344.849,337.993 335.016,351.493 315.5,358C 293.761,359.915 278.927,350.748 271,330.5C 268.476,318.451 270.81,307.451 278,297.5C 281.783,294.684 285.283,291.517 288.5,288C 292.969,286.567 297.302,285.067 301.5,283.5 Z"/></g>
</svg>
