<?xml version="1.0" encoding="UTF-8"?>
<!DOCTYPE svg PUBLIC "-//W3C//DTD SVG 1.1//EN" "http://www.w3.org/Graphics/SVG/1.1/DTD/svg11.dtd">
<svg xmlns="http://www.w3.org/2000/svg" version="1.1" width="735px" height="734px" style="shape-rendering:geometricPrecision; text-rendering:geometricPrecision; image-rendering:optimizeQuality; fill-rule:evenodd; clip-rule:evenodd" xmlns:xlink="http://www.w3.org/1999/xlink">
<g><path style="opacity:1" fill="#2680c0" d="M 106.5,-0.5 C 280.167,-0.5 453.833,-0.5 627.5,-0.5C 687.5,10.8333 723.167,46.5 734.5,106.5C 734.5,279.833 734.5,453.167 734.5,626.5C 723.167,686.5 687.5,722.167 627.5,733.5C 453.833,733.5 280.167,733.5 106.5,733.5C 46.5,722.167 10.8333,686.5 -0.5,626.5C -0.5,453.167 -0.5,279.833 -0.5,106.5C 10.8345,46.4988 46.5012,10.8321 106.5,-0.5 Z"/></g>
<g><path style="opacity:1" fill="#3e8dc5" d="M 696.5,256.5 C 696.421,255.07 696.754,253.736 697.5,252.5C 699.527,251.307 701.027,249.64 702,247.5C 702.667,234.167 702.667,220.833 702,207.5C 701.963,205.026 701.13,203.026 699.5,201.5C 695.6,197.259 691.6,192.926 687.5,188.5C 686.088,187.194 684.421,186.36 682.5,186C 625.5,185.333 568.5,185.333 511.5,186C 510.619,186.708 509.953,187.542 509.5,188.5C 507.672,191.194 505.339,193.194 502.5,194.5C 497.822,195.022 493.488,196.356 489.5,198.5C 491.829,196.159 493.829,193.492 495.5,190.5C 498.777,189.746 502.11,189.246 505.5,189C 506.956,187.255 508.289,185.422 509.5,183.5C 568.497,182.333 627.497,182.167 686.5,183C 691.365,187.945 696.031,193.112 700.5,198.5C 701.325,199.386 702.325,199.719 703.5,199.5C 704.951,216.175 704.784,232.842 703,249.5C 700.817,251.907 698.65,254.24 696.5,256.5 Z"/></g>
<g><path style="opacity:1" fill="#5fa0cd" d="M 699.5,201.5 C 700.983,217.189 700.816,232.856 699,248.5C 698.292,249.381 697.458,250.047 696.5,250.5C 696.263,249.209 696.596,248.209 697.5,247.5C 698.826,232.328 698.826,216.995 697.5,201.5C 693.713,196.797 689.38,192.797 684.5,189.5C 656.675,188.167 628.508,187.5 600,187.5C 569.818,187.524 539.651,187.857 509.5,188.5C 509.953,187.542 510.619,186.708 511.5,186C 568.5,185.333 625.5,185.333 682.5,186C 684.421,186.36 686.088,187.194 687.5,188.5C 691.6,192.926 695.6,197.259 699.5,201.5 Z"/></g>
<g><path style="opacity:1" fill="#7bafd4" d="M 684.5,189.5 C 627.166,189.333 569.832,189.5 512.5,190C 509.487,192.172 506.154,193.672 502.5,194.5C 505.339,193.194 507.672,191.194 509.5,188.5C 539.651,187.857 569.818,187.524 600,187.5C 628.508,187.5 656.675,188.167 684.5,189.5 Z"/></g>
<g><path style="opacity:1" fill="#95bedc" d="M 684.5,189.5 C 689.38,192.797 693.713,196.797 697.5,201.5C 698.826,216.995 698.826,232.328 697.5,247.5C 697.667,233.829 697.5,220.163 697,206.5C 696.79,204.942 696.29,203.609 695.5,202.5C 692.121,199.449 688.788,196.449 685.5,193.5C 684.571,192.685 683.571,191.852 682.5,191C 626.167,190.333 569.833,190.333 513.5,191C 510.632,191.861 508.298,193.528 506.5,196C 502.737,197.864 498.737,199.031 494.5,199.5C 494.953,198.542 495.619,197.708 496.5,197C 498.723,196.434 500.723,195.6 502.5,194.5C 506.154,193.672 509.487,192.172 512.5,190C 569.832,189.5 627.166,189.333 684.5,189.5 Z"/></g>
<g><path style="opacity:1" fill="#b8d3e5" d="M 685.5,193.5 C 628.195,192.345 570.862,192.179 513.5,193C 510.187,194.968 506.854,196.968 503.5,199C 498.532,200.372 493.866,202.205 489.5,204.5C 491.473,203.194 493.139,201.527 494.5,199.5C 498.737,199.031 502.737,197.864 506.5,196C 508.298,193.528 510.632,191.861 513.5,191C 569.833,190.333 626.167,190.333 682.5,191C 683.571,191.852 684.571,192.685 685.5,193.5 Z"/></g>
<g><path style="opacity:1" fill="#fefefe" d="M 507.5,202.5 C 508.167,202.5 508.5,202.167 508.5,201.5C 510.812,200.68 513.146,199.847 515.5,199C 568.541,198.829 621.541,198.329 674.5,197.5C 682.634,197.015 687.468,200.682 689,208.5C 689.667,219.833 689.667,231.167 689,242.5C 687.508,248.987 684.341,254.487 679.5,259C 638.917,260.322 598.251,260.989 557.5,261C 548.788,265.922 544.955,273.422 546,283.5C 543.546,287.622 541.546,291.955 540,296.5C 539.119,305.562 539.452,314.562 541,323.5C 543.222,327.388 546.388,330.221 550.5,332C 579.5,332.333 608.5,332.667 637.5,333C 641.172,335.838 645.172,338.171 649.5,340C 651.089,342.431 652.089,345.097 652.5,348C 651.216,353.678 651.216,359.345 652.5,365C 651.361,373.948 647.361,381.281 640.5,387C 610.489,387.794 580.489,387.627 550.5,386.5C 536.615,387.549 528.115,394.883 525,408.5C 524.667,418.5 524.333,428.5 524,438.5C 522.777,442.615 520.777,446.282 518,449.5C 517.667,462.167 517.333,474.833 517,487.5C 516.348,492.469 514.348,496.802 511,500.5C 511.815,507.824 508.815,512.49 502,514.5C 481.507,513.172 461.007,513.172 440.5,514.5C 437.99,514.167 435.823,513.167 434,511.5C 432.387,501.934 432.053,492.267 433,482.5C 434.173,478.663 436.173,475.329 439,472.5C 439.446,469.657 439.946,466.824 440.5,464C 439.379,450.856 439.212,437.689 440,424.5C 441.883,419.615 444.216,414.948 447,410.5C 447.779,399.31 447.612,388.144 446.5,377C 447.258,370.384 449.758,364.551 454,359.5C 455.752,348.191 455.919,336.858 454.5,325.5C 455.015,321.758 455.848,318.091 457,314.5C 459.442,311.952 461.108,308.952 462,305.5C 462.333,290.167 462.667,274.833 463,259.5C 464.204,255.427 466.204,251.761 469,248.5C 469.357,243.022 470.357,237.688 472,232.5C 477.875,226.293 483.375,219.793 488.5,213C 494.638,208.936 500.971,205.436 507.5,202.5 Z"/></g>
<g><path style="opacity:1" fill="#5298ca" d="M 502.5,194.5 C 500.723,195.6 498.723,196.434 496.5,197C 495.619,197.708 494.953,198.542 494.5,199.5C 489.684,202.429 484.684,204.762 479.5,206.5C 477.629,206.859 476.129,207.859 475,209.5C 474.627,213.21 473.293,216.544 471,219.5C 466.967,223.868 462.634,227.868 458,231.5C 457.818,236.747 456.984,241.747 455.5,246.5C 454.765,237.602 456.931,229.602 462,222.5C 464.101,221.076 466.267,219.742 468.5,218.5C 469.896,216.028 470.73,213.362 471,210.5C 473.833,207.333 476.667,204.167 479.5,201C 482.608,199.241 485.941,198.408 489.5,198.5C 493.488,196.356 497.822,195.022 502.5,194.5 Z"/></g>
<g><path style="opacity:1" fill="#a4c6e0" d="M 494.5,199.5 C 493.139,201.527 491.473,203.194 489.5,204.5C 486.304,204.899 483.304,205.899 480.5,207.5C 478.443,211.263 476.943,215.263 476,219.5C 472.233,224.023 468.233,228.357 464,232.5C 463.809,234.708 463.309,236.708 462.5,238.5C 462.337,236.143 462.503,233.81 463,231.5C 466.333,228.167 469.667,224.833 473,221.5C 474.094,219.922 474.928,218.255 475.5,216.5C 476.257,212.889 477.59,209.555 479.5,206.5C 484.684,204.762 489.684,202.429 494.5,199.5 Z"/></g>
<g><path style="opacity:1" fill="#8cb9d9" d="M 475.5,216.5 C 474.928,218.255 474.094,219.922 473,221.5C 469.667,224.833 466.333,228.167 463,231.5C 462.503,233.81 462.337,236.143 462.5,238.5C 463.415,245.33 461.082,250.663 455.5,254.5C 454.669,270.662 454.169,286.995 454,303.5C 453.974,307.676 452.141,310.676 448.5,312.5C 449.167,310.5 449.833,308.5 450.5,306.5C 451.117,306.389 451.617,306.056 452,305.5C 452.194,288.123 452.694,270.79 453.5,253.5C 456.305,252.259 458.471,250.259 460,247.5C 460.148,241.751 460.814,236.085 462,230.5C 466.416,225.587 470.916,220.92 475.5,216.5 Z"/></g>
<g><path style="opacity:1" fill="#6da7d1" d="M 479.5,206.5 C 477.59,209.555 476.257,212.889 475.5,216.5C 470.916,220.92 466.416,225.587 462,230.5C 460.814,236.085 460.148,241.751 460,247.5C 458.471,250.259 456.305,252.259 453.5,253.5C 454.167,251.5 454.833,249.5 455.5,247.5C 455.5,247.167 455.5,246.833 455.5,246.5C 456.984,241.747 457.818,236.747 458,231.5C 462.634,227.868 466.967,223.868 471,219.5C 473.293,216.544 474.627,213.21 475,209.5C 476.129,207.859 477.629,206.859 479.5,206.5 Z"/></g>
<g><path style="opacity:1" fill="#388ac3" d="M 453.5,249.5 C 451.486,252.194 449.986,255.194 449,258.5C 448.667,273.5 448.333,288.5 448,303.5C 447.768,304.737 447.268,305.737 446.5,306.5C 446.333,288.83 446.5,271.164 447,253.5C 449.094,251.992 451.26,250.658 453.5,249.5 Z"/></g>
<g><path style="opacity:1" fill="#cbdeeb" d="M 685.5,193.5 C 688.788,196.449 692.121,199.449 695.5,202.5C 696.581,217.146 696.747,231.812 696,246.5C 694.767,249.734 692.767,252.401 690,254.5C 689.309,258.214 687.809,261.548 685.5,264.5C 683.827,266.086 681.827,266.753 679.5,266.5C 640.5,266.5 601.5,266.5 562.5,266.5C 601.833,265.833 641.167,265.167 680.5,264.5C 682.129,263.375 683.629,262.041 685,260.5C 686.496,255.183 688.663,250.183 691.5,245.5C 692.117,245.389 692.617,245.056 693,244.5C 693.667,230.5 693.667,216.5 693,202.5C 689.886,198.041 685.719,195.208 680.5,194C 625.833,193.333 571.167,193.333 516.5,194C 514.5,194.667 512.5,195.333 510.5,196C 506.191,199.672 501.191,202.005 495.5,203C 493.604,205.068 491.604,206.901 489.5,208.5C 482.734,210.106 478.9,214.44 478,221.5C 474.32,225.183 470.986,229.183 468,233.5C 466.839,238.416 466.173,243.416 466,248.5C 461.903,250.696 459.237,254.029 458,258.5C 457.833,275.177 457.333,291.843 456.5,308.5C 454.398,311.705 452.565,315.038 451,318.5C 450.763,332.525 450.263,346.525 449.5,360.5C 447.5,362.167 445.5,363.833 443.5,365.5C 444.031,363.456 445.198,361.789 447,360.5C 447.49,359.207 447.657,357.873 447.5,356.5C 448.331,344.007 448.831,331.34 449,318.5C 451.793,314.577 453.793,310.244 455,305.5C 455.5,288.503 455.667,271.503 455.5,254.5C 461.082,250.663 463.415,245.33 462.5,238.5C 463.309,236.708 463.809,234.708 464,232.5C 468.233,228.357 472.233,224.023 476,219.5C 476.943,215.263 478.443,211.263 480.5,207.5C 483.304,205.899 486.304,204.899 489.5,204.5C 493.866,202.205 498.532,200.372 503.5,199C 506.854,196.968 510.187,194.968 513.5,193C 570.862,192.179 628.195,192.345 685.5,193.5 Z"/></g>
<g><path style="opacity:1" fill="#e6eef4" d="M 691.5,245.5 C 691.667,232.163 691.5,218.829 691,205.5C 688.672,200.981 685.172,197.815 680.5,196C 625.833,195.333 571.167,195.333 516.5,196C 512.632,196.313 509.965,198.146 508.5,201.5C 508.5,202.167 508.167,202.5 507.5,202.5C 501.087,203.379 495.087,205.379 489.5,208.5C 491.604,206.901 493.604,205.068 495.5,203C 501.191,202.005 506.191,199.672 510.5,196C 512.5,195.333 514.5,194.667 516.5,194C 571.167,193.333 625.833,193.333 680.5,194C 685.719,195.208 689.886,198.041 693,202.5C 693.667,216.5 693.667,230.5 693,244.5C 692.617,245.056 692.117,245.389 691.5,245.5 Z"/></g>
<g><path style="opacity:1" fill="#5096ca" d="M 455.5,247.5 C 454.833,249.5 454.167,251.5 453.5,253.5C 452.694,270.79 452.194,288.123 452,305.5C 451.617,306.056 451.117,306.389 450.5,306.5C 448.197,308.978 446.031,311.645 444,314.5C 443.667,327.5 443.333,340.5 443,353.5C 442.058,356.374 440.891,359.04 439.5,361.5C 439.523,359.073 440.023,356.74 441,354.5C 441.167,340.821 441.667,327.154 442.5,313.5C 445.125,311.919 446.458,309.585 446.5,306.5C 447.268,305.737 447.768,304.737 448,303.5C 448.333,288.5 448.667,273.5 449,258.5C 449.986,255.194 451.486,252.194 453.5,249.5C 453.833,248.5 454.5,247.833 455.5,247.5 Z"/></g>
<g><path style="opacity:1" fill="#bad3e6" d="M 562.5,266.5 C 601.5,266.5 640.5,266.5 679.5,266.5C 639.335,267.333 599.002,267.833 558.5,268C 556.174,269.805 554.508,271.972 553.5,274.5C 553.976,269.025 556.976,266.358 562.5,266.5 Z"/></g>
<g><path style="opacity:1" fill="#a5c7e0" d="M 695.5,202.5 C 696.29,203.609 696.79,204.942 697,206.5C 697.5,220.163 697.667,233.829 697.5,247.5C 696.596,248.209 696.263,249.209 696.5,250.5C 696.573,252.027 695.906,253.027 694.5,253.5C 693.279,254.028 692.113,254.695 691,255.5C 690.667,257.833 690.333,260.167 690,262.5C 689.34,264.324 688.173,265.657 686.5,266.5C 684.821,266.892 683.154,267.392 681.5,268C 640.833,268.333 600.167,268.667 559.5,269C 555.487,273.073 553.487,277.907 553.5,283.5C 553.5,280.5 553.5,277.5 553.5,274.5C 554.508,271.972 556.174,269.805 558.5,268C 599.002,267.833 639.335,267.333 679.5,266.5C 681.827,266.753 683.827,266.086 685.5,264.5C 687.809,261.548 689.309,258.214 690,254.5C 692.767,252.401 694.767,249.734 696,246.5C 696.747,231.812 696.581,217.146 695.5,202.5 Z"/></g>
<g><path style="opacity:1" fill="#5b9dcd" d="M 420.5,285.5 C 424.007,286.913 426.673,289.246 428.5,292.5C 428.5,293.167 428.5,293.833 428.5,294.5C 422.767,289.427 416.767,284.761 410.5,280.5C 405.142,278.966 399.642,277.632 394,276.5C 391.35,275.327 388.85,273.994 386.5,272.5C 386.389,271.883 386.056,271.383 385.5,271C 372.5,270.333 359.5,270.333 346.5,271C 339.371,276.066 331.371,278.566 322.5,278.5C 322.953,277.542 323.619,276.708 324.5,276C 329.959,275.642 335.292,274.642 340.5,273C 343.362,272.07 345.695,270.403 347.5,268C 360.18,267.167 372.846,267.334 385.5,268.5C 387.833,270 390.167,271.5 392.5,273C 397.799,273.93 403.133,274.597 408.5,275C 412.404,278.68 416.404,282.18 420.5,285.5 Z"/></g>
<g><path style="opacity:1" fill="#79aed4" d="M 258.5,272.5 C 263.066,274.254 267.066,276.92 270.5,280.5C 274.088,285.593 278.255,290.26 283,294.5C 284.128,296.345 284.628,298.345 284.5,300.5C 283.599,299.71 282.932,298.71 282.5,297.5C 278.767,292.26 274.434,287.426 269.5,283C 264.272,280.793 259.605,277.96 255.5,274.5C 254.942,273.21 253.942,272.377 252.5,272C 236.503,271.5 220.503,271.333 204.5,271.5C 205.952,270.698 207.618,270.198 209.5,270C 224.167,269.333 238.833,269.333 253.5,270C 254.91,271.372 256.577,272.205 258.5,272.5 Z"/></g>
<g><path style="opacity:1" fill="#6fa8d2" d="M 694.5,253.5 C 694.228,261.58 690.561,267.413 683.5,271C 643.665,271.167 603.998,271.667 564.5,272.5C 560.68,275.408 558.847,279.408 559,284.5C 557.629,287.266 555.796,289.599 553.5,291.5C 555.155,286.744 555.988,281.744 556,276.5C 556.69,273.804 558.19,271.637 560.5,270C 602.167,269.667 643.833,269.333 685.5,269C 686.252,268.329 686.586,267.496 686.5,266.5C 688.173,265.657 689.34,264.324 690,262.5C 690.333,260.167 690.667,257.833 691,255.5C 692.113,254.695 693.279,254.028 694.5,253.5 Z"/></g>
<g><path style="opacity:1" fill="#8db9d9" d="M 204.5,271.5 C 220.503,271.333 236.503,271.5 252.5,272C 253.942,272.377 254.942,273.21 255.5,274.5C 253.821,274.108 252.154,273.608 250.5,273C 235.5,272.333 220.5,272.333 205.5,273C 202.977,273.518 200.977,274.852 199.5,277C 193.492,278.334 187.492,279.668 181.5,281C 177.5,285 173.5,289 169.5,293C 166.141,294.047 163.141,295.547 160.5,297.5C 159.248,299.001 158.248,300.668 157.5,302.5C 156.167,302.833 154.833,303.167 153.5,303.5C 155.671,300.484 157.671,297.318 159.5,294C 162.167,293 164.833,292 167.5,291C 171.859,285.978 176.859,281.645 182.5,278C 188.342,277.851 194.008,276.851 199.5,275C 200.789,273.198 202.456,272.031 204.5,271.5 Z"/></g>
<g><path style="opacity:1" fill="#3a8ac4" d="M 420.5,285.5 C 416.404,282.18 412.404,278.68 408.5,275C 403.133,274.597 397.799,273.93 392.5,273C 390.167,271.5 387.833,270 385.5,268.5C 372.846,267.334 360.18,267.167 347.5,268C 345.695,270.403 343.362,272.07 340.5,273C 335.292,274.642 329.959,275.642 324.5,276C 323.619,276.708 322.953,277.542 322.5,278.5C 320.405,279.412 318.405,280.579 316.5,282C 313.768,282.413 311.101,283.08 308.5,284C 307.023,286.148 305.023,287.482 302.5,288C 298.939,292.386 295.273,296.552 291.5,300.5C 291.351,299.448 291.517,298.448 292,297.5C 295.047,295.082 297.38,292.082 299,288.5C 300.935,286.898 303.101,285.731 305.5,285C 306.167,283.667 306.833,282.333 307.5,281C 311.046,279.826 314.713,279.16 318.5,279C 319.933,276.291 321.933,274.125 324.5,272.5C 330.138,271.67 335.804,271.17 341.5,271C 342.773,266.388 345.773,264.055 350.5,264C 362.882,263.106 375.215,263.439 387.5,265C 388.956,266.745 390.289,268.578 391.5,270.5C 397.472,271.33 403.472,271.83 409.5,272C 411.692,275.692 414.692,278.526 418.5,280.5C 419.562,282.022 420.229,283.688 420.5,285.5 Z"/></g>
<g><path style="opacity:1" fill="#5298ca" d="M 699.5,201.5 C 701.13,203.026 701.963,205.026 702,207.5C 702.667,220.833 702.667,234.167 702,247.5C 701.027,249.64 699.527,251.307 697.5,252.5C 696.754,253.736 696.421,255.07 696.5,256.5C 696.663,258.857 696.497,261.19 696,263.5C 694.301,265.696 692.467,267.696 690.5,269.5C 688.388,270.44 686.388,271.606 684.5,273C 644.484,273.798 604.484,273.631 564.5,272.5C 603.998,271.667 643.665,271.167 683.5,271C 690.561,267.413 694.228,261.58 694.5,253.5C 695.906,253.027 696.573,252.027 696.5,250.5C 697.458,250.047 698.292,249.381 699,248.5C 700.816,232.856 700.983,217.189 699.5,201.5 Z"/></g>
<g><path style="opacity:1" fill="#7eb1d6" d="M 386.5,272.5 C 373.866,271.392 361.2,271.225 348.5,272C 345.497,273.166 342.83,274.833 340.5,277C 334.536,278.518 328.536,279.852 322.5,281C 318.553,284.656 313.886,286.99 308.5,288C 302.806,293.027 297.473,298.36 292.5,304C 290.288,304.789 288.288,304.622 286.5,303.5C 288.199,303.66 289.866,303.494 291.5,303C 296.473,297.36 301.806,292.027 307.5,287C 313.723,286.112 318.723,283.279 322.5,278.5C 331.371,278.566 339.371,276.066 346.5,271C 359.5,270.333 372.5,270.333 385.5,271C 386.056,271.383 386.389,271.883 386.5,272.5 Z"/></g>
<g><path style="opacity:1" fill="#a9cae1" d="M 255.5,274.5 C 259.605,277.96 264.272,280.793 269.5,283C 274.434,287.426 278.767,292.26 282.5,297.5C 278.036,293.537 273.702,289.37 269.5,285C 265.608,283.36 261.608,282.027 257.5,281C 256.619,280.292 255.953,279.458 255.5,278.5C 254.106,276.292 252.106,274.792 249.5,274C 235.167,273.333 220.833,273.333 206.5,274C 203.588,275.24 200.921,276.906 198.5,279C 193.189,280.072 187.855,281.072 182.5,282C 178.5,286 174.5,290 170.5,294C 167.842,295.478 165.175,296.645 162.5,297.5C 161.833,297.5 161.167,297.5 160.5,297.5C 163.141,295.547 166.141,294.047 169.5,293C 173.5,289 177.5,285 181.5,281C 187.492,279.668 193.492,278.334 199.5,277C 200.977,274.852 202.977,273.518 205.5,273C 220.5,272.333 235.5,272.333 250.5,273C 252.154,273.608 253.821,274.108 255.5,274.5 Z"/></g>
<g><path style="opacity:1" fill="#c1d8e8" d="M 255.5,278.5 C 252.401,276.855 249.068,275.688 245.5,275C 232.833,274.333 220.167,274.333 207.5,275C 204.428,275.907 202.095,277.74 200.5,280.5C 194.82,281.502 189.153,282.669 183.5,284C 178.555,287.311 174.222,291.311 170.5,296C 167.986,297.252 165.32,297.752 162.5,297.5C 165.175,296.645 167.842,295.478 170.5,294C 174.5,290 178.5,286 182.5,282C 187.855,281.072 193.189,280.072 198.5,279C 200.921,276.906 203.588,275.24 206.5,274C 220.833,273.333 235.167,273.333 249.5,274C 252.106,274.792 254.106,276.292 255.5,278.5 Z"/></g>
<g><path style="opacity:1" fill="#fefefe" d="M 267.5,452.5 C 265.864,453.749 264.697,455.416 264,457.5C 263.622,465.841 263.122,474.174 262.5,482.5C 264.999,494.211 261.999,504.211 253.5,512.5C 251.689,513.739 249.689,514.406 247.5,514.5C 229.664,513.173 211.831,513.173 194,514.5C 191.432,514.049 189.098,513.049 187,511.5C 184.072,497.088 185.406,483.088 191,469.5C 191.333,454.5 191.667,439.5 192,424.5C 192.372,420.341 194.372,417.341 198,415.5C 198.667,414.167 199.333,412.833 200,411.5C 200.667,394.167 200.667,376.833 200,359.5C 195.661,351.664 188.994,348.33 180,349.5C 175.79,349.644 171.624,350.144 167.5,351C 159.613,354.961 151.946,359.294 144.5,364C 137.277,370.735 134.277,379.068 135.5,389C 138.058,400.545 135.891,411.045 129,420.5C 128.667,436.167 128.333,451.833 128,467.5C 126.878,471.951 124.878,475.951 122,479.5C 120.324,487.976 120.157,496.476 121.5,505C 121.794,511.037 118.961,514.203 113,514.5C 97.6619,513.183 82.3286,513.183 67,514.5C 60.8913,513.055 54.7247,512.555 48.5,513C 46.358,516.334 43.5247,517.501 40,516.5C 39.6258,515.584 39.1258,514.75 38.5,514C 39.2638,511.931 39.7638,509.764 40,507.5C 42.5431,505.047 44.0431,502.047 44.5,498.5C 43.384,488.862 43.2173,479.195 44,469.5C 45.9258,463.933 48.2591,458.6 51,453.5C 51.8098,442.786 51.6431,432.12 50.5,421.5C 51.3719,415.092 53.8719,409.425 58,404.5C 58.3333,389.167 58.6667,373.833 59,358.5C 60.5319,352.445 62.8653,346.778 66,341.5C 66.7985,330.966 66.6319,320.466 65.5,310C 66.5329,300.584 70.8663,293.251 78.5,288C 96.1667,287.333 113.833,287.333 131.5,288C 133.667,288.833 135.167,290.333 136,292.5C 136.281,296.162 136.115,299.829 135.5,303.5C 135.713,309.974 139.046,313.974 145.5,315.5C 152.066,313.383 157.399,309.55 161.5,304C 166.288,303.109 170.288,300.942 173.5,297.5C 174.262,295.738 175.596,294.738 177.5,294.5C 182.935,289.093 189.601,286.593 197.5,287C 201.038,284.731 204.705,282.731 208.5,281C 221.5,280.333 234.5,280.333 247.5,281C 253.408,284.786 259.742,287.786 266.5,290C 269.667,293.167 272.833,296.333 276,299.5C 276.954,307.12 280.954,312.453 288,315.5C 296.005,311.832 302.505,306.332 307.5,299C 310.815,296.586 314.482,294.919 318.5,294C 321.167,292.667 323.167,290.667 324.5,288C 329.406,286.524 334.406,285.524 339.5,285C 343.061,283.303 346.561,281.469 350,279.5C 360.143,278.394 370.31,278.227 380.5,279C 384.597,281.89 388.931,284.557 393.5,287C 397.872,287.421 402.205,288.088 406.5,289C 413.344,293.159 417.844,298.992 420,306.5C 420.667,331.833 420.667,357.167 420,382.5C 419.587,385.232 418.92,387.899 418,390.5C 415.558,393.048 413.892,396.048 413,399.5C 412.667,414.833 412.333,430.167 412,445.5C 410.548,449.737 408.548,453.737 406,457.5C 405.667,464.833 405.333,472.167 405,479.5C 404.587,482.232 403.92,484.899 403,487.5C 397.818,493.175 396.318,499.675 398.5,507C 397.232,511.268 394.399,513.768 390,514.5C 369.503,513.173 349.003,513.173 328.5,514.5C 322.317,513.828 319.817,510.494 321,504.5C 322.497,500.835 324.497,497.502 327,494.5C 327.5,490 328,485.5 328.5,481C 326.79,470.039 327.29,459.206 330,448.5C 332.442,445.952 334.108,442.952 335,439.5C 335.333,426.833 335.667,414.167 336,401.5C 337.111,397.056 339.111,393.056 342,389.5C 342.667,379.5 342.667,369.5 342,359.5C 337.523,351.512 330.69,348.179 321.5,349.5C 314.94,348.901 309.274,350.734 304.5,355C 294.331,358.189 286.165,364.022 280,372.5C 278.868,379.776 277.868,387.109 277,394.5C 275,398.5 273,402.5 271,406.5C 270.667,419.5 270.333,432.5 270,445.5C 269.153,447.854 268.32,450.188 267.5,452.5 Z"/></g>
<g><path style="opacity:1" fill="#c9dcea" d="M 425.5,298.5 C 425.5,299.833 425.5,301.167 425.5,302.5C 423.939,299.265 421.606,296.598 418.5,294.5C 414.603,290.54 410.269,287.04 405.5,284C 401.167,283.667 396.833,283.333 392.5,283C 390.721,281.86 389.054,280.693 387.5,279.5C 386.521,277.855 385.188,276.521 383.5,275.5C 370.723,273.938 358.056,274.271 345.5,276.5C 346.058,275.21 347.058,274.377 348.5,274C 360.833,273.333 373.167,273.333 385.5,274C 387.792,275.29 389.792,276.957 391.5,279C 397.156,279.998 402.823,280.832 408.5,281.5C 414.548,286.881 420.215,292.548 425.5,298.5 Z"/></g>
<g><path style="opacity:1" fill="#9dc3de" d="M 386.5,272.5 C 388.85,273.994 391.35,275.327 394,276.5C 399.642,277.632 405.142,278.966 410.5,280.5C 414.83,285.663 419.664,290.33 425,294.5C 425.464,295.094 425.631,295.761 425.5,296.5C 425.5,297.167 425.5,297.833 425.5,298.5C 420.215,292.548 414.548,286.881 408.5,281.5C 402.823,280.832 397.156,279.998 391.5,279C 389.792,276.957 387.792,275.29 385.5,274C 373.167,273.333 360.833,273.333 348.5,274C 347.058,274.377 346.058,275.21 345.5,276.5C 338.534,279.452 331.201,281.285 323.5,282C 319.553,285.656 314.886,287.99 309.5,289C 303.473,294.36 297.806,300.027 292.5,306C 288.494,307.421 285.828,306.254 284.5,302.5C 285.167,302.833 285.833,303.167 286.5,303.5C 288.288,304.622 290.288,304.789 292.5,304C 297.473,298.36 302.806,293.027 308.5,288C 313.886,286.99 318.553,284.656 322.5,281C 328.536,279.852 334.536,278.518 340.5,277C 342.83,274.833 345.497,273.166 348.5,272C 361.2,271.225 373.866,271.392 386.5,272.5 Z"/></g>
<g><path style="opacity:1" fill="#80b1d5" d="M 138.5,277.5 C 142.18,279.015 144.68,281.681 146,285.5C 146.51,291.346 146.177,297.012 145,302.5C 147.719,303.444 150.552,303.777 153.5,303.5C 150.564,305.514 147.397,305.848 144,304.5C 143.296,302.722 142.796,300.888 142.5,299C 144.799,291.761 143.466,285.428 138.5,280C 117.5,279.333 96.5,279.333 75.5,280C 72.3036,280.396 69.4703,281.562 67,283.5C 65.8635,287.243 64.5302,290.91 63,294.5C 61.6288,296.041 60.1288,297.375 58.5,298.5C 58.5,297.833 58.5,297.167 58.5,296.5C 59.733,291.707 61.733,287.374 64.5,283.5C 66.8707,280.628 69.8707,278.794 73.5,278C 95.1641,277.5 116.831,277.333 138.5,277.5 Z"/></g>
<g><path style="opacity:1" fill="#d4e3ed" d="M 255.5,278.5 C 255.953,279.458 256.619,280.292 257.5,281C 261.608,282.027 265.608,283.36 269.5,285C 273.702,289.37 278.036,293.537 282.5,297.5C 282.932,298.71 283.599,299.71 284.5,300.5C 284.5,301.167 284.5,301.833 284.5,302.5C 285.828,306.254 288.494,307.421 292.5,306C 297.806,300.027 303.473,294.36 309.5,289C 314.886,287.99 319.553,285.656 323.5,282C 331.201,281.285 338.534,279.452 345.5,276.5C 358.056,274.271 370.723,273.938 383.5,275.5C 385.188,276.521 386.521,277.855 387.5,279.5C 384.946,278.394 382.279,277.561 379.5,277C 369.439,276.105 359.439,276.438 349.5,278C 346.52,279.634 343.52,281.3 340.5,283C 331.747,283.34 324.08,286.173 317.5,291.5C 314.716,292.392 312.05,293.558 309.5,295C 304.5,300 299.5,305 294.5,310C 291.5,310.667 288.5,310.667 285.5,310C 282.607,306.316 280.274,302.316 278.5,298C 274.2,294.702 270.2,291.035 266.5,287C 261.601,285.551 256.935,283.551 252.5,281C 251.663,279.989 251.33,278.822 251.5,277.5C 237.852,276.448 224.185,276.282 210.5,277C 207.252,278.46 203.919,279.626 200.5,280.5C 202.095,277.74 204.428,275.907 207.5,275C 220.167,274.333 232.833,274.333 245.5,275C 249.068,275.688 252.401,276.855 255.5,278.5 Z"/></g>
<g><path style="opacity:1" fill="#6ca7d1" d="M 410.5,280.5 C 416.767,284.761 422.767,289.427 428.5,294.5C 430.043,296.928 431.043,299.594 431.5,302.5C 432.159,331.853 431.492,360.853 429.5,389.5C 429.833,359.159 429.5,328.826 428.5,298.5C 427.482,297.807 426.482,297.141 425.5,296.5C 425.631,295.761 425.464,295.094 425,294.5C 419.664,290.33 414.83,285.663 410.5,280.5 Z"/></g>
<g><path style="opacity:1" fill="#dde8f0" d="M 200.5,280.5 C 199.942,281.79 198.942,282.623 197.5,283C 193.181,283.76 188.848,284.427 184.5,285C 181.874,288.1 179.541,291.267 177.5,294.5C 175.596,294.738 174.262,295.738 173.5,297.5C 169.964,298.758 166.297,299.591 162.5,300C 159.275,303.104 156.275,306.437 153.5,310C 150.812,310.392 148.145,310.892 145.5,311.5C 143.225,310.402 141.058,309.068 139,307.5C 138.667,301.833 138.333,296.167 138,290.5C 137.215,288.714 136.049,287.214 134.5,286C 124.737,284.871 114.903,284.371 105,284.5C 94.7773,284.384 84.6107,284.884 74.5,286C 73.3147,287.353 71.9814,288.52 70.5,289.5C 68.5053,294.16 66.0053,298.494 63,302.5C 62.6667,316.167 62.3333,329.833 62,343.5C 61.7216,344.416 61.2216,345.082 60.5,345.5C 61.4464,331.87 61.7797,318.203 61.5,304.5C 61.687,302.436 62.187,300.436 63,298.5C 66.587,294.957 68.587,290.624 69,285.5C 70.1667,284.333 71.3333,283.167 72.5,282C 93.8333,281.333 115.167,281.333 136.5,282C 138.57,282.948 140.07,284.448 141,286.5C 141.333,292.5 141.667,298.5 142,304.5C 142.5,305 143,305.5 143.5,306C 146.833,306.667 150.167,306.667 153.5,306C 155.093,305.051 156.426,303.885 157.5,302.5C 158.248,300.668 159.248,299.001 160.5,297.5C 161.167,297.5 161.833,297.5 162.5,297.5C 165.32,297.752 167.986,297.252 170.5,296C 174.222,291.311 178.555,287.311 183.5,284C 189.153,282.669 194.82,281.502 200.5,280.5 Z"/></g>
<g><path style="opacity:1" fill="#accbe2" d="M 425.5,298.5 C 426.966,299.347 427.8,300.68 428,302.5C 428.667,329.833 428.667,357.167 428,384.5C 427.667,386.5 427.333,388.5 427,390.5C 426.617,391.056 426.117,391.389 425.5,391.5C 426.805,361.687 426.805,332.02 425.5,302.5C 425.5,301.167 425.5,299.833 425.5,298.5 Z"/></g>
<g><path style="opacity:1" fill="#5499cb" d="M 431.5,302.5 C 432.498,331.662 432.831,360.995 432.5,390.5C 431.662,390.842 431.328,391.508 431.5,392.5C 428.1,394.778 426.267,398.111 426,402.5C 426.154,418.199 425.321,433.533 423.5,448.5C 423.333,431.83 423.5,415.163 424,398.5C 426.565,395.807 428.398,392.807 429.5,389.5C 431.492,360.853 432.159,331.853 431.5,302.5 Z"/></g>
<g><path style="opacity:1" fill="#3f8dc5" d="M 428.5,292.5 C 430.463,293.96 432.296,295.627 434,297.5C 434.83,328.681 434.33,359.681 432.5,390.5C 432.831,360.995 432.498,331.662 431.5,302.5C 431.043,299.594 430.043,296.928 428.5,294.5C 428.5,293.833 428.5,293.167 428.5,292.5 Z"/></g>
<g><path style="opacity:1" fill="#3889c4" d="M 690.5,269.5 C 690.061,273.106 688.061,275.272 684.5,276C 645.459,276.827 606.459,276.66 567.5,275.5C 566.069,275.977 564.736,276.643 563.5,277.5C 562.818,280.457 562.652,283.457 563,286.5C 561.225,288.394 559.225,290.061 557,291.5C 555.437,299.087 555.104,306.754 556,314.5C 556.5,315 557,315.5 557.5,316C 583.167,316.333 608.833,316.667 634.5,317C 635.252,317.671 635.586,318.504 635.5,319.5C 609.572,318.676 583.572,318.176 557.5,318C 556.335,316.916 555.002,316.083 553.5,315.5C 552.301,307.494 552.301,299.494 553.5,291.5C 555.796,289.599 557.629,287.266 559,284.5C 558.847,279.408 560.68,275.408 564.5,272.5C 604.484,273.631 644.484,273.798 684.5,273C 686.388,271.606 688.388,270.44 690.5,269.5 Z"/></g>
<g><path style="opacity:1" fill="#5a9ccc" d="M 553.5,291.5 C 552.301,299.494 552.301,307.494 553.5,315.5C 555.002,316.083 556.335,316.916 557.5,318C 583.572,318.176 609.572,318.676 635.5,319.5C 636.527,321.194 637.861,322.527 639.5,323.5C 611.85,322.719 584.183,322.219 556.5,322C 553,321.167 550.833,319 550,315.5C 549.333,309.167 549.333,302.833 550,296.5C 550.669,294.41 551.836,292.743 553.5,291.5 Z"/></g>
<g><path style="opacity:1" fill="#96bedc" d="M 448.5,312.5 C 447.586,327.142 447.253,341.809 447.5,356.5C 447.657,357.873 447.49,359.207 447,360.5C 445.198,361.789 444.031,363.456 443.5,365.5C 442.662,365.842 442.328,366.508 442.5,367.5C 442.167,367.5 441.833,367.5 441.5,367.5C 442.074,363.675 443.241,360.009 445,356.5C 445.333,343.167 445.667,329.833 446,316.5C 446.608,314.934 447.442,313.6 448.5,312.5 Z"/></g>
<g><path style="opacity:1" fill="#afcde2" d="M 455.5,254.5 C 455.667,271.503 455.5,288.503 455,305.5C 453.793,310.244 451.793,314.577 449,318.5C 448.831,331.34 448.331,344.007 447.5,356.5C 447.253,341.809 447.586,327.142 448.5,312.5C 452.141,310.676 453.974,307.676 454,303.5C 454.169,286.995 454.669,270.662 455.5,254.5 Z"/></g>
<g><path style="opacity:1" fill="#8cb9d9" d="M 686.5,266.5 C 686.586,267.496 686.252,268.329 685.5,269C 643.833,269.333 602.167,269.667 560.5,270C 558.19,271.637 556.69,273.804 556,276.5C 555.988,281.744 555.155,286.744 553.5,291.5C 551.836,292.743 550.669,294.41 550,296.5C 549.333,302.833 549.333,309.167 550,315.5C 550.833,319 553,321.167 556.5,322C 584.183,322.219 611.85,322.719 639.5,323.5C 642.29,324.967 643.956,327.3 644.5,330.5C 644.167,330.5 643.833,330.5 643.5,330.5C 641.938,330.267 640.605,329.6 639.5,328.5C 639.167,328.5 638.833,328.5 638.5,328.5C 637.713,326.896 636.38,326.229 634.5,326.5C 634.389,325.883 634.056,325.383 633.5,325C 605.833,324.667 578.167,324.333 550.5,324C 549.667,323.167 548.833,322.333 548,321.5C 547.333,312.833 547.333,304.167 548,295.5C 549.655,291.697 551.489,288.03 553.5,284.5C 553.5,284.167 553.5,283.833 553.5,283.5C 553.487,277.907 555.487,273.073 559.5,269C 600.167,268.667 640.833,268.333 681.5,268C 683.154,267.392 684.821,266.892 686.5,266.5 Z"/></g>
<g><path style="opacity:1" fill="#b4cfe4" d="M 553.5,284.5 C 551.489,288.03 549.655,291.697 548,295.5C 547.333,304.167 547.333,312.833 548,321.5C 548.833,322.333 549.667,323.167 550.5,324C 578.167,324.333 605.833,324.667 633.5,325C 634.056,325.383 634.389,325.883 634.5,326.5C 606.103,326.975 577.77,326.475 549.5,325C 548.667,324.167 547.833,323.333 547,322.5C 546.333,312.833 546.333,303.167 547,293.5C 548.614,290.06 550.78,287.06 553.5,284.5 Z"/></g>
<g><path style="opacity:1" fill="#d9e6ef" d="M 680.5,264.5 C 641.167,265.167 601.833,265.833 562.5,266.5C 556.976,266.358 553.976,269.025 553.5,274.5C 553.5,277.5 553.5,280.5 553.5,283.5C 553.5,283.833 553.5,284.167 553.5,284.5C 550.78,287.06 548.614,290.06 547,293.5C 546.333,303.167 546.333,312.833 547,322.5C 547.833,323.333 548.667,324.167 549.5,325C 577.77,326.475 606.103,326.975 634.5,326.5C 636.38,326.229 637.713,326.896 638.5,328.5C 609.165,328.667 579.831,328.5 550.5,328C 547.733,327.322 545.566,325.822 544,323.5C 543.333,313.5 543.333,303.5 544,293.5C 544.892,290.048 546.558,287.048 549,284.5C 549.667,279.833 550.333,275.167 551,270.5C 553.46,269.042 555.627,267.209 557.5,265C 598.499,264.5 639.499,264.333 680.5,264.5 Z"/></g>
<g><path style="opacity:1" fill="#69a5d0" d="M 450.5,306.5 C 449.833,308.5 449.167,310.5 448.5,312.5C 447.442,313.6 446.608,314.934 446,316.5C 445.667,329.833 445.333,343.167 445,356.5C 443.241,360.009 442.074,363.675 441.5,367.5C 440.833,377.833 440.167,388.167 439.5,398.5C 439.5,386.5 439.5,374.5 439.5,362.5C 439.5,362.167 439.5,361.833 439.5,361.5C 440.891,359.04 442.058,356.374 443,353.5C 443.333,340.5 443.667,327.5 444,314.5C 446.031,311.645 448.197,308.978 450.5,306.5 Z"/></g>
<g><path style="opacity:1" fill="#73abd3" d="M 644.5,330.5 C 645.167,330.5 645.833,330.5 646.5,330.5C 650.312,331.324 654.312,331.824 658.5,332C 659.304,333.771 660.471,335.271 662,336.5C 663.515,349.129 663.848,361.795 663,374.5C 661.692,377.301 659.859,379.634 657.5,381.5C 655.986,383.364 654.653,385.364 653.5,387.5C 653.34,385.801 653.506,384.134 654,382.5C 656,379.833 658,377.167 660,374.5C 660.917,362.109 660.584,349.776 659,337.5C 655.681,333.995 651.514,332.495 646.5,333C 645.619,332.292 644.953,331.458 644.5,330.5 Z"/></g>
<g><path style="opacity:1" fill="#f0f4f7" d="M 387.5,279.5 C 389.054,280.693 390.721,281.86 392.5,283C 396.833,283.333 401.167,283.667 405.5,284C 410.269,287.04 414.603,290.54 418.5,294.5C 419.844,299.033 421.011,303.7 422,308.5C 422.667,334.167 422.667,359.833 422,385.5C 419.921,389.993 417.588,394.326 415,398.5C 414.667,414.833 414.333,431.167 414,447.5C 413.07,450.362 411.403,452.695 409,454.5C 408.016,463.812 407.182,473.146 406.5,482.5C 405.298,485.988 403.798,489.322 402,492.5C 401.721,499.533 401.221,506.533 400.5,513.5C 400.084,515.752 398.751,517.252 396.5,518C 372.167,518.667 347.833,518.667 323.5,518C 318.622,516.275 316.289,512.775 316.5,507.5C 316.667,505.5 316.833,503.5 317,501.5C 318.442,499.609 319.609,497.609 320.5,495.5C 321.222,495.082 321.722,494.416 322,493.5C 322.333,479.833 322.667,466.167 323,452.5C 325.732,448.759 328.066,444.759 330,440.5C 330.5,426.504 330.667,412.504 330.5,398.5C 331.34,395.324 333.007,392.658 335.5,390.5C 336.5,390.5 337.5,390.5 338.5,390.5C 338.666,380.161 338.5,369.828 338,359.5C 337.167,357.333 335.667,355.833 333.5,355C 320.746,352.537 309.079,354.871 298.5,362C 292.876,362.637 288.876,365.471 286.5,370.5C 285.89,371.391 285.557,372.391 285.5,373.5C 283.933,374.681 283.099,376.347 283,378.5C 282.667,383.833 282.333,389.167 282,394.5C 278.905,397.692 276.572,401.359 275,405.5C 274.833,418.513 274.333,431.513 273.5,444.5C 272.07,447.65 270.07,450.317 267.5,452.5C 268.32,450.188 269.153,447.854 270,445.5C 270.333,432.5 270.667,419.5 271,406.5C 273,402.5 275,398.5 277,394.5C 277.868,387.109 278.868,379.776 280,372.5C 286.165,364.022 294.331,358.189 304.5,355C 309.274,350.734 314.94,348.901 321.5,349.5C 330.69,348.179 337.523,351.512 342,359.5C 342.667,369.5 342.667,379.5 342,389.5C 339.111,393.056 337.111,397.056 336,401.5C 335.667,414.167 335.333,426.833 335,439.5C 334.108,442.952 332.442,445.952 330,448.5C 327.29,459.206 326.79,470.039 328.5,481C 328,485.5 327.5,490 327,494.5C 324.497,497.502 322.497,500.835 321,504.5C 319.817,510.494 322.317,513.828 328.5,514.5C 349.003,513.173 369.503,513.173 390,514.5C 394.399,513.768 397.232,511.268 398.5,507C 396.318,499.675 397.818,493.175 403,487.5C 403.92,484.899 404.587,482.232 405,479.5C 405.333,472.167 405.667,464.833 406,457.5C 408.548,453.737 410.548,449.737 412,445.5C 412.333,430.167 412.667,414.833 413,399.5C 413.892,396.048 415.558,393.048 418,390.5C 418.92,387.899 419.587,385.232 420,382.5C 420.667,357.167 420.667,331.833 420,306.5C 417.844,298.992 413.344,293.159 406.5,289C 402.205,288.088 397.872,287.421 393.5,287C 388.931,284.557 384.597,281.89 380.5,279C 370.31,278.227 360.143,278.394 350,279.5C 346.561,281.469 343.061,283.303 339.5,285C 334.406,285.524 329.406,286.524 324.5,288C 323.167,290.667 321.167,292.667 318.5,294C 314.482,294.919 310.815,296.586 307.5,299C 302.505,306.332 296.005,311.832 288,315.5C 280.954,312.453 276.954,307.12 276,299.5C 272.833,296.333 269.667,293.167 266.5,290C 259.742,287.786 253.408,284.786 247.5,281C 234.5,280.333 221.5,280.333 208.5,281C 204.705,282.731 201.038,284.731 197.5,287C 189.601,286.593 182.935,289.093 177.5,294.5C 179.541,291.267 181.874,288.1 184.5,285C 188.848,284.427 193.181,283.76 197.5,283C 198.942,282.623 199.942,281.79 200.5,280.5C 203.919,279.626 207.252,278.46 210.5,277C 224.185,276.282 237.852,276.448 251.5,277.5C 251.33,278.822 251.663,279.989 252.5,281C 256.935,283.551 261.601,285.551 266.5,287C 270.2,291.035 274.2,294.702 278.5,298C 280.274,302.316 282.607,306.316 285.5,310C 288.5,310.667 291.5,310.667 294.5,310C 299.5,305 304.5,300 309.5,295C 312.05,293.558 314.716,292.392 317.5,291.5C 324.08,286.173 331.747,283.34 340.5,283C 343.52,281.3 346.52,279.634 349.5,278C 359.439,276.438 369.439,276.105 379.5,277C 382.279,277.561 384.946,278.394 387.5,279.5 Z"/></g>
<g><path style="opacity:1" fill="#63a1ce" d="M 322.5,278.5 C 318.723,283.279 313.723,286.112 307.5,287C 301.806,292.027 296.473,297.36 291.5,303C 289.866,303.494 288.199,303.66 286.5,303.5C 285.833,303.167 285.167,302.833 284.5,302.5C 284.5,301.833 284.5,301.167 284.5,300.5C 284.628,298.345 284.128,296.345 283,294.5C 278.255,290.26 274.088,285.593 270.5,280.5C 274.565,281.732 277.565,284.232 279.5,288C 281.333,289.167 283.167,290.333 285,291.5C 285.455,294.854 285.955,298.187 286.5,301.5C 288.415,301.784 290.081,301.451 291.5,300.5C 295.273,296.552 298.939,292.386 302.5,288C 305.023,287.482 307.023,286.148 308.5,284C 311.101,283.08 313.768,282.413 316.5,282C 318.405,280.579 320.405,279.412 322.5,278.5 Z"/></g>
<g><path style="opacity:1" fill="#d2e1ed" d="M 335.5,390.5 C 336.514,381.523 336.681,372.523 336,363.5C 335.075,359.399 332.575,357.399 328.5,357.5C 322.681,356.347 316.681,356.181 310.5,357C 307.53,358.153 304.863,359.82 302.5,362C 299.899,362.92 297.232,363.587 294.5,364C 291.928,366.35 289.261,368.517 286.5,370.5C 288.876,365.471 292.876,362.637 298.5,362C 309.079,354.871 320.746,352.537 333.5,355C 335.667,355.833 337.167,357.333 338,359.5C 338.5,369.828 338.666,380.161 338.5,390.5C 337.5,390.5 336.5,390.5 335.5,390.5 Z"/></g>
<g><path style="opacity:1" fill="#6da7d1" d="M 58.5,296.5 C 58.5,297.167 58.5,297.833 58.5,298.5C 57.6999,312.789 57.1999,327.122 57,341.5C 56.1108,344.545 54.6108,347.211 52.5,349.5C 50.8267,350.343 49.66,351.676 49,353.5C 48.6667,368.833 48.3333,384.167 48,399.5C 47.4338,401.723 46.6005,403.723 45.5,405.5C 45.523,403.073 46.023,400.74 47,398.5C 47.3333,382.833 47.6667,367.167 48,351.5C 50.541,348.912 52.541,345.912 54,342.5C 54.3333,328.167 54.6667,313.833 55,299.5C 56.0391,298.29 57.2058,297.29 58.5,296.5 Z"/></g>
<g><path style="opacity:1" fill="#afcde2" d="M 153.5,303.5 C 154.833,303.167 156.167,302.833 157.5,302.5C 156.426,303.885 155.093,305.051 153.5,306C 150.167,306.667 146.833,306.667 143.5,306C 143,305.5 142.5,305 142,304.5C 141.667,298.5 141.333,292.5 141,286.5C 140.07,284.448 138.57,282.948 136.5,282C 115.167,281.333 93.8333,281.333 72.5,282C 71.3333,283.167 70.1667,284.333 69,285.5C 68.587,290.624 66.587,294.957 63,298.5C 62.187,300.436 61.687,302.436 61.5,304.5C 60.6692,316.66 60.1692,328.993 60,341.5C 57.9405,345.951 55.6072,350.284 53,354.5C 52.6667,369.5 52.3333,384.5 52,399.5C 51.79,401.058 51.29,402.391 50.5,403.5C 50.3334,386.497 50.5001,369.497 51,352.5C 52.0386,351.756 52.5386,350.756 52.5,349.5C 54.6108,347.211 56.1108,344.545 57,341.5C 57.1999,327.122 57.6999,312.789 58.5,298.5C 60.1288,297.375 61.6288,296.041 63,294.5C 64.5302,290.91 65.8635,287.243 67,283.5C 69.4703,281.562 72.3036,280.396 75.5,280C 96.5,279.333 117.5,279.333 138.5,280C 143.466,285.428 144.799,291.761 142.5,299C 142.796,300.888 143.296,302.722 144,304.5C 147.397,305.848 150.564,305.514 153.5,303.5 Z"/></g>
<g><path style="opacity:1" fill="#80b2d6" d="M 52.5,349.5 C 52.5386,350.756 52.0386,351.756 51,352.5C 50.5001,369.497 50.3334,386.497 50.5,403.5C 48.1394,405.194 46.1394,407.194 44.5,409.5C 44.5569,408.391 44.8902,407.391 45.5,406.5C 45.5,406.167 45.5,405.833 45.5,405.5C 46.6005,403.723 47.4338,401.723 48,399.5C 48.3333,384.167 48.6667,368.833 49,353.5C 49.66,351.676 50.8267,350.343 52.5,349.5 Z"/></g>
<g><path style="opacity:1" fill="#bad3e6" d="M 328.5,357.5 C 323.087,357.229 317.754,357.729 312.5,359C 309.279,360.104 306.612,361.937 304.5,364.5C 296.062,364.78 290.229,368.78 287,376.5C 285.848,382.77 285.182,389.103 285,395.5C 283.402,399.42 281.402,403.086 279,406.5C 278.5,420.163 278.333,433.829 278.5,447.5C 278.737,448.791 278.404,449.791 277.5,450.5C 274.78,453.06 272.614,456.06 271,459.5C 270.667,473.167 270.333,486.833 270,500.5C 265.491,505.354 262.491,511.021 261,517.5C 259.02,518.749 257.187,520.082 255.5,521.5C 231.498,521.667 207.498,521.5 183.5,521C 181.383,519.269 179.883,517.102 179,514.5C 178.333,502.833 178.333,491.167 179,479.5C 181.311,475.848 183.645,472.181 186,468.5C 186.333,452.833 186.667,437.167 187,421.5C 189.728,417.613 192.228,413.613 194.5,409.5C 193.389,414.389 191.222,418.723 188,422.5C 187.5,438.83 187.333,455.163 187.5,471.5C 187.5,472.167 187.5,472.833 187.5,473.5C 184.413,475.421 182.246,478.087 181,481.5C 180.333,492.5 180.333,503.5 181,514.5C 182.384,517.11 184.551,518.61 187.5,519C 210.174,519.833 232.841,519.666 255.5,518.5C 256.347,517.155 257.513,516.155 259,515.5C 261.641,509.229 264.641,503.229 268,497.5C 268.333,485.167 268.667,472.833 269,460.5C 269.333,459.167 269.667,457.833 270,456.5C 273.834,453.833 275.834,450.166 276,445.5C 276.333,431.833 276.667,418.167 277,404.5C 279.345,402.486 281.345,400.153 283,397.5C 284.048,389.503 284.881,381.503 285.5,373.5C 285.557,372.391 285.89,371.391 286.5,370.5C 289.261,368.517 291.928,366.35 294.5,364C 297.232,363.587 299.899,362.92 302.5,362C 304.863,359.82 307.53,358.153 310.5,357C 316.681,356.181 322.681,356.347 328.5,357.5 Z"/></g>
<g><path style="opacity:1" fill="#f2f6f8" d="M 173.5,297.5 C 170.288,300.942 166.288,303.109 161.5,304C 157.399,309.55 152.066,313.383 145.5,315.5C 139.046,313.974 135.713,309.974 135.5,303.5C 136.115,299.829 136.281,296.162 136,292.5C 135.167,290.333 133.667,288.833 131.5,288C 113.833,287.333 96.1667,287.333 78.5,288C 70.8663,293.251 66.5329,300.584 65.5,310C 66.6319,320.466 66.7985,330.966 66,341.5C 62.8653,346.778 60.5319,352.445 59,358.5C 58.6667,373.833 58.3333,389.167 58,404.5C 53.8719,409.425 51.3719,415.092 50.5,421.5C 51.6431,432.12 51.8098,442.786 51,453.5C 48.2591,458.6 45.9258,463.933 44,469.5C 43.2173,479.195 43.384,488.862 44.5,498.5C 44.0431,502.047 42.5431,505.047 40,507.5C 39.7638,509.764 39.2638,511.931 38.5,514C 39.1258,514.75 39.6258,515.584 40,516.5C 43.5247,517.501 46.358,516.334 48.5,513C 54.7247,512.555 60.8913,513.055 67,514.5C 82.3286,513.183 97.6619,513.183 113,514.5C 118.961,514.203 121.794,511.037 121.5,505C 120.157,496.476 120.324,487.976 122,479.5C 124.878,475.951 126.878,471.951 128,467.5C 128.333,451.833 128.667,436.167 129,420.5C 135.891,411.045 138.058,400.545 135.5,389C 134.277,379.068 137.277,370.735 144.5,364C 151.946,359.294 159.613,354.961 167.5,351C 171.624,350.144 175.79,349.644 180,349.5C 188.994,348.33 195.661,351.664 200,359.5C 200.667,376.833 200.667,394.167 200,411.5C 199.333,412.833 198.667,414.167 198,415.5C 194.372,417.341 192.372,420.341 192,424.5C 191.667,439.5 191.333,454.5 191,469.5C 185.406,483.088 184.072,497.088 187,511.5C 189.098,513.049 191.432,514.049 194,514.5C 211.831,513.173 229.664,513.173 247.5,514.5C 249.689,514.406 251.689,513.739 253.5,512.5C 261.999,504.211 264.999,494.211 262.5,482.5C 263.122,474.174 263.622,465.841 264,457.5C 264.697,455.416 265.864,453.749 267.5,452.5C 265.83,467.758 264.997,483.091 265,498.5C 262.644,503.874 260.31,509.207 258,514.5C 256.581,515.46 255.081,516.293 253.5,517C 230.77,517.968 208.103,517.635 185.5,516C 184.299,515.097 183.465,513.931 183,512.5C 182.333,501.5 182.333,490.5 183,479.5C 185.127,477.886 186.627,475.886 187.5,473.5C 187.5,472.833 187.5,472.167 187.5,471.5C 188.117,471.389 188.617,471.056 189,470.5C 189.333,455.167 189.667,439.833 190,424.5C 193.108,419.267 195.442,413.6 197,407.5C 197.667,391.5 197.667,375.5 197,359.5C 195.833,357 194,355.167 191.5,354C 183.103,353.13 174.77,353.463 166.5,355C 158.236,358.804 150.569,363.637 143.5,369.5C 141.806,371.554 140.639,373.888 140,376.5C 139.913,388.224 139.246,399.89 138,411.5C 136.733,414.275 135.233,416.941 133.5,419.5C 132.675,420.386 131.675,420.719 130.5,420.5C 130.667,435.504 130.5,450.504 130,465.5C 128.84,470.153 127.007,474.487 124.5,478.5C 123.668,489.819 123.168,501.152 123,512.5C 121.786,514.049 120.286,515.215 118.5,516C 96.8231,516.765 75.1564,516.599 53.5,515.5C 51.5,515.667 49.5,515.833 47.5,516C 46.944,516.383 46.6107,516.883 46.5,517.5C 43.5308,519.006 40.6975,518.673 38,516.5C 37.3333,512.833 37.3333,509.167 38,505.5C 38.3826,504.944 38.8826,504.611 39.5,504.5C 40.3306,493.341 40.8306,482.007 41,470.5C 42.1071,465.619 44.2738,461.286 47.5,457.5C 48.1667,443.833 48.8333,430.167 49.5,416.5C 51.428,412.552 53.2613,408.552 55,404.5C 55.3333,387.5 55.6667,370.5 56,353.5C 57.9473,351.937 59.114,349.937 59.5,347.5C 59.8333,346.833 60.1667,346.167 60.5,345.5C 61.2216,345.082 61.7216,344.416 62,343.5C 62.3333,329.833 62.6667,316.167 63,302.5C 66.0053,298.494 68.5053,294.16 70.5,289.5C 71.9814,288.52 73.3147,287.353 74.5,286C 84.6107,284.884 94.7773,284.384 105,284.5C 114.903,284.371 124.737,284.871 134.5,286C 136.049,287.214 137.215,288.714 138,290.5C 138.333,296.167 138.667,301.833 139,307.5C 141.058,309.068 143.225,310.402 145.5,311.5C 148.145,310.892 150.812,310.392 153.5,310C 156.275,306.437 159.275,303.104 162.5,300C 166.297,299.591 169.964,298.758 173.5,297.5 Z"/></g>
<g><path style="opacity:1" fill="#579bcc" d="M 316.5,362.5 C 319.976,361.357 323.642,361.19 327.5,362C 329.723,362.652 330.89,364.152 331,366.5C 331.667,372.833 331.667,379.167 331,385.5C 329.855,389.964 327.855,393.964 325,397.5C 324.667,410.5 324.333,423.5 324,436.5C 323.901,438.653 323.067,440.319 321.5,441.5C 322.264,427.191 322.764,412.858 323,398.5C 325.772,394.059 328.106,389.392 330,384.5C 330.667,378.833 330.667,373.167 330,367.5C 329.052,365.43 327.552,363.93 325.5,363C 322.518,362.502 319.518,362.335 316.5,362.5 Z"/></g>
<g><path style="opacity:1" fill="#5b9dcc" d="M 166.5,364.5 C 163.56,368.424 159.56,370.591 154.5,371C 152.667,372.833 150.833,374.667 149,376.5C 148.667,388.833 148.333,401.167 148,413.5C 144.286,415.865 142.286,419.198 142,423.5C 141.667,439.833 141.333,456.167 141,472.5C 140.184,473.823 139.017,474.489 137.5,474.5C 137.892,472.821 138.392,471.154 139,469.5C 139.333,455.167 139.667,440.833 140,426.5C 140.395,423.793 140.895,421.127 141.5,418.5C 143.83,416.416 144.997,413.749 145,410.5C 145.333,400.167 145.667,389.833 146,379.5C 147.919,375.746 150.419,372.412 153.5,369.5C 155.801,368.94 158.134,368.44 160.5,368C 162.405,366.579 164.405,365.412 166.5,364.5 Z"/></g>
<g><path style="opacity:1" fill="#4f97ca" d="M 304.5,367.5 C 301.235,369.154 297.902,370.82 294.5,372.5C 293.194,373.912 292.36,375.579 292,377.5C 291.667,384.5 291.333,391.5 291,398.5C 287.462,401.031 285.128,404.364 284,408.5C 283.831,422.339 283.331,436.006 282.5,449.5C 282.333,435.163 282.5,420.829 283,406.5C 284.04,403.075 286.04,400.408 289,398.5C 289.5,391.174 289.666,383.841 289.5,376.5C 291.167,373.5 293.5,371.167 296.5,369.5C 299.112,368.629 301.779,367.963 304.5,367.5 Z"/></g>
<g><path style="opacity:1" fill="#d1e1ec" d="M 655.5,336.5 C 657.13,338.026 657.963,340.026 658,342.5C 658.667,352.167 658.667,361.833 658,371.5C 656.086,377.06 653.753,382.393 651,387.5C 649.859,389.609 648.359,391.442 646.5,393C 611.5,393.333 576.5,393.667 541.5,394C 537.921,397.904 534.755,402.071 532,406.5C 531.5,416.828 531.334,427.161 531.5,437.5C 531.397,440.636 530.397,443.302 528.5,445.5C 526.106,446.894 524.439,448.894 523.5,451.5C 523.343,450.127 523.51,448.793 524,447.5C 525.75,445.266 527.25,442.932 528.5,440.5C 528.333,428.829 528.5,417.162 529,405.5C 531.755,401.071 534.921,396.904 538.5,393C 573.133,391.708 607.8,391.041 642.5,391C 643.624,390.751 644.624,390.251 645.5,389.5C 647.849,385.462 650.183,381.462 652.5,377.5C 653.325,376.614 654.325,376.281 655.5,376.5C 658.117,363.181 658.117,349.848 655.5,336.5 Z"/></g>
<g><path style="opacity:1" fill="#a4c6df" d="M 643.5,330.5 C 643.833,330.5 644.167,330.5 644.5,330.5C 644.953,331.458 645.619,332.292 646.5,333C 651.514,332.495 655.681,333.995 659,337.5C 660.584,349.776 660.917,362.109 660,374.5C 658,377.167 656,379.833 654,382.5C 653.506,384.134 653.34,385.801 653.5,387.5C 653.5,388.5 653.5,389.5 653.5,390.5C 651.008,393.675 647.674,395.341 643.5,395.5C 609.105,395.02 574.771,395.52 540.5,397C 538.707,399.795 536.54,402.295 534,404.5C 533.667,405.833 533.333,407.167 533,408.5C 532.83,418.342 532.33,428.009 531.5,437.5C 531.334,427.161 531.5,416.828 532,406.5C 534.755,402.071 537.921,397.904 541.5,394C 576.5,393.667 611.5,393.333 646.5,393C 648.359,391.442 649.859,389.609 651,387.5C 653.753,382.393 656.086,377.06 658,371.5C 658.667,361.833 658.667,352.167 658,342.5C 657.963,340.026 657.13,338.026 655.5,336.5C 652.49,334.883 649.157,334.05 645.5,334C 644.177,333.184 643.511,332.017 643.5,330.5 Z"/></g>
<g><path style="opacity:1" fill="#f3f6f8" d="M 691.5,245.5 C 688.663,250.183 686.496,255.183 685,260.5C 683.629,262.041 682.129,263.375 680.5,264.5C 639.499,264.333 598.499,264.5 557.5,265C 555.627,267.209 553.46,269.042 551,270.5C 550.333,275.167 549.667,279.833 549,284.5C 546.558,287.048 544.892,290.048 544,293.5C 543.333,303.5 543.333,313.5 544,323.5C 545.566,325.822 547.733,327.322 550.5,328C 579.831,328.5 609.165,328.667 638.5,328.5C 638.833,328.5 639.167,328.5 639.5,328.5C 640.543,331.056 642.21,333.223 644.5,335C 649.108,335.629 652.108,338.129 653.5,342.5C 657.994,360.051 654.327,375.385 642.5,388.5C 607.805,389.041 573.138,389.874 538.5,391C 534.654,394.849 531.154,399.016 528,403.5C 527.5,415.829 527.333,428.162 527.5,440.5C 525.796,443.223 523.629,445.556 521,447.5C 520.667,461.833 520.333,476.167 520,490.5C 514.489,496.367 512.155,503.367 513,511.5C 512.167,514.333 510.333,516.167 507.5,517C 483.167,517.667 458.833,517.667 434.5,517C 433.069,516.535 431.903,515.701 431,514.5C 429.052,502.847 429.052,491.181 431,479.5C 432.713,478.122 434.047,476.455 435,474.5C 436.116,456.853 436.783,439.187 437,421.5C 437.908,418.257 439.908,415.923 443,414.5C 444.117,399.524 444.784,384.524 445,369.5C 446.038,366.185 447.538,363.185 449.5,360.5C 450.263,346.525 450.763,332.525 451,318.5C 452.565,315.038 454.398,311.705 456.5,308.5C 457.333,291.843 457.833,275.177 458,258.5C 459.237,254.029 461.903,250.696 466,248.5C 466.173,243.416 466.839,238.416 468,233.5C 470.986,229.183 474.32,225.183 478,221.5C 478.9,214.44 482.734,210.106 489.5,208.5C 495.087,205.379 501.087,203.379 507.5,202.5C 500.971,205.436 494.638,208.936 488.5,213C 483.375,219.793 477.875,226.293 472,232.5C 470.357,237.688 469.357,243.022 469,248.5C 466.204,251.761 464.204,255.427 463,259.5C 462.667,274.833 462.333,290.167 462,305.5C 461.108,308.952 459.442,311.952 457,314.5C 455.848,318.091 455.015,321.758 454.5,325.5C 455.919,336.858 455.752,348.191 454,359.5C 449.758,364.551 447.258,370.384 446.5,377C 447.612,388.144 447.779,399.31 447,410.5C 444.216,414.948 441.883,419.615 440,424.5C 439.212,437.689 439.379,450.856 440.5,464C 439.946,466.824 439.446,469.657 439,472.5C 436.173,475.329 434.173,478.663 433,482.5C 432.053,492.267 432.387,501.934 434,511.5C 435.823,513.167 437.99,514.167 440.5,514.5C 461.007,513.172 481.507,513.172 502,514.5C 508.815,512.49 511.815,507.824 511,500.5C 514.348,496.802 516.348,492.469 517,487.5C 517.333,474.833 517.667,462.167 518,449.5C 520.777,446.282 522.777,442.615 524,438.5C 524.333,428.5 524.667,418.5 525,408.5C 528.115,394.883 536.615,387.549 550.5,386.5C 580.489,387.627 610.489,387.794 640.5,387C 647.361,381.281 651.361,373.948 652.5,365C 651.216,359.345 651.216,353.678 652.5,348C 652.089,345.097 651.089,342.431 649.5,340C 645.172,338.171 641.172,335.838 637.5,333C 608.5,332.667 579.5,332.333 550.5,332C 546.388,330.221 543.222,327.388 541,323.5C 539.452,314.562 539.119,305.562 540,296.5C 541.546,291.955 543.546,287.622 546,283.5C 544.955,273.422 548.788,265.922 557.5,261C 598.251,260.989 638.917,260.322 679.5,259C 684.341,254.487 687.508,248.987 689,242.5C 689.667,231.167 689.667,219.833 689,208.5C 687.468,200.682 682.634,197.015 674.5,197.5C 621.541,198.329 568.541,198.829 515.5,199C 513.146,199.847 510.812,200.68 508.5,201.5C 509.965,198.146 512.632,196.313 516.5,196C 571.167,195.333 625.833,195.333 680.5,196C 685.172,197.815 688.672,200.981 691,205.5C 691.5,218.829 691.667,232.163 691.5,245.5 Z"/></g>
<g><path style="opacity:1" fill="#599bca" d="M 657.5,381.5 C 657.391,389.223 654.057,395.057 647.5,399C 612.125,399.18 576.792,399.68 541.5,400.5C 542.347,399.034 543.68,398.2 545.5,398C 549.5,397.833 553.5,397.667 557.5,397.5C 586.828,398.561 616.161,398.728 645.5,398C 649.372,396.624 652.038,394.124 653.5,390.5C 653.5,389.5 653.5,388.5 653.5,387.5C 654.653,385.364 655.986,383.364 657.5,381.5 Z"/></g>
<g><path style="opacity:1" fill="#e4edf3" d="M 418.5,294.5 C 421.606,296.598 423.939,299.265 425.5,302.5C 425.667,330.502 425.5,358.502 425,386.5C 424.06,391.048 422.06,395.048 419,398.5C 418.5,414.497 418.333,430.497 418.5,446.5C 417.325,446.281 416.325,446.614 415.5,447.5C 413.984,450.531 412.484,453.531 411,456.5C 410.832,466.184 410.332,475.851 409.5,485.5C 406.795,487.707 404.629,490.374 403,493.5C 402.667,499.5 402.333,505.5 402,511.5C 401.722,512.416 401.222,513.082 400.5,513.5C 401.221,506.533 401.721,499.533 402,492.5C 403.798,489.322 405.298,485.988 406.5,482.5C 407.182,473.146 408.016,463.812 409,454.5C 411.403,452.695 413.07,450.362 414,447.5C 414.333,431.167 414.667,414.833 415,398.5C 417.588,394.326 419.921,389.993 422,385.5C 422.667,359.833 422.667,334.167 422,308.5C 421.011,303.7 419.844,299.033 418.5,294.5 Z"/></g>
<g><path style="opacity:1" fill="#8cb9d9" d="M 441.5,367.5 C 441.667,378.172 441.5,388.839 441,399.5C 439.263,403.661 438.263,407.995 438,412.5C 436.219,414.724 434.719,417.058 433.5,419.5C 433.517,417.435 433.85,415.435 434.5,413.5C 435.395,408.257 437.062,403.257 439.5,398.5C 440.167,388.167 440.833,377.833 441.5,367.5 Z"/></g>
<g><path style="opacity:1" fill="#85b4d6" d="M 643.5,395.5 C 609.609,396.021 575.609,396.854 541.5,398C 539.707,400.795 537.54,403.295 535,405.5C 534.752,417.858 534.252,430.192 533.5,442.5C 532.227,445.609 530.727,448.609 529,451.5C 528.833,465.845 528.333,480.178 527.5,494.5C 526.817,494.863 526.15,495.196 525.5,495.5C 526.183,479.84 526.85,464.174 527.5,448.5C 527.557,447.391 527.89,446.391 528.5,445.5C 530.397,443.302 531.397,440.636 531.5,437.5C 532.33,428.009 532.83,418.342 533,408.5C 533.333,407.167 533.667,405.833 534,404.5C 536.54,402.295 538.707,399.795 540.5,397C 574.771,395.52 609.105,395.02 643.5,395.5 Z"/></g>
<g><path style="opacity:1" fill="#3e8dc5" d="M 646.5,330.5 C 651.179,330.334 655.845,330.501 660.5,331C 662.888,331.303 665.055,332.137 667,333.5C 667.667,348.167 667.667,362.833 667,377.5C 665.088,378.692 663.088,379.692 661,380.5C 660.857,384.619 660.19,388.619 659,392.5C 655.134,395.335 651.634,398.502 648.5,402C 613.155,402.565 577.822,402.565 542.5,402C 540.876,403.117 539.876,404.617 539.5,406.5C 540.794,418.82 540.794,431.154 539.5,443.5C 538.155,444.347 537.155,445.513 536.5,447C 535.552,447.483 534.552,447.649 533.5,447.5C 534.031,445.456 535.198,443.789 537,442.5C 537.5,430.171 537.667,417.838 537.5,405.5C 538.833,403.833 540.167,402.167 541.5,400.5C 576.792,399.68 612.125,399.18 647.5,399C 654.057,395.057 657.391,389.223 657.5,381.5C 659.859,379.634 661.692,377.301 663,374.5C 663.848,361.795 663.515,349.129 662,336.5C 660.471,335.271 659.304,333.771 658.5,332C 654.312,331.824 650.312,331.324 646.5,330.5 Z"/></g>
<g><path style="opacity:1" fill="#c9dcea" d="M 330.5,398.5 C 330.667,412.504 330.5,426.504 330,440.5C 328.066,444.759 325.732,448.759 323,452.5C 322.667,466.167 322.333,479.833 322,493.5C 321.722,494.416 321.222,495.082 320.5,495.5C 321.448,481.536 321.781,467.536 321.5,453.5C 323.377,447.766 325.544,442.1 328,436.5C 328.333,424.167 328.667,411.833 329,399.5C 329.383,398.944 329.883,398.611 330.5,398.5 Z"/></g>
<g><path style="opacity:1" fill="#3789c4" d="M 307.5,366.5 C 306.793,368.781 305.793,370.948 304.5,373C 301.118,373.176 297.785,373.676 294.5,374.5C 294.481,382.424 294.315,390.424 294,398.5C 291.254,400.037 288.921,402.037 287,404.5C 286.667,420.167 286.333,435.833 286,451.5C 283.815,452.928 281.815,454.595 280,456.5C 279.667,471.833 279.333,487.167 279,502.5C 278.578,504.426 277.411,505.426 275.5,505.5C 277.434,489.671 278.101,473.671 277.5,457.5C 279.153,454.869 280.819,452.203 282.5,449.5C 283.331,436.006 283.831,422.339 284,408.5C 285.128,404.364 287.462,401.031 291,398.5C 291.333,391.5 291.667,384.5 292,377.5C 292.36,375.579 293.194,373.912 294.5,372.5C 297.902,370.82 301.235,369.154 304.5,367.5C 305.391,366.89 306.391,366.557 307.5,366.5 Z"/></g>
<g><path style="opacity:1" fill="#e8eff3" d="M 639.5,328.5 C 640.605,329.6 641.938,330.267 643.5,330.5C 643.511,332.017 644.177,333.184 645.5,334C 649.157,334.05 652.49,334.883 655.5,336.5C 658.117,349.848 658.117,363.181 655.5,376.5C 654.325,376.281 653.325,376.614 652.5,377.5C 650.183,381.462 647.849,385.462 645.5,389.5C 644.624,390.251 643.624,390.751 642.5,391C 607.8,391.041 573.133,391.708 538.5,393C 534.921,396.904 531.755,401.071 529,405.5C 528.5,417.162 528.333,428.829 528.5,440.5C 528.167,440.5 527.833,440.5 527.5,440.5C 527.333,428.162 527.5,415.829 528,403.5C 531.154,399.016 534.654,394.849 538.5,391C 573.138,389.874 607.805,389.041 642.5,388.5C 654.327,375.385 657.994,360.051 653.5,342.5C 652.108,338.129 649.108,335.629 644.5,335C 642.21,333.223 640.543,331.056 639.5,328.5 Z"/></g>
<g><path style="opacity:1" fill="#90bbda" d="M 304.5,364.5 C 301.796,366.171 299.129,367.837 296.5,369.5C 293.5,371.167 291.167,373.5 289.5,376.5C 288.732,377.263 288.232,378.263 288,379.5C 287.83,385.528 287.33,391.528 286.5,397.5C 283.474,401.416 281.307,405.749 280,410.5C 279.831,423.007 279.331,435.34 278.5,447.5C 278.333,433.829 278.5,420.163 279,406.5C 281.402,403.086 283.402,399.42 285,395.5C 285.182,389.103 285.848,382.77 287,376.5C 290.229,368.78 296.062,364.78 304.5,364.5 Z"/></g>
<g><path style="opacity:1" fill="#abcbe1" d="M 50.5,403.5 C 48.1453,406.876 46.312,410.543 45,414.5C 44.9137,429.212 44.2471,443.879 43,458.5C 41.1606,460.201 39.3273,461.868 37.5,463.5C 39.5788,459.672 41.4121,455.672 43,451.5C 43.2008,437.456 43.7008,423.456 44.5,409.5C 46.1394,407.194 48.1394,405.194 50.5,403.5 Z"/></g>
<g><path style="opacity:1" fill="#c2d8e8" d="M 150.5,366.5 C 147.419,369.412 144.919,372.746 143,376.5C 142.5,387.828 142.333,399.162 142.5,410.5C 142.082,413.439 140.582,415.772 138,417.5C 137.187,419.436 136.687,421.436 136.5,423.5C 135.669,438.995 135.169,454.661 135,470.5C 133.754,473.913 131.587,476.579 128.5,478.5C 129.75,476.068 131.25,473.734 133,471.5C 133.333,455.167 133.667,438.833 134,422.5C 135.911,418.255 138.245,414.255 141,410.5C 141.333,398.833 141.667,387.167 142,375.5C 143.655,371.346 146.489,368.346 150.5,366.5 Z"/></g>
<g><path style="opacity:1" fill="#6fa8d0" d="M 653.5,390.5 C 652.038,394.124 649.372,396.624 645.5,398C 616.161,398.728 586.828,398.561 557.5,397.5C 553.5,397.667 549.5,397.833 545.5,398C 543.68,398.2 542.347,399.034 541.5,400.5C 540.167,402.167 538.833,403.833 537.5,405.5C 536.883,405.611 536.383,405.944 536,406.5C 535.667,417.5 535.333,428.5 535,439.5C 534.768,440.737 534.268,441.737 533.5,442.5C 534.252,430.192 534.752,417.858 535,405.5C 537.54,403.295 539.707,400.795 541.5,398C 575.609,396.854 609.609,396.021 643.5,395.5C 647.674,395.341 651.008,393.675 653.5,390.5 Z"/></g>
<g><path style="opacity:1" fill="#67a4d0" d="M 289.5,376.5 C 289.666,383.841 289.5,391.174 289,398.5C 286.04,400.408 284.04,403.075 283,406.5C 282.5,420.829 282.333,435.163 282.5,449.5C 280.819,452.203 279.153,454.869 277.5,457.5C 276.686,459.631 276.186,461.964 276,464.5C 275.667,476.167 275.333,487.833 275,499.5C 271.679,504.98 268.179,510.314 264.5,515.5C 266.334,510.166 268.834,505.166 272,500.5C 272.333,487.5 272.667,474.5 273,461.5C 274.027,457.574 275.527,453.907 277.5,450.5C 278.404,449.791 278.737,448.791 278.5,447.5C 279.331,435.34 279.831,423.007 280,410.5C 281.307,405.749 283.474,401.416 286.5,397.5C 287.33,391.528 287.83,385.528 288,379.5C 288.232,378.263 288.732,377.263 289.5,376.5 Z"/></g>
<g><path style="opacity:1" fill="#4490c6" d="M 439.5,362.5 C 439.5,374.5 439.5,386.5 439.5,398.5C 437.062,403.257 435.395,408.257 434.5,413.5C 433.85,413.804 433.183,414.137 432.5,414.5C 431.667,429.489 431.167,444.489 431,459.5C 430.74,461.618 429.74,463.284 428,464.5C 428.011,469.1 427.011,473.433 425,477.5C 424.828,483.681 424.328,489.681 423.5,495.5C 423.262,484.797 423.762,474.13 425,463.5C 426.667,461.833 428.333,460.167 430,458.5C 430.116,440.47 430.783,422.47 432,404.5C 433.708,402.457 435.708,400.79 438,399.5C 438.169,386.993 438.669,374.66 439.5,362.5 Z"/></g>
<g><path style="opacity:1" fill="#69a5d0" d="M 45.5,406.5 C 44.8902,407.391 44.5569,408.391 44.5,409.5C 43.0337,410.347 42.2004,411.68 42,413.5C 41.6667,426.167 41.3333,438.833 41,451.5C 39.2646,456.633 37.2646,461.633 35,466.5C 34.6667,478.833 34.3333,491.167 34,503.5C 33.7679,504.737 33.2679,505.737 32.5,506.5C 31.4862,492.181 31.3195,477.848 32,463.5C 35.5313,460.975 37.8646,457.641 39,453.5C 39.3333,440.167 39.6667,426.833 40,413.5C 40.9911,410.36 42.8244,408.026 45.5,406.5 Z"/></g>
<g><path style="opacity:1" fill="#a5c7e0" d="M 194.5,409.5 C 192.228,413.613 189.728,417.613 187,421.5C 186.667,437.167 186.333,452.833 186,468.5C 183.645,472.181 181.311,475.848 179,479.5C 178.333,491.167 178.333,502.833 179,514.5C 179.883,517.102 181.383,519.269 183.5,521C 207.498,521.5 231.498,521.667 255.5,521.5C 231.337,522.663 207.003,522.83 182.5,522C 181,520.5 179.5,519 178,517.5C 177.333,504.167 177.333,490.833 178,477.5C 179.879,475.473 181.046,473.14 181.5,470.5C 182.158,469.602 182.824,468.602 183.5,467.5C 184.194,450.466 184.861,433.466 185.5,416.5C 188.231,414.929 190.065,412.595 191,409.5C 191.667,393.833 191.667,378.167 191,362.5C 189.681,360.513 187.848,359.346 185.5,359C 181.514,358.501 177.514,358.334 173.5,358.5C 166.548,360.875 159.548,363.375 152.5,366C 150.707,368.795 148.54,371.295 146,373.5C 145.333,375.5 144.667,377.5 144,379.5C 143.83,390.008 143.33,400.341 142.5,410.5C 142.333,399.162 142.5,387.828 143,376.5C 144.919,372.746 147.419,369.412 150.5,366.5C 157.538,362.868 164.871,359.702 172.5,357C 178.167,356.333 183.833,356.333 189.5,357C 191.894,358.952 193.394,361.452 194,364.5C 194.5,379.496 194.667,394.496 194.5,409.5 Z"/></g>
<g><path style="opacity:1" fill="#dee9f0" d="M 187.5,471.5 C 187.333,455.163 187.5,438.83 188,422.5C 191.222,418.723 193.389,414.389 194.5,409.5C 194.667,394.496 194.5,379.496 194,364.5C 193.394,361.452 191.894,358.952 189.5,357C 183.833,356.333 178.167,356.333 172.5,357C 164.871,359.702 157.538,362.868 150.5,366.5C 146.489,368.346 143.655,371.346 142,375.5C 141.667,387.167 141.333,398.833 141,410.5C 138.245,414.255 135.911,418.255 134,422.5C 133.667,438.833 133.333,455.167 133,471.5C 131.25,473.734 129.75,476.068 128.5,478.5C 127.91,479.766 127.41,481.099 127,482.5C 126.737,493.192 126.237,503.859 125.5,514.5C 123.887,516.27 121.887,517.436 119.5,518C 95.1573,518.702 70.824,518.535 46.5,517.5C 46.6107,516.883 46.944,516.383 47.5,516C 49.5,515.833 51.5,515.667 53.5,515.5C 75.1564,516.599 96.8231,516.765 118.5,516C 120.286,515.215 121.786,514.049 123,512.5C 123.168,501.152 123.668,489.819 124.5,478.5C 127.007,474.487 128.84,470.153 130,465.5C 130.5,450.504 130.667,435.504 130.5,420.5C 131.675,420.719 132.675,420.386 133.5,419.5C 135.233,416.941 136.733,414.275 138,411.5C 139.246,399.89 139.913,388.224 140,376.5C 140.639,373.888 141.806,371.554 143.5,369.5C 150.569,363.637 158.236,358.804 166.5,355C 174.77,353.463 183.103,353.13 191.5,354C 194,355.167 195.833,357 197,359.5C 197.667,375.5 197.667,391.5 197,407.5C 195.442,413.6 193.108,419.267 190,424.5C 189.667,439.833 189.333,455.167 189,470.5C 188.617,471.056 188.117,471.389 187.5,471.5 Z"/></g>
<g><path style="opacity:1" fill="#90bbda" d="M 173.5,358.5 C 166.807,362.211 160.14,365.877 153.5,369.5C 150.419,372.412 147.919,375.746 146,379.5C 145.667,389.833 145.333,400.167 145,410.5C 144.997,413.749 143.83,416.416 141.5,418.5C 139.883,420.121 138.716,422.121 138,424.5C 137.831,439.672 137.331,454.672 136.5,469.5C 136.5,454.167 136.5,438.833 136.5,423.5C 136.687,421.436 137.187,419.436 138,417.5C 140.582,415.772 142.082,413.439 142.5,410.5C 143.33,400.341 143.83,390.008 144,379.5C 144.667,377.5 145.333,375.5 146,373.5C 148.54,371.295 150.707,368.795 152.5,366C 159.548,363.375 166.548,360.875 173.5,358.5 Z"/></g>
<g><path style="opacity:1" fill="#63a1cf" d="M 185.5,416.5 C 184.861,433.466 184.194,450.466 183.5,467.5C 182.824,468.602 182.158,469.602 181.5,470.5C 181.193,452.453 181.527,434.453 182.5,416.5C 184.506,414.481 186.172,412.148 187.5,409.5C 188.666,395.512 188.833,381.512 188,367.5C 187.727,365.671 186.893,364.171 185.5,363C 179.386,362.268 173.386,362.768 167.5,364.5C 168.058,363.21 169.058,362.377 170.5,362C 176.119,360.701 181.786,360.368 187.5,361C 188.333,361.833 189.167,362.667 190,363.5C 190.667,377.5 190.667,391.5 190,405.5C 189.571,409.68 188.071,413.347 185.5,416.5 Z"/></g>
<g><path style="opacity:1" fill="#77add4" d="M 173.5,358.5 C 177.514,358.334 181.514,358.501 185.5,359C 187.848,359.346 189.681,360.513 191,362.5C 191.667,378.167 191.667,393.833 191,409.5C 190.065,412.595 188.231,414.929 185.5,416.5C 188.071,413.347 189.571,409.68 190,405.5C 190.667,391.5 190.667,377.5 190,363.5C 189.167,362.667 188.333,361.833 187.5,361C 181.786,360.368 176.119,360.701 170.5,362C 169.058,362.377 168.058,363.21 167.5,364.5C 167.167,364.5 166.833,364.5 166.5,364.5C 164.405,365.412 162.405,366.579 160.5,368C 158.134,368.44 155.801,368.94 153.5,369.5C 160.14,365.877 166.807,362.211 173.5,358.5 Z"/></g>
<g><path style="opacity:1" fill="#9cc2dd" d="M 328.5,357.5 C 332.575,357.399 335.075,359.399 336,363.5C 336.681,372.523 336.514,381.523 335.5,390.5C 333.007,392.658 331.34,395.324 330.5,398.5C 329.883,398.611 329.383,398.944 329,399.5C 328.667,411.833 328.333,424.167 328,436.5C 325.544,442.1 323.377,447.766 321.5,453.5C 320.669,465.993 320.169,478.66 320,491.5C 317.725,495.732 315.225,499.732 312.5,503.5C 313.199,499.768 314.866,496.435 317.5,493.5C 318.333,479.178 318.833,464.845 319,450.5C 322.077,446.636 324.41,442.302 326,437.5C 326.333,424.167 326.667,410.833 327,397.5C 330.171,393.651 332.504,389.317 334,384.5C 334.89,377.086 334.557,369.753 333,362.5C 330.438,359.279 327.105,357.946 323,358.5C 316.135,358.622 309.968,360.622 304.5,364.5C 306.612,361.937 309.279,360.104 312.5,359C 317.754,357.729 323.087,357.229 328.5,357.5 Z"/></g>
<g><path style="opacity:1" fill="#5c9ecd" d="M 318.5,446.5 C 317.7,460.789 317.2,475.122 317,489.5C 316.626,491.491 315.793,493.158 314.5,494.5C 315.245,480.187 315.745,465.854 316,451.5C 316.099,449.347 316.933,447.681 318.5,446.5 Z"/></g>
<g><path style="opacity:1" fill="#70a9d2" d="M 312.5,503.5 C 309.959,510.753 311.625,516.92 317.5,522C 318.448,522.483 319.448,522.649 320.5,522.5C 347.33,523.664 374.33,523.83 401.5,523C 403.559,520.366 405.725,517.866 408,515.5C 408.173,509.984 408.673,504.651 409.5,499.5C 409.666,505.509 409.499,511.509 409,517.5C 407.167,520.667 404.667,523.167 401.5,525C 373.167,525.667 344.833,525.667 316.5,525C 314.097,522.318 311.597,519.818 309,517.5C 308.333,512.167 308.333,506.833 309,501.5C 310.382,498.695 312.216,496.361 314.5,494.5C 315.793,493.158 316.626,491.491 317,489.5C 317.2,475.122 317.7,460.789 318.5,446.5C 319.075,444.589 320.075,442.922 321.5,441.5C 323.067,440.319 323.901,438.653 324,436.5C 324.333,423.5 324.667,410.5 325,397.5C 327.855,393.964 329.855,389.964 331,385.5C 331.667,379.167 331.667,372.833 331,366.5C 330.89,364.152 329.723,362.652 327.5,362C 323.642,361.19 319.976,361.357 316.5,362.5C 312.898,362.692 309.898,364.026 307.5,366.5C 306.391,366.557 305.391,366.89 304.5,367.5C 301.779,367.963 299.112,368.629 296.5,369.5C 299.129,367.837 301.796,366.171 304.5,364.5C 309.968,360.622 316.135,358.622 323,358.5C 327.105,357.946 330.438,359.279 333,362.5C 334.557,369.753 334.89,377.086 334,384.5C 332.504,389.317 330.171,393.651 327,397.5C 326.667,410.833 326.333,424.167 326,437.5C 324.41,442.302 322.077,446.636 319,450.5C 318.833,464.845 318.333,479.178 317.5,493.5C 314.866,496.435 313.199,499.768 312.5,503.5 Z"/></g>
<g><path style="opacity:1" fill="#579bcb" d="M 537.5,405.5 C 537.667,417.838 537.5,430.171 537,442.5C 535.198,443.789 534.031,445.456 533.5,447.5C 532.034,448.347 531.2,449.68 531,451.5C 530.667,465.5 530.333,479.5 530,493.5C 527.978,495.531 526.311,497.865 525,500.5C 524.495,506.55 523.661,512.55 522.5,518.5C 521.145,519.188 520.145,520.188 519.5,521.5C 519.167,521.5 518.833,521.5 518.5,521.5C 520.966,515.833 522.299,509.833 522.5,503.5C 523.199,500.69 524.199,498.023 525.5,495.5C 526.15,495.196 526.817,494.863 527.5,494.5C 528.333,480.178 528.833,465.845 529,451.5C 530.727,448.609 532.227,445.609 533.5,442.5C 534.268,441.737 534.768,440.737 535,439.5C 535.333,428.5 535.667,417.5 536,406.5C 536.383,405.944 536.883,405.611 537.5,405.5 Z"/></g>
<g><path style="opacity:1" fill="#9cc2dd" d="M 527.5,448.5 C 526.85,464.174 526.183,479.84 525.5,495.5C 519.569,501.116 517.069,508.116 518,516.5C 517.292,517.381 516.458,518.047 515.5,518.5C 516.44,512.525 517.273,506.525 518,500.5C 520.245,498.377 522.245,496.044 524,493.5C 524.333,479.833 524.667,466.167 525,452.5C 525.2,450.68 526.034,449.347 527.5,448.5 Z"/></g>
<g><path style="opacity:1" fill="#3d8cc5" d="M 533.5,447.5 C 532.951,463.501 532.117,479.501 531,495.5C 529.088,497.657 527.421,499.991 526,502.5C 525.667,508.167 525.333,513.833 525,519.5C 523.556,521.155 521.722,521.822 519.5,521.5C 520.145,520.188 521.145,519.188 522.5,518.5C 523.661,512.55 524.495,506.55 525,500.5C 526.311,497.865 527.978,495.531 530,493.5C 530.333,479.5 530.667,465.5 531,451.5C 531.2,449.68 532.034,448.347 533.5,447.5 Z"/></g>
<g><path style="opacity:1" fill="#97bfdc" d="M 277.5,450.5 C 275.527,453.907 274.027,457.574 273,461.5C 272.667,474.5 272.333,487.5 272,500.5C 268.834,505.166 266.334,510.166 264.5,515.5C 262.59,519.068 259.59,521.068 255.5,521.5C 257.187,520.082 259.02,518.749 261,517.5C 262.491,511.021 265.491,505.354 270,500.5C 270.333,486.833 270.667,473.167 271,459.5C 272.614,456.06 274.78,453.06 277.5,450.5 Z"/></g>
<g><path style="opacity:1" fill="#cfe0eb" d="M 61.5,304.5 C 61.7797,318.203 61.4464,331.87 60.5,345.5C 60.1667,346.167 59.8333,346.833 59.5,347.5C 56.663,349.847 54.8296,352.847 54,356.5C 53.6667,372.5 53.3333,388.5 53,404.5C 52.1177,407.552 50.2844,409.886 47.5,411.5C 46.6672,426.489 46.1672,441.489 46,456.5C 43.4728,460.221 41.4728,464.221 40,468.5C 39.5001,480.495 39.3335,492.495 39.5,504.5C 38.8826,504.611 38.3826,504.944 38,505.5C 37.3333,509.167 37.3333,512.833 38,516.5C 40.6975,518.673 43.5308,519.006 46.5,517.5C 70.824,518.535 95.1573,518.702 119.5,518C 121.887,517.436 123.887,516.27 125.5,514.5C 126.21,517.86 124.876,519.693 121.5,520C 93.4697,520.429 65.4697,520.429 37.5,520C 35.4062,518.745 34.4062,516.912 34.5,514.5C 35.0196,511.088 35.8529,507.755 37,504.5C 37.4999,491.171 37.6666,477.837 37.5,464.5C 37.5,464.167 37.5,463.833 37.5,463.5C 39.3273,461.868 41.1606,460.201 43,458.5C 44.2471,443.879 44.9137,429.212 45,414.5C 46.312,410.543 48.1453,406.876 50.5,403.5C 51.29,402.391 51.79,401.058 52,399.5C 52.3333,384.5 52.6667,369.5 53,354.5C 55.6072,350.284 57.9405,345.951 60,341.5C 60.1692,328.993 60.6692,316.66 61.5,304.5 Z"/></g>
<g><path style="opacity:1" fill="#83b4d7" d="M 425.5,296.5 C 426.482,297.141 427.482,297.807 428.5,298.5C 429.5,328.826 429.833,359.159 429.5,389.5C 428.398,392.807 426.565,395.807 424,398.5C 423.5,415.163 423.333,431.83 423.5,448.5C 422.345,451.475 420.678,454.142 418.5,456.5C 417.85,456.804 417.183,457.137 416.5,457.5C 415.668,466.816 415.168,476.149 415,485.5C 414.108,488.952 412.442,491.952 410,494.5C 409.51,495.793 409.343,497.127 409.5,498.5C 409.5,498.833 409.5,499.167 409.5,499.5C 408.673,504.651 408.173,509.984 408,515.5C 405.725,517.866 403.559,520.366 401.5,523C 374.33,523.83 347.33,523.664 320.5,522.5C 345.502,522.667 370.502,522.5 395.5,522C 401.479,522.356 404.646,519.523 405,513.5C 405.333,508.167 405.667,502.833 406,497.5C 408.079,493.007 410.412,488.674 413,484.5C 413.333,476.167 413.667,467.833 414,459.5C 415.318,456.199 417.152,453.199 419.5,450.5C 420.499,433.847 420.833,417.18 420.5,400.5C 421.769,397.243 423.436,394.243 425.5,391.5C 426.117,391.389 426.617,391.056 427,390.5C 427.333,388.5 427.667,386.5 428,384.5C 428.667,357.167 428.667,329.833 428,302.5C 427.8,300.68 426.966,299.347 425.5,298.5C 425.5,297.833 425.5,297.167 425.5,296.5 Z"/></g>
<g><path style="opacity:1" fill="#418ec5" d="M 258.5,272.5 C 256.577,272.205 254.91,271.372 253.5,270C 238.833,269.333 224.167,269.333 209.5,270C 207.618,270.198 205.952,270.698 204.5,271.5C 202.456,272.031 200.789,273.198 199.5,275C 194.008,276.851 188.342,277.851 182.5,278C 176.859,281.645 171.859,285.978 167.5,291C 164.833,292 162.167,293 159.5,294C 157.671,297.318 155.671,300.484 153.5,303.5C 150.552,303.777 147.719,303.444 145,302.5C 146.177,297.012 146.51,291.346 146,285.5C 144.68,281.681 142.18,279.015 138.5,277.5C 127.854,276.168 116.854,275.501 105.5,275.5C 94.5,275.667 83.5,275.833 72.5,276C 68.7129,277.287 66.0462,279.787 64.5,283.5C 61.733,287.374 59.733,291.707 58.5,296.5C 57.2058,297.29 56.0391,298.29 55,299.5C 54.6667,313.833 54.3333,328.167 54,342.5C 52.541,345.912 50.541,348.912 48,351.5C 47.6667,367.167 47.3333,382.833 47,398.5C 46.023,400.74 45.523,403.073 45.5,405.5C 45.5,405.833 45.5,406.167 45.5,406.5C 42.8244,408.026 40.9911,410.36 40,413.5C 39.6667,426.833 39.3333,440.167 39,453.5C 37.8646,457.641 35.5313,460.975 32,463.5C 31.3195,477.848 31.4862,492.181 32.5,506.5C 30.7369,510.381 28.4036,513.881 25.5,517C 26.7217,520.56 29.0551,523.227 32.5,525C 63.5,525.667 94.5,525.667 125.5,525C 127.734,523.25 130.068,521.75 132.5,520.5C 130.132,522.871 128.132,525.538 126.5,528.5C 94.5052,529.667 62.5052,529.833 30.5,529C 29.4689,525.471 27.4689,522.638 24.5,520.5C 22.5205,515.9 23.5205,512.233 27.5,509.5C 28.1667,494.167 28.8333,478.833 29.5,463.5C 31.9731,460.948 33.8065,457.948 35,454.5C 35.3333,439.5 35.6667,424.5 36,409.5C 40.1066,408.393 42.4399,405.726 43,401.5C 43.1671,384.823 43.6671,368.157 44.5,351.5C 46.9602,348.875 48.7936,345.875 50,342.5C 50.3333,327.5 50.6667,312.5 51,297.5C 52.892,296.87 54.5587,295.87 56,294.5C 57.1737,290.954 57.8404,287.287 58,283.5C 62.0243,280.976 65.191,277.642 67.5,273.5C 92.1599,272.334 116.827,272.167 141.5,273C 143.041,274.579 144.208,276.413 145,278.5C 151.24,281.124 153.24,285.79 151,292.5C 148.562,294.429 146.728,296.762 145.5,299.5C 145.5,301.5 146.5,302.5 148.5,302.5C 150.197,302.101 151.863,301.601 153.5,301C 155.54,297.086 157.707,293.252 160,289.5C 162.461,288.782 164.961,288.115 167.5,287.5C 169.206,285.295 170.706,282.962 172,280.5C 175.402,279.1 178.236,276.933 180.5,274C 186.056,272.761 191.722,272.094 197.5,272C 200.772,270.392 203.772,268.392 206.5,266C 220.833,265.333 235.167,265.333 249.5,266C 252.911,267.695 255.911,269.862 258.5,272.5 Z"/></g>
<g><path style="opacity:1" fill="#62a1ce" d="M 138.5,277.5 C 116.831,277.333 95.1641,277.5 73.5,278C 69.8707,278.794 66.8707,280.628 64.5,283.5C 66.0462,279.787 68.7129,277.287 72.5,276C 83.5,275.833 94.5,275.667 105.5,275.5C 116.854,275.501 127.854,276.168 138.5,277.5 Z"/></g>
<g><path style="opacity:1" fill="#e4edf3" d="M 59.5,347.5 C 59.114,349.937 57.9473,351.937 56,353.5C 55.6667,370.5 55.3333,387.5 55,404.5C 53.2613,408.552 51.428,412.552 49.5,416.5C 48.8333,430.167 48.1667,443.833 47.5,457.5C 44.2738,461.286 42.1071,465.619 41,470.5C 40.8306,482.007 40.3306,493.341 39.5,504.5C 39.3335,492.495 39.5001,480.495 40,468.5C 41.4728,464.221 43.4728,460.221 46,456.5C 46.1672,441.489 46.6672,426.489 47.5,411.5C 50.2844,409.886 52.1177,407.552 53,404.5C 53.3333,388.5 53.6667,372.5 54,356.5C 54.8296,352.847 56.663,349.847 59.5,347.5 Z"/></g>
<g><path style="opacity:1" fill="#5e9ecd" d="M 418.5,456.5 C 417.87,466.487 417.37,476.487 417,486.5C 414.94,489.286 413.44,492.286 412.5,495.5C 411.272,496.306 410.272,497.306 409.5,498.5C 409.343,497.127 409.51,495.793 410,494.5C 412.442,491.952 414.108,488.952 415,485.5C 415.168,476.149 415.668,466.816 416.5,457.5C 417.183,457.137 417.85,456.804 418.5,456.5 Z"/></g>
<g><path style="opacity:1" fill="#3b8bc4" d="M 431.5,392.5 C 429,396.372 427.833,400.706 428,405.5C 427.021,421.177 426.188,436.844 425.5,452.5C 423.876,452.36 422.71,453.027 422,454.5C 420.87,465.858 419.537,477.192 418,488.5C 416.303,491.02 414.47,493.353 412.5,495.5C 413.44,492.286 414.94,489.286 417,486.5C 417.37,476.487 417.87,466.487 418.5,456.5C 420.678,454.142 422.345,451.475 423.5,448.5C 425.321,433.533 426.154,418.199 426,402.5C 426.267,398.111 428.1,394.778 431.5,392.5 Z"/></g>
<g><path style="opacity:1" fill="#caddea" d="M 425.5,302.5 C 426.805,332.02 426.805,361.687 425.5,391.5C 423.436,394.243 421.769,397.243 420.5,400.5C 419.669,415.995 419.169,431.661 419,447.5C 417.423,450.751 415.423,453.751 413,456.5C 411.802,466.451 411.135,476.451 411,486.5C 408.763,488.281 406.763,490.281 405,492.5C 404.144,501.423 402.977,510.256 401.5,519C 374.229,520.641 346.895,520.974 319.5,520C 315.047,517.929 313.047,514.429 313.5,509.5C 313.237,503.457 315.57,498.79 320.5,495.5C 319.609,497.609 318.442,499.609 317,501.5C 316.833,503.5 316.667,505.5 316.5,507.5C 316.289,512.775 318.622,516.275 323.5,518C 347.833,518.667 372.167,518.667 396.5,518C 398.751,517.252 400.084,515.752 400.5,513.5C 401.222,513.082 401.722,512.416 402,511.5C 402.333,505.5 402.667,499.5 403,493.5C 404.629,490.374 406.795,487.707 409.5,485.5C 410.332,475.851 410.832,466.184 411,456.5C 412.484,453.531 413.984,450.531 415.5,447.5C 416.325,446.614 417.325,446.281 418.5,446.5C 418.333,430.497 418.5,414.497 419,398.5C 422.06,395.048 424.06,391.048 425,386.5C 425.5,358.502 425.667,330.502 425.5,302.5 Z"/></g>
<g><path style="opacity:1" fill="#dee9f0" d="M 285.5,373.5 C 284.881,381.503 284.048,389.503 283,397.5C 281.345,400.153 279.345,402.486 277,404.5C 276.667,418.167 276.333,431.833 276,445.5C 275.834,450.166 273.834,453.833 270,456.5C 269.667,457.833 269.333,459.167 269,460.5C 268.667,472.833 268.333,485.167 268,497.5C 264.641,503.229 261.641,509.229 259,515.5C 257.513,516.155 256.347,517.155 255.5,518.5C 232.841,519.666 210.174,519.833 187.5,519C 184.551,518.61 182.384,517.11 181,514.5C 180.333,503.5 180.333,492.5 181,481.5C 182.246,478.087 184.413,475.421 187.5,473.5C 186.627,475.886 185.127,477.886 183,479.5C 182.333,490.5 182.333,501.5 183,512.5C 183.465,513.931 184.299,515.097 185.5,516C 208.103,517.635 230.77,517.968 253.5,517C 255.081,516.293 256.581,515.46 258,514.5C 260.31,509.207 262.644,503.874 265,498.5C 264.997,483.091 265.83,467.758 267.5,452.5C 270.07,450.317 272.07,447.65 273.5,444.5C 274.333,431.513 274.833,418.513 275,405.5C 276.572,401.359 278.905,397.692 282,394.5C 282.333,389.167 282.667,383.833 283,378.5C 283.099,376.347 283.933,374.681 285.5,373.5 Z"/></g>
<g><path style="opacity:1" fill="#dce8f0" d="M 449.5,360.5 C 447.538,363.185 446.038,366.185 445,369.5C 444.784,384.524 444.117,399.524 443,414.5C 439.908,415.923 437.908,418.257 437,421.5C 436.783,439.187 436.116,456.853 435,474.5C 434.047,476.455 432.713,478.122 431,479.5C 429.052,491.181 429.052,502.847 431,514.5C 431.903,515.701 433.069,516.535 434.5,517C 458.833,517.667 483.167,517.667 507.5,517C 510.333,516.167 512.167,514.333 513,511.5C 512.155,503.367 514.489,496.367 520,490.5C 520.333,476.167 520.667,461.833 521,447.5C 523.629,445.556 525.796,443.223 527.5,440.5C 527.833,440.5 528.167,440.5 528.5,440.5C 527.25,442.932 525.75,445.266 524,447.5C 523.51,448.793 523.343,450.127 523.5,451.5C 523.667,463.838 523.5,476.171 523,488.5C 522.817,493.203 520.817,496.87 517,499.5C 515.855,504.083 515.189,508.749 515,513.5C 513.833,516 512,517.833 509.5,519C 484.5,519.667 459.5,519.667 434.5,519C 431.027,518.193 428.86,516.027 428,512.5C 427.168,501.485 427.334,490.485 428.5,479.5C 431.737,477.768 433.571,475.102 434,471.5C 435.158,453.857 435.825,436.19 436,418.5C 436.901,415.929 438.234,413.596 440,411.5C 442.275,396.95 443.108,382.283 442.5,367.5C 442.328,366.508 442.662,365.842 443.5,365.5C 445.5,363.833 447.5,362.167 449.5,360.5 Z"/></g>
<g><path style="opacity:1" fill="#bbd4e6" d="M 441.5,367.5 C 441.833,367.5 442.167,367.5 442.5,367.5C 443.108,382.283 442.275,396.95 440,411.5C 438.234,413.596 436.901,415.929 436,418.5C 435.825,436.19 435.158,453.857 434,471.5C 433.571,475.102 431.737,477.768 428.5,479.5C 427.334,490.485 427.168,501.485 428,512.5C 428.86,516.027 431.027,518.193 434.5,519C 459.5,519.667 484.5,519.667 509.5,519C 512,517.833 513.833,516 515,513.5C 515.189,508.749 515.855,504.083 517,499.5C 520.817,496.87 522.817,493.203 523,488.5C 523.5,476.171 523.667,463.838 523.5,451.5C 524.439,448.894 526.106,446.894 528.5,445.5C 527.89,446.391 527.557,447.391 527.5,448.5C 526.034,449.347 525.2,450.68 525,452.5C 524.667,466.167 524.333,479.833 524,493.5C 522.245,496.044 520.245,498.377 518,500.5C 517.273,506.525 516.44,512.525 515.5,518.5C 514.373,519.122 513.373,519.955 512.5,521C 484.833,521.667 457.167,521.667 429.5,521C 425.552,517.241 423.886,512.574 424.5,507C 425.962,497.236 426.795,487.403 427,477.5C 430.497,472.043 432.497,466.043 433,459.5C 433.5,446.171 433.667,432.837 433.5,419.5C 434.719,417.058 436.219,414.724 438,412.5C 438.263,407.995 439.263,403.661 441,399.5C 441.5,388.839 441.667,378.172 441.5,367.5 Z"/></g>
<g><path style="opacity:1" fill="#aacae1" d="M 420.5,400.5 C 420.833,417.18 420.499,433.847 419.5,450.5C 417.152,453.199 415.318,456.199 414,459.5C 413.667,467.833 413.333,476.167 413,484.5C 410.412,488.674 408.079,493.007 406,497.5C 405.667,502.833 405.333,508.167 405,513.5C 404.646,519.523 401.479,522.356 395.5,522C 370.502,522.5 345.502,522.667 320.5,522.5C 319.448,522.649 318.448,522.483 317.5,522C 311.625,516.92 309.959,510.753 312.5,503.5C 315.225,499.732 317.725,495.732 320,491.5C 320.169,478.66 320.669,465.993 321.5,453.5C 321.781,467.536 321.448,481.536 320.5,495.5C 315.57,498.79 313.237,503.457 313.5,509.5C 313.047,514.429 315.047,517.929 319.5,520C 346.895,520.974 374.229,520.641 401.5,519C 402.977,510.256 404.144,501.423 405,492.5C 406.763,490.281 408.763,488.281 411,486.5C 411.135,476.451 411.802,466.451 413,456.5C 415.423,453.751 417.423,450.751 419,447.5C 419.169,431.661 419.669,415.995 420.5,400.5 Z"/></g>
<g><path style="opacity:1" fill="#80b0d3" d="M 44.5,409.5 C 43.7008,423.456 43.2008,437.456 43,451.5C 41.4121,455.672 39.5788,459.672 37.5,463.5C 37.5,463.833 37.5,464.167 37.5,464.5C 36.71,465.609 36.21,466.942 36,468.5C 35.6667,480.5 35.3333,492.5 35,504.5C 33.1586,509.366 32.4919,514.366 33,519.5C 33.5,520.667 34.3333,521.5 35.5,522C 65.2527,522.984 94.9194,522.65 124.5,521C 127.268,519.238 128.768,516.738 129,513.5C 129.12,502.451 129.787,491.451 131,480.5C 133.511,477.16 135.344,473.494 136.5,469.5C 137.331,454.672 137.831,439.672 138,424.5C 138.716,422.121 139.883,420.121 141.5,418.5C 140.895,421.127 140.395,423.793 140,426.5C 139.667,440.833 139.333,455.167 139,469.5C 138.392,471.154 137.892,472.821 137.5,474.5C 134.294,476.564 132.461,479.564 132,483.5C 131.667,494.833 131.333,506.167 131,517.5C 129.833,520 128,521.833 125.5,523C 116.558,524.108 107.558,524.608 98.5,524.5C 77.1657,524.041 55.8324,523.541 34.5,523C 31.3649,521.734 29.6983,519.401 29.5,516C 30.991,513.025 31.991,509.859 32.5,506.5C 33.2679,505.737 33.7679,504.737 34,503.5C 34.3333,491.167 34.6667,478.833 35,466.5C 37.2646,461.633 39.2646,456.633 41,451.5C 41.3333,438.833 41.6667,426.167 42,413.5C 42.2004,411.68 43.0337,410.347 44.5,409.5 Z"/></g>
<g><path style="opacity:1" fill="#a9c9df" d="M 136.5,423.5 C 136.5,438.833 136.5,454.167 136.5,469.5C 135.344,473.494 133.511,477.16 131,480.5C 129.787,491.451 129.12,502.451 129,513.5C 128.768,516.738 127.268,519.238 124.5,521C 94.9194,522.65 65.2527,522.984 35.5,522C 34.3333,521.5 33.5,520.667 33,519.5C 32.4919,514.366 33.1586,509.366 35,504.5C 35.3333,492.5 35.6667,480.5 36,468.5C 36.21,466.942 36.71,465.609 37.5,464.5C 37.6666,477.837 37.4999,491.171 37,504.5C 35.8529,507.755 35.0196,511.088 34.5,514.5C 34.4062,516.912 35.4062,518.745 37.5,520C 65.4697,520.429 93.4697,520.429 121.5,520C 124.876,519.693 126.21,517.86 125.5,514.5C 126.237,503.859 126.737,493.192 127,482.5C 127.41,481.099 127.91,479.766 128.5,478.5C 131.587,476.579 133.754,473.913 135,470.5C 135.169,454.661 135.669,438.995 136.5,423.5 Z"/></g>
<g><path style="opacity:1" fill="#84b4d7" d="M 434.5,413.5 C 433.85,415.435 433.517,417.435 433.5,419.5C 433.667,432.837 433.5,446.171 433,459.5C 432.497,466.043 430.497,472.043 427,477.5C 426.795,487.403 425.962,497.236 424.5,507C 423.886,512.574 425.552,517.241 429.5,521C 457.167,521.667 484.833,521.667 512.5,521C 513.373,519.955 514.373,519.122 515.5,518.5C 516.458,518.047 517.292,517.381 518,516.5C 517.069,508.116 519.569,501.116 525.5,495.5C 524.199,498.023 523.199,500.69 522.5,503.5C 520.104,507.71 518.937,512.377 519,517.5C 517.701,520.374 515.535,522.207 512.5,523C 484.833,523.667 457.167,523.667 429.5,523C 426.96,520.795 424.793,518.295 423,515.5C 422.254,509.449 422.421,503.449 423.5,497.5C 423.5,496.833 423.5,496.167 423.5,495.5C 424.328,489.681 424.828,483.681 425,477.5C 427.011,473.433 428.011,469.1 428,464.5C 429.74,463.284 430.74,461.618 431,459.5C 431.167,444.489 431.667,429.489 432.5,414.5C 433.183,414.137 433.85,413.804 434.5,413.5 Z"/></g>
<g><path style="opacity:1" fill="#5d9dcb" d="M 137.5,474.5 C 136.489,476.372 135.655,478.372 135,480.5C 134.667,492.833 134.333,505.167 134,517.5C 132.961,518.244 132.461,519.244 132.5,520.5C 130.068,521.75 127.734,523.25 125.5,525C 94.5,525.667 63.5,525.667 32.5,525C 29.0551,523.227 26.7217,520.56 25.5,517C 28.4036,513.881 30.7369,510.381 32.5,506.5C 31.991,509.859 30.991,513.025 29.5,516C 29.6983,519.401 31.3649,521.734 34.5,523C 55.8324,523.541 77.1657,524.041 98.5,524.5C 107.558,524.608 116.558,524.108 125.5,523C 128,521.833 129.833,520 131,517.5C 131.333,506.167 131.667,494.833 132,483.5C 132.461,479.564 134.294,476.564 137.5,474.5 Z"/></g>
<g><path style="opacity:1" fill="#66a3cf" d="M 423.5,497.5 C 422.421,503.449 422.254,509.449 423,515.5C 424.793,518.295 426.96,520.795 429.5,523C 457.167,523.667 484.833,523.667 512.5,523C 515.535,522.207 517.701,520.374 519,517.5C 518.937,512.377 520.104,507.71 522.5,503.5C 522.299,509.833 520.966,515.833 518.5,521.5C 517.833,521.833 517.167,522.167 516.5,522.5C 514.804,522.685 513.471,523.519 512.5,525C 484.833,525.667 457.167,525.667 429.5,525C 427.63,522.96 425.63,521.127 423.5,519.5C 422.034,518.653 421.2,517.32 421,515.5C 419.919,510.53 419.586,505.53 420,500.5C 421.039,499.29 422.206,498.29 423.5,497.5 Z"/></g>
<g><path style="opacity:1" fill="#5298ca" d="M 182.5,416.5 C 181.527,434.453 181.193,452.453 181.5,470.5C 179.14,472.713 177.306,475.379 176,478.5C 175.333,491.167 175.333,503.833 176,516.5C 177.793,519.295 179.96,521.795 182.5,524C 206.77,525.637 231.104,525.971 255.5,525C 260.415,523.684 263.415,520.517 264.5,515.5C 268.179,510.314 271.679,504.98 275,499.5C 275.333,487.833 275.667,476.167 276,464.5C 276.186,461.964 276.686,459.631 277.5,457.5C 278.101,473.671 277.434,489.671 275.5,505.5C 273.629,505.859 272.129,506.859 271,508.5C 270.456,514.526 267.956,519.526 263.5,523.5C 261.745,524.072 260.078,524.906 258.5,526C 233.5,526.667 208.5,526.667 183.5,526C 180.035,523.537 176.869,520.704 174,517.5C 172.372,504.595 172.039,491.595 173,478.5C 175.756,475.982 177.756,472.982 179,469.5C 179.167,452.157 179.667,434.824 180.5,417.5C 181.183,417.137 181.85,416.804 182.5,416.5 Z"/></g>
<g><path style="opacity:1" fill="#70a9d2" d="M 181.5,470.5 C 181.046,473.14 179.879,475.473 178,477.5C 177.333,490.833 177.333,504.167 178,517.5C 179.5,519 181,520.5 182.5,522C 207.003,522.83 231.337,522.663 255.5,521.5C 259.59,521.068 262.59,519.068 264.5,515.5C 263.415,520.517 260.415,523.684 255.5,525C 231.104,525.971 206.77,525.637 182.5,524C 179.96,521.795 177.793,519.295 176,516.5C 175.333,503.833 175.333,491.167 176,478.5C 177.306,475.379 179.14,472.713 181.5,470.5 Z"/></g>
<g><path style="opacity:1" fill="#4d95c9" d="M 423.5,519.5 C 425.63,521.127 427.63,522.96 429.5,525C 457.167,525.667 484.833,525.667 512.5,525C 513.471,523.519 514.804,522.685 516.5,522.5C 515.653,524.844 513.986,526.344 511.5,527C 484.833,527.667 458.167,527.667 431.5,527C 427.681,525.68 425.015,523.18 423.5,519.5 Z"/></g>
<g><path style="opacity:1" fill="#3a8ac4" d="M 182.5,416.5 C 181.85,416.804 181.183,417.137 180.5,417.5C 179.667,434.824 179.167,452.157 179,469.5C 177.756,472.982 175.756,475.982 173,478.5C 172.039,491.595 172.372,504.595 174,517.5C 176.869,520.704 180.035,523.537 183.5,526C 208.5,526.667 233.5,526.667 258.5,526C 260.078,524.906 261.745,524.072 263.5,523.5C 263.528,525.582 262.861,527.416 261.5,529C 234.5,529.667 207.5,529.667 180.5,529C 178.549,527.266 177.549,525.099 177.5,522.5C 174.383,522.358 171.883,521.024 170,518.5C 169.333,504.833 169.333,491.167 170,477.5C 173,475.833 175.333,473.5 177,470.5C 177.333,452.833 177.667,435.167 178,417.5C 180.488,416.353 182.488,414.686 184,412.5C 184.2,398.141 184.7,383.808 185.5,369.5C 185.41,367.575 184.41,366.408 182.5,366C 177.5,365.333 172.5,365.333 167.5,366C 165.833,368.333 164.167,370.667 162.5,373C 159.5,373.333 156.5,373.667 153.5,374C 152.667,374.833 151.833,375.667 151,376.5C 150.833,389.18 150.333,401.846 149.5,414.5C 147.842,416.323 146.009,417.99 144,419.5C 143.667,436.167 143.333,452.833 143,469.5C 142.559,472.939 140.892,475.606 138,477.5C 137.833,490.846 137.333,504.179 136.5,517.5C 135.717,519.288 134.384,520.288 132.5,520.5C 132.461,519.244 132.961,518.244 134,517.5C 134.333,505.167 134.667,492.833 135,480.5C 135.655,478.372 136.489,476.372 137.5,474.5C 139.017,474.489 140.184,473.823 141,472.5C 141.333,456.167 141.667,439.833 142,423.5C 142.286,419.198 144.286,415.865 148,413.5C 148.333,401.167 148.667,388.833 149,376.5C 150.833,374.667 152.667,372.833 154.5,371C 159.56,370.591 163.56,368.424 166.5,364.5C 166.833,364.5 167.167,364.5 167.5,364.5C 173.386,362.768 179.386,362.268 185.5,363C 186.893,364.171 187.727,365.671 188,367.5C 188.833,381.512 188.666,395.512 187.5,409.5C 186.172,412.148 184.506,414.481 182.5,416.5 Z"/></g>
<g><path style="opacity:1" fill="#408ec6" d="M 316.5,362.5 C 319.518,362.335 322.518,362.502 325.5,363C 327.552,363.93 329.052,365.43 330,367.5C 330.667,373.167 330.667,378.833 330,384.5C 328.106,389.392 325.772,394.059 323,398.5C 322.764,412.858 322.264,427.191 321.5,441.5C 320.075,442.922 319.075,444.589 318.5,446.5C 316.933,447.681 316.099,449.347 316,451.5C 315.745,465.854 315.245,480.187 314.5,494.5C 312.216,496.361 310.382,498.695 309,501.5C 308.333,506.833 308.333,512.167 309,517.5C 311.597,519.818 314.097,522.318 316.5,525C 344.833,525.667 373.167,525.667 401.5,525C 404.667,523.167 407.167,520.667 409,517.5C 409.499,511.509 409.666,505.509 409.5,499.5C 409.5,499.167 409.5,498.833 409.5,498.5C 410.272,497.306 411.272,496.306 412.5,495.5C 412.666,503.174 412.5,510.841 412,518.5C 408.058,520.946 404.891,524.279 402.5,528.5C 373.172,529.667 343.839,529.833 314.5,529C 312.692,524.526 309.526,521.359 305,519.5C 304.663,516.139 304.163,512.806 303.5,509.5C 304.163,506.194 304.663,502.861 305,499.5C 307.333,497.833 309.667,496.167 312,494.5C 313.047,479.189 313.88,463.856 314.5,448.5C 316.58,446.007 318.414,443.341 320,440.5C 320.333,425.5 320.667,410.5 321,395.5C 322.667,393.833 324.333,392.167 326,390.5C 326.221,383.63 326.721,376.797 327.5,370C 326.904,366.96 325.238,364.794 322.5,363.5C 317.418,364.138 312.418,365.138 307.5,366.5C 309.898,364.026 312.898,362.692 316.5,362.5 Z"/></g>
<g><path style="opacity:1" fill="#3a8bc4" d="M 423.5,495.5 C 423.5,496.167 423.5,496.833 423.5,497.5C 422.206,498.29 421.039,499.29 420,500.5C 419.586,505.53 419.919,510.53 421,515.5C 421.2,517.32 422.034,518.653 423.5,519.5C 425.015,523.18 427.681,525.68 431.5,527C 458.167,527.667 484.833,527.667 511.5,527C 513.986,526.344 515.653,524.844 516.5,522.5C 517.167,522.167 517.833,521.833 518.5,521.5C 518.833,521.5 519.167,521.5 519.5,521.5C 518.837,524.664 517.17,527.164 514.5,529C 485.161,529.833 455.828,529.667 426.5,528.5C 424.547,524.88 421.881,521.88 418.5,519.5C 417.336,513.193 417.169,506.859 418,500.5C 419.704,498.627 421.537,496.96 423.5,495.5 Z"/></g>
</svg>
