<?xml version="1.0" encoding="UTF-8"?>
<!DOCTYPE svg PUBLIC "-//W3C//DTD SVG 1.1//EN" "http://www.w3.org/Graphics/SVG/1.1/DTD/svg11.dtd">
<svg xmlns="http://www.w3.org/2000/svg" version="1.1" width="316px" height="316px" style="shape-rendering:geometricPrecision; text-rendering:geometricPrecision; image-rendering:optimizeQuality; fill-rule:evenodd; clip-rule:evenodd" xmlns:xlink="http://www.w3.org/1999/xlink">
<g><path style="opacity:0.991" fill="#242424" d="M 64.5,-0.5 C 126.5,-0.5 188.5,-0.5 250.5,-0.5C 288.5,4.83333 310.167,26.5 315.5,64.5C 315.5,126.5 315.5,188.5 315.5,250.5C 310.167,288.5 288.5,310.167 250.5,315.5C 188.5,315.5 126.5,315.5 64.5,315.5C 26.5,310.167 4.83333,288.5 -0.5,250.5C -0.5,188.5 -0.5,126.5 -0.5,64.5C 4.83333,26.5 26.5,4.83333 64.5,-0.5 Z"/></g>
<g><path style="opacity:1" fill="#351f91" d="M 277.5,36.5 C 276.792,53.058 273.125,69.058 266.5,84.5C 265.5,85.8333 264.5,87.1667 263.5,88.5C 262.069,88.1193 261.236,87.1193 261,85.5C 260.529,87.2464 259.862,88.913 259,90.5C 258.949,87.1317 259.449,83.7983 260.5,80.5C 259.767,79.913 258.767,79.913 257.5,80.5C 269.062,66.6573 275.229,50.6573 276,32.5C 276.791,33.745 277.291,35.0783 277.5,36.5 Z"/></g>
<g><path style="opacity:1" fill="#7d47d9" d="M 277.5,36.5 C 281.303,57.0626 279.637,77.0626 272.5,96.5C 270.678,92.3385 268.678,88.3385 266.5,84.5C 273.125,69.058 276.792,53.058 277.5,36.5 Z"/></g>
<g><path style="opacity:1" fill="#9747dc" d="M 266.5,84.5 C 268.678,88.3385 270.678,92.3385 272.5,96.5C 270.789,105.246 267.456,113.246 262.5,120.5C 261.197,112.996 259.53,105.663 257.5,98.5C 259.925,95.4114 261.925,92.0781 263.5,88.5C 264.5,87.1667 265.5,85.8333 266.5,84.5 Z"/></g>
<g><path style="opacity:1" fill="#6047c1" d="M 250.5,87.5 C 250.822,91.747 249.989,95.747 248,99.5C 241.353,107.976 233.52,115.31 224.5,121.5C 223.614,122.325 223.281,123.325 223.5,124.5C 215.388,128.093 207.055,131.093 198.5,133.5C 207.87,126.982 216.87,119.815 225.5,112C 231.486,109.185 235.486,104.685 237.5,98.5C 241.515,94.4874 245.848,90.8207 250.5,87.5 Z"/></g>
<g><path style="opacity:1" fill="#af47db" d="M 257.5,98.5 C 259.53,105.663 261.197,112.996 262.5,120.5C 258.806,127.904 254.139,134.571 248.5,140.5C 248.519,132.619 248.352,124.619 248,116.5C 247.998,113.949 247.164,111.949 245.5,110.5C 249.833,106.833 253.833,102.833 257.5,98.5 Z"/></g>
<g><path style="opacity:1" fill="#4e35b3" d="M 263.5,88.5 C 261.925,92.0781 259.925,95.4114 257.5,98.5C 253.833,102.833 249.833,106.833 245.5,110.5C 239.971,114.758 234.305,118.758 228.5,122.5C 226.716,122.893 225.05,123.559 223.5,124.5C 223.281,123.325 223.614,122.325 224.5,121.5C 233.52,115.31 241.353,107.976 248,99.5C 249.989,95.747 250.822,91.747 250.5,87.5C 252.5,84.8333 254.833,82.5 257.5,80.5C 258.767,79.913 259.767,79.913 260.5,80.5C 259.449,83.7983 258.949,87.1317 259,90.5C 259.862,88.913 260.529,87.2464 261,85.5C 261.236,87.1193 262.069,88.1193 263.5,88.5 Z"/></g>
<g><path style="opacity:1" fill="#6167d2" d="M 213.5,112.5 C 209.709,118.125 205.043,122.958 199.5,127C 199.957,127.414 200.291,127.914 200.5,128.5C 198.972,129.861 197.305,131.028 195.5,132C 194.748,132.671 194.414,133.504 194.5,134.5C 193.833,134.5 193.5,134.833 193.5,135.5C 189.803,136.008 186.136,136.674 182.5,137.5C 186.437,132.224 190.771,127.224 195.5,122.5C 197.041,121.333 198.375,120 199.5,118.5C 204.008,116.324 208.675,114.324 213.5,112.5 Z"/></g>
<g><path style="opacity:1" fill="#ca47da" d="M 245.5,110.5 C 247.164,111.949 247.998,113.949 248,116.5C 248.352,124.619 248.519,132.619 248.5,140.5C 246.833,142.5 245.167,144.5 243.5,146.5C 241.833,147.167 240.167,147.833 238.5,148.5C 235.762,148.149 233.096,147.482 230.5,146.5C 229.386,141.182 229.386,135.848 230.5,130.5C 230.432,127.562 229.766,124.895 228.5,122.5C 234.305,118.758 239.971,114.758 245.5,110.5 Z"/></g>
<g><path style="opacity:1" fill="#6c5bcc" d="M 237.5,98.5 C 235.486,104.685 231.486,109.185 225.5,112C 216.87,119.815 207.87,126.982 198.5,133.5C 197.292,134.234 195.959,134.567 194.5,134.5C 194.414,133.504 194.748,132.671 195.5,132C 197.305,131.028 198.972,129.861 200.5,128.5C 200.291,127.914 199.957,127.414 199.5,127C 205.043,122.958 209.709,118.125 213.5,112.5C 221.492,107.837 229.492,103.17 237.5,98.5 Z"/></g>
<g><path style="opacity:1" fill="#d94ad9" d="M 228.5,122.5 C 229.766,124.895 230.432,127.562 230.5,130.5C 229.386,135.848 229.386,141.182 230.5,146.5C 233.096,147.482 235.762,148.149 238.5,148.5C 233.666,151.752 228.666,154.752 223.5,157.5C 222.833,157.5 222.167,157.5 221.5,157.5C 217.418,156.617 214.084,154.451 211.5,151C 204.746,147.914 199.579,143.081 196,136.5C 195.329,135.748 194.496,135.414 193.5,135.5C 193.5,134.833 193.833,134.5 194.5,134.5C 195.959,134.567 197.292,134.234 198.5,133.5C 207.055,131.093 215.388,128.093 223.5,124.5C 225.05,123.559 226.716,122.893 228.5,122.5 Z"/></g>
<g><path style="opacity:1" fill="#0867cd" d="M 199.5,118.5 C 198.375,120 197.041,121.333 195.5,122.5C 188.516,125.325 181.849,128.659 175.5,132.5C 170.978,134.264 166.645,136.264 162.5,138.5C 161.833,138.5 161.167,138.5 160.5,138.5C 160.062,138.565 159.728,138.399 159.5,138C 161.923,136.429 163.256,134.263 163.5,131.5C 175.551,127.592 187.551,123.258 199.5,118.5 Z"/></g>
<g><path style="opacity:1" fill="#4c76da" d="M 195.5,122.5 C 190.771,127.224 186.437,132.224 182.5,137.5C 180.374,138.048 178.374,138.715 176.5,139.5C 174.708,139.366 173.042,139.699 171.5,140.5C 172.882,137.606 174.882,135.106 177.5,133C 176.906,132.536 176.239,132.369 175.5,132.5C 181.849,128.659 188.516,125.325 195.5,122.5 Z"/></g>
<g><path style="opacity:1" fill="#e358d6" d="M 193.5,135.5 C 194.496,135.414 195.329,135.748 196,136.5C 199.579,143.081 204.746,147.914 211.5,151C 214.084,154.451 217.418,156.617 221.5,157.5C 218.167,159.167 214.833,160.833 211.5,162.5C 208.5,163.167 205.5,163.833 202.5,164.5C 193.293,156.965 184.627,148.631 176.5,139.5C 178.374,138.715 180.374,138.048 182.5,137.5C 186.136,136.674 189.803,136.008 193.5,135.5 Z"/></g>
<g><path style="opacity:1" fill="#3e8be2" d="M 175.5,132.5 C 176.239,132.369 176.906,132.536 177.5,133C 174.882,135.106 172.882,137.606 171.5,140.5C 170.209,140.263 169.209,140.596 168.5,141.5C 165.921,141.394 163.588,142.061 161.5,143.5C 161.167,143.5 160.833,143.5 160.5,143.5C 161.282,141.549 162.616,140.049 164.5,139C 163.906,138.536 163.239,138.369 162.5,138.5C 166.645,136.264 170.978,134.264 175.5,132.5 Z"/></g>
<g><path style="opacity:1" fill="#2597e4" d="M 148.5,134.5 C 148.437,136.899 148.77,139.399 149.5,142C 153.676,142.33 157.343,141.163 160.5,138.5C 161.167,138.5 161.833,138.5 162.5,138.5C 163.239,138.369 163.906,138.536 164.5,139C 162.616,140.049 161.282,141.549 160.5,143.5C 157.779,143.963 155.112,144.629 152.5,145.5C 152.38,144.414 151.713,143.747 150.5,143.5C 146.994,145.285 143.328,146.118 139.5,146C 138.556,143.281 138.223,140.448 138.5,137.5C 139.791,137.737 140.791,137.404 141.5,136.5C 143.657,135.593 145.99,134.927 148.5,134.5 Z"/></g>
<g><path style="opacity:1" fill="#0e83e4" d="M 163.5,131.5 C 163.256,134.263 161.923,136.429 159.5,138C 159.728,138.399 160.062,138.565 160.5,138.5C 157.343,141.163 153.676,142.33 149.5,142C 148.77,139.399 148.437,136.899 148.5,134.5C 153.374,132.875 158.374,131.875 163.5,131.5 Z"/></g>
<g><path style="opacity:1" fill="#2ba2e0" d="M 141.5,136.5 C 140.791,137.404 139.791,137.737 138.5,137.5C 138.223,140.448 138.556,143.281 139.5,146C 143.328,146.118 146.994,145.285 150.5,143.5C 151.713,143.747 152.38,144.414 152.5,145.5C 147.607,146.796 142.94,148.462 138.5,150.5C 137.833,150.5 137.167,150.5 136.5,150.5C 131.546,150.414 126.713,151.748 122,154.5C 123.449,149.756 125.949,145.422 129.5,141.5C 129.376,140.893 129.043,140.56 128.5,140.5C 132.502,138.39 136.835,137.057 141.5,136.5 Z"/></g>
<g><path style="opacity:1" fill="#e96ad1" d="M 176.5,139.5 C 184.627,148.631 193.293,156.965 202.5,164.5C 201.167,165.167 199.833,165.833 198.5,166.5C 196.565,167.15 194.565,167.483 192.5,167.5C 184.182,159.18 176.182,150.513 168.5,141.5C 169.209,140.596 170.209,140.263 171.5,140.5C 173.042,139.699 174.708,139.366 176.5,139.5 Z"/></g>
<g><path style="opacity:1" fill="#ec74cf" d="M 168.5,141.5 C 176.182,150.513 184.182,159.18 192.5,167.5C 190.972,168.309 189.306,168.976 187.5,169.5C 186.833,169.5 186.167,169.5 185.5,169.5C 177.498,160.824 169.498,152.157 161.5,143.5C 163.588,142.061 165.921,141.394 168.5,141.5 Z"/></g>
<g><path style="opacity:1" fill="#f085cc" d="M 160.5,143.5 C 160.833,143.5 161.167,143.5 161.5,143.5C 169.498,152.157 177.498,160.824 185.5,169.5C 182.272,170.546 178.939,171.212 175.5,171.5C 168.54,164.037 161.207,157.037 153.5,150.5C 153.027,148.753 152.693,147.086 152.5,145.5C 155.112,144.629 157.779,143.963 160.5,143.5 Z"/></g>
<g><path style="opacity:1" fill="#32afd7" d="M 128.5,140.5 C 129.043,140.56 129.376,140.893 129.5,141.5C 125.949,145.422 123.449,149.756 122,154.5C 126.713,151.748 131.546,150.414 136.5,150.5C 135.005,150.989 133.671,151.655 132.5,152.5C 128.863,153.263 125.53,154.597 122.5,156.5C 119.426,157.302 116.426,158.302 113.5,159.5C 112.5,159.5 111.5,159.5 110.5,159.5C 111.309,157.027 111.642,154.694 111.5,152.5C 111.121,150.787 110.121,149.787 108.5,149.5C 114.754,145.742 121.421,142.742 128.5,140.5 Z"/></g>
<g><path style="opacity:1" fill="#f396c8" d="M 152.5,145.5 C 152.693,147.086 153.027,148.753 153.5,150.5C 161.207,157.037 168.54,164.037 175.5,171.5C 173.621,172.341 171.621,172.675 169.5,172.5C 162.576,166.589 155.576,160.589 148.5,154.5C 145.105,153.129 141.771,151.796 138.5,150.5C 142.94,148.462 147.607,146.796 152.5,145.5 Z"/></g>
<g><path style="opacity:1" fill="#f5a3c5" d="M 136.5,150.5 C 137.167,150.5 137.833,150.5 138.5,150.5C 141.771,151.796 145.105,153.129 148.5,154.5C 155.576,160.589 162.576,166.589 169.5,172.5C 166.546,173.271 163.546,173.938 160.5,174.5C 160.611,173.883 160.944,173.383 161.5,173C 158.203,170.705 155.203,168.038 152.5,165C 146.444,160.304 139.777,156.637 132.5,154C 133.738,153.31 133.738,152.81 132.5,152.5C 133.671,151.655 135.005,150.989 136.5,150.5 Z"/></g>
<g><path style="opacity:1" fill="#8b0714" d="M 243.5,146.5 C 239.398,150.723 235.065,154.723 230.5,158.5C 228.393,157.532 226.059,157.198 223.5,157.5C 228.666,154.752 233.666,151.752 238.5,148.5C 240.167,147.833 241.833,147.167 243.5,146.5 Z"/></g>
<g><path style="opacity:1" fill="#f7afc3" d="M 132.5,152.5 C 133.738,152.81 133.738,153.31 132.5,154C 139.777,156.637 146.444,160.304 152.5,165C 155.203,168.038 158.203,170.705 161.5,173C 160.944,173.383 160.611,173.883 160.5,174.5C 157.794,174.575 155.127,174.908 152.5,175.5C 150.332,172.5 147.666,170 144.5,168C 137.222,163.863 129.889,160.03 122.5,156.5C 125.53,154.597 128.863,153.263 132.5,152.5 Z"/></g>
<g><path style="opacity:1" fill="#3cbac7" d="M 108.5,149.5 C 110.121,149.787 111.121,150.787 111.5,152.5C 111.642,154.694 111.309,157.027 110.5,159.5C 111.5,159.5 112.5,159.5 113.5,159.5C 112.167,160.5 110.833,161.5 109.5,162.5C 107.046,163.227 104.713,164.227 102.5,165.5C 103.226,161.818 103.559,158.318 103.5,155C 102.956,154.283 102.289,153.783 101.5,153.5C 103.663,151.917 105.996,150.584 108.5,149.5 Z"/></g>
<g><path style="opacity:1" fill="#ab0318" d="M 221.5,157.5 C 222.167,157.5 222.833,157.5 223.5,157.5C 226.059,157.198 228.393,157.532 230.5,158.5C 228.116,160.885 225.45,162.885 222.5,164.5C 218.833,163.833 215.167,163.167 211.5,162.5C 214.833,160.833 218.167,159.167 221.5,157.5 Z"/></g>
<g><path style="opacity:1" fill="#cb0a32" d="M 211.5,162.5 C 215.167,163.167 218.833,163.833 222.5,164.5C 221.71,165.401 220.71,166.068 219.5,166.5C 212.351,167.694 205.351,167.694 198.5,166.5C 199.833,165.833 201.167,165.167 202.5,164.5C 205.5,163.833 208.5,163.167 211.5,162.5 Z"/></g>
<g><path style="opacity:1" fill="#f9c6bd" d="M 109.5,162.5 C 117.568,163.91 125.402,166.244 133,169.5C 136.869,171.387 140.036,174.054 142.5,177.5C 137.894,178.755 133.227,179.755 128.5,180.5C 125.858,179.105 123.191,177.605 120.5,176C 120.833,175.667 121.167,175.333 121.5,175C 115.963,174.724 111.463,172.557 108,168.5C 107.261,169.574 106.261,170.241 105,170.5C 102.552,170.301 100.719,169.301 99.5,167.5C 100.29,166.599 101.29,165.932 102.5,165.5C 104.713,164.227 107.046,163.227 109.5,162.5 Z"/></g>
<g><path style="opacity:1" fill="#42c1b1" d="M 101.5,153.5 C 102.289,153.783 102.956,154.283 103.5,155C 103.559,158.318 103.226,161.818 102.5,165.5C 101.29,165.932 100.29,166.599 99.5,167.5C 95.9219,169.075 92.5886,171.075 89.5,173.5C 88.8333,170.833 88.1667,168.167 87.5,165.5C 86.5,165.5 85.5,165.5 84.5,165.5C 89.5886,160.755 95.2552,156.755 101.5,153.5 Z"/></g>
<g><path style="opacity:1" fill="#df164f" d="M 198.5,166.5 C 205.351,167.694 212.351,167.694 219.5,166.5C 217.795,168.192 215.795,169.525 213.5,170.5C 204.83,169.99 196.163,169.657 187.5,169.5C 189.306,168.976 190.972,168.309 192.5,167.5C 194.565,167.483 196.565,167.15 198.5,166.5 Z"/></g>
<g><path style="opacity:1" fill="#f8bcc0" d="M 122.5,156.5 C 129.889,160.03 137.222,163.863 144.5,168C 147.666,170 150.332,172.5 152.5,175.5C 150.883,176.038 149.216,176.371 147.5,176.5C 145.708,176.366 144.042,176.699 142.5,177.5C 140.036,174.054 136.869,171.387 133,169.5C 125.402,166.244 117.568,163.91 109.5,162.5C 110.833,161.5 112.167,160.5 113.5,159.5C 116.426,158.302 119.426,157.302 122.5,156.5 Z"/></g>
<g><path style="opacity:1" fill="#45cc99" d="M 84.5,165.5 C 85.5,165.5 86.5,165.5 87.5,165.5C 88.1667,168.167 88.8333,170.833 89.5,173.5C 88.8333,173.5 88.5,173.833 88.5,174.5C 86.5,175.833 84.5,177.167 82.5,178.5C 82.6621,176.473 82.4955,174.473 82,172.5C 80.6123,172.786 79.1123,172.452 77.5,171.5C 79.2344,168.8 81.5677,166.8 84.5,165.5 Z"/></g>
<g><path style="opacity:1" fill="#fad5ba" d="M 99.5,167.5 C 100.719,169.301 102.552,170.301 105,170.5C 106.261,170.241 107.261,169.574 108,168.5C 111.463,172.557 115.963,174.724 121.5,175C 121.167,175.333 120.833,175.667 120.5,176C 123.191,177.605 125.858,179.105 128.5,180.5C 127.833,180.5 127.5,180.833 127.5,181.5C 124.215,181.928 121.215,182.928 118.5,184.5C 113.188,185.715 108.188,187.715 103.5,190.5C 103.167,190.5 102.833,190.5 102.5,190.5C 99.9608,189.093 100.294,187.927 103.5,187C 100.483,183.152 96.4827,180.819 91.5,180C 90.4495,178.615 89.1161,177.615 87.5,177C 88.2524,176.329 88.5858,175.496 88.5,174.5C 88.5,173.833 88.8333,173.5 89.5,173.5C 92.5886,171.075 95.9219,169.075 99.5,167.5 Z"/></g>
<g><path style="opacity:1" fill="#f33a72" d="M 185.5,169.5 C 186.167,169.5 186.833,169.5 187.5,169.5C 196.163,169.657 204.83,169.99 213.5,170.5C 212.71,171.401 211.71,172.068 210.5,172.5C 206.354,171.353 202.02,171.186 197.5,172C 189.889,173.41 182.223,174.41 174.5,175C 173.584,175.278 172.918,175.778 172.5,176.5C 171.041,176.433 169.708,176.766 168.5,177.5C 163.924,177.438 159.591,178.105 155.5,179.5C 152.763,179.401 150.096,179.735 147.5,180.5C 146.691,179.531 145.691,178.698 144.5,178C 145.737,177.768 146.737,177.268 147.5,176.5C 149.216,176.371 150.883,176.038 152.5,175.5C 155.127,174.908 157.794,174.575 160.5,174.5C 163.546,173.938 166.546,173.271 169.5,172.5C 171.621,172.675 173.621,172.341 175.5,171.5C 178.939,171.212 182.272,170.546 185.5,169.5 Z"/></g>
<g><path style="opacity:1" fill="#f72f88" d="M 210.5,172.5 C 208.117,174.358 205.45,175.692 202.5,176.5C 192.566,176.178 182.566,176.178 172.5,176.5C 172.918,175.778 173.584,175.278 174.5,175C 182.223,174.41 189.889,173.41 197.5,172C 202.02,171.186 206.354,171.353 210.5,172.5 Z"/></g>
<g><path style="opacity:1" fill="#4ddb7f" d="M 77.5,171.5 C 79.1123,172.452 80.6123,172.786 82,172.5C 82.4955,174.473 82.6621,176.473 82.5,178.5C 80.1918,180.471 77.8585,182.471 75.5,184.5C 74.3157,183.312 74.3157,182.145 75.5,181C 73.1902,180.503 70.8568,180.337 68.5,180.5C 71.1667,177.167 74.1667,174.167 77.5,171.5 Z"/></g>
<g><path style="opacity:1" fill="#f9489f" d="M 202.5,176.5 C 196.43,180.868 189.764,184.202 182.5,186.5C 179.089,183.303 175.089,181.136 170.5,180C 172.5,179.667 174.5,179.333 176.5,179C 173.635,178.817 170.969,178.317 168.5,177.5C 169.708,176.766 171.041,176.433 172.5,176.5C 182.566,176.178 192.566,176.178 202.5,176.5 Z"/></g>
<g><path style="opacity:1" fill="#fd6c7b" d="M 147.5,176.5 C 146.737,177.268 145.737,177.768 144.5,178C 145.691,178.698 146.691,179.531 147.5,180.5C 144.023,181.323 140.356,181.823 136.5,182C 137.942,182.377 138.942,183.21 139.5,184.5C 135.818,184.665 132.152,184.499 128.5,184C 127.748,183.329 127.414,182.496 127.5,181.5C 127.5,180.833 127.833,180.5 128.5,180.5C 133.227,179.755 137.894,178.755 142.5,177.5C 144.042,176.699 145.708,176.366 147.5,176.5 Z"/></g>
<g><path style="opacity:1" fill="#fbe1be" d="M 88.5,174.5 C 88.5858,175.496 88.2524,176.329 87.5,177C 89.1161,177.615 90.4495,178.615 91.5,180C 96.4827,180.819 100.483,183.152 103.5,187C 100.294,187.927 99.9608,189.093 102.5,190.5C 98.5,192.833 94.5,195.167 90.5,197.5C 85.5,200.833 80.5,204.167 75.5,207.5C 74.3791,201.737 71.3791,197.403 66.5,194.5C 67.5,193.167 68.5,191.833 69.5,190.5C 71.8333,188.833 73.8333,186.833 75.5,184.5C 77.8585,182.471 80.1918,180.471 82.5,178.5C 84.5,177.167 86.5,175.833 88.5,174.5 Z"/></g>
<g><path style="opacity:1" fill="#fa589e" d="M 168.5,177.5 C 170.969,178.317 173.635,178.817 176.5,179C 174.5,179.333 172.5,179.667 170.5,180C 175.089,181.136 179.089,183.303 182.5,186.5C 178.478,188.734 174.144,190.401 169.5,191.5C 167.167,191.5 164.833,191.5 162.5,191.5C 160.26,190.432 158.426,188.766 157,186.5C 156.383,185.551 156.549,184.718 157.5,184C 154.903,183.402 154.236,181.902 155.5,179.5C 159.591,178.105 163.924,177.438 168.5,177.5 Z"/></g>
<g><path style="opacity:1" fill="#72ea7e" d="M 68.5,180.5 C 70.8568,180.337 73.1902,180.503 75.5,181C 74.3157,182.145 74.3157,183.312 75.5,184.5C 73.8333,186.833 71.8333,188.833 69.5,190.5C 67.6583,190.723 65.825,191.057 64,191.5C 62.6244,191.316 61.7911,190.649 61.5,189.5C 63.4821,186.19 65.8154,183.19 68.5,180.5 Z"/></g>
<g><path style="opacity:1" fill="#fd858b" d="M 127.5,181.5 C 127.414,182.496 127.748,183.329 128.5,184C 132.152,184.499 135.818,184.665 139.5,184.5C 141.401,184.433 143.234,184.767 145,185.5C 147.415,188.422 150.249,190.756 153.5,192.5C 151.393,193.468 149.059,193.802 146.5,193.5C 143.817,190.066 140.317,187.733 136,186.5C 130.859,185.658 125.692,185.658 120.5,186.5C 119.167,186.5 118.5,185.833 118.5,184.5C 121.215,182.928 124.215,181.928 127.5,181.5 Z"/></g>
<g><path style="opacity:1" fill="#fe968a" d="M 146.5,193.5 C 141.93,194.441 137.263,194.774 132.5,194.5C 130.458,192.17 127.792,191.004 124.5,191C 124.833,190.667 125.167,190.333 125.5,190C 124.167,189.667 122.833,189.333 121.5,189C 122.167,188.667 122.833,188.333 123.5,188C 122.263,187.768 121.263,187.268 120.5,186.5C 125.692,185.658 130.859,185.658 136,186.5C 140.317,187.733 143.817,190.066 146.5,193.5 Z"/></g>
<g><path style="opacity:1" fill="#fd7095" d="M 155.5,179.5 C 154.236,181.902 154.903,183.402 157.5,184C 156.549,184.718 156.383,185.551 157,186.5C 158.426,188.766 160.26,190.432 162.5,191.5C 159.713,192.477 156.713,192.81 153.5,192.5C 150.249,190.756 147.415,188.422 145,185.5C 143.234,184.767 141.401,184.433 139.5,184.5C 138.942,183.21 137.942,182.377 136.5,182C 140.356,181.823 144.023,181.323 147.5,180.5C 150.096,179.735 152.763,179.401 155.5,179.5 Z"/></g>
<g><path style="opacity:1" fill="#ffa184" d="M 118.5,184.5 C 118.5,185.833 119.167,186.5 120.5,186.5C 121.263,187.268 122.263,187.768 123.5,188C 122.833,188.333 122.167,188.667 121.5,189C 122.833,189.333 124.167,189.667 125.5,190C 125.167,190.333 124.833,190.667 124.5,191C 127.792,191.004 130.458,192.17 132.5,194.5C 127.5,194.5 122.5,194.5 117.5,194.5C 116.391,193.71 115.058,193.21 113.5,193C 114.167,192.667 114.833,192.333 115.5,192C 111.312,191.824 107.312,191.324 103.5,190.5C 108.188,187.715 113.188,185.715 118.5,184.5 Z"/></g>
<g><path style="opacity:1" fill="#ffb080" d="M 102.5,190.5 C 102.833,190.5 103.167,190.5 103.5,190.5C 107.312,191.324 111.312,191.824 115.5,192C 114.833,192.333 114.167,192.667 113.5,193C 115.058,193.21 116.391,193.71 117.5,194.5C 113.954,195.615 110.288,196.615 106.5,197.5C 103.37,197.7 100.37,198.366 97.5,199.5C 95.1667,198.833 92.8333,198.167 90.5,197.5C 94.5,195.167 98.5,192.833 102.5,190.5 Z"/></g>
<g><path style="opacity:1" fill="#b0f6a3" d="M 61.5,189.5 C 61.7911,190.649 62.6244,191.316 64,191.5C 65.825,191.057 67.6583,190.723 69.5,190.5C 68.5,191.833 67.5,193.167 66.5,194.5C 65.5,196.167 64.1667,197.5 62.5,198.5C 60.5328,198.261 58.6995,198.594 57,199.5C 56.5357,198.906 56.369,198.239 56.5,197.5C 57.6693,194.489 59.336,191.822 61.5,189.5 Z"/></g>
<g><path style="opacity:1" fill="#fc540c" d="M 162.5,191.5 C 164.833,191.5 167.167,191.5 169.5,191.5C 162.785,194.405 155.785,196.738 148.5,198.5C 134.323,198.829 120.323,198.496 106.5,197.5C 110.288,196.615 113.954,195.615 117.5,194.5C 122.5,194.5 127.5,194.5 132.5,194.5C 137.263,194.774 141.93,194.441 146.5,193.5C 149.059,193.802 151.393,193.468 153.5,192.5C 156.713,192.81 159.713,192.477 162.5,191.5 Z"/></g>
<g><path style="opacity:1" fill="#f76e07" d="M 106.5,197.5 C 120.323,198.496 134.323,198.829 148.5,198.5C 137.426,201.785 126.093,204.452 114.5,206.5C 112.335,206.884 110.668,206.217 109.5,204.5C 104.198,203.671 98.8642,203.171 93.5,203C 92.944,202.617 92.6107,202.117 92.5,201.5C 94.0495,200.559 95.7162,199.893 97.5,199.5C 100.37,198.366 103.37,197.7 106.5,197.5 Z"/></g>
<g><path style="opacity:1" fill="#f58e0a" d="M 92.5,201.5 C 92.6107,202.117 92.944,202.617 93.5,203C 98.8642,203.171 104.198,203.671 109.5,204.5C 110.668,206.217 112.335,206.884 114.5,206.5C 111.358,207.79 108.025,208.79 104.5,209.5C 104.611,208.883 104.944,208.383 105.5,208C 104.167,207.333 102.833,206.667 101.5,206C 96.3165,205.826 91.3165,205.326 86.5,204.5C 88.1815,202.992 90.1815,201.992 92.5,201.5 Z"/></g>
<g><path style="opacity:1" fill="#ccf2b7" d="M 56.5,197.5 C 56.369,198.239 56.5357,198.906 57,199.5C 58.6995,198.594 60.5328,198.261 62.5,198.5C 55.2673,208.965 49.6006,220.299 45.5,232.5C 43.9589,237.535 42.2922,242.535 40.5,247.5C 40.6309,246.624 40.2975,245.957 39.5,245.5C 38.8654,249.068 37.8654,252.401 36.5,255.5C 38.6145,234.486 45.2812,215.153 56.5,197.5 Z"/></g>
<g><path style="opacity:1" fill="#fdf5dd" d="M 66.5,194.5 C 71.3791,197.403 74.3791,201.737 75.5,207.5C 73.7484,209.246 72.4151,211.246 71.5,213.5C 63.009,220.316 56.009,228.316 50.5,237.5C 47.237,237.326 45.5704,235.659 45.5,232.5C 49.6006,220.299 55.2673,208.965 62.5,198.5C 64.1667,197.5 65.5,196.167 66.5,194.5 Z"/></g>
<g><path style="opacity:1" fill="#fdad11" d="M 86.5,204.5 C 91.3165,205.326 96.3165,205.826 101.5,206C 102.833,206.667 104.167,207.333 105.5,208C 104.944,208.383 104.611,208.883 104.5,209.5C 101.5,210.167 98.5,210.833 95.5,211.5C 93.777,210.2 91.6103,209.533 89,209.5C 84.9712,210.12 81.1379,210.12 77.5,209.5C 80.2622,207.404 83.2622,205.738 86.5,204.5 Z"/></g>
<g><path style="opacity:1" fill="#fed99b" d="M 90.5,197.5 C 92.8333,198.167 95.1667,198.833 97.5,199.5C 95.7162,199.893 94.0495,200.559 92.5,201.5C 90.1815,201.992 88.1815,202.992 86.5,204.5C 83.2622,205.738 80.2622,207.404 77.5,209.5C 75.6115,210.604 73.9448,211.937 72.5,213.5C 72.1667,213.5 71.8333,213.5 71.5,213.5C 72.4151,211.246 73.7484,209.246 75.5,207.5C 80.5,204.167 85.5,200.833 90.5,197.5 Z"/></g>
<g><path style="opacity:1" fill="#fccc28" d="M 77.5,209.5 C 81.1379,210.12 84.9712,210.12 89,209.5C 91.6103,209.533 93.777,210.2 95.5,211.5C 88.7586,213.97 82.0919,216.636 75.5,219.5C 74.4583,218.209 73.2917,218.209 72,219.5C 71.3224,217.402 71.4891,215.402 72.5,213.5C 73.9448,211.937 75.6115,210.604 77.5,209.5 Z"/></g>
<g><path style="opacity:1" fill="#f4d958" d="M 71.5,213.5 C 71.8333,213.5 72.1667,213.5 72.5,213.5C 71.4891,215.402 71.3224,217.402 72,219.5C 73.2917,218.209 74.4583,218.209 75.5,219.5C 55.3432,233.006 42.6765,251.673 37.5,275.5C 36.5655,274.432 36.2322,273.099 36.5,271.5C 40.0333,259.758 44.7,248.425 50.5,237.5C 56.009,228.316 63.009,220.316 71.5,213.5 Z"/></g>
<g><path style="opacity:1" fill="#fdf7c2" d="M 45.5,232.5 C 45.5704,235.659 47.237,237.326 50.5,237.5C 44.7,248.425 40.0333,259.758 36.5,271.5C 36.5,269.833 36.5,268.167 36.5,266.5C 38.0096,260.318 39.3429,253.985 40.5,247.5C 42.2922,242.535 43.9589,237.535 45.5,232.5 Z"/></g>
<g><path style="opacity:1" fill="#dff99b" d="M 40.5,247.5 C 39.3429,253.985 38.0096,260.318 36.5,266.5C 36.5,263.833 36.5,261.167 36.5,258.5C 36.5,257.5 36.5,256.5 36.5,255.5C 37.8654,252.401 38.8654,249.068 39.5,245.5C 40.2975,245.957 40.6309,246.624 40.5,247.5 Z"/></g>
<g><path style="opacity:1" fill="#a7a865" d="M 36.5,258.5 C 36.5,261.167 36.5,263.833 36.5,266.5C 36.5,268.167 36.5,269.833 36.5,271.5C 36.2322,273.099 36.5655,274.432 37.5,275.5C 37.1077,277.179 36.6077,278.846 36,280.5C 35.1782,272.988 35.3448,265.655 36.5,258.5 Z"/></g>
</svg>
