<?xml version="1.0" encoding="UTF-8"?>
<svg version="1.1" xmlns="http://www.w3.org/2000/svg" width="316" height="316">
<path d="M0 0 C0.75508708 -0.00297112 1.51017417 -0.00594224 2.28814268 -0.0090034 C4.79639539 -0.01761456 7.30459994 -0.01919218 9.81286621 -0.02069092 C11.62057597 -0.02532457 13.42828476 -0.03034996 15.23599243 -0.03573608 C20.13313068 -0.0488117 25.03025525 -0.05529588 29.92740822 -0.05974674 C32.9936758 -0.06268605 36.05993972 -0.06679251 39.12620544 -0.07125092 C48.7391942 -0.08491477 58.3521745 -0.09458616 67.96517229 -0.09845281 C79.02548504 -0.1029272 90.08567381 -0.12045103 101.14594889 -0.1494534 C109.71869101 -0.17114483 118.29139845 -0.1811611 126.86416769 -0.18249393 C131.97307711 -0.18353687 137.08186983 -0.18933475 142.19075012 -0.20731354 C147.00399689 -0.22392317 151.81704084 -0.2258879 156.63030624 -0.21717453 C158.38451052 -0.21641093 160.1387263 -0.22065601 161.89290237 -0.23063278 C184.71541609 -0.35268955 205.71227416 4.07304747 223.11169434 20.00762939 C236.7136737 34.71392788 243.24976581 53.18366725 243.22479248 73.05609131 C243.22924916 74.18872194 243.22924916 74.18872194 243.23379588 75.34423399 C243.24240704 77.8524867 243.24398466 80.36069125 243.2454834 82.86895752 C243.25011705 84.67666728 243.25514244 86.48437607 243.26052856 88.29208374 C243.27360418 93.18922199 243.28008836 98.08634656 243.28453922 102.98349953 C243.28747853 106.04976711 243.29158499 109.11603103 243.2960434 112.18229675 C243.30970725 121.79528551 243.31937864 131.40826581 243.32324529 141.0212636 C243.32771968 152.08157634 243.34524351 163.14176512 243.37424588 174.2020402 C243.39593731 182.77478232 243.40595358 191.34748975 243.40728641 199.920259 C243.40832935 205.02916842 243.41412723 210.13796114 243.43210602 215.24684143 C243.44871565 220.0600882 243.45068038 224.87313215 243.44196701 229.68639755 C243.44120341 231.44060183 243.44544849 233.19481761 243.45542526 234.94899368 C243.57748203 257.7715074 239.15174501 278.76836547 223.21716309 296.16778564 C208.5108646 309.76976501 190.04112523 316.30585712 170.16870117 316.28088379 C169.41361409 316.28385491 168.658527 316.28682603 167.88055849 316.28988719 C165.37230578 316.29849835 162.86410123 316.30007597 160.35583496 316.30157471 C158.5481252 316.30620836 156.74041641 316.31123375 154.93270874 316.31661987 C150.03557049 316.32969548 145.13844592 316.33617967 140.24129295 316.34063053 C137.17502537 316.34356984 134.10876145 316.3476763 131.04249573 316.3521347 C121.42950697 316.36579856 111.81652668 316.37546995 102.20352888 316.3793366 C91.14321614 316.38381098 80.08302736 316.40133482 69.02275229 316.43033719 C60.45001016 316.45202862 51.87730273 316.46204489 43.30453348 316.46337771 C38.19562406 316.46442066 33.08683134 316.47021853 27.97795105 316.48819733 C23.16470428 316.50480696 18.35166033 316.50677169 13.53839493 316.49805832 C11.78419065 316.49729472 10.02997487 316.5015398 8.2757988 316.51151657 C-14.54671492 316.63357334 -35.54357299 312.20783632 -52.94299316 296.27325439 C-66.54497253 281.56695591 -73.08106464 263.09721654 -73.05609131 243.22479248 C-73.05906243 242.4697054 -73.06203355 241.71461831 -73.06509471 240.9366498 C-73.07370587 238.42839709 -73.07528349 235.92019254 -73.07678223 233.41192627 C-73.08141588 231.60421651 -73.08644127 229.79650772 -73.09182739 227.98880005 C-73.104903 223.0916618 -73.11138719 218.19453723 -73.11583805 213.29738426 C-73.11877736 210.23111668 -73.12288382 207.16485276 -73.12734222 204.09858704 C-73.14100608 194.48559828 -73.15067747 184.87261798 -73.15454412 175.25962019 C-73.1590185 164.19930744 -73.17654234 153.13911867 -73.20554471 142.07884359 C-73.22723614 133.50610147 -73.23725241 124.93339403 -73.23858523 116.36062479 C-73.23962817 111.25171537 -73.24542605 106.14292265 -73.26340485 101.03404236 C-73.28001448 96.22079559 -73.28197921 91.40775164 -73.27326584 86.59448624 C-73.27250224 84.84028196 -73.27674732 83.08606618 -73.28672409 81.33189011 C-73.40878086 58.50937639 -68.98304384 37.51251832 -53.04846191 20.11309814 C-38.34216343 6.51111878 -19.87242406 -0.02497333 0 0 Z " fill="#242424" transform="translate(72.9156494140625,-0.14044189453125)"/>
<path d="M0 0 C0.99 0 1.98 0 3 0 C3.02886338 4.47915328 3.04675187 8.95828291 3.0625 13.4375 C3.07087891 14.71689453 3.07925781 15.99628906 3.08789062 17.31445312 C3.09111328 18.52939453 3.09433594 19.74433594 3.09765625 20.99609375 C3.10289307 22.12200928 3.10812988 23.2479248 3.11352539 24.40795898 C3 27 3 27 2 28 C1.69366233 29.30622083 1.43702736 30.62419733 1.203125 31.9453125 C1.05174072 32.76773438 0.90035645 33.59015625 0.74438477 34.4375 C0.58123779 35.324375 0.41809082 36.21125 0.25 37.125 C-1.47189877 46.07473021 -3.77579827 54.45783138 -7 63 C-7.4021875 64.06863281 -7.804375 65.13726562 -8.21875 66.23828125 C-12.28661953 76.49922137 -17.6448903 84.87937161 -24.75 93.3046875 C-27.48866263 96.5853771 -30.04648602 99.98473644 -32.58984375 103.41796875 C-33.05519531 103.94003906 -33.52054688 104.46210938 -34 105 C-34.66 105 -35.32 105 -36 105 C-36.33 105.99 -36.66 106.98 -37 108 C-40.46484494 111.23732229 -44.26378642 114.08325334 -48 117 C-48.94746094 117.75023437 -49.89492187 118.50046875 -50.87109375 119.2734375 C-68.58365562 132.97243379 -88.88668734 142.68326877 -110 150 C-110.70302246 150.24782227 -111.40604492 150.49564453 -112.13037109 150.75097656 C-127.09020523 155.96655971 -142.34856694 159.59282714 -157.7734375 163.10546875 C-180.13439034 168.20718874 -200.14372287 173.42893906 -217 190 C-217.62777344 190.61488281 -218.25554687 191.22976562 -218.90234375 191.86328125 C-229.10906019 202.67175422 -233.86420462 216.15649681 -238.25732422 230.0456543 C-239 232 -239 232 -241 235 C-241.91925639 196.59551089 -230.51763177 160.01150836 -203.78125 131.84765625 C-182.61365628 110.1746565 -156.02411291 96.94041818 -126.70361328 90.27954102 C-90.78123784 82.07410269 -53.46641787 68.63569928 -26.18359375 43.0078125 C-24 41 -24 41 -21.34765625 38.9296875 C-18.81672163 37.03984663 -18.81672163 37.03984663 -17 34 C-16.34 34 -15.68 34 -15 34 C-14.72929687 33.27425781 -14.45859375 32.54851562 -14.1796875 31.80078125 C-13.02836554 29.06734468 -11.6924902 26.70116951 -10.125 24.1875 C-7.4951139 19.88815189 -5.18577816 15.5396931 -3 11 C-2.01 11.495 -2.01 11.495 -1 12 C-0.67 8.04 -0.34 4.08 0 0 Z " fill="#E08ACF" transform="translate(277,44)"/>
<path d="M0 0 C0.99 0.495 0.99 0.495 2 1 C1.0409375 1.4021875 1.0409375 1.4021875 0.0625 1.8125 C-2.33131686 2.88667752 -2.33131686 2.88667752 -3 6 C-6.46484494 9.23732229 -10.26378642 12.08325334 -14 15 C-14.94746094 15.75023437 -15.89492187 16.50046875 -16.87109375 17.2734375 C-34.58365562 30.97243379 -54.88668734 40.68326877 -76 48 C-76.70302246 48.24782227 -77.40604492 48.49564453 -78.13037109 48.75097656 C-93.09020523 53.96655971 -108.34856694 57.59282714 -123.7734375 61.10546875 C-146.13439034 66.20718874 -166.14372287 71.42893906 -183 88 C-183.94166016 88.92232422 -183.94166016 88.92232422 -184.90234375 89.86328125 C-193.08028638 98.52337016 -198.50059334 109.71901799 -202 121 C-202.33 121 -202.66 121 -203 121 C-203.33 117.7 -203.66 114.4 -204 111 C-203.01 111 -202.02 111 -201 111 C-200.505 109.2365625 -200.505 109.2365625 -200 107.4375 C-195.97477498 95.49349118 -189.35548094 85.3409992 -181 76 C-180.25621094 75.13632813 -179.51242188 74.27265625 -178.74609375 73.3828125 C-160.24864758 52.21530018 -132.99270743 37.20319325 -105.1875 32.578125 C-103.68124417 32.31950461 -102.17506164 32.06045696 -100.66894531 31.80102539 C-99.89828735 31.66930939 -99.12762939 31.53759338 -98.33361816 31.40188599 C-67.79906951 26.24881654 -67.79906951 26.24881654 -38 18 C-36.93845703 17.64687744 -36.93845703 17.64687744 -35.85546875 17.28662109 C-23.27537145 13.03004364 -10.94429675 7.57682083 0 0 Z " fill="#FC7494" transform="translate(243,146)"/>
<path d="M0 0 C2.20992661 3.31488991 2.20951785 4.56225288 1.59375 8.3828125 C-3.65215038 31.50618917 -16.56506226 49.59402009 -35.84765625 63.0859375 C-39 65 -39 65 -42 65 C-42 65.66 -42 66.32 -42 67 C-44.97491763 68.44641139 -47.95566126 69.8804181 -50.9375 71.3125 C-51.76830078 71.71662109 -52.59910156 72.12074219 -53.45507812 72.53710938 C-60.88867492 76.09482302 -68.17216422 78.83076338 -76.3125 80.25 C-106.92181921 86.15759861 -141.0332752 93.76582386 -168 110 C-169.65708984 110.68835938 -169.65708984 110.68835938 -171.34765625 111.390625 C-175.36479776 113.16074511 -178.81610963 115.29436132 -182.4375 117.75 C-183.09492188 118.18812012 -183.75234375 118.62624023 -184.4296875 119.07763672 C-188.05568293 121.53415887 -191.33049872 124.08575219 -194.5 127.125 C-197.03264028 129.49657325 -198.49614847 130.41664374 -202 130.4375 C-202.99 130.293125 -203.98 130.14875 -205 130 C-205.83203125 128.37109375 -205.83203125 128.37109375 -206 126 C-204.30257762 123.76919166 -202.69406599 121.98607356 -200.6875 120.0625 C-200.10718018 119.49692383 -199.52686035 118.93134766 -198.92895508 118.34863281 C-177.76580137 98.31768707 -151.9128694 85.68797172 -123.70361328 79.27954102 C-87.78123784 71.07410269 -50.46641787 57.63569928 -23.18359375 32.0078125 C-21 30 -21 30 -18.34765625 27.9296875 C-15.81672163 26.03984663 -15.81672163 26.03984663 -14 23 C-13.34 23 -12.68 23 -12 23 C-11.72929687 22.27425781 -11.45859375 21.54851562 -11.1796875 20.80078125 C-10.02836554 18.06734468 -8.6924902 15.70116951 -7.125 13.1875 C-4.4951139 8.88815189 -2.18577816 4.5396931 0 0 Z " fill="#594ABF" transform="translate(274,55)"/>
<path d="M0 0 C-0.33 0.639375 -0.66 1.27875 -1 1.9375 C-2.07271225 3.76794567 -2.07271225 3.76794567 -2 5 C-0.68 4.67 0.64 4.34 2 4 C0.35 5.98 -1.3 7.96 -3 10 C-2.505 10.99 -2.505 10.99 -2 12 C-2.84175781 12.18433594 -3.68351562 12.36867187 -4.55078125 12.55859375 C-24.03196142 17.11027136 -43.21884567 23.49846048 -61.26074219 32.16699219 C-62.7602032 32.88515066 -64.27348682 33.57431759 -65.7890625 34.2578125 C-75.35886439 38.71540752 -84.86764852 44.81932504 -92.5 52.125 C-95.03264028 54.49657325 -96.49614847 55.41664374 -100 55.4375 C-100.99 55.293125 -101.98 55.14875 -103 55 C-103.83203125 53.37109375 -103.83203125 53.37109375 -104 51 C-102.30257762 48.76919166 -100.69406599 46.98607356 -98.6875 45.0625 C-97.81702026 44.21413574 -97.81702026 44.21413574 -96.92895508 43.34863281 C-73.59090777 21.25914814 -45.57407213 9.40294443 -14.58764648 2.59814453 C-12.34814023 2.08047397 -10.15586053 1.49745763 -7.953125 0.84375 C-5.13380179 0.03822908 -2.91125362 -0.17643961 0 0 Z " fill="#2DACC2" transform="translate(172,130)"/>
<path d="M0 0 C-18.10300135 9.41275231 -40.22082199 12.55509942 -60 17 C-61.62373535 17.36665771 -61.62373535 17.36665771 -63.28027344 17.74072266 C-68.18279824 18.84622631 -73.08819781 19.93647588 -78 21 C-78 20.01 -78 19.02 -78 18 C-79.93798521 18.30947671 -81.87537426 18.62268834 -83.8125 18.9375 C-84.89144531 19.11152344 -85.97039062 19.28554687 -87.08203125 19.46484375 C-90.04933356 19.93871921 -90.04933356 19.93871921 -93 21 C-92.505 19.515 -92.505 19.515 -92 18 C-91.34 18 -90.68 18 -90 18 C-89.76796875 17.3915625 -89.5359375 16.783125 -89.296875 16.15625 C-85.42341783 9.71604411 -73.81640888 7.87187091 -67.04296875 5.89453125 C-55.4757061 3.10280795 -43.58470568 2.53575219 -31.75 1.9375 C-28.80711724 1.78310137 -25.86444827 1.6250265 -22.921875 1.46484375 C-22.22421021 1.42741058 -21.52654541 1.38997742 -20.80773926 1.35140991 C-16.21585584 1.09568709 -11.65427284 0.72165214 -7.08691406 0.18579102 C-4.71622051 -0.02526394 -2.37881365 -0.02938412 0 0 Z " fill="#FA5305" transform="translate(171,192)"/>
<path d="M0 0 C0.99 0.495 0.99 0.495 2 1 C1.0409375 1.4021875 1.0409375 1.4021875 0.0625 1.8125 C-2.33131686 2.88667752 -2.33131686 2.88667752 -3 6 C-6.46484494 9.23732229 -10.26378642 12.08325334 -14 15 C-14.94746094 15.75023437 -15.89492187 16.50046875 -16.87109375 17.2734375 C-24.53741135 23.20261122 -32.62449417 28.16005605 -41 33 C-41.66 32.01 -42.32 31.02 -43 30 C-44.01578125 30.13277344 -45.0315625 30.26554687 -46.078125 30.40234375 C-53.52812128 31.36231523 -60.95238046 32.2343234 -68.44921875 32.75390625 C-70.98279227 32.94726001 -70.98279227 32.94726001 -73.35546875 33.515625 C-76.80226636 34.14694391 -80.12259066 34.17022974 -83.625 34.1875 C-85.59339844 34.20876953 -85.59339844 34.20876953 -87.6015625 34.23046875 C-91 34 -91 34 -94 32 C-90.54145169 29.69430113 -87.43350533 29.15738712 -83.4296875 28.44921875 C-81.87628998 28.15957011 -80.32290501 27.86985417 -78.76953125 27.58007812 C-76.3463537 27.13666037 -73.92268675 26.69611732 -71.49853516 26.25805664 C-46.62562821 21.73594444 -21.02639617 14.55673581 0 0 Z " fill="#F84289" transform="translate(243,146)"/>
<path d="M0 0 C0.66 0.33 1.32 0.66 2 1 C-3.75 6 -3.75 6 -6 6 C-6.25885986 6.58773193 -6.51771973 7.17546387 -6.78442383 7.78100586 C-8.09182792 10.16762884 -9.47293865 11.6430407 -11.44921875 13.50390625 C-12.12919922 14.15617188 -12.80917969 14.8084375 -13.50976562 15.48046875 C-14.58774414 16.51107422 -14.58774414 16.51107422 -15.6875 17.5625 C-21.83304452 23.59413769 -26.98202398 29.31888221 -31 37 C-31.31340332 37.56589844 -31.62680664 38.13179687 -31.94970703 38.71484375 C-37.49364993 48.72834252 -41.25214666 58.94127611 -44.39794922 69.92919922 C-44.91079297 71.69316543 -45.46837943 73.44402262 -46.03515625 75.19140625 C-47.93188667 81.25212159 -48.08777774 86.56375148 -47.90625 92.89453125 C-48.04206182 97.39329762 -49.31248445 100.85152428 -51 105 C-51.33 105 -51.66 105 -52 105 C-52.78960184 72.01218971 -44.84535953 36.72036787 -23 11 C-22.01 10.34 -21.02 9.68 -20 9 C-19.01 9.33 -18.02 9.66 -17 10 C-13.67528962 10.42235735 -12.41422598 10.2958757 -9.6484375 8.3203125 C-8.89820313 7.59585938 -8.14796875 6.87140625 -7.375 6.125 C-4.95177725 3.81756264 -2.79396333 1.86264222 0 0 Z " fill="#CEF4BA" transform="translate(88,174)"/>
<path d="M0 0 C0 0.66 0 1.32 0 2 C1.98 2 3.96 2 6 2 C6 2.33 6 2.66 6 3 C4.8140625 3.14695313 3.628125 3.29390625 2.40625 3.4453125 C-18.87189545 6.28928288 -18.87189545 6.28928288 -36.3125 17.6875 C-36.869375 18.450625 -37.42625 19.21375 -38 20 C-37.236875 19.690625 -36.47375 19.38125 -35.6875 19.0625 C-31.19795078 17.28756193 -27.8308895 16.90885114 -23 17 C-23 18.32 -23 19.64 -23 21 C-23.82242188 21.29132813 -24.64484375 21.58265625 -25.4921875 21.8828125 C-37.64305821 26.34467958 -46.75821118 31.91458662 -56 41 C-56.94166016 41.92232422 -56.94166016 41.92232422 -57.90234375 42.86328125 C-66.08028638 51.52337016 -71.50059334 62.71901799 -75 74 C-75.33 74 -75.66 74 -76 74 C-76.33 70.7 -76.66 67.4 -77 64 C-76.01 64 -75.02 64 -74 64 C-73.67 62.824375 -73.34 61.64875 -73 60.4375 C-68.97477498 48.49349118 -62.35548094 38.3409992 -54 29 C-53.25621094 28.13632813 -52.51242188 27.27265625 -51.74609375 26.3828125 C-44.36888074 17.94071483 -36.51708488 10.93974092 -27 5 C-26.34 5.33 -25.68 5.66 -25 6 C-25.33 6.66 -25.66 7.32 -26 8 C-25.50113281 7.75765625 -25.00226563 7.5153125 -24.48828125 7.265625 C-16.87421123 3.71148101 -8.48298789 0 0 0 Z " fill="#F8D44D" transform="translate(116,193)"/>
<path d="M0 0 C0 0.66 0 1.32 0 2 C1.34578125 1.89171875 1.34578125 1.89171875 2.71875 1.78125 C12.16615923 1.07855014 21.52880309 0.88798847 31 1 C31 1.99 31 2.98 31 4 C18.72779471 7.31975398 6.43240391 10.34121828 -6 13 C-6 12.01 -6 11.02 -6 10 C-7.93798521 10.30947671 -9.87537426 10.62268834 -11.8125 10.9375 C-12.89144531 11.11152344 -13.97039062 11.28554687 -15.08203125 11.46484375 C-18.04933356 11.93871921 -18.04933356 11.93871921 -21 13 C-20.67 12.01 -20.34 11.02 -20 10 C-19.34 10 -18.68 10 -18 10 C-17.78214844 9.39542969 -17.56429687 8.79085937 -17.33984375 8.16796875 C-15.53802816 5.25249455 -13.69432672 4.63094498 -10.5625 3.3125 C-9.59441406 2.89613281 -8.62632813 2.47976562 -7.62890625 2.05078125 C-2.49814126 0 -2.49814126 0 0 0 Z " fill="#F67605" transform="translate(99,200)"/>
<path d="M0 0 C0.66 0.33 1.32 0.66 2 1 C1.0409375 1.4021875 1.0409375 1.4021875 0.0625 1.8125 C-2.33131686 2.88667752 -2.33131686 2.88667752 -3 6 C-6.4641028 9.23662888 -10.2595603 12.09001279 -14 15 C-14.53254395 15.41717285 -15.06508789 15.8343457 -15.61376953 16.26416016 C-25.75838253 24.17972921 -25.75838253 24.17972921 -31 26 C-31 25.34 -31 24.68 -31 24 C-36.61 24 -42.22 24 -48 24 C-47 21 -47 21 -45.30444336 20.12792969 C-44.57362549 19.89493164 -43.84280762 19.66193359 -43.08984375 19.421875 C-42.27249756 19.15181641 -41.45515137 18.88175781 -40.61303711 18.60351562 C-39.73010986 18.32185547 -38.84718262 18.04019531 -37.9375 17.75 C-25.19788997 13.47879842 -13.1091233 8.94657585 -2.0390625 1.1875 C-1.36617187 0.795625 -0.69328125 0.40375 0 0 Z " fill="#B80C2E" transform="translate(243,146)"/>
<path d="M0 0 C0.66 0.33 1.32 0.66 2 1 C0.35 2.65 -1.3 4.3 -3 6 C-2.505 6.99 -2.505 6.99 -2 8 C-2.84175781 8.18433594 -3.68351562 8.36867187 -4.55078125 8.55859375 C-13.79943561 10.7194943 -22.79628667 13.45183954 -31.8125 16.4375 C-32.94405518 16.80866943 -34.07561035 17.17983887 -35.24145508 17.56225586 C-41.64618272 19.71214361 -47.72119801 22.13624648 -53.7644043 25.16430664 C-56 26 -56 26 -59 25 C-48.97844764 20.06146306 -38.88415357 15.65542783 -28.39770508 11.79101562 C-23.51272617 9.986982 -18.7392601 8.04596823 -13.99560547 5.89697266 C-11.54539064 4.79566494 -9.06332225 3.79282232 -6.5625 2.8125 C-4.32587593 1.93395126 -2.14902539 1.07451269 0 0 Z " fill="#35ACEA" transform="translate(172,134)"/>
<path d="M0 0 C0 0.66 0 1.32 0 2 C1.98 2 3.96 2 6 2 C6 2.33 6 2.66 6 3 C4.22109375 3.22042969 4.22109375 3.22042969 2.40625 3.4453125 C-16.64407538 6.00448868 -31.93191489 11.89224412 -46.87109375 24.265625 C-49 26 -49 26 -52 28 C-47.44432587 17.63351702 -36.03609926 11.15688698 -27 5 C-26.34 5.33 -25.68 5.66 -25 6 C-25.33 6.66 -25.66 7.32 -26 8 C-25.50113281 7.75765625 -25.00226563 7.5153125 -24.48828125 7.265625 C-16.87421123 3.71148101 -8.48298789 0 0 0 Z " fill="#FEB37D" transform="translate(116,193)"/>
<path d="M0 0 C0 0.66 0 1.32 0 2 C5.61 2 11.22 2 17 2 C17 2.99 17 3.98 17 5 C14.6875 6.75 14.6875 6.75 12 8 C11.01 7.67 10.02 7.34 9 7 C9 6.34 9 5.68 9 5 C7.75605469 5.144375 6.51210937 5.28875 5.23046875 5.4375 C-3.533838 6.42530032 -12.16350708 7.35743117 -21 7 C-21 6.01 -21 5.02 -21 4 C-18.06333774 3.32944715 -15.12577641 2.66340947 -12.1875 2 C-11.35412109 1.80921875 -10.52074219 1.6184375 -9.66210938 1.421875 C-8.85966797 1.24140625 -8.05722656 1.0609375 -7.23046875 0.875 C-6.49207764 0.70742187 -5.75368652 0.53984375 -4.99291992 0.3671875 C-3 0 -3 0 0 0 Z " fill="#EF1F72" transform="translate(195,168)"/>
<path d="M0 0 C5.37190394 0.8222302 10.25158831 1.10957673 15.6484375 0.265625 C21.04189504 -0.34360276 26.59131867 -0.41878241 32 0 C32.66 0.66 33.32 1.32 34 2 C28.66164461 3.92471317 23.65020618 5.39891424 18 6 C18 5.34 18 4.68 18 4 C7.77 4 -2.46 4 -13 4 C-13 3.34 -13 2.68 -13 2 C-11.5882217 1.46605821 -10.17029756 0.94834896 -8.75 0.4375 C-7.96109375 0.14746094 -7.1721875 -0.14257812 -6.359375 -0.44140625 C-3.72771798 -1.06446412 -2.54207695 -0.79936404 0 0 Z " fill="#F96406" transform="translate(112,198)"/>
<path d="M0 0 C-1.98 0.66 -3.96 1.32 -6 2 C-1.05 2 3.9 2 9 2 C5.86938033 5.13061967 1.65472097 4.78251414 -2.58984375 5.2109375 C-6.73798951 5.58249329 -6.73798951 5.58249329 -10 8 C-12.03417288 8.22761991 -14.07962992 8.35919697 -16.125 8.4375 C-21.70997747 8.77222673 -25.91982445 9.70894044 -31 12 C-31.33 11.34 -31.66 10.68 -32 10 C-5.52331119 -1.96154977 -5.52331119 -1.96154977 0 0 Z " fill="#FD8B85" transform="translate(134,181)"/>
<path d="M0 0 C1.17046875 0.11085937 2.3409375 0.22171875 3.546875 0.3359375 C4.43890625 0.43132812 5.3309375 0.52671875 6.25 0.625 C6.91 2.275 7.57 3.925 8.25 5.625 C5.28 6.615 2.31 7.605 -0.75 8.625 C-0.75 7.635 -0.75 6.645 -0.75 5.625 C-2.68798521 5.93447671 -4.62537426 6.24768834 -6.5625 6.5625 C-7.64144531 6.73652344 -8.72039062 6.91054687 -9.83203125 7.08984375 C-12.79933356 7.56371921 -12.79933356 7.56371921 -15.75 8.625 C-15.42 7.635 -15.09 6.645 -14.75 5.625 C-14.09 5.625 -13.43 5.625 -12.75 5.625 C-12.5025 5.00625 -12.255 4.3875 -12 3.75 C-9.1524151 -1.09089434 -5.12728744 -0.51272874 0 0 Z " fill="#FEA007" transform="translate(93.75,204.375)"/>
<path d="M0 0 C2.1640625 0.2421875 2.1640625 0.2421875 4.625 0.875 C5.44226563 1.07867187 6.25953125 1.28234375 7.1015625 1.4921875 C8.04128906 1.74355469 8.04128906 1.74355469 9 2 C3.91331217 8.22288958 -0.17764131 12.50350255 -8 15 C-10.30166675 16.51553153 -10.30166675 16.51553153 -12 18 C-10.5703053 13.91196673 -8.57586645 10.78329064 -6 7.3125 C-5.29875 6.35988281 -4.5975 5.40726563 -3.875 4.42578125 C-2 2 -2 2 0 0 Z " fill="#A3EE98" transform="translate(67,183)"/>
<path d="M0 0 C1.39439664 0.06665376 2.79169875 0.08538199 4.1875 0.0625 C5.445625 0.041875 6.70375 0.02125 8 0 C7 2 7 2 4.578125 2.8515625 C-6.31568649 5.38322292 -16.87047874 5.31065798 -28 5 C-24.04447994 2.36298663 -20.06537846 1.50302588 -15.5 0.3125 C-14.19869141 -0.04424805 -14.19869141 -0.04424805 -12.87109375 -0.40820312 C-12.03707031 -0.62798828 -11.20304687 -0.84777344 -10.34375 -1.07421875 C-9.58255859 -1.27619873 -8.82136719 -1.47817871 -8.03710938 -1.6862793 C-5.06970336 -2.14326836 -2.81635046 -0.93878349 0 0 Z " fill="#FC5988" transform="translate(153,179)"/>
<path d="M0 0 C0.66 0.33 1.32 0.66 2 1 C1.360625 1.268125 0.72125 1.53625 0.0625 1.8125 C-2.33131686 2.88667752 -2.33131686 2.88667752 -3 6 C-4.69102522 7.56618444 -6.45206388 9.05780525 -8.25 10.5 C-9.20390625 11.2734375 -10.1578125 12.046875 -11.140625 12.84375 C-18.07843137 18.07553841 -18.07843137 18.07553841 -22.8125 17.6875 C-23.864375 17.460625 -24.91625 17.23375 -26 17 C-24.96747456 13.54026924 -23.78820657 12.87810973 -20.5859375 11.03515625 C-19.18761553 10.3663573 -17.78363207 9.7093014 -16.375 9.0625 C-11.80008458 6.88612845 -7.35759821 4.74355585 -3.125 1.9375 C-2.09375 1.298125 -1.0625 0.65875 0 0 Z " fill="#940513" transform="translate(243,146)"/>
<path d="M0 0 C0.66 0.33 1.32 0.66 2 1 C-0.52060191 3.90905084 -3.30097416 5.287395 -6.75 6.9375 C-10.14322679 8.58319463 -13.47043976 10.21941609 -16.6875 12.1875 C-20.65854228 14.36033445 -24.67675834 15.70596848 -29 17 C-28.34 16.236875 -27.68 15.47375 -27 14.6875 C-24.70149462 12.15722061 -24.70149462 12.15722061 -25 9 C-24.42032471 8.79842285 -23.84064941 8.5968457 -23.2434082 8.38916016 C-20.5993569 7.46896159 -17.9559246 6.54699723 -15.3125 5.625 C-13.94448242 5.14933594 -13.94448242 5.14933594 -12.54882812 4.6640625 C-11.66259766 4.3546875 -10.77636719 4.0453125 -9.86328125 3.7265625 C-8.64572144 3.30238037 -8.64572144 3.30238037 -7.40356445 2.86962891 C-5.68691681 2.24853202 -3.99391203 1.56044967 -2.32104492 0.82958984 C-1.5551001 0.5558252 -0.78915527 0.28206055 0 0 Z " fill="#0B63C5" transform="translate(196,120)"/>
<path d="M0 0 C1.32 0 2.64 0 4 0 C3.5148903 4.36598726 2.89415244 8.58702592 1.9375 12.875 C1.19899265 16.36953118 0.94083153 19.49540178 1.0625 23.0625 C1.19990814 28.16276667 -0.09610588 32.30826093 -2 37 C-2.33 37 -2.66 37 -3 37 C-3.30033718 24.45257991 -2.61571228 12.32448217 0 0 Z " fill="#ECF9A2" transform="translate(39,242)"/>
<path d="M0 0 C0 0.66 0 1.32 0 2 C3.3 2 6.6 2 10 2 C9.67 4.31 9.34 6.62 9 9 C6.69 9.66 4.38 10.32 2 11 C1.67 9.02 1.34 7.04 1 5 C-2.63 5 -6.26 5 -10 5 C-10 4.34 -10 3.68 -10 3 C-8.70990357 2.49596232 -7.41786211 1.99690074 -6.125 1.5 C-5.04605469 1.08234375 -5.04605469 1.08234375 -3.9453125 0.65625 C-2 0 -2 0 0 0 Z " fill="#FE7E08" transform="translate(99,200)"/>
<path d="M0 0 C0.66 0.33 1.32 0.66 2 1 C1.67 1.66 1.34 2.32 1 3 C1.39938767 5.09821215 1.39938767 5.09821215 2 7 C-0.26727333 8.17407021 -2.53834624 9.33939739 -4.8125 10.5 C-5.45509766 10.83386719 -6.09769531 11.16773437 -6.75976562 11.51171875 C-9.69547699 13.00239084 -11.66126517 14 -15 14 C-12.82998458 6.89813135 -7.09915268 4.40145053 -1 1 C-0.67 0.67 -0.34 0.34 0 0 Z " fill="#5742C1" transform="translate(230,115)"/>
<path d="M0 0 C0.66 0.66 1.32 1.32 2 2 C1.67630136 6.42914477 -0.39824623 10.07911558 -2.4375 13.9375 C-4.67661178 18.19873746 -6.59623978 22.3795832 -8 27 C-8.33 27 -8.66 27 -9 27 C-9.33 23.7 -9.66 20.4 -10 17 C-9.01 17 -8.02 17 -7 17 C-6.82984375 16.443125 -6.6596875 15.88625 -6.484375 15.3125 C-4.76684063 9.90409391 -2.64657745 5.01937104 0 0 Z " fill="#F3D94B" transform="translate(49,240)"/>
<path d="M0 0 C0.33 1.32 0.66 2.64 1 4 C-0.98 4.99 -0.98 4.99 -3 6 C-3.33 5.01 -3.66 4.02 -4 3 C-10.27 3 -16.54 3 -23 3 C-15.600728 -0.699636 -8.12293653 -0.1200434 0 0 Z " fill="#F93387" transform="translate(204,173)"/>
<path d="M0 0 C0.66 0.33 1.32 0.66 2 1 C1.67 1.33 1.34 1.66 1 2 C3.475 2.495 3.475 2.495 6 3 C6 3.66 6 4.32 6 5 C5.154375 5.03738281 4.30875 5.07476562 3.4375 5.11328125 C-3.31064379 5.50436686 -8.82797163 6.21653623 -15 9 C-15.33 8.34 -15.66 7.68 -16 7 C-13.3789879 5.80293183 -10.75385304 4.61711354 -8.125 3.4375 C-7.00544922 2.92413086 -7.00544922 2.92413086 -5.86328125 2.40039062 C-3.93450668 1.54026143 -1.9688967 0.76383202 0 0 Z " fill="#FE9F84" transform="translate(118,184)"/>
<path d="M0 0 C0 0.66 0 1.32 0 2 C4.29 2 8.58 2 13 2 C13 2.99 13 3.98 13 5 C12.01 5.33 11.02 5.66 10 6 C10 5.34 10 4.68 10 4 C4.39 4 -1.22 4 -7 4 C-6.67 3.01 -6.34 2.02 -6 1 C-3 0 -3 0 0 0 Z " fill="#E11053" transform="translate(202,166)"/>
<path d="M0 0 C0.66 0.33 1.32 0.66 2 1 C-3.75 6 -3.75 6 -6 6 C-6.26731934 6.59329102 -6.53463867 7.18658203 -6.81005859 7.79785156 C-8.01584993 10.02933245 -9.2358095 11.4664799 -11.0390625 13.234375 C-11.90917969 14.09482422 -11.90917969 14.09482422 -12.796875 14.97265625 C-13.40015625 15.55917969 -14.0034375 16.14570313 -14.625 16.75 C-15.23601562 17.35199219 -15.84703125 17.95398438 -16.4765625 18.57421875 C-17.97988624 20.05405305 -19.48934856 21.52764676 -21 23 C-21 20 -21 20 -19.4609375 18.203125 C-18.77257812 17.55859375 -18.08421875 16.9140625 -17.375 16.25 C-14.71917523 13.70619595 -12.24744015 11.17332018 -9.9375 8.3125 C-7.03227641 4.82303035 -3.781207 2.49559662 0 0 Z " fill="#CCE1B3" transform="translate(88,174)"/>
<path d="M0 0 C0.66 0.33 1.32 0.66 2 1 C0.35 2.65 -1.3 4.3 -3 6 C-2.67 6.66 -2.34 7.32 -2 8 C-5.3 8.66 -8.6 9.32 -12 10 C-12 8.68 -12 7.36 -12 6 C-9.48617788 4.32411859 -7.17052712 3.05969689 -4.4375 1.8125 C-3.65246094 1.44769531 -2.86742187 1.08289063 -2.05859375 0.70703125 C-1.37925781 0.47371094 -0.69992188 0.24039063 0 0 Z " fill="#398EE3" transform="translate(172,134)"/>
<path d="M0 0 C0 0.66 0 1.32 0 2 C5.61 2 11.22 2 17 2 C17 2.33 17 2.66 17 3 C-2.34042553 4.19148936 -2.34042553 4.19148936 -12 4 C-11 2 -11 2 -9.2578125 1.3671875 C-8.55398437 1.20476562 -7.85015625 1.04234375 -7.125 0.875 C-6.07699219 0.62363281 -6.07699219 0.62363281 -5.0078125 0.3671875 C-3 0 -3 0 0 0 Z " fill="#EA1B5E" transform="translate(195,168)"/>
<path d="M0 0 C0.66 0.33 1.32 0.66 2 1 C0.45571519 5.18482119 -2.32934249 7.00078412 -5.875 9.5625 C-6.92429687 10.32691406 -7.97359375 11.09132812 -9.0546875 11.87890625 C-10.02664062 12.57886719 -10.99859375 13.27882812 -12 14 C-13.33595684 14.9964924 -14.6705301 15.99486938 -16 17 C-13.02550302 10.00118357 -5.98898148 4.44343788 0 0 Z " fill="#FDE8B8" transform="translate(80,204)"/>
<path d="M0 0 C2.1640625 0.2421875 2.1640625 0.2421875 4.625 0.875 C5.85089844 1.18050781 5.85089844 1.18050781 7.1015625 1.4921875 C8.04128906 1.74355469 8.04128906 1.74355469 9 2 C7 5 7 5 4.1796875 5.73046875 C2.54386719 5.95669922 2.54386719 5.95669922 0.875 6.1875 C-0.22070312 6.34605469 -1.31640625 6.50460938 -2.4453125 6.66796875 C-3.70988281 6.83232422 -3.70988281 6.83232422 -5 7 C-3.47793991 4.37098712 -2.15634036 2.15634036 0 0 Z " fill="#70E67C" transform="translate(67,183)"/>
<path d="M0 0 C-0.33 0.66 -0.66 1.32 -1 2 C-7.6 2.33 -14.2 2.66 -21 3 C-14.05431297 -1.63045802 -7.84199524 -2.75922055 0 0 Z " fill="#FD6779" transform="translate(146,181)"/>
<path d="M0 0 C0 0.66 0 1.32 0 2 C3.3 2 6.6 2 10 2 C10 2.99 10 3.98 10 5 C6.74441735 5 3.557899 4.75706131 0.3125 4.5 C-0.86699219 4.4071875 -2.04648438 4.314375 -3.26171875 4.21875 C-4.16535156 4.1465625 -5.06898438 4.074375 -6 4 C-5.67 3.01 -5.34 2.02 -5 1 C-3 0 -3 0 0 0 Z " fill="#D40A3D" transform="translate(208,164)"/>
<path d="M0 0 C-6.85859988 3.84081593 -12.79111964 4.24114668 -20.4375 3.625 C-21.26443359 3.56828125 -22.09136719 3.5115625 -22.94335938 3.453125 C-24.96302888 3.31303232 -26.98165637 3.15805019 -29 3 C-29 2.67 -29 2.34 -29 2 C-25.1044547 1.66324289 -21.20852178 1.33119542 -17.3125 1 C-16.20970703 0.90460938 -15.10691406 0.80921875 -13.97070312 0.7109375 C-12.90400391 0.62070313 -11.83730469 0.53046875 -10.73828125 0.4375 C-9.75899658 0.35371094 -8.77971191 0.26992187 -7.77075195 0.18359375 C-5.17018114 0.01127643 -2.6052455 -0.0332673 0 0 Z " fill="#F44818" transform="translate(171,192)"/>
<path d="M0 0 C-0.33 1.32 -0.66 2.64 -1 4 C-1.66 4 -2.32 4 -3 4 C-3 3.01 -3 2.02 -3 1 C-4.93798521 1.30947671 -6.87537426 1.62268834 -8.8125 1.9375 C-9.89144531 2.11152344 -10.97039062 2.28554687 -12.08203125 2.46484375 C-15.04933356 2.93871921 -15.04933356 2.93871921 -18 4 C-17.67 3.01 -17.34 2.02 -17 1 C-11.70876523 -0.73333553 -5.24862564 -2.62431282 0 0 Z " fill="#FDB80E" transform="translate(96,209)"/>
<path d="M0 0 C2.66275637 0.37258718 5.32979358 0.68319585 8 1 C8 1.33 8 1.66 8 2 C1.97403427 3.0712828 -3.88909517 3.09945415 -10 3 C-10 2.01 -10 1.02 -10 0 C-6.23300425 -0.96865605 -3.7615403 -0.87477681 0 0 Z " fill="#F03372" transform="translate(184,172)"/>
<path d="M0 0 C0.66 0.33 1.32 0.66 2 1 C1.67 1.66 1.34 2.32 1 3 C1.66 3.33 2.32 3.66 3 4 C1.37829621 5.00533667 -0.24747237 6.00411907 -1.875 7 C-3.23238281 7.8353125 -3.23238281 7.8353125 -4.6171875 8.6875 C-7 10 -7 10 -9 10 C-7.63842622 4.70499087 -4.39656045 2.76254467 0 0 Z " fill="#FDD59B" transform="translate(89,198)"/>
<path d="M0 0 C0.66 0.33 1.32 0.66 2 1 C2 1.66 2 2.32 2 3 C2.66 3.66 3.32 4.32 4 5 C2.73308493 5.67408308 1.46129251 6.33900497 0.1875 7 C-0.52019531 7.37125 -1.22789062 7.7425 -1.95703125 8.125 C-4 9 -4 9 -7 9 C-5.64978174 4.58110387 -3.73884332 2.65654657 0 0 Z " fill="#6D45C6" transform="translate(222,120)"/>
<path d="M0 0 C2.7885289 -0.22107787 5.34653181 -0.28107535 8.125 -0.1875 C8.87910156 -0.17396484 9.63320312 -0.16042969 10.41015625 -0.14648438 C12.27374127 -0.11109985 14.13695978 -0.05729167 16 0 C16.33 0.66 16.66 1.32 17 2 C7.595 2.495 7.595 2.495 -2 3 C-1.34 2.01 -0.68 1.02 0 0 Z " fill="#FD5813" transform="translate(122,195)"/>
<path d="M0 0 C0 1.65 0 3.3 0 5 C-2.31 5.66 -4.62 6.32 -7 7 C-7.33 5.02 -7.66 3.04 -8 1 C-2.25 0 -2.25 0 0 0 Z " fill="#F89605" transform="translate(108,204)"/>
<path d="M0 0 C-0.33 0.99 -0.66 1.98 -1 3 C-5.62 3 -10.24 3 -15 3 C-14.67 2.34 -14.34 1.68 -14 1 C-9.31604754 -0.14242743 -4.78644729 -0.08252495 0 0 Z " fill="#F03B71" transform="translate(172,174)"/>
<path d="M0 0 C-2.56766024 2.99560362 -5.33991513 4.5646726 -9 6 C-12.375 5.6875 -12.375 5.6875 -15 5 C-12.30932731 3.20621821 -9.91421743 2.02686042 -6.9375 0.8125 C-5.62072266 0.26529297 -5.62072266 0.26529297 -4.27734375 -0.29296875 C-2 -1 -2 -1 0 0 Z " fill="#105BB6" transform="translate(198,121)"/>
<path d="M0 0 C2.39763185 2.39763185 2.34280586 3.33273498 2.625 6.625 C2.69976562 7.44226562 2.77453125 8.25953125 2.8515625 9.1015625 C2.90054687 9.72804688 2.94953125 10.35453125 3 11 C2.34 11 1.68 11 1 11 C1 14.96 1 18.92 1 23 C0.67 23 0.34 23 0 23 C0 15.41 0 7.82 0 0 Z " fill="#5F3BAC" transform="translate(276,33)"/>
<path d="M0 0 C2 1 2 1 4 4 C3.828125 6.15625 3.828125 6.15625 3.25 8.5 C2.97929688 9.66015625 2.97929688 9.66015625 2.703125 10.84375 C2 13 2 13 0 16 C0 10.72 0 5.44 0 0 Z " fill="#D3D272" transform="translate(36,263)"/>
<path d="M0 0 C2.9375 1.1875 2.9375 1.1875 3.9375 3.1875 C-2.4975 3.6825 -2.4975 3.6825 -9.0625 4.1875 C-3.85282258 -1.02217742 -3.85282258 -1.02217742 0 0 Z " fill="#FEA41A" transform="translate(90.0625,204.8125)"/>
<path d="M0 0 C1.90845703 0.16628906 1.90845703 0.16628906 3.85546875 0.3359375 C4.83128906 0.43132812 5.80710938 0.52671875 6.8125 0.625 C3.77218274 2.34620049 1.21864449 3.01924159 -2.25 3.375 C-3.53583984 3.52195313 -3.53583984 3.52195313 -4.84765625 3.671875 C-7.1875 3.625 -7.1875 3.625 -10.1875 1.625 C-6.35207543 -0.93194972 -4.52847467 -0.41545639 0 0 Z " fill="#F84578" transform="translate(159.1875,176.375)"/>
<path d="M0 0 C-1.75864246 2.1793144 -2.69396 2.93686419 -5.48046875 3.51171875 C-6.82044922 3.59873047 -6.82044922 3.59873047 -8.1875 3.6875 C-9.08855469 3.75324219 -9.98960938 3.81898438 -10.91796875 3.88671875 C-11.60503906 3.92410156 -12.29210938 3.96148437 -13 4 C-12.67 3.01 -12.34 2.02 -12 1 C-10.29296875 0.234375 -10.29296875 0.234375 -8.1875 -0.25 C-7.50042969 -0.42015625 -6.81335938 -0.5903125 -6.10546875 -0.765625 C-3.80500179 -1.02170666 -2.19370273 -0.69015367 0 0 Z " fill="#8DF08B" transform="translate(73,189)"/>
<path d="M0 0 C0.66 0.66 1.32 1.32 2 2 C-1.01490557 3.00496852 -3.04181692 3.10335303 -6.1875 3.0625 C-7.53908203 3.04896484 -7.53908203 3.04896484 -8.91796875 3.03515625 C-9.60503906 3.02355469 -10.29210937 3.01195312 -11 3 C-7.60432574 -0.67206635 -4.86456286 -1.62152095 0 0 Z " fill="#FC5677" transform="translate(150,178)"/>
<path d="M0 0 C3.96 0 7.92 0 12 0 C8.90097677 3.09902323 6.60852615 2.9898579 2.25 3.0625 C1.1775 3.041875 0.105 3.02125 -1 3 C-0.67 2.01 -0.34 1.02 0 0 Z " fill="#FE7883" transform="translate(131,183)"/>
<path d="M0 0 C3.96 0 7.92 0 12 0 C12.33 1.32 12.66 2.64 13 4 C11.02 4.99 11.02 4.99 9 6 C8.67 4.35 8.34 2.7 8 1 C5.36 1 2.72 1 0 1 C0 0.67 0 0.34 0 0 Z " fill="#F22785" transform="translate(192,173)"/>
<path d="M0 0 C-2.85478326 1.90318884 -4.41941308 2.4619099 -7.6875 3.125 C-8.49574219 3.29257813 -9.30398437 3.46015625 -10.13671875 3.6328125 C-10.75160156 3.75398437 -11.36648437 3.87515625 -12 4 C-11 1 -11 1 -8.8125 -0.25 C-5.51773102 -1.12860506 -3.29199038 -0.76557916 0 0 Z " fill="#42A9EA" transform="translate(152,146)"/>
<path d="M0 0 C0.99 0.33 1.98 0.66 3 1 C5.05893621 1.22325814 7.12233653 1.40705759 9.1875 1.5625 C10.27417969 1.64628906 11.36085938 1.73007813 12.48046875 1.81640625 C13.72763672 1.90728516 13.72763672 1.90728516 15 2 C15 2.33 15 2.66 15 3 C9.39 3 3.78 3 -2 3 C-2 2.34 -2 1.68 -2 1 C-1.34 0.67 -0.68 0.34 0 0 Z " fill="#FE8E10" transform="translate(91,202)"/>
<path d="M0 0 C0 0.66 0 1.32 0 2 C1.32 2.33 2.64 2.66 4 3 C0.37 3.33 -3.26 3.66 -7 4 C-6.67 3.01 -6.34 2.02 -6 1 C-3 0 -3 0 0 0 Z " fill="#D7174B" transform="translate(202,166)"/>
<path d="M0 0 C0.66 0.33 1.32 0.66 2 1 C-2.39453125 5.00390625 -2.39453125 5.00390625 -4 6 C-4.99 5.67 -5.98 5.34 -7 5 C-7 4.34 -7 3.68 -7 3 C-4.69631264 1.93347808 -2.35981813 0.93578995 0 0 Z " fill="#A60C29" transform="translate(226,156)"/>
<path d="M0 0 C1.65 0 3.3 0 5 0 C5.33 1.32 5.66 2.64 6 4 C4.68 4.33 3.36 4.66 2 5 C2 4.01 2 3.02 2 2 C1.34 2 0.68 2 0 2 C0 1.34 0 0.68 0 0 Z " fill="#FDB007" transform="translate(94,207)"/>
<path d="M0 0 C0.99 0 1.98 0 3 0 C3.25 6.625 3.25 6.625 1 10 C0.67 6.7 0.34 3.4 0 0 Z " fill="#F8E572" transform="translate(39,257)"/>
<path d="M0 0 C1.32 0 2.64 0 4 0 C3.67 2.64 3.34 5.28 3 8 C1.5 6.8125 1.5 6.8125 0 5 C-0.1875 2.3125 -0.1875 2.3125 0 0 Z " fill="#D9F0AB" transform="translate(39,242)"/>
<path d="M0 0 C0.66 0.66 1.32 1.32 2 2 C1.625 4.625 1.625 4.625 1 7 C-0.32 7.33 -1.64 7.66 -3 8 C-1.125 2.25 -1.125 2.25 0 0 Z " fill="#F9E46B" transform="translate(49,240)"/>
<path d="M0 0 C6.93 0.495 6.93 0.495 14 1 C12.515 2.485 12.515 2.485 11 4 C10.67 3.67 10.34 3.34 10 3 C8.31816052 2.76712992 6.6287584 2.58735834 4.9375 2.4375 C3.55884766 2.31181641 3.55884766 2.31181641 2.15234375 2.18359375 C1.08693359 2.09271484 1.08693359 2.09271484 0 2 C0 1.34 0 0.68 0 0 Z " fill="#C3062B" transform="translate(208,164)"/>
<path d="M0 0 C0 0.66 0 1.32 0 2 C-2.40545638 3.20272819 -3.94996953 3.10071472 -6.625 3.0625 C-7.85089844 3.04896484 -7.85089844 3.04896484 -9.1015625 3.03515625 C-10.04128906 3.01775391 -10.04128906 3.01775391 -11 3 C-7.20844146 1.05276952 -4.29965574 0 0 0 Z " fill="#E12A63" transform="translate(195,168)"/>
<path d="M0 0 C0.66 0.33 1.32 0.66 2 1 C1.360625 1.268125 0.72125 1.53625 0.0625 1.8125 C-2.33131686 2.88667752 -2.33131686 2.88667752 -3 6 C-3.99 6.33 -4.98 6.66 -6 7 C-6.66 6.34 -7.32 5.68 -8 5 C-6.71475739 4.13619741 -5.42157581 3.28419631 -4.125 2.4375 C-3.04605469 1.72400391 -3.04605469 1.72400391 -1.9453125 0.99609375 C-1.30335938 0.66738281 -0.66140625 0.33867187 0 0 Z " fill="#8A1232" transform="translate(243,146)"/>
<path d="M0 0 C0.66 1.32 1.32 2.64 2 4 C0.02 4.66 -1.96 5.32 -4 6 C-2.84826645 3.53199953 -1.95216435 1.95216435 0 0 Z " fill="#633CC1" transform="translate(230,118)"/>
<path d="M0 0 C2 3 2 3 1.7578125 5.48046875 C1.54898438 6.37378906 1.34015625 7.26710937 1.125 8.1875 C0.92132813 9.08855469 0.71765625 9.98960937 0.5078125 10.91796875 C0.34023438 11.60503906 0.17265625 12.29210937 0 13 C-0.33 13 -0.66 13 -1 13 C-1.07654536 8.48382401 -1.10228696 4.40914783 0 0 Z " fill="#B1C77E" transform="translate(38,247)"/>
<path d="M0 0 C0.99 0.495 0.99 0.495 2 1 C1.01 1.495 1.01 1.495 0 2 C0 1.34 0 0.68 0 0 Z M-2 3 C-0.35 3 1.3 3 3 3 C0.82575883 5.50037734 -0.73045798 6.43628586 -4 7 C-3.34 5.68 -2.68 4.36 -2 3 Z " fill="#FECD8D" transform="translate(89,198)"/>
<path d="M0 0 C0.99 0 1.98 0 3 0 C3 0.66 3 1.32 3 2 C4.32 2.33 5.64 2.66 7 3 C3.7 3 0.4 3 -3 3 C-2.01 2.01 -1.02 1.02 0 0 Z " fill="#C7113B" transform="translate(205,164)"/>
<path d="M0 0 C-2.63904371 1.41377341 -5.07120629 2.37240135 -8 3 C-7.67 2.01 -7.34 1.02 -7 0 C-4.3333581 -1.33332095 -2.83319697 -0.67102033 0 0 Z " fill="#FFBA24" transform="translate(86,210)"/>
<path d="M0 0 C2.31 0.33 4.62 0.66 7 1 C7 1.99 7 2.98 7 4 C4.36 3.67 1.72 3.34 -1 3 C-0.67 2.01 -0.34 1.02 0 0 Z " fill="#AB0214" transform="translate(218,160)"/>
</svg>
