<?xml version="1.0" encoding="UTF-8"?>
<!DOCTYPE svg PUBLIC "-//W3C//DTD SVG 1.1//EN" "http://www.w3.org/Graphics/SVG/1.1/DTD/svg11.dtd">
<svg xmlns="http://www.w3.org/2000/svg" version="1.1" width="400px" height="400px" style="shape-rendering:geometricPrecision; text-rendering:geometricPrecision; image-rendering:optimizeQuality; fill-rule:evenodd; clip-rule:evenodd" xmlns:xlink="http://www.w3.org/1999/xlink">
<g><path style="opacity:0.393" fill="#707177" d="M 207.5,10.5 C 211.69,10.0225 214.69,11.6892 216.5,15.5C 215.833,15.5 215.167,15.5 214.5,15.5C 212.999,14.2485 211.332,13.2485 209.5,12.5C 208.833,11.8333 208.167,11.1667 207.5,10.5 Z"/></g>
<g><path style="opacity:1" fill="#55585f" d="M 207.5,10.5 C 208.167,11.1667 208.833,11.8333 209.5,12.5C 203.441,12.7461 197.441,12.4128 191.5,11.5C 194.55,10.0648 197.883,9.39809 201.5,9.5C 203.696,9.50465 205.696,9.83798 207.5,10.5 Z"/></g>
<g><path style="opacity:1" fill="#32353e" d="M 191.5,11.5 C 197.441,12.4128 203.441,12.7461 209.5,12.5C 211.332,13.2485 212.999,14.2485 214.5,15.5C 218.064,19.6143 221.397,23.9476 224.5,28.5C 225.11,29.391 225.443,30.391 225.5,31.5C 225.813,88.5189 225.48,145.519 224.5,202.5C 223.488,206.516 222.488,210.516 221.5,214.5C 219.521,215.812 217.855,217.479 216.5,219.5C 211.391,224.952 205.724,229.619 199.5,233.5C 198.833,233.833 198.167,234.167 197.5,234.5C 196.5,234.5 195.5,234.5 194.5,234.5C 194.433,233.041 194.766,231.708 195.5,230.5C 196.312,228.055 197.312,225.722 198.5,223.5C 202.199,211.846 203.532,199.846 202.5,187.5C 203.499,135.669 203.832,83.6693 203.5,31.5C 203.741,28.2065 202.908,25.2065 201,22.5C 197.939,18.6157 194.773,14.949 191.5,11.5 Z"/></g>
<g><path style="opacity:0.849" fill="#464850" d="M 214.5,15.5 C 215.167,15.5 215.833,15.5 216.5,15.5C 220.605,18.2705 223.605,21.9372 225.5,26.5C 224.662,26.8417 224.328,27.5084 224.5,28.5C 221.397,23.9476 218.064,19.6143 214.5,15.5 Z"/></g>
<g><path style="opacity:0.49" fill="#7a7b80" d="M 225.5,26.5 C 227.081,28.1417 227.747,30.1417 227.5,32.5C 226.833,32.1667 226.167,31.8333 225.5,31.5C 225.443,30.391 225.11,29.391 224.5,28.5C 224.328,27.5084 224.662,26.8417 225.5,26.5 Z"/></g>
<g><path style="opacity:1" fill="#f3e70a" d="M 62.5,115.5 C 60.4471,115.402 58.7804,116.069 57.5,117.5C 55.9731,117.427 54.9731,118.094 54.5,119.5C 52.9731,119.427 51.9731,120.094 51.5,121.5C 48.5268,122.81 46.1935,124.81 44.5,127.5C 42.5484,128.785 40.8818,130.451 39.5,132.5C 38.0937,132.973 37.427,133.973 37.5,135.5C 36.0937,135.973 35.427,136.973 35.5,138.5C 34.8902,139.391 34.5569,140.391 34.5,141.5C 33.5,141.5 32.5,141.5 31.5,141.5C 29.8503,124.201 34.8503,109.367 46.5,97C 50.7829,94.3847 54.7829,91.3847 58.5,88C 60.5,87.3333 62.5,86.6667 64.5,86C 97.4066,66.4787 130.407,47.1454 163.5,28C 171.193,24.7313 177.36,26.5647 182,33.5C 182.667,36.8333 182.667,40.1667 182,43.5C 179.407,45.5486 176.907,47.7152 174.5,50C 158.167,59 141.833,68 125.5,77C 118.736,81.1486 112.07,85.4819 105.5,90C 90.5761,97.4636 76.2427,105.964 62.5,115.5 Z"/></g>
<g><path style="opacity:1" fill="#494b53" d="M 191.5,11.5 C 194.773,14.949 197.939,18.6157 201,22.5C 202.908,25.2065 203.741,28.2065 203.5,31.5C 201.235,31.5594 200.902,30.7261 202.5,29C 201.652,27.3336 200.652,25.8336 199.5,24.5C 197.241,20.4051 194.074,17.0718 190,14.5C 189.415,13.0024 189.915,12.0024 191.5,11.5 Z"/></g>
<g><path style="opacity:0.555" fill="#787b80" d="M 227.5,33.5 C 229.051,35.9128 229.717,38.5794 229.5,41.5C 228.5,40.8333 227.5,40.1667 226.5,39.5C 226.205,37.2646 226.539,35.2646 227.5,33.5 Z"/></g>
<g><path style="opacity:0.67" fill="#656870" d="M 199.5,24.5 C 200.652,25.8336 201.652,27.3336 202.5,29C 200.902,30.7261 201.235,31.5594 203.5,31.5C 203.832,83.6693 203.499,135.669 202.5,187.5C 201.833,186.833 201.167,186.167 200.5,185.5C 200.816,131.81 200.483,78.1436 199.5,24.5 Z"/></g>
<g><path style="opacity:1" fill="#32353e" d="M 253.5,37.5 C 254.736,39.8275 256.736,40.9942 259.5,41C 264.984,44.9676 268.651,50.1343 270.5,56.5C 270.957,57.2975 271.624,57.6309 272.5,57.5C 270.507,61.4772 271.173,64.8105 274.5,67.5C 274.5,118.167 274.5,168.833 274.5,219.5C 271.337,222.601 270.67,226.268 272.5,230.5C 271.603,229.402 270.77,229.402 270,230.5C 269.51,232.545 269.677,234.545 270.5,236.5C 269.85,236.196 269.183,235.863 268.5,235.5C 266.853,239.459 264.686,243.125 262,246.5C 256.857,252.155 251.357,257.155 245.5,261.5C 243.131,261.851 240.797,262.018 238.5,262C 239.641,259.217 241.475,257.05 244,255.5C 244.49,254.207 244.657,252.873 244.5,251.5C 246.129,249.142 247.295,246.476 248,243.5C 248.825,233.658 248.658,223.991 247.5,214.5C 247.5,165.833 247.5,117.167 247.5,68.5C 248.222,68.0825 248.722,67.4158 249,66.5C 249.333,113.167 249.667,159.833 250,206.5C 250.667,158.5 250.667,110.5 250,62.5C 249.658,64.6192 248.825,64.9526 247.5,63.5C 247.5,61.1667 247.5,58.8333 247.5,56.5C 247.99,50.6823 245.656,45.849 240.5,42C 239.552,41.5172 238.552,41.3505 237.5,41.5C 236.355,40.2073 236.689,39.0407 238.5,38C 243.61,36.3901 248.61,36.2234 253.5,37.5 Z"/></g>
<g><path style="opacity:0.658" fill="#52535b" d="M 226.5,39.5 C 227.5,40.1667 228.5,40.8333 229.5,41.5C 229.5,91.5 229.5,141.5 229.5,191.5C 228.728,192.694 227.728,193.694 226.5,194.5C 226.5,142.833 226.5,91.1667 226.5,39.5 Z"/></g>
<g><path style="opacity:0.56" fill="#5c5e66" d="M 253.5,37.5 C 255.927,37.523 258.26,38.023 260.5,39C 263.333,41.8333 266.167,44.6667 269,47.5C 271.082,50.4872 272.249,53.8206 272.5,57.5C 271.624,57.6309 270.957,57.2975 270.5,56.5C 268.651,50.1343 264.984,44.9676 259.5,41C 256.736,40.9942 254.736,39.8275 253.5,37.5 Z"/></g>
<g><path style="opacity:0.485" fill="#54575e" d="M 237.5,41.5 C 238.552,41.3505 239.552,41.5172 240.5,42C 245.656,45.849 247.99,50.6823 247.5,56.5C 245.435,50.7187 242.102,45.7187 237.5,41.5 Z"/></g>
<g><path style="opacity:1" fill="#3f424b" d="M 225.5,31.5 C 226.167,31.8333 226.833,32.1667 227.5,32.5C 227.5,32.8333 227.5,33.1667 227.5,33.5C 226.539,35.2646 226.205,37.2646 226.5,39.5C 226.5,91.1667 226.5,142.833 226.5,194.5C 226.435,197.428 225.768,200.095 224.5,202.5C 225.48,145.519 225.813,88.5189 225.5,31.5 Z"/></g>
<g><path style="opacity:0.442" fill="#52555e" d="M 272.5,57.5 C 273.785,60.5885 274.451,63.9219 274.5,67.5C 271.173,64.8105 270.507,61.4772 272.5,57.5 Z"/></g>
<g><path style="opacity:0.408" fill="#70737a" d="M 295.5,62.5 C 298.942,61.8283 301.609,62.8283 303.5,65.5C 302.5,65.5 301.5,65.5 300.5,65.5C 299.833,65.5 299.167,65.5 298.5,65.5C 297.306,64.7281 296.306,63.7281 295.5,62.5 Z"/></g>
<g><path style="opacity:0.769" fill="#52545b" d="M 295.5,62.5 C 296.306,63.7281 297.306,64.7281 298.5,65.5C 294.818,65.3347 291.152,65.5014 287.5,66C 286.978,66.5613 286.645,67.228 286.5,68C 288.438,69.4314 289.771,71.2647 290.5,73.5C 290.167,73.5 289.833,73.5 289.5,73.5C 286.153,71.6887 284.32,69.022 284,65.5C 287.327,62.8461 291.161,61.8461 295.5,62.5 Z"/></g>
<g><path style="opacity:1" fill="#383a43" d="M 247.5,68.5 C 247.5,66.8333 247.5,65.1667 247.5,63.5C 248.825,64.9526 249.658,64.6192 250,62.5C 250.667,110.5 250.667,158.5 250,206.5C 249.667,159.833 249.333,113.167 249,66.5C 248.722,67.4158 248.222,68.0825 247.5,68.5 Z"/></g>
<g><path style="opacity:0.794" fill="#50535b" d="M 300.5,65.5 C 301.5,65.5 302.5,65.5 303.5,65.5C 306.292,65.6225 308.292,66.9558 309.5,69.5C 306.256,68.5371 303.256,67.2038 300.5,65.5 Z"/></g>
<g><path style="opacity:1" fill="#32353e" d="M 298.5,65.5 C 299.167,65.5 299.833,65.5 300.5,65.5C 303.256,67.2038 306.256,68.5371 309.5,69.5C 312.469,74.9962 315.469,80.4962 318.5,86C 317.594,87.6995 317.261,89.5328 317.5,91.5C 317.667,142.834 317.5,194.168 317,245.5C 315.842,250.795 315.009,256.128 314.5,261.5C 314.249,263.17 313.582,264.67 312.5,266C 313.056,266.383 313.389,266.883 313.5,267.5C 313.672,268.492 313.338,269.158 312.5,269.5C 308.11,272.379 304.11,275.879 300.5,280C 301.056,280.383 301.389,280.883 301.5,281.5C 299.345,281.372 297.345,281.872 295.5,283C 291.713,286.067 287.713,288.9 283.5,291.5C 282.702,291.043 282.369,290.376 282.5,289.5C 284.89,287.733 286.557,285.4 287.5,282.5C 288.401,281.71 289.068,280.71 289.5,279.5C 291.733,275.878 293.233,271.878 294,267.5C 295.276,258.212 295.776,248.879 295.5,239.5C 295.667,187.499 295.5,135.499 295,83.5C 293.776,79.977 292.276,76.6437 290.5,73.5C 289.771,71.2647 288.438,69.4314 286.5,68C 286.645,67.228 286.978,66.5613 287.5,66C 291.152,65.5014 294.818,65.3347 298.5,65.5 Z"/></g>
<g><path style="opacity:0.653" fill="#5e6168" d="M 309.5,69.5 C 317.259,75.9572 320.926,84.2905 320.5,94.5C 319.272,93.6935 318.272,92.6935 317.5,91.5C 317.261,89.5328 317.594,87.6995 318.5,86C 315.469,80.4962 312.469,74.9962 309.5,69.5 Z"/></g>
<g><path style="opacity:1" fill="#f3e70a" d="M 109.5,142.5 C 109.631,141.761 109.464,141.094 109,140.5C 106.562,141.568 104.395,142.902 102.5,144.5C 100.973,144.427 99.9731,145.094 99.5,146.5C 99.5,146.833 99.5,147.167 99.5,147.5C 98.8333,147.5 98.1667,147.5 97.5,147.5C 96.1667,147.5 95.5,148.167 95.5,149.5C 93.9731,149.427 92.9731,150.094 92.5,151.5C 88.8998,153.43 85.8998,156.097 83.5,159.5C 82.0937,159.973 81.427,160.973 81.5,162.5C 80.0337,163.347 79.2004,164.68 79,166.5C 78.6174,165.944 78.1174,165.611 77.5,165.5C 76.2702,157.665 77.1035,149.998 80,142.5C 82.3333,138.167 84.6667,133.833 87,129.5C 91.4668,126.035 95.6334,122.202 99.5,118C 123.298,104.6 146.965,90.933 170.5,77C 172.5,76.3333 174.5,76.3333 176.5,77C 183.458,82.4533 185.458,89.4533 182.5,98C 159.865,110.986 137.199,123.986 114.5,137C 112.7,138.812 111.033,140.645 109.5,142.5 Z"/></g>
<g><path style="opacity:0.665" fill="#64676d" d="M 289.5,73.5 C 289.833,73.5 290.167,73.5 290.5,73.5C 292.276,76.6437 293.776,79.977 295,83.5C 295.5,135.499 295.667,187.499 295.5,239.5C 294.833,239.5 294.5,239.833 294.5,240.5C 293.833,239.833 293.167,239.167 292.5,238.5C 292.667,186.166 292.5,133.832 292,81.5C 291.342,78.7152 290.509,76.0486 289.5,73.5 Z"/></g>
<g><path style="opacity:1" fill="#3e414a" d="M 338.5,89.5 C 339.5,89.5 340.5,89.5 341.5,89.5C 344.98,91.5335 348.646,93.2002 352.5,94.5C 352.5,94.8333 352.5,95.1667 352.5,95.5C 348.227,94.6811 344.06,93.6811 340,92.5C 338.5,92.6667 337,92.8333 335.5,93C 334.244,93.4169 333.577,94.2502 333.5,95.5C 332.005,95.5852 331.005,94.9185 330.5,93.5C 333.502,92.6659 336.168,91.3325 338.5,89.5 Z"/></g>
<g><path style="opacity:0.608" fill="#73767c" d="M 341.5,89.5 C 344.91,89.4571 348.243,89.9571 351.5,91C 352.71,92.0391 353.71,93.2058 354.5,94.5C 353.833,94.5 353.167,94.5 352.5,94.5C 348.646,93.2002 344.98,91.5335 341.5,89.5 Z"/></g>
<g><path style="opacity:0.708" fill="#585b62" d="M 338.5,89.5 C 336.168,91.3325 333.502,92.6659 330.5,93.5C 331.005,94.9185 332.005,95.5852 333.5,95.5C 337.132,99.0948 339.465,103.428 340.5,108.5C 339.833,108.833 339.167,109.167 338.5,109.5C 338.091,106.189 336.924,103.189 335,100.5C 324.456,93.561 325.622,89.8944 338.5,89.5 Z"/></g>
<g><path style="opacity:1" fill="#32353e" d="M 352.5,95.5 C 358.456,99.7595 362.123,105.426 363.5,112.5C 364.244,116.119 364.577,119.785 364.5,123.5C 364.5,173.167 364.5,222.833 364.5,272.5C 362.931,277.268 361.765,282.268 361,287.5C 359.917,290.267 358.75,292.933 357.5,295.5C 355.469,296.539 354.136,298.205 353.5,300.5C 348.993,305.683 343.66,309.683 337.5,312.5C 336.325,312.719 335.325,312.386 334.5,311.5C 336.424,307.662 337.758,303.662 338.5,299.5C 338.5,299.167 338.5,298.833 338.5,298.5C 340.25,294.817 340.917,290.817 340.5,286.5C 341.329,279.345 341.829,272.011 342,264.5C 342.667,213.833 342.667,163.167 342,112.5C 341.79,110.942 341.29,109.609 340.5,108.5C 339.465,103.428 337.132,99.0948 333.5,95.5C 333.577,94.2502 334.244,93.4169 335.5,93C 337,92.8333 338.5,92.6667 340,92.5C 344.06,93.6811 348.227,94.6811 352.5,95.5 Z"/></g>
<g><path style="opacity:0.56" fill="#3b3d46" d="M 317.5,91.5 C 318.272,92.6935 319.272,93.6935 320.5,94.5C 320.5,144.833 320.5,195.167 320.5,245.5C 319.504,245.414 318.671,245.748 318,246.5C 317.278,249.261 317.445,251.927 318.5,254.5C 317.539,257.055 316.206,259.388 314.5,261.5C 315.009,256.128 315.842,250.795 317,245.5C 317.5,194.168 317.667,142.834 317.5,91.5 Z"/></g>
<g><path style="opacity:0.434" fill="#555860" d="M 352.5,95.5 C 352.5,95.1667 352.5,94.8333 352.5,94.5C 353.167,94.5 353.833,94.5 354.5,94.5C 360.655,98.4724 363.988,104.139 364.5,111.5C 364.5,112.167 364.167,112.5 363.5,112.5C 362.123,105.426 358.456,99.7595 352.5,95.5 Z"/></g>
<g><path style="opacity:0.522" fill="#71747a" d="M 364.5,111.5 C 366.692,115.098 367.692,119.098 367.5,123.5C 366.5,124.833 365.5,124.833 364.5,123.5C 364.577,119.785 364.244,116.119 363.5,112.5C 364.167,112.5 364.5,112.167 364.5,111.5 Z"/></g>
<g><path style="opacity:0.674" fill="#41424c" d="M 340.5,108.5 C 341.29,109.609 341.79,110.942 342,112.5C 342.667,163.167 342.667,213.833 342,264.5C 341.829,272.011 341.329,279.345 340.5,286.5C 340.666,280.491 340.499,274.491 340,268.5C 339.722,267.584 339.222,266.918 338.5,266.5C 339.825,214.209 339.825,161.875 338.5,109.5C 339.167,109.167 339.833,108.833 340.5,108.5 Z"/></g>
<g><path style="opacity:0.586" fill="#f1a615" d="M 62.5,115.5 C 62.1667,116.167 61.8333,116.833 61.5,117.5C 60.1667,117.5 58.8333,117.5 57.5,117.5C 58.7804,116.069 60.4471,115.402 62.5,115.5 Z"/></g>
<g><path style="opacity:0.543" fill="#f1821b" d="M 57.5,117.5 C 58.8333,117.5 60.1667,117.5 61.5,117.5C 61.6716,118.492 61.3382,119.158 60.5,119.5C 59.3684,118.646 58.035,118.646 56.5,119.5C 56.8333,118.833 57.1667,118.167 57.5,117.5 Z"/></g>
<g><path style="opacity:1" fill="#f1ad14" d="M 57.5,117.5 C 57.1667,118.167 56.8333,118.833 56.5,119.5C 55.8333,119.5 55.1667,119.5 54.5,119.5C 54.9731,118.094 55.9731,117.427 57.5,117.5 Z"/></g>
<g><path style="opacity:1" fill="#f1a814" d="M 54.5,119.5 C 54.0269,120.906 53.0269,121.573 51.5,121.5C 51.9731,120.094 52.9731,119.427 54.5,119.5 Z"/></g>
<g><path style="opacity:0.913" fill="#f05f21" d="M 60.5,119.5 C 59.011,122.478 57.511,125.478 56,128.5C 55.6667,131.167 55.3333,133.833 55,136.5C 54.6667,180.5 54.3333,224.5 54,268.5C 42.965,275.956 35.6316,273.29 32,260.5C 31.5,223.835 31.3333,187.168 31.5,150.5C 33.5323,149.952 34.5323,148.619 34.5,146.5C 35.6827,143.619 36.6827,140.619 37.5,137.5C 39.2624,136.738 40.2624,135.404 40.5,133.5C 42.2255,131.772 43.5589,129.772 44.5,127.5C 47.4474,126.219 49.7807,124.219 51.5,121.5C 53.0269,121.573 54.0269,120.906 54.5,119.5C 55.1667,119.5 55.8333,119.5 56.5,119.5C 58.035,118.646 59.3684,118.646 60.5,119.5 Z"/></g>
<g><path style="opacity:0.664" fill="#64666d" d="M 364.5,123.5 C 365.5,124.833 366.5,124.833 367.5,123.5C 367.667,174.501 367.5,225.501 367,276.5C 366.283,277.044 365.783,277.711 365.5,278.5C 364.539,276.735 364.205,274.735 364.5,272.5C 364.5,222.833 364.5,173.167 364.5,123.5 Z"/></g>
<g><path style="opacity:1" fill="#f1a216" d="M 51.5,121.5 C 49.7807,124.219 47.4474,126.219 44.5,127.5C 46.1935,124.81 48.5268,122.81 51.5,121.5 Z"/></g>
<g><path style="opacity:1" fill="#f1a016" d="M 44.5,127.5 C 43.5589,129.772 42.2255,131.772 40.5,133.5C 40.1667,133.5 39.8333,133.5 39.5,133.5C 39.5,133.167 39.5,132.833 39.5,132.5C 40.8818,130.451 42.5484,128.785 44.5,127.5 Z"/></g>
<g><path style="opacity:1" fill="#f3e70a" d="M 156.5,166.5 C 154.067,166.273 152.401,167.273 151.5,169.5C 149.973,169.427 148.973,170.094 148.5,171.5C 143.475,172.493 139.808,175.16 137.5,179.5C 133.833,181.167 131.167,183.833 129.5,187.5C 128.094,187.973 127.427,188.973 127.5,190.5C 126.662,190.842 126.328,191.508 126.5,192.5C 125.609,193.11 124.609,193.443 123.5,193.5C 121.446,174.524 127.78,159.024 142.5,147C 151.899,141.307 161.232,135.64 170.5,130C 173.833,129.333 177.167,129.333 180.5,130C 181.333,130.833 182.167,131.667 183,132.5C 183.667,138.5 183.667,144.5 183,150.5C 174.088,155.706 165.255,161.039 156.5,166.5 Z"/></g>
<g><path style="opacity:1" fill="#f2ba11" d="M 39.5,132.5 C 39.5,132.833 39.5,133.167 39.5,133.5C 39.1667,134.5 38.5,135.167 37.5,135.5C 37.427,133.973 38.0937,132.973 39.5,132.5 Z"/></g>
<g><path style="opacity:1" fill="#f17c1d" d="M 39.5,133.5 C 39.8333,133.5 40.1667,133.5 40.5,133.5C 40.2624,135.404 39.2624,136.738 37.5,137.5C 37.5,136.833 37.5,136.167 37.5,135.5C 38.5,135.167 39.1667,134.5 39.5,133.5 Z"/></g>
<g><path style="opacity:1" fill="#f2c110" d="M 37.5,135.5 C 37.5,136.167 37.5,136.833 37.5,137.5C 36.8333,137.833 36.1667,138.167 35.5,138.5C 35.427,136.973 36.0937,135.973 37.5,135.5 Z"/></g>
<g><path style="opacity:0.498" fill="#f2c110" d="M 31.5,141.5 C 32.5,141.5 33.5,141.5 34.5,141.5C 34.1436,143.19 33.1436,144.19 31.5,144.5C 31.5,143.5 31.5,142.5 31.5,141.5 Z"/></g>
<g><path style="opacity:1" fill="#f1b811" d="M 109.5,142.5 C 108.833,142.833 108.167,143.167 107.5,143.5C 105.784,143.629 104.117,143.962 102.5,144.5C 104.395,142.902 106.562,141.568 109,140.5C 109.464,141.094 109.631,141.761 109.5,142.5 Z"/></g>
<g><path style="opacity:0.353" fill="#f18819" d="M 107.5,143.5 C 107.068,144.71 106.401,145.71 105.5,146.5C 104.368,145.646 103.035,145.646 101.5,146.5C 101.833,145.833 102.167,145.167 102.5,144.5C 104.117,143.962 105.784,143.629 107.5,143.5 Z"/></g>
<g><path style="opacity:1" fill="#f19618" d="M 37.5,137.5 C 36.6827,140.619 35.6827,143.619 34.5,146.5C 33.5,146.5 32.5,146.5 31.5,146.5C 31.5,145.833 31.5,145.167 31.5,144.5C 33.1436,144.19 34.1436,143.19 34.5,141.5C 34.5569,140.391 34.8902,139.391 35.5,138.5C 36.1667,138.167 36.8333,137.833 37.5,137.5 Z"/></g>
<g><path style="opacity:1" fill="#f1b412" d="M 102.5,144.5 C 102.167,145.167 101.833,145.833 101.5,146.5C 100.833,146.5 100.167,146.5 99.5,146.5C 99.9731,145.094 100.973,144.427 102.5,144.5 Z"/></g>
<g><path style="opacity:1" fill="#f0791c" d="M 31.5,146.5 C 32.5,146.5 33.5,146.5 34.5,146.5C 34.5323,148.619 33.5323,149.952 31.5,150.5C 31.5,149.167 31.5,147.833 31.5,146.5 Z"/></g>
<g><path style="opacity:1" fill="#f2b711" d="M 97.5,147.5 C 97.1667,148.5 96.5,149.167 95.5,149.5C 95.5,148.167 96.1667,147.5 97.5,147.5 Z"/></g>
<g><path style="opacity:1" fill="#f07b1c" d="M 97.5,147.5 C 98.1667,147.5 98.8333,147.5 99.5,147.5C 98.7377,149.262 97.4044,150.262 95.5,150.5C 95.5,150.167 95.5,149.833 95.5,149.5C 96.5,149.167 97.1667,148.5 97.5,147.5 Z"/></g>
<g><path style="opacity:1" fill="#f19c17" d="M 95.5,149.5 C 95.5,149.833 95.5,150.167 95.5,150.5C 94.609,151.11 93.609,151.443 92.5,151.5C 92.9731,150.094 93.9731,149.427 95.5,149.5 Z"/></g>
<g><path style="opacity:0.918" fill="#f05f21" d="M 105.5,146.5 C 103.26,152.231 101.76,158.231 101,164.5C 100.667,189.833 100.333,215.167 100,240.5C 98.5,242 97,243.5 95.5,245C 91.5322,247.32 87.5322,249.653 83.5,252C 80.975,252.896 78.8083,252.396 77,250.5C 76.5,224.502 76.3334,198.502 76.5,172.5C 78.5311,171.461 79.8645,169.795 80.5,167.5C 80.5,167.167 80.5,166.833 80.5,166.5C 82.4818,164.498 84.1484,162.165 85.5,159.5C 87.8333,156.833 90.1667,154.167 92.5,151.5C 93.609,151.443 94.609,151.11 95.5,150.5C 97.4044,150.262 98.7377,149.262 99.5,147.5C 99.5,147.167 99.5,146.833 99.5,146.5C 100.167,146.5 100.833,146.5 101.5,146.5C 103.035,145.646 104.368,145.646 105.5,146.5 Z"/></g>
<g><path style="opacity:1" fill="#f19c16" d="M 92.5,151.5 C 90.1667,154.167 87.8333,156.833 85.5,159.5C 84.8333,159.833 84.1667,160.167 83.5,160.5C 83.5,160.167 83.5,159.833 83.5,159.5C 85.8998,156.097 88.8998,153.43 92.5,151.5 Z"/></g>
<g><path style="opacity:1" fill="#f1b911" d="M 83.5,159.5 C 83.5,159.833 83.5,160.167 83.5,160.5C 83.1667,161.5 82.5,162.167 81.5,162.5C 81.427,160.973 82.0937,159.973 83.5,159.5 Z"/></g>
<g><path style="opacity:1" fill="#f07b1c" d="M 85.5,159.5 C 84.1484,162.165 82.4818,164.498 80.5,166.5C 80.8333,165.167 81.1667,163.833 81.5,162.5C 82.5,162.167 83.1667,161.5 83.5,160.5C 84.1667,160.167 84.8333,159.833 85.5,159.5 Z"/></g>
<g><path style="opacity:0.498" fill="#f1b810" d="M 81.5,162.5 C 81.1667,163.833 80.8333,165.167 80.5,166.5C 80.5,166.833 80.5,167.167 80.5,167.5C 79.609,168.11 78.609,168.443 77.5,168.5C 77.5,167.5 77.5,166.5 77.5,165.5C 78.1174,165.611 78.6174,165.944 79,166.5C 79.2004,164.68 80.0337,163.347 81.5,162.5 Z"/></g>
<g><path style="opacity:0.698" fill="#f1be10" d="M 156.5,166.5 C 155.5,168.167 154.167,169.5 152.5,170.5C 152.5,169.833 152.167,169.5 151.5,169.5C 152.401,167.273 154.067,166.273 156.5,166.5 Z"/></g>
<g><path style="opacity:0.606" fill="#f09318" d="M 80.5,167.5 C 79.8645,169.795 78.5311,171.461 76.5,172.5C 76.4326,171.041 76.7659,169.708 77.5,168.5C 78.609,168.443 79.609,168.11 80.5,167.5 Z"/></g>
<g><path style="opacity:1" fill="#f2ad14" d="M 151.5,169.5 C 151.027,170.906 150.027,171.573 148.5,171.5C 148.973,170.094 149.973,169.427 151.5,169.5 Z"/></g>
<g><path style="opacity:0.543" fill="#f17f1a" d="M 151.5,169.5 C 152.167,169.5 152.5,169.833 152.5,170.5C 152.737,171.791 152.404,172.791 151.5,173.5C 150.791,172.596 149.791,172.263 148.5,172.5C 148.5,172.167 148.5,171.833 148.5,171.5C 150.027,171.573 151.027,170.906 151.5,169.5 Z"/></g>
<g><path style="opacity:1" fill="#f2ab14" d="M 148.5,171.5 C 148.5,171.833 148.5,172.167 148.5,172.5C 144.289,174.098 140.622,176.432 137.5,179.5C 139.808,175.16 143.475,172.493 148.5,171.5 Z"/></g>
<g><path style="opacity:0.916" fill="#f05f21" d="M 148.5,172.5 C 149.791,172.263 150.791,172.596 151.5,173.5C 149.58,177.691 148.08,182.025 147,186.5C 146.667,195.833 146.333,205.167 146,214.5C 140.673,219.74 134.507,223.24 127.5,225C 126.333,223.833 125.167,222.667 124,221.5C 123.5,214.508 123.334,207.508 123.5,200.5C 124.496,200.586 125.329,200.252 126,199.5C 127.43,196.647 128.263,193.647 128.5,190.5C 129.11,189.609 129.443,188.609 129.5,187.5C 132.5,185.167 135.167,182.5 137.5,179.5C 140.622,176.432 144.289,174.098 148.5,172.5 Z"/></g>
<g><path style="opacity:1" fill="#f19c16" d="M 137.5,179.5 C 135.167,182.5 132.5,185.167 129.5,187.5C 131.167,183.833 133.833,181.167 137.5,179.5 Z"/></g>
<g><path style="opacity:1" fill="#f2a914" d="M 129.5,187.5 C 129.443,188.609 129.11,189.609 128.5,190.5C 128.167,190.5 127.833,190.5 127.5,190.5C 127.427,188.973 128.094,187.973 129.5,187.5 Z"/></g>
<g><path style="opacity:0.769" fill="#f1b012" d="M 126.5,192.5 C 126.446,194.632 125.446,195.965 123.5,196.5C 123.5,195.5 123.5,194.5 123.5,193.5C 124.609,193.443 125.609,193.11 126.5,192.5 Z"/></g>
<g><path style="opacity:1" fill="#f07e1c" d="M 127.5,190.5 C 127.833,190.5 128.167,190.5 128.5,190.5C 128.263,193.647 127.43,196.647 126,199.5C 125.329,200.252 124.496,200.586 123.5,200.5C 123.5,199.167 123.5,197.833 123.5,196.5C 125.446,195.965 126.446,194.632 126.5,192.5C 126.328,191.508 126.662,190.842 127.5,190.5 Z"/></g>
<g><path style="opacity:1" fill="#797c82" d="M 200.5,185.5 C 201.167,186.167 201.833,186.833 202.5,187.5C 203.532,199.846 202.199,211.846 198.5,223.5C 196.827,224.343 195.66,225.676 195,227.5C 194.667,226.833 194.333,226.167 194,225.5C 193.682,227.061 192.849,228.228 191.5,229C 191.957,229.414 192.291,229.914 192.5,230.5C 191.5,231.167 190.5,231.833 189.5,232.5C 188.91,235.911 187.577,238.911 185.5,241.5C 177.338,246.125 169.005,250.625 160.5,255C 157.787,256.742 155.454,258.909 153.5,261.5C 152.883,261.389 152.383,261.056 152,260.5C 145.348,264.029 139.182,268.029 133.5,272.5C 133.5,273.167 133.167,273.5 132.5,273.5C 131.127,273.343 129.793,273.51 128.5,274C 114.701,281.734 101.035,289.734 87.5,298C 85.9371,298.759 84.9371,299.926 84.5,301.5C 83.7095,302.401 82.7095,303.068 81.5,303.5C 80.3991,302.402 79.0657,302.235 77.5,303C 74.423,305.407 71.0896,307.407 67.5,309C 68.056,309.383 68.3893,309.883 68.5,310.5C 64.6482,308.966 61.3149,309.632 58.5,312.5C 55.0613,312.747 51.728,312.414 48.5,311.5C 41.0657,306.733 35.399,300.4 31.5,292.5C 32.4006,290.273 34.0672,289.273 36.5,289.5C 36.8247,291.132 37.8247,292.132 39.5,292.5C 41.8333,291.167 44.1667,291.167 46.5,292.5C 49.0699,291.383 51.7366,290.55 54.5,290C 70.4587,282.022 85.7921,273.022 100.5,263C 110.423,258.89 119.423,253.39 127.5,246.5C 129.496,247.062 131.496,246.562 133.5,245C 137.616,242.714 141.283,239.88 144.5,236.5C 145.117,236.611 145.617,236.944 146,237.5C 150.034,234.941 153.867,232.274 157.5,229.5C 158.659,227.75 160.326,226.75 162.5,226.5C 166.572,225.302 170.572,223.802 174.5,222C 176.041,220.629 177.375,219.129 178.5,217.5C 178.833,216.5 179.5,215.833 180.5,215.5C 180.735,216.097 181.235,216.43 182,216.5C 190.12,211.715 196.12,205.048 200,196.5C 200.74,195.251 200.573,194.251 199.5,193.5C 199.833,190.833 200.167,188.167 200.5,185.5 Z"/></g>
<g><path style="opacity:0.485" fill="#6e7077" d="M 229.5,191.5 C 229.247,200.196 226.58,207.863 221.5,214.5C 222.488,210.516 223.488,206.516 224.5,202.5C 225.768,200.095 226.435,197.428 226.5,194.5C 227.728,193.694 228.728,192.694 229.5,191.5 Z"/></g>
<g><path style="opacity:0.528" fill="#96989d" d="M 199.5,193.5 C 200.573,194.251 200.74,195.251 200,196.5C 196.12,205.048 190.12,211.715 182,216.5C 181.235,216.43 180.735,216.097 180.5,215.5C 189.015,209.989 195.349,202.656 199.5,193.5 Z"/></g>
<g><path style="opacity:0.548" fill="#63666b" d="M 221.5,214.5 C 221.031,217.643 219.364,219.977 216.5,221.5C 216.5,220.833 216.5,220.167 216.5,219.5C 217.855,217.479 219.521,215.812 221.5,214.5 Z"/></g>
<g><path style="opacity:0.524" fill="#93959a" d="M 178.5,217.5 C 177.375,219.129 176.041,220.629 174.5,222C 170.572,223.802 166.572,225.302 162.5,226.5C 166.929,221.951 172.262,218.951 178.5,217.5 Z"/></g>
<g><path style="opacity:0.499" fill="#60646a" d="M 274.5,219.5 C 274.749,223.458 274.082,227.124 272.5,230.5C 270.67,226.268 271.337,222.601 274.5,219.5 Z"/></g>
<g><path style="opacity:1" fill="#595c63" d="M 247.5,214.5 C 248.658,223.991 248.825,233.658 248,243.5C 247.295,246.476 246.129,249.142 244.5,251.5C 247.242,240.227 247.908,228.893 246.5,217.5C 246.557,216.391 246.89,215.391 247.5,214.5 Z"/></g>
<g><path style="opacity:0.469" fill="#4e515a" d="M 216.5,219.5 C 216.5,220.167 216.5,220.833 216.5,221.5C 212.411,226.925 207.411,231.258 201.5,234.5C 201.158,233.662 200.492,233.328 199.5,233.5C 205.724,229.619 211.391,224.952 216.5,219.5 Z"/></g>
<g><path style="opacity:0.501" fill="#96989d" d="M 245.5,219.5 C 246.097,219.735 246.43,220.235 246.5,221C 242.161,232.842 234.161,241.342 222.5,246.5C 221.893,246.376 221.56,246.043 221.5,245.5C 227.049,242.125 232.216,238.125 237,233.5C 240.109,228.939 242.942,224.273 245.5,219.5 Z"/></g>
<g><path style="opacity:1" fill="#797c82" d="M 246.5,217.5 C 247.908,228.893 247.242,240.227 244.5,251.5C 241.17,255.755 237.837,260.089 234.5,264.5C 236.401,265.231 238.401,265.231 240.5,264.5C 237.146,268.072 233.146,270.739 228.5,272.5C 227.399,271.402 226.066,271.235 224.5,272C 207.993,280.991 191.659,290.324 175.5,300C 174.748,300.671 174.414,301.504 174.5,302.5C 172.806,301.314 171.139,301.481 169.5,303C 148.572,316.017 127.239,328.184 105.5,339.5C 103.833,339.5 102.167,339.5 100.5,339.5C 90.3651,335.7 82.6984,329.033 77.5,319.5C 78.3171,317.522 79.8171,316.522 82,316.5C 85.4582,317.286 88.9582,317.62 92.5,317.5C 93.9464,318.613 95.6131,318.78 97.5,318C 102.659,315.588 107.659,312.921 112.5,310C 113.71,308.961 114.71,307.794 115.5,306.5C 116.117,306.611 116.617,306.944 117,307.5C 119.953,305.274 123.12,303.441 126.5,302C 128.996,300.669 130.996,298.836 132.5,296.5C 133.117,296.611 133.617,296.944 134,297.5C 143.254,291.92 152.754,286.754 162.5,282C 164.373,280.296 166.04,278.463 167.5,276.5C 169.496,277.062 171.496,276.562 173.5,275C 177.616,272.714 181.283,269.88 184.5,266.5C 185.117,266.611 185.617,266.944 186,267.5C 190.03,264.132 194.53,261.632 199.5,260C 198.944,259.617 198.611,259.117 198.5,258.5C 204.814,256.512 210.814,253.678 216.5,250C 217.71,248.961 218.71,247.794 219.5,246.5C 219.842,245.662 220.508,245.328 221.5,245.5C 221.56,246.043 221.893,246.376 222.5,246.5C 234.161,241.342 242.161,232.842 246.5,221C 246.43,220.235 246.097,219.735 245.5,219.5C 245.328,218.508 245.662,217.842 246.5,217.5 Z"/></g>
<g><path style="opacity:0.856" fill="#52555d" d="M 272.5,230.5 C 272.125,232.698 271.458,234.698 270.5,236.5C 269.677,234.545 269.51,232.545 270,230.5C 270.77,229.402 271.603,229.402 272.5,230.5 Z"/></g>
<g><path style="opacity:0.606" fill="#9a9ca1" d="M 157.5,229.5 C 153.867,232.274 150.034,234.941 146,237.5C 145.617,236.944 145.117,236.611 144.5,236.5C 148.099,232.924 152.432,230.59 157.5,229.5 Z"/></g>
<g><path style="opacity:1" fill="#6c6f75" d="M 198.5,223.5 C 197.312,225.722 196.312,228.055 195.5,230.5C 193.873,233.655 191.539,236.488 188.5,239C 191.725,238.054 194.725,236.554 197.5,234.5C 198.167,234.167 198.833,233.833 199.5,233.5C 200.492,233.328 201.158,233.662 201.5,234.5C 196.949,237.943 191.949,240.61 186.5,242.5C 186.5,241.833 186.167,241.5 185.5,241.5C 187.577,238.911 188.91,235.911 189.5,232.5C 190.5,231.833 191.5,231.167 192.5,230.5C 192.291,229.914 191.957,229.414 191.5,229C 192.849,228.228 193.682,227.061 194,225.5C 194.333,226.167 194.667,226.833 195,227.5C 195.66,225.676 196.827,224.343 198.5,223.5 Z"/></g>
<g><path style="opacity:1" fill="#454850" d="M 195.5,230.5 C 194.766,231.708 194.433,233.041 194.5,234.5C 195.5,234.5 196.5,234.5 197.5,234.5C 194.725,236.554 191.725,238.054 188.5,239C 191.539,236.488 193.873,233.655 195.5,230.5 Z"/></g>
<g><path style="opacity:0.528" fill="#979a9e" d="M 144.5,236.5 C 141.283,239.88 137.616,242.714 133.5,245C 131.496,246.562 129.496,247.062 127.5,246.5C 132.449,242.06 138.116,238.727 144.5,236.5 Z"/></g>
<g><path style="opacity:0.671" fill="#54565e" d="M 320.5,245.5 C 320.492,248.545 320.159,251.545 319.5,254.5C 319.167,254.5 318.833,254.5 318.5,254.5C 317.445,251.927 317.278,249.261 318,246.5C 318.671,245.748 319.504,245.414 320.5,245.5 Z"/></g>
<g><path style="opacity:0.551" fill="#94979b" d="M 127.5,246.5 C 119.423,253.39 110.423,258.89 100.5,263C 85.7921,273.022 70.4587,282.022 54.5,290C 51.7366,290.55 49.0699,291.383 46.5,292.5C 44.1667,291.167 41.8333,291.167 39.5,292.5C 37.8247,292.132 36.8247,291.132 36.5,289.5C 41.8449,290.716 47.1782,290.549 52.5,289C 65.306,281.427 78.306,274.094 91.5,267C 103.169,259.478 115.169,252.645 127.5,246.5 Z"/></g>
<g><path style="opacity:1" fill="#52555d" d="M 295.5,239.5 C 295.776,248.879 295.276,258.212 294,267.5C 293.233,271.878 291.733,275.878 289.5,279.5C 292.828,266.838 294.495,253.838 294.5,240.5C 294.5,239.833 294.833,239.5 295.5,239.5 Z"/></g>
<g><path style="opacity:0.625" fill="#97989e" d="M 219.5,246.5 C 218.71,247.794 217.71,248.961 216.5,250C 210.814,253.678 204.814,256.512 198.5,258.5C 205.004,253.745 212.004,249.745 219.5,246.5 Z"/></g>
<g><path style="opacity:0.523" fill="#5f6268" d="M 270.5,236.5 C 265.136,247.864 256.803,256.197 245.5,261.5C 251.357,257.155 256.857,252.155 262,246.5C 264.686,243.125 266.853,239.459 268.5,235.5C 269.183,235.863 269.85,236.196 270.5,236.5 Z"/></g>
<g><path style="opacity:1" fill="#797c82" d="M 292.5,238.5 C 293.167,239.167 293.833,239.833 294.5,240.5C 294.495,253.838 292.828,266.838 289.5,279.5C 289.068,280.71 288.401,281.71 287.5,282.5C 285.123,284.228 283.456,286.561 282.5,289.5C 281.185,290.476 279.852,291.476 278.5,292.5C 279.602,293.176 280.602,293.842 281.5,294.5C 280.5,295.167 279.5,295.833 278.5,296.5C 274.132,296.279 270.798,297.946 268.5,301.5C 267.329,302.345 265.995,303.011 264.5,303.5C 263.883,303.389 263.383,303.056 263,302.5C 247.108,311.531 231.275,320.697 215.5,330C 214.748,330.671 214.414,331.504 214.5,332.5C 213.85,332.196 213.183,331.863 212.5,331.5C 195.438,341.023 178.772,351.023 162.5,361.5C 154.861,362.525 147.195,362.691 139.5,362C 134.747,359.735 130.413,356.902 126.5,353.5C 125.685,350.394 125.685,347.061 126.5,343.5C 130.568,345.524 134.902,346.024 139.5,345C 145.926,343.936 151.26,341.103 155.5,336.5C 156.117,336.611 156.617,336.944 157,337.5C 169.255,329.954 181.755,322.787 194.5,316C 197.534,313.484 200.868,311.484 204.5,310C 205.71,308.961 206.71,307.794 207.5,306.5C 208.117,306.611 208.617,306.944 209,307.5C 211.669,304.836 214.836,303.002 218.5,302C 220.996,300.669 222.996,298.836 224.5,296.5C 225.117,296.611 225.617,296.944 226,297.5C 230.29,294.605 234.79,292.105 239.5,290C 238.944,289.617 238.611,289.117 238.5,288.5C 241.425,288.54 244.091,287.707 246.5,286C 249.534,283.484 252.868,281.484 256.5,280C 257.71,278.961 258.71,277.794 259.5,276.5C 269.57,273.346 278.404,267.679 286,259.5C 286.791,258.255 287.291,256.922 287.5,255.5C 289.638,250.006 291.305,244.34 292.5,238.5 Z"/></g>
<g><path style="opacity:0.639" fill="#989a9e" d="M 185.5,241.5 C 186.167,241.5 186.5,241.833 186.5,242.5C 185.284,244.451 183.618,245.951 181.5,247C 172.019,251.574 162.686,256.407 153.5,261.5C 155.454,258.909 157.787,256.742 160.5,255C 169.005,250.625 177.338,246.125 185.5,241.5 Z"/></g>
<g><path style="opacity:1" fill="#52555d" d="M 244.5,251.5 C 244.657,252.873 244.49,254.207 244,255.5C 241.475,257.05 239.641,259.217 238.5,262C 240.797,262.018 243.131,261.851 245.5,261.5C 244.101,262.89 242.434,263.89 240.5,264.5C 238.401,265.231 236.401,265.231 234.5,264.5C 237.837,260.089 241.17,255.755 244.5,251.5 Z"/></g>
<g><path style="opacity:0.692" fill="#989a9e" d="M 198.5,258.5 C 198.611,259.117 198.944,259.617 199.5,260C 194.53,261.632 190.03,264.132 186,267.5C 185.617,266.944 185.117,266.611 184.5,266.5C 188.511,262.823 193.178,260.157 198.5,258.5 Z"/></g>
<g><path style="opacity:0.431" fill="#707279" d="M 318.5,254.5 C 318.833,254.5 319.167,254.5 319.5,254.5C 318.84,259.511 316.84,263.844 313.5,267.5C 313.389,266.883 313.056,266.383 312.5,266C 313.582,264.67 314.249,263.17 314.5,261.5C 316.206,259.388 317.539,257.055 318.5,254.5 Z"/></g>
<g><path style="opacity:0.629" fill="#94959a" d="M 153.5,261.5 C 147.52,266.283 140.854,269.95 133.5,272.5C 139.182,268.029 145.348,264.029 152,260.5C 152.383,261.056 152.883,261.389 153.5,261.5 Z"/></g>
<g><path style="opacity:0.528" fill="#979a9e" d="M 184.5,266.5 C 181.283,269.88 177.616,272.714 173.5,275C 171.496,276.562 169.496,277.062 167.5,276.5C 172.449,272.06 178.116,268.727 184.5,266.5 Z"/></g>
<g><path style="opacity:0.579" fill="#96999e" d="M 287.5,255.5 C 287.291,256.922 286.791,258.255 286,259.5C 278.404,267.679 269.57,273.346 259.5,276.5C 264.768,272.524 270.434,269.024 276.5,266C 280.036,262.296 283.702,258.796 287.5,255.5 Z"/></g>
<g><path style="opacity:0.536" fill="#4a4c55" d="M 312.5,269.5 C 309.542,274.126 305.876,278.126 301.5,281.5C 301.389,280.883 301.056,280.383 300.5,280C 304.11,275.879 308.11,272.379 312.5,269.5 Z"/></g>
<g><path style="opacity:1" fill="#575961" d="M 338.5,266.5 C 339.222,266.918 339.722,267.584 340,268.5C 340.499,274.491 340.666,280.491 340.5,286.5C 340.917,290.817 340.25,294.817 338.5,298.5C 339.775,289.147 339.775,279.814 338.5,270.5C 338.5,269.167 338.5,267.833 338.5,266.5 Z"/></g>
<g><path style="opacity:0.496" fill="#929499" d="M 259.5,276.5 C 258.71,277.794 257.71,278.961 256.5,280C 252.868,281.484 249.534,283.484 246.5,286C 244.091,287.707 241.425,288.54 238.5,288.5C 244.98,283.708 251.98,279.708 259.5,276.5 Z"/></g>
<g><path style="opacity:0.808" fill="#4d5058" d="M 364.5,272.5 C 364.205,274.735 364.539,276.735 365.5,278.5C 364.582,284.319 362.582,289.653 359.5,294.5C 358.833,294.833 358.167,295.167 357.5,295.5C 358.75,292.933 359.917,290.267 361,287.5C 361.765,282.268 362.931,277.268 364.5,272.5 Z"/></g>
<g><path style="opacity:0.999" fill="#797c82" d="M 338.5,270.5 C 339.775,279.814 339.775,289.147 338.5,298.5C 338.5,298.833 338.5,299.167 338.5,299.5C 336.458,302.614 334.791,305.948 333.5,309.5C 330.698,312.476 328.031,315.642 325.5,319C 327.979,319.362 329.979,318.529 331.5,316.5C 332.167,316.167 332.833,315.833 333.5,315.5C 334.167,315.833 334.833,316.167 335.5,316.5C 330.984,319.927 325.984,322.593 320.5,324.5C 315.607,324.632 311.607,326.965 308.5,331.5C 307.329,332.345 305.995,333.011 304.5,333.5C 303.883,333.389 303.383,333.056 303,332.5C 287.454,341.976 271.621,351.143 255.5,360C 254.748,360.671 254.414,361.504 254.5,362.5C 254.158,363.338 253.492,363.672 252.5,363.5C 249.593,363.575 246.927,364.409 244.5,366C 236.255,370.573 228.255,375.573 220.5,381C 215.639,383.689 210.639,386.023 205.5,388C 204.402,388.77 204.402,389.603 205.5,390.5C 201.613,388.881 197.946,389.215 194.5,391.5C 191.402,389.98 188.069,389.146 184.5,389C 178.937,384.601 173.937,379.768 169.5,374.5C 169.5,371.167 171.167,369.5 174.5,369.5C 176.056,371.988 178.389,372.988 181.5,372.5C 183.167,372.333 184.833,372.167 186.5,372C 189.557,371.084 192.224,369.584 194.5,367.5C 194.5,366.833 194.833,366.5 195.5,366.5C 196.117,366.611 196.617,366.944 197,367.5C 202.115,364.43 206.948,361.097 211.5,357.5C 211.5,356.833 211.833,356.5 212.5,356.5C 213.117,356.611 213.617,356.944 214,357.5C 224.021,351.568 234.188,345.735 244.5,340C 245.71,338.961 246.71,337.794 247.5,336.5C 248.117,336.611 248.617,336.944 249,337.5C 251.953,335.274 255.12,333.441 258.5,332C 260.996,330.669 262.996,328.836 264.5,326.5C 265.209,325.596 266.209,325.263 267.5,325.5C 271.628,323.936 275.628,322.102 279.5,320C 278.944,319.617 278.611,319.117 278.5,318.5C 279.873,318.657 281.207,318.49 282.5,318C 287.187,315.301 291.853,312.634 296.5,310C 297.71,308.961 298.71,307.794 299.5,306.5C 300.117,306.611 300.617,306.944 301,307.5C 303.953,305.274 307.12,303.441 310.5,302C 313.043,300.618 315.043,298.785 316.5,296.5C 321.658,295.625 326.158,292.958 330,288.5C 333.262,284.643 335.428,280.31 336.5,275.5C 337.024,273.694 337.691,272.028 338.5,270.5 Z"/></g>
<g><path style="opacity:0.528" fill="#64666d" d="M 301.5,281.5 C 298.69,284.136 295.69,286.636 292.5,289C 288.528,290.319 284.861,292.153 281.5,294.5C 280.602,293.842 279.602,293.176 278.5,292.5C 279.852,291.476 281.185,290.476 282.5,289.5C 282.369,290.376 282.702,291.043 283.5,291.5C 287.713,288.9 291.713,286.067 295.5,283C 297.345,281.872 299.345,281.372 301.5,281.5 Z"/></g>
<g><path style="opacity:0.664" fill="#94969a" d="M 132.5,273.5 C 130.73,274.764 129.063,276.264 127.5,278C 113.07,285.878 98.7362,293.711 84.5,301.5C 84.9371,299.926 85.9371,298.759 87.5,298C 101.035,289.734 114.701,281.734 128.5,274C 129.793,273.51 131.127,273.343 132.5,273.5 Z"/></g>
<g><path style="opacity:1" fill="#5d6067" d="M 287.5,282.5 C 286.557,285.4 284.89,287.733 282.5,289.5C 283.456,286.561 285.123,284.228 287.5,282.5 Z"/></g>
<g><path style="opacity:0.625" fill="#979a9e" d="M 238.5,288.5 C 238.611,289.117 238.944,289.617 239.5,290C 234.79,292.105 230.29,294.605 226,297.5C 225.617,296.944 225.117,296.611 224.5,296.5C 228.511,292.823 233.178,290.157 238.5,288.5 Z"/></g>
<g><path style="opacity:0.821" fill="#999ba0" d="M 336.5,275.5 C 335.428,280.31 333.262,284.643 330,288.5C 326.158,292.958 321.658,295.625 316.5,296.5C 320.768,293.411 324.934,290.077 329,286.5C 331.363,282.655 333.863,278.989 336.5,275.5 Z"/></g>
<g><path style="opacity:0.78" fill="#97999e" d="M 167.5,276.5 C 166.04,278.463 164.373,280.296 162.5,282C 152.754,286.754 143.254,291.92 134,297.5C 133.617,296.944 133.117,296.611 132.5,296.5C 143.702,289.064 155.369,282.397 167.5,276.5 Z"/></g>
<g><path style="opacity:0.629" fill="#95979c" d="M 228.5,272.5 C 214.063,279.886 200.063,288.053 186.5,297C 182.628,299.102 178.628,300.936 174.5,302.5C 174.414,301.504 174.748,300.671 175.5,300C 191.659,290.324 207.993,280.991 224.5,272C 226.066,271.235 227.399,271.402 228.5,272.5 Z"/></g>
<g><path style="opacity:0.458" fill="#70737a" d="M 359.5,294.5 C 358.687,297.989 356.687,300.656 353.5,302.5C 353.5,301.833 353.5,301.167 353.5,300.5C 354.136,298.205 355.469,296.539 357.5,295.5C 358.167,295.167 358.833,294.833 359.5,294.5 Z"/></g>
<g><path style="opacity:0.265" fill="#94959b" d="M 278.5,296.5 C 275.632,298.912 272.299,300.579 268.5,301.5C 270.798,297.946 274.132,296.279 278.5,296.5 Z"/></g>
<g><path style="opacity:0.627" fill="#93959a" d="M 31.5,292.5 C 35.399,300.4 41.0657,306.733 48.5,311.5C 38.9302,308.6 33.2635,302.266 31.5,292.5 Z"/></g>
<g><path style="opacity:0.528" fill="#999ba0" d="M 132.5,296.5 C 130.996,298.836 128.996,300.669 126.5,302C 123.12,303.441 119.953,305.274 117,307.5C 116.617,306.944 116.117,306.611 115.5,306.5C 120.449,302.06 126.116,298.727 132.5,296.5 Z"/></g>
<g><path style="opacity:0.564" fill="#9c9ea2" d="M 224.5,296.5 C 222.996,298.836 220.996,300.669 218.5,302C 214.836,303.002 211.669,304.836 209,307.5C 208.617,306.944 208.117,306.611 207.5,306.5C 212.449,302.06 218.116,298.727 224.5,296.5 Z"/></g>
<g><path style="opacity:0.615" fill="#96989d" d="M 316.5,296.5 C 315.043,298.785 313.043,300.618 310.5,302C 307.12,303.441 303.953,305.274 301,307.5C 300.617,306.944 300.117,306.611 299.5,306.5C 304.455,302.059 310.122,298.726 316.5,296.5 Z"/></g>
<g><path style="opacity:0.353" fill="#9ea0a3" d="M 81.5,303.5 C 77.6952,306.772 73.3619,309.105 68.5,310.5C 68.3893,309.883 68.056,309.383 67.5,309C 71.0896,307.407 74.423,305.407 77.5,303C 79.0657,302.235 80.3991,302.402 81.5,303.5 Z"/></g>
<g><path style="opacity:0.693" fill="#5c5f66" d="M 353.5,300.5 C 353.5,301.167 353.5,301.833 353.5,302.5C 348.625,308.605 342.625,313.272 335.5,316.5C 334.833,316.167 334.167,315.833 333.5,315.5C 334.833,314.5 336.167,313.5 337.5,312.5C 343.66,309.683 348.993,305.683 353.5,300.5 Z"/></g>
<g><path style="opacity:0.724" fill="#8e9095" d="M 68.5,310.5 C 65.4557,312.011 62.1224,312.678 58.5,312.5C 61.3149,309.632 64.6482,308.966 68.5,310.5 Z"/></g>
<g><path style="opacity:0.538" fill="#93959b" d="M 115.5,306.5 C 114.71,307.794 113.71,308.961 112.5,310C 107.659,312.921 102.659,315.588 97.5,318C 95.6131,318.78 93.9464,318.613 92.5,317.5C 100.304,314.098 107.971,310.431 115.5,306.5 Z"/></g>
<g><path style="opacity:1" fill="#3e4149" d="M 338.5,299.5 C 337.758,303.662 336.424,307.662 334.5,311.5C 335.325,312.386 336.325,312.719 337.5,312.5C 336.167,313.5 334.833,314.5 333.5,315.5C 332.833,315.833 332.167,316.167 331.5,316.5C 330.761,316.631 330.094,316.464 329.5,316C 331.734,314.362 333.067,312.195 333.5,309.5C 334.791,305.948 336.458,302.614 338.5,299.5 Z"/></g>
<g><path style="opacity:0.692" fill="#96989d" d="M 299.5,306.5 C 298.71,307.794 297.71,308.961 296.5,310C 291.853,312.634 287.187,315.301 282.5,318C 281.207,318.49 279.873,318.657 278.5,318.5C 285,313.676 292,309.676 299.5,306.5 Z"/></g>
<g><path style="opacity:0.57" fill="#929499" d="M 264.5,303.5 C 251.741,311.074 239.074,318.907 226.5,327C 222.598,329.119 218.598,330.952 214.5,332.5C 214.414,331.504 214.748,330.671 215.5,330C 231.275,320.697 247.108,311.531 263,302.5C 263.383,303.056 263.883,303.389 264.5,303.5 Z"/></g>
<g><path style="opacity:1" fill="#53565d" d="M 333.5,309.5 C 333.067,312.195 331.734,314.362 329.5,316C 330.094,316.464 330.761,316.631 331.5,316.5C 329.979,318.529 327.979,319.362 325.5,319C 328.031,315.642 330.698,312.476 333.5,309.5 Z"/></g>
<g><path style="opacity:0.575" fill="#97999e" d="M 278.5,318.5 C 278.611,319.117 278.944,319.617 279.5,320C 275.628,322.102 271.628,323.936 267.5,325.5C 270.316,321.92 273.983,319.587 278.5,318.5 Z"/></g>
<g><path style="opacity:0.636" fill="#96989d" d="M 320.5,324.5 C 317.165,327.839 313.165,330.172 308.5,331.5C 311.607,326.965 315.607,324.632 320.5,324.5 Z"/></g>
<g><path style="opacity:0.67" fill="#95989c" d="M 77.5,319.5 C 82.6984,329.033 90.3651,335.7 100.5,339.5C 96.5898,339.737 92.9231,338.904 89.5,337C 86,333.5 82.5,330 79,326.5C 77.7978,324.323 77.2978,321.989 77.5,319.5 Z"/></g>
<g><path style="opacity:0.545" fill="#95979c" d="M 207.5,306.5 C 206.71,307.794 205.71,308.961 204.5,310C 200.868,311.484 197.534,313.484 194.5,316C 181.755,322.787 169.255,329.954 157,337.5C 156.617,336.944 156.117,336.611 155.5,336.5C 163.594,331.59 171.594,326.424 179.5,321C 188.971,316.344 198.305,311.511 207.5,306.5 Z"/></g>
<g><path style="opacity:0.555" fill="#97999d" d="M 264.5,326.5 C 262.996,328.836 260.996,330.669 258.5,332C 255.12,333.441 251.953,335.274 249,337.5C 248.617,336.944 248.117,336.611 247.5,336.5C 252.449,332.06 258.116,328.727 264.5,326.5 Z"/></g>
<g><path style="opacity:0.528" fill="#95979c" d="M 174.5,302.5 C 155.363,314.239 136.029,325.739 116.5,337C 112.986,338.562 109.319,339.395 105.5,339.5C 127.239,328.184 148.572,316.017 169.5,303C 171.139,301.481 172.806,301.314 174.5,302.5 Z"/></g>
<g><path style="opacity:0.629" fill="#95979c" d="M 214.5,332.5 C 201.064,340.39 187.73,348.557 174.5,357C 170.567,359.136 166.567,360.969 162.5,362.5C 162.5,362.167 162.5,361.833 162.5,361.5C 178.772,351.023 195.438,341.023 212.5,331.5C 213.183,331.863 213.85,332.196 214.5,332.5 Z"/></g>
<g><path style="opacity:0.636" fill="#95989c" d="M 304.5,333.5 C 296.406,338.41 288.406,343.576 280.5,349C 271.924,353.76 263.257,358.26 254.5,362.5C 254.414,361.504 254.748,360.671 255.5,360C 271.621,351.143 287.454,341.976 303,332.5C 303.383,333.056 303.883,333.389 304.5,333.5 Z"/></g>
<g><path style="opacity:0.513" fill="#94969b" d="M 247.5,336.5 C 246.71,337.794 245.71,338.961 244.5,340C 234.188,345.735 224.021,351.568 214,357.5C 213.617,356.944 213.117,356.611 212.5,356.5C 214.764,354.686 217.097,352.853 219.5,351C 228.971,346.344 238.305,341.511 247.5,336.5 Z"/></g>
<g><path style="opacity:0.532" fill="#989b9f" d="M 155.5,336.5 C 151.26,341.103 145.926,343.936 139.5,345C 134.902,346.024 130.568,345.524 126.5,343.5C 125.685,347.061 125.685,350.394 126.5,353.5C 122.213,350.277 121.546,346.444 124.5,342C 130.462,342.471 136.462,342.471 142.5,342C 147.014,340.445 151.347,338.611 155.5,336.5 Z"/></g>
<g><path style="opacity:0.555" fill="#999a9f" d="M 211.5,357.5 C 206.948,361.097 202.115,364.43 197,367.5C 196.617,366.944 196.117,366.611 195.5,366.5C 199.957,362.008 205.29,359.008 211.5,357.5 Z"/></g>
<g><path style="opacity:0.822" fill="#888a8f" d="M 126.5,353.5 C 130.413,356.902 134.747,359.735 139.5,362C 147.195,362.691 154.861,362.525 162.5,361.5C 162.5,361.833 162.5,362.167 162.5,362.5C 152.246,366.939 142.246,366.439 132.5,361C 129.906,358.914 127.906,356.414 126.5,353.5 Z"/></g>
<g><path style="opacity:0.635" fill="#94969b" d="M 194.5,367.5 C 192.224,369.584 189.557,371.084 186.5,372C 184.833,372.167 183.167,372.333 181.5,372.5C 178.389,372.988 176.056,371.988 174.5,369.5C 181.383,369.934 188.05,369.267 194.5,367.5 Z"/></g>
<g><path style="opacity:0.353" fill="#95979c" d="M 252.5,363.5 C 237.593,373.788 221.926,382.788 205.5,390.5C 204.402,389.603 204.402,388.77 205.5,388C 210.639,386.023 215.639,383.689 220.5,381C 228.255,375.573 236.255,370.573 244.5,366C 246.927,364.409 249.593,363.575 252.5,363.5 Z"/></g>
<g><path style="opacity:0.727" fill="#8f9096" d="M 169.5,374.5 C 173.937,379.768 178.937,384.601 184.5,389C 188.069,389.146 191.402,389.98 194.5,391.5C 197.946,389.215 201.613,388.881 205.5,390.5C 198.362,392.976 191.029,393.142 183.5,391C 177.12,386.8 172.453,381.3 169.5,374.5 Z"/></g>
</svg>
