<?xml version="1.0" encoding="UTF-8"?>
<!DOCTYPE svg PUBLIC "-//W3C//DTD SVG 1.1//EN" "http://www.w3.org/Graphics/SVG/1.1/DTD/svg11.dtd">
<svg xmlns="http://www.w3.org/2000/svg" version="1.1" width="200px" height="200px" style="shape-rendering:geometricPrecision; text-rendering:geometricPrecision; image-rendering:optimizeQuality; fill-rule:evenodd; clip-rule:evenodd" xmlns:xlink="http://www.w3.org/1999/xlink">
<g><path style="opacity:1" fill="#b6f9ff" d="M 111.5,14.5 C 106.125,14.1718 100.792,14.5052 95.5,15.5C 94.3892,17.5522 92.7225,18.8855 90.5,19.5C 90.3893,18.8826 90.056,18.3826 89.5,18C 90.4706,16.7964 91.4706,16.2964 92.5,16.5C 88.5995,15.2517 84.9328,15.5851 81.5,17.5C 78.543,18.9324 75.3763,19.9324 72,20.5C 71.5302,25.279 69.5302,25.6124 66,21.5C 65.3292,22.2524 64.4959,22.5858 63.5,22.5C 65.7764,20.4165 68.443,18.9165 71.5,18C 84.6522,12.7068 97.9855,11.5401 111.5,14.5 Z"/></g>
<g><path style="opacity:1" fill="#a3faff" d="M 111.5,14.5 C 112.429,15.3149 113.429,16.1482 114.5,17C 113.584,17.3742 112.75,17.8742 112,18.5C 112.148,19.825 111.982,20.9916 111.5,22C 103.5,22.6667 95.5,22.6667 87.5,22C 88.9423,21.6232 89.9423,20.7899 90.5,19.5C 92.7225,18.8855 94.3892,17.5522 95.5,15.5C 100.792,14.5052 106.125,14.1718 111.5,14.5 Z"/></g>
<g><path style="opacity:1" fill="#a7f8ff" d="M 111.5,14.5 C 124.027,16.435 135.36,21.1017 145.5,28.5C 147.339,31.8188 146.505,34.1521 143,35.5C 140.976,35.2005 140.476,34.3671 141.5,33C 137.534,33.1425 135.534,31.3092 135.5,27.5C 132.482,27.7038 129.482,28.0371 126.5,28.5C 112.147,23.5897 97.4798,22.9231 82.5,26.5C 82.0825,25.7784 81.4158,25.2784 80.5,25C 84.2721,23.6107 84.2721,22.6107 80.5,22C 81.5,21.1667 82.5,20.3333 83.5,19.5C 82.7573,18.8182 82.0906,18.1515 81.5,17.5C 84.9328,15.5851 88.5995,15.2517 92.5,16.5C 91.4706,16.2964 90.4706,16.7964 89.5,18C 90.056,18.3826 90.3893,18.8826 90.5,19.5C 89.9423,20.7899 88.9423,21.6232 87.5,22C 95.5,22.6667 103.5,22.6667 111.5,22C 111.982,20.9916 112.148,19.825 112,18.5C 112.75,17.8742 113.584,17.3742 114.5,17C 113.429,16.1482 112.429,15.3149 111.5,14.5 Z"/></g>
<g><path style="opacity:1" fill="#a3f8ff" d="M 81.5,17.5 C 82.0906,18.1515 82.7573,18.8182 83.5,19.5C 82.5,20.3333 81.5,21.1667 80.5,22C 84.2721,22.6107 84.2721,23.6107 80.5,25C 81.4158,25.2784 82.0825,25.7784 82.5,26.5C 76.2866,28.94 70.2866,31.94 64.5,35.5C 64.5,34.5 64.5,33.5 64.5,32.5C 67.819,31.1097 71.1523,29.6097 74.5,28C 72.3224,26.1714 69.3224,24.6714 65.5,23.5C 65.1667,23.8333 64.8333,24.1667 64.5,24.5C 65.8532,25.5237 66.5198,26.857 66.5,28.5C 63.926,27.3594 61.2593,26.3594 58.5,25.5C 59.6594,23.7497 61.326,22.7497 63.5,22.5C 64.4959,22.5858 65.3292,22.2524 66,21.5C 69.5302,25.6124 71.5302,25.279 72,20.5C 75.3763,19.9324 78.543,18.9324 81.5,17.5 Z"/></g>
<g><path style="opacity:1" fill="#ebf6f9" d="M 146.5,24.5 C 147.833,25.1667 147.833,25.1667 146.5,24.5 Z"/></g>
<g><path style="opacity:1" fill="#dcf0fb" d="M 50.5,25.5 C 51.8333,26.1667 51.8333,26.1667 50.5,25.5 Z"/></g>
<g><path style="opacity:1" fill="#9af6ff" d="M 64.5,35.5 C 62.8577,36.803 61.1911,38.1363 59.5,39.5C 56.5332,36.7508 57.1999,35.2508 61.5,35C 60.3659,33.984 60.6992,33.3173 62.5,33C 60.8988,32.7266 59.3988,32.2266 58,31.5C 57.6258,32.4162 57.1258,33.2496 56.5,34C 53.5,34.3333 50.5,34.6667 47.5,35C 46.2668,36.6667 44.9335,38.1667 43.5,39.5C 42.8333,39.5 42.1667,39.5 41.5,39.5C 46.591,34.0701 52.2577,29.4035 58.5,25.5C 61.2593,26.3594 63.926,27.3594 66.5,28.5C 66.5198,26.857 65.8532,25.5237 64.5,24.5C 64.8333,24.1667 65.1667,23.8333 65.5,23.5C 69.3224,24.6714 72.3224,26.1714 74.5,28C 71.1523,29.6097 67.819,31.1097 64.5,32.5C 64.5,33.5 64.5,34.5 64.5,35.5 Z"/></g>
<g><path style="opacity:1" fill="#e4f6fe" d="M 50.5,26.5 C 49.4154,28.5869 47.7488,29.9202 45.5,30.5C 46.5846,28.4131 48.2512,27.0798 50.5,26.5 Z"/></g>
<g><path style="opacity:1" fill="#c1e4f5" d="M 45.5,30.5 C 44.8333,31.1667 44.8333,31.1667 45.5,30.5 Z"/></g>
<g><path style="opacity:1" fill="#e1f7fe" d="M 157.5,32.5 C 155.804,32.3146 154.471,31.4813 153.5,30C 155.412,29.7207 156.746,30.5541 157.5,32.5 Z"/></g>
<g><path style="opacity:1" fill="#aadef5" d="M 44.5,31.5 C 43.8333,32.1667 43.8333,32.1667 44.5,31.5 Z"/></g>
<g><path style="opacity:1" fill="#a6f5ff" d="M 145.5,28.5 C 148.047,29.9336 150.381,31.6002 152.5,33.5C 150.243,33.9617 148.243,34.9617 146.5,36.5C 147.518,37.8524 148.851,38.8524 150.5,39.5C 151.791,40.5272 151.791,41.5272 150.5,42.5C 143.088,36.7953 135.088,32.1286 126.5,28.5C 129.482,28.0371 132.482,27.7038 135.5,27.5C 135.534,31.3092 137.534,33.1425 141.5,33C 140.476,34.3671 140.976,35.2005 143,35.5C 146.505,34.1521 147.339,31.8188 145.5,28.5 Z"/></g>
<g><path style="opacity:1" fill="#b9ebfb" d="M 157.5,32.5 C 158.167,32.5 158.5,32.8333 158.5,33.5C 158.167,33.1667 157.833,32.8333 157.5,32.5 Z"/></g>
<g><path style="opacity:1" fill="#c4e3f4" d="M 158.5,33.5 C 159.167,33.5 159.5,33.8333 159.5,34.5C 159.167,34.1667 158.833,33.8333 158.5,33.5 Z"/></g>
<g><path style="opacity:1" fill="#f7fdfe" d="M 79.5,35.5 C 79.8966,34.475 80.5632,34.3083 81.5,35C 80.9056,35.4643 80.2389,35.631 79.5,35.5 Z"/></g>
<g><path style="opacity:1" fill="#e4f6fd" d="M 159.5,34.5 C 162.5,35.5 164.5,37.5 165.5,40.5C 163.167,38.8333 161.167,36.8333 159.5,34.5 Z"/></g>
<g><path style="opacity:1" fill="#eefdff" d="M 75.5,36.5 C 76.2506,35.4265 77.2506,35.2599 78.5,36C 77.552,36.4828 76.552,36.6495 75.5,36.5 Z"/></g>
<g><path style="opacity:1" fill="#e0f4fd" d="M 73.5,37.5 C 73.8417,36.6618 74.5084,36.3284 75.5,36.5C 75.1583,37.3382 74.4916,37.6716 73.5,37.5 Z"/></g>
<g><path style="opacity:1" fill="#d8f4ff" d="M 70.5,38.5 C 71.209,37.596 72.209,37.2627 73.5,37.5C 72.791,38.404 71.791,38.7373 70.5,38.5 Z"/></g>
<g><path style="opacity:1" fill="#94f3ff" d="M 152.5,33.5 C 156.146,35.4819 159.146,38.1485 161.5,41.5C 158.808,40.2101 156.808,41.0435 155.5,44C 157.677,45.1861 158.677,47.0194 158.5,49.5C 155.833,47.1667 153.167,44.8333 150.5,42.5C 151.791,41.5272 151.791,40.5272 150.5,39.5C 148.851,38.8524 147.518,37.8524 146.5,36.5C 148.243,34.9617 150.243,33.9617 152.5,33.5 Z"/></g>
<g><path style="opacity:1" fill="#d4f4ff" d="M 68.5,39.5 C 68.8417,38.6618 69.5084,38.3284 70.5,38.5C 70.1583,39.3382 69.4916,39.6716 68.5,39.5 Z"/></g>
<g><path style="opacity:1" fill="#8ef4ff" d="M 59.5,39.5 C 57.5,41.1667 55.5,42.8333 53.5,44.5C 53.0825,43.7784 52.4158,43.2784 51.5,43C 51.8333,42.6667 52.1667,42.3333 52.5,42C 51.2559,41.5439 50.4226,42.0439 50,43.5C 48.965,40.2136 47.465,39.8803 45.5,42.5C 44.5748,41.6431 43.9081,40.6431 43.5,39.5C 44.9335,38.1667 46.2668,36.6667 47.5,35C 50.5,34.6667 53.5,34.3333 56.5,34C 57.1258,33.2496 57.6258,32.4162 58,31.5C 59.3988,32.2266 60.8988,32.7266 62.5,33C 60.6992,33.3173 60.3659,33.984 61.5,35C 57.1999,35.2508 56.5332,36.7508 59.5,39.5 Z"/></g>
<g><path style="opacity:1" fill="#d9f5ff" d="M 66.5,40.5 C 66.8417,39.6618 67.5084,39.3284 68.5,39.5C 68.1583,40.3382 67.4916,40.6716 66.5,40.5 Z"/></g>
<g><path style="opacity:1" fill="#c8effd" d="M 64.5,41.5 C 64.8417,40.6618 65.5084,40.3284 66.5,40.5C 66.1583,41.3382 65.4916,41.6716 64.5,41.5 Z"/></g>
<g><path style="opacity:1" fill="#d8f0fc" d="M 165.5,40.5 C 166.167,40.5 166.5,40.8333 166.5,41.5C 166.167,41.1667 165.833,40.8333 165.5,40.5 Z"/></g>
<g><path style="opacity:1" fill="#ebfcfe" d="M 166.5,41.5 C 167.167,41.5 167.5,41.8333 167.5,42.5C 167.167,42.1667 166.833,41.8333 166.5,41.5 Z"/></g>
<g><path style="opacity:1" fill="#c7eefc" d="M 43.5,32.5 C 36.7876,39.7141 30.6209,47.3807 25,55.5C 24.6848,54.0922 25.0181,52.7589 26,51.5C 30.7904,45.0408 35.9571,38.8741 41.5,33C 42.0944,32.5357 42.7611,32.369 43.5,32.5 Z"/></g>
<g><path style="opacity:1" fill="#c1ecfe" d="M 167.5,42.5 C 168.167,42.5 168.5,42.8333 168.5,43.5C 168.167,43.1667 167.833,42.8333 167.5,42.5 Z"/></g>
<g><path style="opacity:1" fill="#cdeffd" d="M 64.5,41.5 C 62.8525,43.3264 60.8525,44.6597 58.5,45.5C 59.8021,43.1782 61.8021,41.8449 64.5,41.5 Z"/></g>
<g><path style="opacity:1" fill="#e3f6fd" d="M 168.5,43.5 C 170.262,44.2623 171.262,45.5956 171.5,47.5C 169.738,46.7377 168.738,45.4044 168.5,43.5 Z"/></g>
<g><path style="opacity:1" fill="#8bf1ff" d="M 41.5,39.5 C 42.1667,39.5 42.8333,39.5 43.5,39.5C 43.9081,40.6431 44.5748,41.6431 45.5,42.5C 47.465,39.8803 48.965,40.2136 50,43.5C 50.4226,42.0439 51.2559,41.5439 52.5,42C 52.1667,42.3333 51.8333,42.6667 51.5,43C 52.4158,43.2784 53.0825,43.7784 53.5,44.5C 52.7515,46.3325 51.7515,47.9991 50.5,49.5C 50.1667,49.5 49.8333,49.5 49.5,49.5C 49.5391,47.6412 48.7058,46.3079 47,45.5C 46.3828,46.4491 46.5494,47.2825 47.5,48C 46.6683,48.6877 46.0016,48.521 45.5,47.5C 45.1654,45.9974 45.1654,44.664 45.5,43.5C 44.0295,44.3805 43.1962,45.7139 43,47.5C 41.1598,46.1669 40.6598,46.3335 41.5,48C 39.6183,48.1981 37.9516,48.6981 36.5,49.5C 36.631,50.2389 36.4643,50.9056 36,51.5C 34.6123,51.7856 33.1123,51.4523 31.5,50.5C 34.2226,47.9376 36.3893,44.9376 38,41.5C 38.8159,40.1772 39.9826,39.5106 41.5,39.5 Z"/></g>
<g><path style="opacity:1" fill="#87efff" d="M 161.5,41.5 C 163.926,45.7621 167.26,49.2621 171.5,52C 170.748,52.6708 170.414,53.5041 170.5,54.5C 169.215,53.2147 167.881,51.8814 166.5,50.5C 165.143,52.1856 163.81,53.8523 162.5,55.5C 160.808,53.7952 159.475,51.7952 158.5,49.5C 158.677,47.0194 157.677,45.1861 155.5,44C 156.808,41.0435 158.808,40.2101 161.5,41.5 Z"/></g>
<g><path style="opacity:1" fill="#ebfcff" d="M 171.5,47.5 C 172.289,47.7828 172.956,48.2828 173.5,49C 172.184,49.5281 171.517,49.0281 171.5,47.5 Z"/></g>
<g><path style="opacity:1" fill="#7febfe" d="M 133.5,66.5 C 133.5,64.8333 133.5,63.1667 133.5,61.5C 132.5,61.5 131.5,61.5 130.5,61.5C 130.719,60.325 130.386,59.325 129.5,58.5C 127.035,59.1322 125.369,60.6322 124.5,63C 123.552,63.4828 122.552,63.6495 121.5,63.5C 125.214,59.9504 128.381,55.9504 131,51.5C 133.423,48.5681 136.257,46.2347 139.5,44.5C 143.283,45.4372 144.783,47.7705 144,51.5C 140.478,56.5665 136.978,61.5665 133.5,66.5 Z"/></g>
<g><path style="opacity:1" fill="#68edff" d="M 49.5,49.5 C 48.596,50.209 48.2627,51.209 48.5,52.5C 46.0876,52.756 44.4209,51.756 43.5,49.5C 43.4005,52.1213 43.0672,54.7879 42.5,57.5C 41.2776,59.9783 39.2776,60.9783 36.5,60.5C 36.6495,59.448 36.4828,58.448 36,57.5C 33.0021,56.7158 32.1688,55.0491 33.5,52.5C 35.5505,55.215 37.2172,55.0483 38.5,52C 37.9341,51.0053 37.2674,50.172 36.5,49.5C 37.9516,48.6981 39.6183,48.1981 41.5,48C 40.6598,46.3335 41.1598,46.1669 43,47.5C 43.1962,45.7139 44.0295,44.3805 45.5,43.5C 45.1654,44.664 45.1654,45.9974 45.5,47.5C 46.0016,48.521 46.6683,48.6877 47.5,48C 46.5494,47.2825 46.3828,46.4491 47,45.5C 48.7058,46.3079 49.5391,47.6412 49.5,49.5 Z"/></g>
<g><path style="opacity:1" fill="#72ebfe" d="M 170.5,54.5 C 172.942,54.3537 173.609,55.187 172.5,57C 174.022,58.9162 175.022,61.0829 175.5,63.5C 174.178,63.67 173.011,63.3366 172,62.5C 171.104,65.025 171.604,67.1917 173.5,69C 172.551,69.6172 171.718,69.4506 171,68.5C 170.921,64.8438 169.921,61.5104 168,58.5C 167.014,59.1712 165.847,59.1712 164.5,58.5C 163.094,58.0269 162.427,57.0269 162.5,55.5C 163.81,53.8523 165.143,52.1856 166.5,50.5C 167.881,51.8814 169.215,53.2147 170.5,54.5 Z"/></g>
<g><path style="opacity:1" fill="#6fe8fe" d="M 58.5,45.5 C 56.5,47.5 54.5,49.5 52.5,51.5C 51.8333,51.5 51.5,51.8333 51.5,52.5C 46.1129,55.5537 42.1129,59.887 39.5,65.5C 38.1667,66.1667 38.1667,66.8333 39.5,67.5C 40.1667,67.5 40.5,67.8333 40.5,68.5C 40.5,69.1667 40.5,69.8333 40.5,70.5C 39.1667,70.8333 39.1667,71.1667 40.5,71.5C 40.1667,72.1667 39.8333,72.8333 39.5,73.5C 38.5416,73.0472 37.7083,72.3805 37,71.5C 36.3292,72.2524 35.4959,72.5858 34.5,72.5C 36.6406,69.1735 37.6406,65.5069 37.5,61.5C 36.1667,61.5 34.8333,61.5 33.5,61.5C 34.6518,64.2998 34.1518,66.9665 32,69.5C 30.0049,66.1586 27.6716,65.8253 25,68.5C 24.228,68.3552 23.5613,68.0219 23,67.5C 21.3375,69.1579 20.5041,71.1579 20.5,73.5C 19.8333,73.5 19.1667,73.5 18.5,73.5C 18.4914,71.6916 18.9914,70.0249 20,68.5C 23.744,62.4197 27.5773,56.4197 31.5,50.5C 33.1123,51.4523 34.6123,51.7856 36,51.5C 36.4643,50.9056 36.631,50.2389 36.5,49.5C 37.2674,50.172 37.9341,51.0053 38.5,52C 37.2172,55.0483 35.5505,55.215 33.5,52.5C 32.1688,55.0491 33.0021,56.7158 36,57.5C 36.4828,58.448 36.6495,59.448 36.5,60.5C 39.2776,60.9783 41.2776,59.9783 42.5,57.5C 43.0672,54.7879 43.4005,52.1213 43.5,49.5C 44.4209,51.756 46.0876,52.756 48.5,52.5C 48.2627,51.209 48.596,50.209 49.5,49.5C 49.8333,50.8333 50.1667,50.8333 50.5,49.5C 53.1667,48.1667 55.8333,46.8333 58.5,45.5 Z"/></g>
<g><path style="opacity:1" fill="#8de8fd" d="M 49.5,68.5 C 47.8991,66.1593 45.8991,65.4926 43.5,66.5C 42.794,65.4427 42.4607,65.7761 42.5,67.5C 41.8333,67.5 41.5,67.8333 41.5,68.5C 41.1667,68.5 40.8333,68.5 40.5,68.5C 40.5,67.8333 40.1667,67.5 39.5,67.5C 39.5,66.8333 39.5,66.1667 39.5,65.5C 43.9181,61.4208 47.9181,57.0874 51.5,52.5C 52.1667,52.5 52.5,52.1667 52.5,51.5C 53.8474,50.9717 55.1807,50.805 56.5,51C 54.1667,52.6667 52.1667,54.6667 50.5,57C 51.0253,57.6924 51.6919,58.1924 52.5,58.5C 54.8647,56.1582 57.5314,54.6582 60.5,54C 56.6096,57.769 52.943,61.769 49.5,66C 51.9856,66.7051 51.9856,67.5384 49.5,68.5 Z"/></g>
<g><path style="opacity:1" fill="#52e3fe" d="M 133.5,66.5 C 132.5,67.8333 131.5,69.1667 130.5,70.5C 129.25,70.5774 128.417,71.244 128,72.5C 126.608,70.1582 125.775,70.1582 125.5,72.5C 125.631,73.2389 125.464,73.9056 125,74.5C 124.047,72.4078 122.714,72.0745 121,73.5C 120.581,69.1482 119.914,68.8149 119,72.5C 118.586,72.0426 118.086,71.7093 117.5,71.5C 115.786,73.3504 113.786,74.6837 111.5,75.5C 111.5,75.1667 111.5,74.8333 111.5,74.5C 114.805,70.8592 118.138,67.1925 121.5,63.5C 122.552,63.6495 123.552,63.4828 124.5,63C 125.369,60.6322 127.035,59.1322 129.5,58.5C 130.386,59.325 130.719,60.325 130.5,61.5C 131.5,61.5 132.5,61.5 133.5,61.5C 133.5,63.1667 133.5,64.8333 133.5,66.5 Z"/></g>
<g><path style="opacity:1" fill="#71e1fd" d="M 164.5,58.5 C 165.847,59.1712 167.014,59.1712 168,58.5C 169.921,61.5104 170.921,64.8438 171,68.5C 171.718,69.4506 172.551,69.6172 173.5,69C 171.604,67.1917 171.104,65.025 172,62.5C 173.011,63.3366 174.178,63.67 175.5,63.5C 178.63,69.8896 180.963,76.5563 182.5,83.5C 181.527,85.9479 181.194,88.6146 181.5,91.5C 180.741,86.5284 179.574,81.5284 178,76.5C 178.552,81.7827 179.052,87.116 179.5,92.5C 178.732,91.7375 178.232,90.7375 178,89.5C 177.501,93.1516 177.335,96.8183 177.5,100.5C 176.823,85.4623 172.489,71.4623 164.5,58.5 Z"/></g>
<g><path style="opacity:1" fill="#3de3ff" d="M 34.5,72.5 C 33.2126,71.4715 32.0459,71.8048 31,73.5C 29.6068,72.3849 28.1068,71.8849 26.5,72C 25.9781,72.5613 25.6448,73.228 25.5,74C 26.7026,75.3685 27.7026,76.8685 28.5,78.5C 27.3493,79.731 26.1827,79.731 25,78.5C 23.9914,76.9751 23.4914,75.3084 23.5,73.5C 22.5,73.5 21.5,73.5 20.5,73.5C 20.5041,71.1579 21.3375,69.1579 23,67.5C 23.5613,68.0219 24.228,68.3552 25,68.5C 27.6716,65.8253 30.0049,66.1586 32,69.5C 34.1518,66.9665 34.6518,64.2998 33.5,61.5C 34.8333,61.5 36.1667,61.5 37.5,61.5C 37.6406,65.5069 36.6406,69.1735 34.5,72.5 Z"/></g>
<g><path style="opacity:1" fill="#36ddff" d="M 125.5,72.5 C 126.097,72.7352 126.43,73.2352 126.5,74C 124.372,75.6313 123.039,77.798 122.5,80.5C 121.914,80.2907 121.414,79.9574 121,79.5C 118.634,83.3542 116.634,83.0209 115,78.5C 113.329,81.3937 111.163,82.727 108.5,82.5C 107.427,81.7494 107.26,80.7494 108,79.5C 109.376,78.2949 110.542,76.9616 111.5,75.5C 113.786,74.6837 115.786,73.3504 117.5,71.5C 118.086,71.7093 118.586,72.0426 119,72.5C 119.914,68.8149 120.581,69.1482 121,73.5C 122.714,72.0745 124.047,72.4078 125,74.5C 125.464,73.9056 125.631,73.2389 125.5,72.5 Z"/></g>
<g><path style="opacity:1" fill="#36dcfe" d="M 34.5,72.5 C 35.4959,72.5858 36.3292,72.2524 37,71.5C 37.7083,72.3805 38.5416,73.0472 39.5,73.5C 41.1852,74.1837 42.1852,75.517 42.5,77.5C 40.3356,80.1594 39.0023,83.1594 38.5,86.5C 37.5,86.5 36.5,86.5 35.5,86.5C 35.8076,84.076 35.4742,81.7427 34.5,79.5C 32.6364,80.9931 30.4697,81.6597 28,81.5C 25.7942,81.0093 23.7942,81.0093 22,81.5C 21.3333,78.8333 20.6667,78.8333 20,81.5C 19.6667,81.1667 19.3333,80.8333 19,80.5C 18.6667,82.1667 18.3333,83.8333 18,85.5C 17.1835,82.4395 17.6835,79.6062 19.5,77C 19.0109,75.8615 18.6775,74.6948 18.5,73.5C 19.1667,73.5 19.8333,73.5 20.5,73.5C 21.5,73.5 22.5,73.5 23.5,73.5C 23.4914,75.3084 23.9914,76.9751 25,78.5C 26.1827,79.731 27.3493,79.731 28.5,78.5C 27.7026,76.8685 26.7026,75.3685 25.5,74C 25.6448,73.228 25.9781,72.5613 26.5,72C 28.1068,71.8849 29.6068,72.3849 31,73.5C 32.0459,71.8048 33.2126,71.4715 34.5,72.5 Z"/></g>
<g><path style="opacity:1" fill="#36d6fe" d="M 18.5,73.5 C 18.6775,74.6948 19.0109,75.8615 19.5,77C 17.6835,79.6062 17.1835,82.4395 18,85.5C 18.3333,83.8333 18.6667,82.1667 19,80.5C 19.3333,80.8333 19.6667,81.1667 20,81.5C 20.6667,78.8333 21.3333,78.8333 22,81.5C 23.7942,81.0093 25.7942,81.0093 28,81.5C 30.4697,81.6597 32.6364,80.9931 34.5,79.5C 35.4742,81.7427 35.8076,84.076 35.5,86.5C 32.5516,87.5502 29.5516,87.5502 26.5,86.5C 24.6161,86.7163 22.9494,87.383 21.5,88.5C 21.1667,87.8333 20.8333,87.1667 20.5,86.5C 18.4734,86.5266 16.4734,86.5266 14.5,86.5C 15.0889,81.8423 16.4222,77.509 18.5,73.5 Z"/></g>
<g><path style="opacity:1" fill="#f8fffe" d="M 46.5,79.5 C 47.8333,80.1667 47.8333,80.1667 46.5,79.5 Z"/></g>
<g><path style="opacity:1" fill="#36d7fe" d="M 130.5,70.5 C 127.167,76.5 123.833,82.5 120.5,88.5C 118.787,86.805 116.787,85.9717 114.5,86C 115.833,87 117.167,88 118.5,89C 117.584,89.3742 116.75,89.8742 116,90.5C 114.172,88.9186 112.172,87.5853 110,86.5C 109.667,87.1667 109.333,87.8333 109,88.5C 108,87.5 107,86.5 106,85.5C 103.084,89.7871 102.084,89.4537 103,84.5C 104.333,83.1667 105.667,83.1667 107,84.5C 107.717,83.9558 108.217,83.2891 108.5,82.5C 111.163,82.727 113.329,81.3937 115,78.5C 116.634,83.0209 118.634,83.3542 121,79.5C 121.414,79.9574 121.914,80.2907 122.5,80.5C 123.039,77.798 124.372,75.6313 126.5,74C 126.43,73.2352 126.097,72.7352 125.5,72.5C 125.775,70.1582 126.608,70.1582 128,72.5C 128.417,71.244 129.25,70.5774 130.5,70.5 Z"/></g>
<g><path style="opacity:1" fill="#21d0fe" d="M 14.5,86.5 C 16.4734,86.5266 18.4734,86.5266 20.5,86.5C 20.8333,87.1667 21.1667,87.8333 21.5,88.5C 22.9494,87.383 24.6161,86.7163 26.5,86.5C 29.5516,87.5502 32.5516,87.5502 35.5,86.5C 36.7196,88.2821 37.3862,90.2821 37.5,92.5C 36.8333,93.5 36.1667,94.5 35.5,95.5C 35.0472,94.5416 34.3805,93.7083 33.5,93C 34.4506,92.2825 34.6172,91.4491 34,90.5C 33.0853,91.3279 32.4186,92.3279 32,93.5C 27.669,91.9249 23.5024,92.2582 19.5,94.5C 18.0153,93.5672 16.6819,93.9005 15.5,95.5C 15.7845,93.5853 15.4511,91.9187 14.5,90.5C 14.5,89.1667 14.5,87.8333 14.5,86.5 Z"/></g>
<g><path style="opacity:1" fill="#63d8fd" d="M 49.5,68.5 C 46.0676,73.0281 43.401,78.0281 41.5,83.5C 42.0016,84.521 42.6683,84.6877 43.5,84C 44.1634,82.4815 45.1634,81.3149 46.5,80.5C 42.7364,88.5787 40.0697,96.912 38.5,105.5C 38.8633,103.089 37.8633,101.589 35.5,101C 36.4506,100.282 36.6172,99.4491 36,98.5C 33.9672,99.0164 33.9672,98.3497 36,96.5C 36.3826,97.056 36.8826,97.3893 37.5,97.5C 38.5453,97.3126 39.212,96.146 39.5,94C 39.3333,93.5 39.1667,93 39,92.5C 38.7216,93.4158 38.2216,94.0825 37.5,94.5C 37.5,93.8333 37.5,93.1667 37.5,92.5C 37.3862,90.2821 36.7196,88.2821 35.5,86.5C 36.5,86.5 37.5,86.5 38.5,86.5C 39.0023,83.1594 40.3356,80.1594 42.5,77.5C 42.1852,75.517 41.1852,74.1837 39.5,73.5C 39.8333,72.8333 40.1667,72.1667 40.5,71.5C 40.5,71.1667 40.5,70.8333 40.5,70.5C 41.3382,70.1583 41.6716,69.4916 41.5,68.5C 42.1667,68.5 42.5,68.1667 42.5,67.5C 43.1667,67.5 43.5,67.1667 43.5,66.5C 45.8991,65.4926 47.8991,66.1593 49.5,68.5 Z M 40.5,86.5 C 41.7733,87.0768 41.7733,87.7435 40.5,88.5C 39.537,88.0302 39.537,87.3635 40.5,86.5 Z"/></g>
<g><path style="opacity:1" fill="#48bff4" d="M 182.5,83.5 C 184.136,87.2095 184.802,91.2095 184.5,95.5C 184.169,97.3224 183.502,98.9891 182.5,100.5C 182.5,104.167 182.5,107.833 182.5,111.5C 182.167,111.5 181.833,111.5 181.5,111.5C 181.5,104.833 181.5,98.1667 181.5,91.5C 181.194,88.6146 181.527,85.9479 182.5,83.5 Z"/></g>
<g><path style="opacity:1" fill="#3fd2fd" d="M 111.5,74.5 C 111.5,74.8333 111.5,75.1667 111.5,75.5C 110.542,76.9616 109.376,78.2949 108,79.5C 107.26,80.7494 107.427,81.7494 108.5,82.5C 108.217,83.2891 107.717,83.9558 107,84.5C 105.667,83.1667 104.333,83.1667 103,84.5C 102.084,89.4537 103.084,89.7871 106,85.5C 107,86.5 108,87.5 109,88.5C 109.333,87.8333 109.667,87.1667 110,86.5C 112.172,87.5853 114.172,88.9186 116,90.5C 116.75,89.8742 117.584,89.3742 118.5,89C 117.167,88 115.833,87 114.5,86C 116.787,85.9717 118.787,86.805 120.5,88.5C 118.735,91.7089 116.735,94.7089 114.5,97.5C 114.5,96.1667 113.833,95.5 112.5,95.5C 113.028,94.1526 113.195,92.8193 113,91.5C 111.559,92.2598 110.059,92.9264 108.5,93.5C 105.708,92.5547 103.208,92.5547 101,93.5C 100.692,92.6919 100.192,92.0253 99.5,91.5C 98.5,92.1667 97.5,92.8333 96.5,93.5C 95.3044,93.1543 95.3044,92.6543 96.5,92C 95.9056,91.5357 95.2389,91.369 94.5,91.5C 99.7792,85.5541 105.446,79.8875 111.5,74.5 Z"/></g>
<g><path style="opacity:1" fill="#1acbfe" d="M 35.5,95.5 C 29.3383,97.1066 22.6717,98.1066 15.5,98.5C 15.5,97.5 15.5,96.5 15.5,95.5C 16.6819,93.9005 18.0153,93.5672 19.5,94.5C 23.5024,92.2582 27.669,91.9249 32,93.5C 32.4186,92.3279 33.0853,91.3279 34,90.5C 34.6172,91.4491 34.4506,92.2825 33.5,93C 34.3805,93.7083 35.0472,94.5416 35.5,95.5 Z"/></g>
<g><path style="opacity:1" fill="#24cbfe" d="M 94.5,91.5 C 95.2389,91.369 95.9056,91.5357 96.5,92C 95.3044,92.6543 95.3044,93.1543 96.5,93.5C 97.5,92.8333 98.5,92.1667 99.5,91.5C 100.192,92.0253 100.692,92.6919 101,93.5C 103.208,92.5547 105.708,92.5547 108.5,93.5C 110.059,92.9264 111.559,92.2598 113,91.5C 113.195,92.8193 113.028,94.1526 112.5,95.5C 109.8,96.2573 107.3,97.5906 105,99.5C 103.418,98.0397 102.085,96.373 101,94.5C 99.5385,96.4682 97.7052,97.8016 95.5,98.5C 93.8058,97.314 92.1392,97.4807 90.5,99C 91.9561,99.4226 92.4561,100.256 92,101.5C 90.5778,101.406 89.0778,101.072 87.5,100.5C 88.982,98.5171 90.6487,96.6837 92.5,95C 92.2716,94.6012 91.9382,94.4346 91.5,94.5C 92.1667,93.1667 93.1667,92.1667 94.5,91.5 Z"/></g>
<g><path style="opacity:1" fill="#40c7fd" d="M 14.5,90.5 C 15.4511,91.9187 15.7845,93.5853 15.5,95.5C 15.5,96.5 15.5,97.5 15.5,98.5C 22.6717,98.1066 29.3383,97.1066 35.5,95.5C 36.1667,94.5 36.8333,93.5 37.5,92.5C 37.5,93.1667 37.5,93.8333 37.5,94.5C 37.5,95.5 37.5,96.5 37.5,97.5C 36.8826,97.3893 36.3826,97.056 36,96.5C 33.9672,98.3497 33.9672,99.0164 36,98.5C 36.6172,99.4491 36.4506,100.282 35.5,101C 37.8633,101.589 38.8633,103.089 38.5,105.5C 38.7947,107.735 38.4614,109.735 37.5,111.5C 37.3178,106.206 36.8178,106.206 36,111.5C 35.5357,110.906 35.369,110.239 35.5,109.5C 35.5,108.5 35.5,107.5 35.5,106.5C 32.4124,106.803 30.7458,105.47 30.5,102.5C 26.4594,102.325 22.4594,102.158 18.5,102C 15.1238,102.307 13.7904,104.14 14.5,107.5C 14.5,109.167 14.5,110.833 14.5,112.5C 13.189,105.265 13.189,97.932 14.5,90.5 Z"/></g>
<g><path style="opacity:1" fill="#24c4fd" d="M 112.5,95.5 C 113.833,95.5 114.5,96.1667 114.5,97.5C 112.819,100.203 111.153,102.869 109.5,105.5C 109.565,105.062 109.399,104.728 109,104.5C 107.892,109.596 106.392,109.763 104.5,105C 105.554,103.612 105.72,102.112 105,100.5C 104.333,103.167 103.667,103.167 103,100.5C 101.383,101.536 101.216,102.703 102.5,104C 101.833,104.333 101.167,104.667 100.5,105C 101.226,108.031 100.559,107.864 98.5,104.5C 99.5225,102.105 98.5225,101.105 95.5,101.5C 95.5,100.5 95.5,99.5 95.5,98.5C 97.7052,97.8016 99.5385,96.4682 101,94.5C 102.085,96.373 103.418,98.0397 105,99.5C 107.3,97.5906 109.8,96.2573 112.5,95.5 Z"/></g>
<g><path style="opacity:1" fill="#d5f4fe" d="M 184.5,95.5 C 185.848,100.406 185.682,105.406 184,110.5C 183.821,106.975 183.321,103.641 182.5,100.5C 183.502,98.9891 184.169,97.3224 184.5,95.5 Z"/></g>
<g><path style="opacity:1" fill="#3abffa" d="M 91.5,94.5 C 91.9382,94.4346 92.2716,94.6012 92.5,95C 90.6487,96.6837 88.982,98.5171 87.5,100.5C 89.0778,101.072 90.5778,101.406 92,101.5C 92.4561,100.256 91.9561,99.4226 90.5,99C 92.1392,97.4807 93.8058,97.314 95.5,98.5C 95.5,99.5 95.5,100.5 95.5,101.5C 98.5225,101.105 99.5225,102.105 98.5,104.5C 100.559,107.864 101.226,108.031 100.5,105C 101.167,104.667 101.833,104.333 102.5,104C 101.216,102.703 101.383,101.536 103,100.5C 103.667,103.167 104.333,103.167 105,100.5C 105.72,102.112 105.554,103.612 104.5,105C 106.392,109.763 107.892,109.596 109,104.5C 109.399,104.728 109.565,105.062 109.5,105.5C 108.453,109.261 106.619,112.594 104,115.5C 99.1441,109.305 93.1441,104.638 86,101.5C 86.7719,98.5356 88.6052,96.2023 91.5,94.5 Z"/></g>
<g><path style="opacity:1" fill="#0ebbfd" d="M 35.5,109.5 C 34.7784,109.918 34.2784,110.584 34,111.5C 33.6924,110.692 33.1924,110.025 32.5,109.5C 27.9372,111.858 23.2705,111.858 18.5,109.5C 17.5224,109.977 16.6891,110.643 16,111.5C 15.79,109.942 15.29,108.609 14.5,107.5C 13.7904,104.14 15.1238,102.307 18.5,102C 22.4594,102.158 26.4594,102.325 30.5,102.5C 30.7458,105.47 32.4124,106.803 35.5,106.5C 35.5,107.5 35.5,108.5 35.5,109.5 Z"/></g>
<g><path style="opacity:1" fill="#eff9fd" d="M 179.5,108.5 C 180.167,109.5 180.833,110.5 181.5,111.5C 181.833,111.5 182.167,111.5 182.5,111.5C 181.831,114.716 180.831,115.049 179.5,112.5C 179.5,111.167 179.5,109.833 179.5,108.5 Z"/></g>
<g><path style="opacity:1" fill="#25b2fa" d="M 14.5,107.5 C 15.29,108.609 15.79,109.942 16,111.5C 16.6891,110.643 17.5224,109.977 18.5,109.5C 23.2705,111.858 27.9372,111.858 32.5,109.5C 33.1924,110.025 33.6924,110.692 34,111.5C 34.2784,110.584 34.7784,109.918 35.5,109.5C 35.369,110.239 35.5357,110.906 36,111.5C 36.8178,106.206 37.3178,106.206 37.5,111.5C 37.5,116.167 37.5,120.833 37.5,125.5C 36.6829,123.031 36.1829,120.365 36,117.5C 35.5065,119.134 35.3398,120.801 35.5,122.5C 34.8365,120.958 34.1698,119.291 33.5,117.5C 29.8293,118.172 26.1626,117.839 22.5,116.5C 21.8076,117.025 21.3076,117.692 21,118.5C 20.3333,117.167 19.6667,115.833 19,114.5C 18.7991,117.753 17.9657,120.753 16.5,123.5C 15.0966,120.091 14.4299,116.425 14.5,112.5C 14.5,110.833 14.5,109.167 14.5,107.5 Z"/></g>
<g><path style="opacity:1" fill="#5fb4f1" d="M 179.5,92.5 C 180.578,97.8928 180.578,103.226 179.5,108.5C 179.5,109.833 179.5,111.167 179.5,112.5C 179.237,118.544 177.904,124.21 175.5,129.5C 175.672,128.508 175.338,127.842 174.5,127.5C 175.336,121.984 176.336,116.484 177.5,111C 176.694,107.543 176.694,104.043 177.5,100.5C 177.335,96.8183 177.501,93.1516 178,89.5C 178.232,90.7375 178.732,91.7375 179.5,92.5 Z"/></g>
<g><path style="opacity:1" fill="#b6dbf2" d="M 183.5,113.5 C 183.369,112.761 183.536,112.094 184,111.5C 184.692,112.437 184.525,113.103 183.5,113.5 Z"/></g>
<g><path style="opacity:1" fill="#31b5f8" d="M 98.5,115.5 C 95.6354,115.945 93.1354,115.278 91,113.5C 88.349,115.255 86.0157,117.255 84,119.5C 83.6667,118.833 83.3333,118.167 83,117.5C 82.3878,120.032 80.8878,120.865 78.5,120C 79.3081,117.912 80.3081,115.912 81.5,114C 81.2716,113.601 80.9382,113.435 80.5,113.5C 80.9762,107.158 83.9762,105.324 89.5,108C 92.6902,110.364 95.6902,112.864 98.5,115.5 Z"/></g>
<g><path style="opacity:1" fill="#8fc2e3" d="M 183.5,113.5 C 183.799,115.604 183.466,117.604 182.5,119.5C 182.167,119.167 181.833,118.833 181.5,118.5C 182.028,116.664 182.694,114.997 183.5,113.5 Z"/></g>
<g><path style="opacity:1" fill="#14a4f6" d="M 35.5,122.5 C 35.762,123.978 35.4287,125.311 34.5,126.5C 33.3131,125.106 32.6465,125.273 32.5,127C 33.1868,128.162 33.3534,129.328 33,130.5C 32,130.167 31,129.833 30,129.5C 29.5172,128.552 29.3505,127.552 29.5,126.5C 27.4086,126.318 25.4086,126.652 23.5,127.5C 22.8076,126.975 22.3076,126.308 22,125.5C 21.3333,126.833 20.6667,128.167 20,129.5C 18.9568,125.774 18.4568,126.107 18.5,130.5C 17.3882,128.401 16.7215,126.067 16.5,123.5C 17.9657,120.753 18.7991,117.753 19,114.5C 19.6667,115.833 20.3333,117.167 21,118.5C 21.3076,117.692 21.8076,117.025 22.5,116.5C 26.1626,117.839 29.8293,118.172 33.5,117.5C 34.1698,119.291 34.8365,120.958 35.5,122.5 Z"/></g>
<g><path style="opacity:1" fill="#22a4f4" d="M 80.5,113.5 C 80.9382,113.435 81.2716,113.601 81.5,114C 80.3081,115.912 79.3081,117.912 78.5,120C 80.8878,120.865 82.3878,120.032 83,117.5C 83.3333,118.167 83.6667,118.833 84,119.5C 86.0157,117.255 88.349,115.255 91,113.5C 93.1354,115.278 95.6354,115.945 98.5,115.5C 98.6107,116.117 98.944,116.617 99.5,117C 94.2898,122.546 88.7898,127.712 83,132.5C 79.1898,131.014 76.0231,128.681 73.5,125.5C 75.8599,121.437 78.1933,117.437 80.5,113.5 Z"/></g>
<g><path style="opacity:1" fill="#2096f2" d="M 37.5,125.5 C 37.9629,128.482 38.2962,131.482 38.5,134.5C 37.7784,134.918 37.2784,135.584 37,136.5C 36.6667,136.167 36.3333,135.833 36,135.5C 35.3893,139.272 34.3893,139.272 33,135.5C 31.1555,136.711 30.3222,138.044 30.5,139.5C 27.5386,138.817 27.2053,137.984 29.5,137C 28.8333,136.667 28.1667,136.333 27.5,136C 28.7421,130.696 27.5754,130.196 24,134.5C 23.6667,134.167 23.3333,133.833 23,133.5C 22.6664,135.847 22.833,138.181 23.5,140.5C 21.3256,137.485 19.6589,134.151 18.5,130.5C 18.4568,126.107 18.9568,125.774 20,129.5C 20.6667,128.167 21.3333,126.833 22,125.5C 22.3076,126.308 22.8076,126.975 23.5,127.5C 25.4086,126.652 27.4086,126.318 29.5,126.5C 29.3505,127.552 29.5172,128.552 30,129.5C 31,129.833 32,130.167 33,130.5C 33.3534,129.328 33.1868,128.162 32.5,127C 32.6465,125.273 33.3131,125.106 34.5,126.5C 35.4287,125.311 35.762,123.978 35.5,122.5C 35.3398,120.801 35.5065,119.134 36,117.5C 36.1829,120.365 36.6829,123.031 37.5,125.5 Z"/></g>
<g><path style="opacity:1" fill="#3092ef" d="M 77.5,148.5 C 75.9397,146.871 76.273,145.704 78.5,145C 78.1667,144.667 77.8333,144.333 77.5,144C 78.3081,143.692 78.9747,143.192 79.5,142.5C 78.3595,141.575 78.3595,140.741 79.5,140C 77.6711,139.727 76.1711,138.893 75,137.5C 74,138.5 73,139.5 72,140.5C 70.0885,139.555 68.0885,139.555 66,140.5C 64.2894,140.561 62.956,139.894 62,138.5C 60.984,139.634 60.3173,139.301 60,137.5C 58.6072,140.125 57.4405,140.125 56.5,137.5C 58.4704,131.022 62.8037,127.855 69.5,128C 73.2115,132.274 77.7115,135.44 83,137.5C 83.1965,142.148 81.3631,145.815 77.5,148.5 Z"/></g>
<g><path style="opacity:1" fill="#1b83ed" d="M 56.5,137.5 C 57.4405,140.125 58.6072,140.125 60,137.5C 60.3173,139.301 60.984,139.634 62,138.5C 62.956,139.894 64.2894,140.561 66,140.5C 68.0885,139.555 70.0885,139.555 72,140.5C 73,139.5 74,138.5 75,137.5C 76.1711,138.893 77.6711,139.727 79.5,140C 78.3595,140.741 78.3595,141.575 79.5,142.5C 78.9747,143.192 78.3081,143.692 77.5,144C 77.8333,144.333 78.1667,144.667 78.5,145C 76.273,145.704 75.9397,146.871 77.5,148.5C 74.5416,152.651 70.5416,155.318 65.5,156.5C 65.5774,155.25 66.244,154.417 67.5,154C 66.3659,152.984 66.6992,152.317 68.5,152C 66.6332,151.289 65.1332,151.789 64,153.5C 60.2492,153.027 56.4159,152.861 52.5,153C 53.9374,150.77 54.9374,148.77 55.5,147C 54.552,146.517 53.552,146.351 52.5,146.5C 54.1079,143.618 55.4413,140.618 56.5,137.5 Z"/></g>
<g><path style="opacity:1" fill="#258aee" d="M 38.5,134.5 C 39.3627,136.421 40.0293,138.421 40.5,140.5C 39.8423,141.398 39.1757,142.398 38.5,143.5C 37.147,142.315 35.9803,140.981 35,139.5C 35.6437,142.766 34.4771,145.433 31.5,147.5C 30.8333,147.167 30.1667,146.833 29.5,146.5C 28.3856,143.596 26.3856,141.596 23.5,140.5C 22.833,138.181 22.6664,135.847 23,133.5C 23.3333,133.833 23.6667,134.167 24,134.5C 27.5754,130.196 28.7421,130.696 27.5,136C 28.1667,136.333 28.8333,136.667 29.5,137C 27.2053,137.984 27.5386,138.817 30.5,139.5C 30.3222,138.044 31.1555,136.711 33,135.5C 34.3893,139.272 35.3893,139.272 36,135.5C 36.3333,135.833 36.6667,136.167 37,136.5C 37.2784,135.584 37.7784,134.918 38.5,134.5 Z"/></g>
<g><path style="opacity:1" fill="#89a1cf" d="M 29.5,146.5 C 28.9232,147.773 28.2565,147.773 27.5,146.5C 27.9698,145.537 28.6365,145.537 29.5,146.5 Z"/></g>
<g><path style="opacity:1" fill="#7492d4" d="M 174.5,127.5 C 175.338,127.842 175.672,128.508 175.5,129.5C 172.932,138.637 168.765,146.97 163,154.5C 167.354,145.784 171.188,136.784 174.5,127.5 Z"/></g>
<g><path style="opacity:1" fill="#2783ea" d="M 40.5,140.5 C 42.0353,144.053 44.0353,147.386 46.5,150.5C 44.5953,150.928 42.762,150.262 41,148.5C 40.3103,150.35 39.1436,151.684 37.5,152.5C 34.8908,151.557 32.8908,149.89 31.5,147.5C 34.4771,145.433 35.6437,142.766 35,139.5C 35.9803,140.981 37.147,142.315 38.5,143.5C 39.1757,142.398 39.8423,141.398 40.5,140.5 Z"/></g>
<g><path style="opacity:1" fill="#2c73e7" d="M 52.5,146.5 C 53.552,146.351 54.552,146.517 55.5,147C 54.9374,148.77 53.9374,150.77 52.5,153C 56.4159,152.861 60.2492,153.027 64,153.5C 65.1332,151.789 66.6332,151.289 68.5,152C 66.6992,152.317 66.3659,152.984 67.5,154C 66.244,154.417 65.5774,155.25 65.5,156.5C 55.5985,158.645 46.2652,157.312 37.5,152.5C 39.1436,151.684 40.3103,150.35 41,148.5C 42.762,150.262 44.5953,150.928 46.5,150.5C 49.2921,150.378 51.2921,149.044 52.5,146.5 Z"/></g>
</svg>
