<svg xmlns="http://www.w3.org/2000/svg" style="shape-rendering:geometricPrecision;text-rendering:geometricPrecision;image-rendering:optimizeQuality;fill-rule:evenodd;clip-rule:evenodd" viewBox="0 -60 523 523"><path style="opacity:.95" fill="#fff" d="M504.5 240.5q-2 2 0 4-2.236 64.982-62 90.5a133 133 0 0 1-19 5 9390 9390 0 0 1-270 1q-32.118-.206-58-19-8.58-7.326-5.5-18.5 6.936-12.646 20.5-7.5 14.138 11.064 32 14 138.5 1 277 0 45.41-8.409 55.5-53.5 5.153-50.474-40.5-71.5a83 83 0 0 0-15-4l-26-1q-8.115-2.615-11.5-10.5-6.946-64.217-65.5-90.5-42.318-14.43-85-1-45.479 18.478-62.5 64.5-3.397 4.4-8.5 6.5a289 289 0 0 1-34 0q-13.643-6.915-8.5-21.5a45.3 45.3 0 0 1 8.5-7.5 223 223 0 0 0 21-1.5q39.54-75.53 125-77 70.086-.33 112.5 55 17.412 24.466 23.5 54 62.774 2.256 89.5 59 6.345 14.877 6.5 31"/><path style="opacity:.951" fill="#fff" d="M55.5 93.5q23.145-.702 46 1.5a11.5 11.5 0 0 1 3.5 4.5l1 41q3.336 15.836 18.5 21.5l41 1q4.25 2.25 6.5 6.5a307.4 307.4 0 0 1-1 49 11.5 11.5 0 0 1-4.5 3.5l-40 1q-17.559 4.56-20.5 22.5l-1 41-4.5 4.5a552 552 0 0 1-47 0 17.8 17.8 0 0 1-4.5-5.5 295 295 0 0 1 1-48 17.8 17.8 0 0 1 5.5-4.5q73.068 14.43 59.5-58.5-3.79-17.79-21.5-21.5l-40-1-3.5-3.5a298.6 298.6 0 0 1-1-48q2.54-4.287 6.5-7"/><path style="opacity:.906" fill="#8d8d8d" d="M220.5 113.5q14.009-.25 28 .5l3.5 3.5q2.417 13.848 1 28a17.8 17.8 0 0 1-4.5 5.5q-43.152 12.351-32.5-31.5a41 41 0 0 1 4.5-6"/><path style="opacity:.978" fill="#636564" d="M33.5 173.5q16.508-.25 33 .5 5.498 2.502 6.5 8.5 1 15 0 30-1.002 5.998-6.5 8.5-16.5 1-33 0-5.499-2.502-6.5-8.5-1-15 0-30 1.31-6.038 6.5-9"/><path style="opacity:.907" fill="#8d8d8d" d="M267.5 175.5q13.509-.25 27 .5 4.321 1.876 5.5 6.5 1 12.5 0 25-1.035 4.044-4.5 6.5-14 1-28 0a6.98 6.98 0 0 1-3.5-2.5q-2.425-15.35-1-31a31.5 31.5 0 0 0 4.5-5"/><path style="opacity:1" fill="#b3b5b5" d="M312.5 198.5q28.86-5.382 20.5 23l-3.5 3.5q-28.75 7.25-21.5-21.5 1.537-3.28 4.5-5"/><path style="opacity:1" fill="#b3b5b4" d="M244.5 222.5q14.508-.25 29 .5l4.5 4.5q2.423 14.85 1 30a25.6 25.6 0 0 1-5.5 6.5q-14.5 1-29 0l-4.5-4.5q-2.423-14.85-1-30a57 57 0 0 1 5.5-7"/><path style="opacity:.981" fill="#4596b9" d="M188.5 164.5q22.506-.25 45 .5l4.5 4.5q.3 21.538 1.5 43-1.87 6.005-7 9.5l-42 1q-13.351 4.853-17.5 18.5l-1 43q-1.25 5.25-6.5 6.5a462 462 0 0 1-43 0 18.8 18.8 0 0 1-5.5-4.5q-1-24 0-48a17.8 17.8 0 0 0 5.5-4.5 553 553 0 0 0 43-2q11.881-5.38 16.5-17.5l1-44a46 46 0 0 0 5.5-6"/><path style="opacity:.563" fill="#9f9f9f" d="M504.5 240.5q1.779 2.192 0 4-2-2 0-4"/></svg>