<?xml version="1.0" encoding="UTF-8"?>
<!DOCTYPE svg PUBLIC "-//W3C//DTD SVG 1.1//EN" "http://www.w3.org/Graphics/SVG/1.1/DTD/svg11.dtd">
<svg xmlns="http://www.w3.org/2000/svg" version="1.1" width="225px" height="225px" style="shape-rendering:geometricPrecision; text-rendering:geometricPrecision; image-rendering:optimizeQuality; fill-rule:evenodd; clip-rule:evenodd" xmlns:xlink="http://www.w3.org/1999/xlink">
<g><path style="opacity:1" fill="#e1572c" d="M 17.5,-0.5 C 82.5,-0.5 147.5,-0.5 212.5,-0.5C 213.845,1.69149 215.845,3.02482 218.5,3.5C 220.21,7.09369 222.21,10.427 224.5,13.5C 224.5,53.8333 224.5,94.1667 224.5,134.5C 189.364,99.3619 154.031,64.6952 118.5,30.5C 116.752,26.6502 114.085,25.3168 110.5,26.5C 108.549,27.7158 107.049,29.3825 106,31.5C 103.921,39.231 101.754,46.8977 99.5,54.5C 98.0427,56.2418 96.876,58.2418 96,60.5C 95.5065,62.1341 95.3398,63.8008 95.5,65.5C 95.5,65.8333 95.5,66.1667 95.5,66.5C 87.356,91.394 79.356,116.394 71.5,141.5C 69.0651,145.799 67.3984,150.465 66.5,155.5C 65.129,157.936 64.129,160.603 63.5,163.5C 62.5029,183.326 62.1695,203.326 62.5,223.5C 46.4861,223.833 30.4861,223.499 14.5,222.5C 10.7303,220.197 7.23032,217.531 4,214.5C 3.58289,211.578 2.58289,208.911 1,206.5C 0.333333,143.5 0.333333,80.5 1,17.5C 2.01725,15.6241 2.85059,13.6241 3.5,11.5C 4.31844,14.1071 4.81844,16.7737 5,19.5C 5.66667,20.8333 6.33333,20.8333 7,19.5C 7.66667,16.5 7.66667,13.5 7,10.5C 5.20697,11.3808 4.54031,10.7142 5,8.5C 6.35131,6.98101 7.85131,5.64768 9.5,4.5C 10.1924,5.02527 10.6924,5.69194 11,6.5C 12.6583,3.6757 14.825,1.34237 17.5,-0.5 Z"/></g>
<g><path style="opacity:1" fill="#e46138" d="M 11.5,-0.5 C 13.5,-0.5 15.5,-0.5 17.5,-0.5C 14.825,1.34237 12.6583,3.6757 11,6.5C 10.6924,5.69194 10.1924,5.02527 9.5,4.5C 7.85131,5.64768 6.35131,6.98101 5,8.5C 4.54031,10.7142 5.20697,11.3808 7,10.5C 7.66667,13.5 7.66667,16.5 7,19.5C 6.33333,20.8333 5.66667,20.8333 5,19.5C 4.81844,16.7737 4.31844,14.1071 3.5,11.5C 2.85059,13.6241 2.01725,15.6241 1,17.5C 0.333333,80.5 0.333333,143.5 1,206.5C 2.58289,208.911 3.58289,211.578 4,214.5C 7.23032,217.531 10.7303,220.197 14.5,222.5C 30.4861,223.499 46.4861,223.833 62.5,223.5C 62.1695,203.326 62.5029,183.326 63.5,163.5C 63.5,183.833 63.5,204.167 63.5,224.5C 46.8333,224.5 30.1667,224.5 13.5,224.5C 6.30675,221.311 1.64008,215.978 -0.5,208.5C -0.5,143.5 -0.5,78.5 -0.5,13.5C 1.34438,12.0852 2.01105,10.4185 1.5,8.5C 4.92464,5.39861 8.25797,2.39861 11.5,-0.5 Z"/></g>
<g><path style="opacity:1" fill="#5d312d" d="M 110.5,26.5 C 114.085,25.3168 116.752,26.6502 118.5,30.5C 118.833,31.8333 119.167,33.1667 119.5,34.5C 118.182,32.249 116.516,30.249 114.5,28.5C 113.486,27.3263 112.153,26.6596 110.5,26.5 Z"/></g>
<g><path style="opacity:1" fill="#3d4a53" d="M 110.5,26.5 C 112.153,26.6596 113.486,27.3263 114.5,28.5C 114.119,29.9311 113.119,30.7645 111.5,31C 114.354,42.6566 116.354,54.49 117.5,66.5C 110.167,66.5 102.833,66.5 95.5,66.5C 95.5,66.1667 95.5,65.8333 95.5,65.5C 97.497,62.1671 98.8304,58.5004 99.5,54.5C 101.754,46.8977 103.921,39.231 106,31.5C 107.049,29.3825 108.549,27.7158 110.5,26.5 Z"/></g>
<g><path style="opacity:1" fill="#29333d" d="M 114.5,28.5 C 116.516,30.249 118.182,32.249 119.5,34.5C 122.493,45.1473 125.493,55.814 128.5,66.5C 124.833,66.5 121.167,66.5 117.5,66.5C 116.354,54.49 114.354,42.6566 111.5,31C 113.119,30.7645 114.119,29.9311 114.5,28.5 Z"/></g>
<g><path style="opacity:1" fill="#9e2f21" d="M 118.5,30.5 C 154.031,64.6952 189.364,99.3619 224.5,134.5C 224.5,160.167 224.5,185.833 224.5,211.5C 222.614,214.109 220.448,217.109 218,220.5C 215.699,221.76 213.532,223.093 211.5,224.5C 194.833,224.5 178.167,224.5 161.5,224.5C 161.667,203.164 161.5,181.831 161,160.5C 160.722,159.584 160.222,158.918 159.5,158.5C 158.412,155.347 157.078,152.347 155.5,149.5C 151.871,136.663 147.871,123.996 143.5,111.5C 140.681,100.566 137.348,89.8992 133.5,79.5C 132.401,74.8558 130.734,70.5225 128.5,66.5C 125.493,55.814 122.493,45.1473 119.5,34.5C 119.167,33.1667 118.833,31.8333 118.5,30.5 Z"/></g>
<g><path style="opacity:1" fill="#7f4c44" d="M 99.5,54.5 C 98.8304,58.5004 97.497,62.1671 95.5,65.5C 95.3398,63.8008 95.5065,62.1341 96,60.5C 96.876,58.2418 98.0427,56.2418 99.5,54.5 Z"/></g>
<g><path style="opacity:1" fill="#f5dac1" d="M 95.5,66.5 C 102.833,66.5 110.167,66.5 117.5,66.5C 121.768,97.5143 126.101,128.514 130.5,159.5C 130.657,160.873 130.49,162.207 130,163.5C 127.922,155.822 123.756,149.655 117.5,145C 110.036,142.826 104.203,144.993 100,151.5C 96.4059,156.688 93.9059,162.354 92.5,168.5C 90.0867,160.466 86.5867,152.799 82,145.5C 78.9401,142.064 75.6068,141.731 72,144.5C 71.5172,143.552 71.3505,142.552 71.5,141.5C 79.356,116.394 87.356,91.394 95.5,66.5 Z"/></g>
<g><path style="opacity:1" fill="#998775" d="M 117.5,66.5 C 121.167,66.5 124.833,66.5 128.5,66.5C 130.734,70.5225 132.401,74.8558 133.5,79.5C 133.335,82.5184 133.502,85.5184 134,88.5C 136.301,94.1343 138.468,99.801 140.5,105.5C 138.495,109.19 139.495,111.19 143.5,111.5C 147.871,123.996 151.871,136.663 155.5,149.5C 150.834,142.046 145.667,141.712 140,148.5C 136.585,154.599 134.085,160.932 132.5,167.5C 131.833,164.833 131.167,162.167 130.5,159.5C 126.101,128.514 121.768,97.5143 117.5,66.5 Z"/></g>
<g><path style="opacity:1" fill="#a47867" d="M 133.5,79.5 C 137.348,89.8992 140.681,100.566 143.5,111.5C 139.495,111.19 138.495,109.19 140.5,105.5C 138.468,99.801 136.301,94.1343 134,88.5C 133.502,85.5184 133.335,82.5184 133.5,79.5 Z"/></g>
<g><path style="opacity:1" fill="#efb59f" d="M 71.5,141.5 C 71.3505,142.552 71.5172,143.552 72,144.5C 75.6068,141.731 78.9401,142.064 82,145.5C 86.5867,152.799 90.0867,160.466 92.5,168.5C 91.5256,187.12 91.1922,205.787 91.5,224.5C 82.5,224.5 73.5,224.5 64.5,224.5C 64.3334,203.831 64.5,183.164 65,162.5C 65.977,160.26 66.477,157.927 66.5,155.5C 67.3984,150.465 69.0651,145.799 71.5,141.5 Z"/></g>
<g><path style="opacity:1" fill="#394355" d="M 155.5,149.5 C 157.078,152.347 158.412,155.347 159.5,158.5C 160.457,180.474 160.79,202.474 160.5,224.5C 151.167,224.5 141.833,224.5 132.5,224.5C 132.5,205.5 132.5,186.5 132.5,167.5C 134.085,160.932 136.585,154.599 140,148.5C 145.667,141.712 150.834,142.046 155.5,149.5 Z"/></g>
<g><path style="opacity:1" fill="#b98984" d="M 130.5,159.5 C 131.167,162.167 131.833,164.833 132.5,167.5C 132.5,186.5 132.5,205.5 132.5,224.5C 118.833,224.5 105.167,224.5 91.5,224.5C 91.1922,205.787 91.5256,187.12 92.5,168.5C 93.9059,162.354 96.4059,156.688 100,151.5C 104.203,144.993 110.036,142.826 117.5,145C 123.756,149.655 127.922,155.822 130,163.5C 130.49,162.207 130.657,160.873 130.5,159.5 Z"/></g>
<g><path style="opacity:1" fill="#f89f81" d="M 66.5,155.5 C 66.477,157.927 65.977,160.26 65,162.5C 64.5,183.164 64.3334,203.831 64.5,224.5C 64.1667,224.5 63.8333,224.5 63.5,224.5C 63.5,204.167 63.5,183.833 63.5,163.5C 64.129,160.603 65.129,157.936 66.5,155.5 Z"/></g>
<g><path style="opacity:1" fill="#823633" d="M 159.5,158.5 C 160.222,158.918 160.722,159.584 161,160.5C 161.5,181.831 161.667,203.164 161.5,224.5C 161.167,224.5 160.833,224.5 160.5,224.5C 160.79,202.474 160.457,180.474 159.5,158.5 Z"/></g>
</svg>
