<?xml version="1.0" encoding="UTF-8"?>
<!DOCTYPE svg PUBLIC "-//W3C//DTD SVG 1.1//EN" "http://www.w3.org/Graphics/SVG/1.1/DTD/svg11.dtd">
<svg xmlns="http://www.w3.org/2000/svg" version="1.1" width="501px" height="501px" style="shape-rendering:geometricPrecision; text-rendering:geometricPrecision; image-rendering:optimizeQuality; fill-rule:evenodd; clip-rule:evenodd" xmlns:xlink="http://www.w3.org/1999/xlink">
<g><path style="opacity:1" fill="#763693" d="M 396.5,137.5 C 396.013,138.473 395.513,139.473 395,140.5C 392.081,139.813 389.248,138.813 386.5,137.5C 385.051,138.617 383.384,139.284 381.5,139.5C 377.827,139.047 374.16,138.547 370.5,138C 372.872,136.529 372.872,135.363 370.5,134.5C 366.37,134.7 362.704,135.7 359.5,137.5C 353.369,136.908 347.536,137.575 342,139.5C 341.275,138.941 340.442,138.608 339.5,138.5C 338.642,140.001 336.808,141.001 334,141.5C 333.692,140.692 333.192,140.025 332.5,139.5C 329.791,140.67 327.125,141.837 324.5,143C 319.325,143.088 314.325,143.921 309.5,145.5C 308.054,144.387 306.387,144.22 304.5,145C 301.467,148.622 297.801,149.455 293.5,147.5C 293.33,146.178 293.663,145.011 294.5,144C 298.766,144.027 302.433,142.693 305.5,140C 307.698,139.627 309.865,139.127 312,138.5C 313.584,138.988 314.751,139.988 315.5,141.5C 318.298,140.047 321.298,139.047 324.5,138.5C 321.494,137.252 318.494,137.252 315.5,138.5C 314.571,137.311 314.238,135.978 314.5,134.5C 319.807,133.16 325.14,131.66 330.5,130C 343.167,129.333 355.833,129.333 368.5,130C 378.017,131.804 387.351,134.304 396.5,137.5 Z"/></g>
<g><path style="opacity:1" fill="#5a3393" d="M 434.5,186.5 C 435.675,186.281 436.675,186.614 437.5,187.5C 434.914,188.48 432.247,188.813 429.5,188.5C 429.5,189.5 429.5,190.5 429.5,191.5C 432.167,191.5 434.833,191.5 437.5,191.5C 437.5,192.5 437.5,193.5 437.5,194.5C 435.62,194.229 434.287,194.896 433.5,196.5C 427.835,194.481 422.168,192.815 416.5,191.5C 419.686,191.663 422.353,190.663 424.5,188.5C 423.271,187.719 421.938,187.219 420.5,187C 422.301,186.683 422.634,186.016 421.5,185C 418.503,183.673 415.503,182.339 412.5,181C 405.994,176.975 399.66,172.808 393.5,168.5C 389.893,167.511 386.226,167.177 382.5,167.5C 380.606,166.952 378.94,165.952 377.5,164.5C 374.681,164.742 371.681,164.742 368.5,164.5C 368.5,162.5 368.5,160.5 368.5,158.5C 367.167,158.5 365.833,158.5 364.5,158.5C 364.5,167.167 364.5,175.833 364.5,184.5C 366.288,184.215 367.955,184.548 369.5,185.5C 368.754,186.736 368.421,188.07 368.5,189.5C 371.5,189.167 372.833,190.5 372.5,193.5C 371.167,193.5 369.833,193.5 368.5,193.5C 362.622,187.172 356.622,181.005 350.5,175C 347.583,173.767 344.916,172.267 342.5,170.5C 338.455,168.318 334.121,166.818 329.5,166C 325.933,163.563 322.266,161.396 318.5,159.5C 317.328,159.919 316.328,160.585 315.5,161.5C 312.074,160.69 308.741,159.69 305.5,158.5C 308.081,157.512 310.748,156.512 313.5,155.5C 317.472,154.892 321.472,154.392 325.5,154C 332.899,150.24 340.566,149.24 348.5,151C 349.167,151.667 349.833,152.333 350.5,153C 360.02,154.727 369.52,156.56 379,158.5C 380.855,159.244 382.521,160.244 384,161.5C 384.772,161.355 385.439,161.022 386,160.5C 389.132,163.964 392.965,165.464 397.5,165C 401.314,168.721 405.314,172.054 409.5,175C 410.744,175.456 411.577,174.956 412,173.5C 413.284,174.572 413.617,175.905 413,177.5C 413.333,177.167 413.667,176.833 414,176.5C 414.308,177.308 414.808,177.975 415.5,178.5C 419.226,179.848 422.892,181.348 426.5,183C 428.391,185.802 431.058,186.968 434.5,186.5 Z"/></g>
<g><path style="opacity:1" fill="#633293" d="M 359.5,137.5 C 359.561,139.592 360.561,141.092 362.5,142C 361.366,143.016 361.699,143.683 363.5,144C 362.944,144.383 362.611,144.883 362.5,145.5C 360.158,145.775 360.158,146.608 362.5,148C 367.238,148.519 371.905,149.352 376.5,150.5C 376.421,151.93 376.754,153.264 377.5,154.5C 387.968,154.871 396.968,158.537 404.5,165.5C 407.46,166.625 410.46,167.625 413.5,168.5C 419.18,174.701 425.513,179.867 432.5,184C 431.5,184.333 430.5,184.667 429.5,185C 431.382,185.198 433.048,185.698 434.5,186.5C 431.058,186.968 428.391,185.802 426.5,183C 422.892,181.348 419.226,179.848 415.5,178.5C 414.808,177.975 414.308,177.308 414,176.5C 413.667,176.833 413.333,177.167 413,177.5C 413.617,175.905 413.284,174.572 412,173.5C 411.577,174.956 410.744,175.456 409.5,175C 405.314,172.054 401.314,168.721 397.5,165C 392.965,165.464 389.132,163.964 386,160.5C 385.439,161.022 384.772,161.355 384,161.5C 382.521,160.244 380.855,159.244 379,158.5C 369.52,156.56 360.02,154.727 350.5,153C 349.833,152.333 349.167,151.667 348.5,151C 340.566,149.24 332.899,150.24 325.5,154C 321.472,154.392 317.472,154.892 313.5,155.5C 313.489,153.983 312.823,152.816 311.5,152C 313.203,149.432 315.369,148.932 318,150.5C 320.226,150.022 322.392,149.355 324.5,148.5C 322.035,147.569 319.202,146.569 316,145.5C 313.616,147.228 311.116,147.561 308.5,146.5C 308.624,145.893 308.957,145.56 309.5,145.5C 314.325,143.921 319.325,143.088 324.5,143C 327.125,141.837 329.791,140.67 332.5,139.5C 333.192,140.025 333.692,140.692 334,141.5C 336.808,141.001 338.642,140.001 339.5,138.5C 340.442,138.608 341.275,138.941 342,139.5C 347.536,137.575 353.369,136.908 359.5,137.5 Z"/></g>
<g><path style="opacity:1" fill="#6b3d97" d="M 314.5,134.5 C 314.238,135.978 314.571,137.311 315.5,138.5C 318.494,137.252 321.494,137.252 324.5,138.5C 321.298,139.047 318.298,140.047 315.5,141.5C 314.751,139.988 313.584,138.988 312,138.5C 309.865,139.127 307.698,139.627 305.5,140C 302.433,142.693 298.766,144.027 294.5,144C 293.663,145.011 293.33,146.178 293.5,147.5C 297.801,149.455 301.467,148.622 304.5,145C 306.387,144.22 308.054,144.387 309.5,145.5C 308.957,145.56 308.624,145.893 308.5,146.5C 311.116,147.561 313.616,147.228 316,145.5C 319.202,146.569 322.035,147.569 324.5,148.5C 322.392,149.355 320.226,150.022 318,150.5C 315.369,148.932 313.203,149.432 311.5,152C 312.823,152.816 313.489,153.983 313.5,155.5C 310.748,156.512 308.081,157.512 305.5,158.5C 301.121,158.292 296.787,158.625 292.5,159.5C 288.514,162.569 284.847,165.236 281.5,167.5C 277.288,167.922 273.288,167.256 269.5,165.5C 268.692,165.808 268.025,166.308 267.5,167C 268.337,168.011 268.67,169.178 268.5,170.5C 267.167,170.5 265.833,170.5 264.5,170.5C 263.824,166.486 265.157,163.486 268.5,161.5C 267.82,160.14 267.153,158.807 266.5,157.5C 267.267,156.828 267.934,155.995 268.5,155C 277.046,151.088 285.046,146.422 292.5,141C 299.581,137.959 306.914,135.792 314.5,134.5 Z"/></g>
<g><path style="opacity:1" fill="#603b97" d="M 305.5,158.5 C 308.741,159.69 312.074,160.69 315.5,161.5C 316.328,160.585 317.328,159.919 318.5,159.5C 322.266,161.396 325.933,163.563 329.5,166C 334.121,166.818 338.455,168.318 342.5,170.5C 344.916,172.267 347.583,173.767 350.5,175C 356.622,181.005 362.622,187.172 368.5,193.5C 369.793,194.158 371.293,194.492 373,194.5C 377.699,193.058 382.532,192.391 387.5,192.5C 378.688,194.999 370.022,197.999 361.5,201.5C 360.275,200.848 359.608,199.681 359.5,198C 359.993,195.941 360.66,193.941 361.5,192C 360.622,190.2 359.955,188.367 359.5,186.5C 356.54,187.759 353.54,189.092 350.5,190.5C 347.698,189.531 345.698,187.698 344.5,185C 347.453,184.108 350.119,184.608 352.5,186.5C 354.271,185.965 354.604,185.131 353.5,184C 344.135,183.732 334.802,183.065 325.5,182C 319.744,179.582 313.744,178.082 307.5,177.5C 306.486,176.235 304.986,175.569 303,175.5C 299.173,176.239 295.34,176.406 291.5,176C 290.887,173.853 290.221,171.686 289.5,169.5C 288.186,170.313 287.019,171.313 286,172.5C 284.701,172.034 283.201,172.034 281.5,172.5C 281.822,170.525 281.822,168.858 281.5,167.5C 284.847,165.236 288.514,162.569 292.5,159.5C 296.787,158.625 301.121,158.292 305.5,158.5 Z"/></g>
<g><path style="opacity:1" fill="#553291" d="M 382.5,167.5 C 382.5,173.167 382.5,178.833 382.5,184.5C 385.447,185.405 388.113,186.905 390.5,189C 399.227,188.859 407.56,189.692 415.5,191.5C 406.114,191.22 396.78,191.553 387.5,192.5C 382.532,192.391 377.699,193.058 373,194.5C 371.293,194.492 369.793,194.158 368.5,193.5C 369.833,193.5 371.167,193.5 372.5,193.5C 372.833,190.5 371.5,189.167 368.5,189.5C 368.421,188.07 368.754,186.736 369.5,185.5C 367.955,184.548 366.288,184.215 364.5,184.5C 364.5,175.833 364.5,167.167 364.5,158.5C 365.833,158.5 367.167,158.5 368.5,158.5C 368.5,160.5 368.5,162.5 368.5,164.5C 371.681,164.742 374.681,164.742 377.5,164.5C 378.94,165.952 380.606,166.952 382.5,167.5 Z"/></g>
<g><path style="opacity:1" fill="#703392" d="M 396.5,137.5 C 424.744,149.354 446.577,168.687 462,195.5C 465.558,203.003 468.224,211.003 470,219.5C 470.828,223.466 471.328,227.466 471.5,231.5C 470.698,232.952 470.198,234.618 470,236.5C 467.072,230.553 464.239,224.553 461.5,218.5C 462.865,216.409 463.532,214.076 463.5,211.5C 462.178,211.67 461.011,211.337 460,210.5C 458.978,206.593 457.478,202.926 455.5,199.5C 454.719,200.737 453.719,201.737 452.5,202.5C 450.368,199.199 448.035,196.032 445.5,193C 449.797,186.72 447.797,183.887 439.5,184.5C 439.5,183.167 439.5,181.833 439.5,180.5C 434.287,180.795 431.287,178.295 430.5,173C 429.551,172.383 428.718,172.549 428,173.5C 425.765,171.798 423.265,170.798 420.5,170.5C 420.67,169.178 420.337,168.011 419.5,167C 417.167,165.5 414.833,164 412.5,162.5C 411.833,162.833 411.167,163.167 410.5,163.5C 409.024,160.207 406.524,158.207 403,157.5C 402.667,157.833 402.333,158.167 402,158.5C 400.667,157.167 399.333,155.833 398,154.5C 393.81,154.045 389.643,152.545 385.5,150C 374.893,149.144 374.893,147.978 385.5,146.5C 381.367,145.533 377.2,145.533 373,146.5C 370.95,146.309 369.117,145.642 367.5,144.5C 365.929,145.309 364.262,145.643 362.5,145.5C 362.611,144.883 362.944,144.383 363.5,144C 361.699,143.683 361.366,143.016 362.5,142C 360.561,141.092 359.561,139.592 359.5,137.5C 362.704,135.7 366.37,134.7 370.5,134.5C 372.872,135.363 372.872,136.529 370.5,138C 374.16,138.547 377.827,139.047 381.5,139.5C 383.384,139.284 385.051,138.617 386.5,137.5C 389.248,138.813 392.081,139.813 395,140.5C 395.513,139.473 396.013,138.473 396.5,137.5 Z"/></g>
<g><path style="opacity:1" fill="#542f92" d="M 382.5,167.5 C 386.226,167.177 389.893,167.511 393.5,168.5C 399.66,172.808 405.994,176.975 412.5,181C 415.503,182.339 418.503,183.673 421.5,185C 422.634,186.016 422.301,186.683 420.5,187C 421.938,187.219 423.271,187.719 424.5,188.5C 422.353,190.663 419.686,191.663 416.5,191.5C 416.167,191.5 415.833,191.5 415.5,191.5C 407.56,189.692 399.227,188.859 390.5,189C 388.113,186.905 385.447,185.405 382.5,184.5C 382.5,178.833 382.5,173.167 382.5,167.5 Z"/></g>
<g><path style="opacity:1" fill="#5d4299" d="M 266.5,157.5 C 267.153,158.807 267.82,160.14 268.5,161.5C 265.157,163.486 263.824,166.486 264.5,170.5C 265.833,170.5 267.167,170.5 268.5,170.5C 268.67,169.178 268.337,168.011 267.5,167C 268.025,166.308 268.692,165.808 269.5,165.5C 273.288,167.256 277.288,167.922 281.5,167.5C 281.822,168.858 281.822,170.525 281.5,172.5C 283.201,172.034 284.701,172.034 286,172.5C 287.019,171.313 288.186,170.313 289.5,169.5C 290.221,171.686 290.887,173.853 291.5,176C 295.34,176.406 299.173,176.239 303,175.5C 304.986,175.569 306.486,176.235 307.5,177.5C 307.911,180.792 308.245,184.125 308.5,187.5C 311.167,187.5 313.833,187.5 316.5,187.5C 316.5,188.5 316.5,189.5 316.5,190.5C 320.302,189.88 323.635,190.714 326.5,193C 328.9,193.186 331.234,193.686 333.5,194.5C 327.872,195.495 322.206,195.829 316.5,195.5C 316.5,194.5 316.5,193.5 316.5,192.5C 310.813,191.976 305.146,191.31 299.5,190.5C 299.5,191.5 299.5,192.5 299.5,193.5C 302.247,193.187 304.914,193.52 307.5,194.5C 301.872,195.495 296.206,195.829 290.5,195.5C 290.5,194.5 290.5,193.5 290.5,192.5C 289.167,192.5 287.833,192.5 286.5,192.5C 285.572,189.87 284.572,187.204 283.5,184.5C 282.515,186.772 281.681,189.105 281,191.5C 278.667,190.167 276.333,190.167 274,191.5C 273.691,190.234 273.191,189.067 272.5,188C 268.411,187.859 264.411,187.692 260.5,187.5C 259.067,185.878 257.401,184.545 255.5,183.5C 256.511,180.498 256.344,177.498 255,174.5C 253.257,176.321 251.757,178.321 250.5,180.5C 247.853,180.929 245.853,182.262 244.5,184.5C 243.904,183.284 243.737,181.951 244,180.5C 243,182.167 241.667,183.5 240,184.5C 239.517,183.552 239.351,182.552 239.5,181.5C 247.627,171.658 256.627,163.658 266.5,157.5 Z"/></g>
<g><path style="opacity:1" fill="#604199" d="M 307.5,177.5 C 313.744,178.082 319.744,179.582 325.5,182C 334.802,183.065 344.135,183.732 353.5,184C 354.604,185.131 354.271,185.965 352.5,186.5C 350.119,184.608 347.453,184.108 344.5,185C 345.698,187.698 347.698,189.531 350.5,190.5C 353.54,189.092 356.54,187.759 359.5,186.5C 359.955,188.367 360.622,190.2 361.5,192C 360.66,193.941 359.993,195.941 359.5,198C 359.608,199.681 360.275,200.848 361.5,201.5C 360.833,202.167 360.167,202.833 359.5,203.5C 354.833,205.833 350.167,208.167 345.5,210.5C 344.5,210.5 343.5,210.5 342.5,210.5C 343.071,207.523 344.071,204.69 345.5,202C 344.552,201.517 343.552,201.351 342.5,201.5C 342.5,200.5 342.5,199.5 342.5,198.5C 336.669,198.204 330.836,197.871 325,197.5C 321.748,197.481 318.915,196.814 316.5,195.5C 322.206,195.829 327.872,195.495 333.5,194.5C 331.234,193.686 328.9,193.186 326.5,193C 323.635,190.714 320.302,189.88 316.5,190.5C 316.5,189.5 316.5,188.5 316.5,187.5C 313.833,187.5 311.167,187.5 308.5,187.5C 308.245,184.125 307.911,180.792 307.5,177.5 Z"/></g>
<g><path style="opacity:1" fill="#69bdeb" d="M 107.5,175.5 C 105.708,176.309 103.708,176.809 101.5,177C 103.985,180.243 107.319,181.909 111.5,182C 113.912,184.035 113.245,185.035 109.5,185C 110.833,185.667 110.833,186.333 109.5,187C 107.754,187.471 106.087,188.138 104.5,189C 105.416,189.278 106.082,189.778 106.5,190.5C 101.368,191.69 96.3678,193.19 91.5,195C 93.0441,195.29 94.3774,195.956 95.5,197C 91.0568,197.23 88.2234,199.397 87,203.5C 83.1332,205.36 80.7999,208.36 80,212.5C 77.1935,214.395 74.8602,216.728 73,219.5C 72.4674,223.853 72.8007,224.186 74,220.5C 76.1451,222.895 75.9784,225.062 73.5,227C 74.1667,228.333 74.8333,229.667 75.5,231C 72.6703,232.728 70.337,234.895 68.5,237.5C 68.8808,235.058 68.2141,234.391 66.5,235.5C 65.5481,233.955 65.2148,232.288 65.5,230.5C 66.5,230.5 67.5,230.5 68.5,230.5C 68.9625,225.838 69.4625,221.171 70,216.5C 71,214.833 72.3333,213.5 74,212.5C 74.7581,210.231 74.5914,208.064 73.5,206C 74.2546,203.825 75.088,201.659 76,199.5C 81.2995,196.036 86.4662,192.369 91.5,188.5C 90.7261,187.289 89.8928,187.289 89,188.5C 88.6827,186.699 88.016,186.366 87,187.5C 86.5172,186.552 86.3505,185.552 86.5,184.5C 88.0257,183.895 89.0257,182.729 89.5,181C 93.1117,179.85 96.7783,179.017 100.5,178.5C 100.5,177.5 100.5,176.5 100.5,175.5C 102.833,175.5 105.167,175.5 107.5,175.5 Z"/></g>
<g><path style="opacity:1" fill="#6bb4e3" d="M 116.5,166.5 C 124.085,167.568 131.085,169.235 137.5,171.5C 136.243,172.818 134.909,174.151 133.5,175.5C 131.899,174.835 130.399,174.501 129,174.5C 128.508,175.549 128.674,176.549 129.5,177.5C 128.975,178.192 128.308,178.692 127.5,179C 128.047,181.64 129.713,183.974 132.5,186C 131.692,186.308 131.025,186.808 130.5,187.5C 131.689,188.429 133.022,188.762 134.5,188.5C 134.384,192.633 135.884,195.966 139,198.5C 140.245,201.987 141.745,205.321 143.5,208.5C 142.61,209.955 142.61,211.289 143.5,212.5C 142.271,213.281 140.938,213.781 139.5,214C 140.056,214.383 140.389,214.883 140.5,215.5C 138.058,215.881 137.391,215.214 138.5,213.5C 136.171,212.229 135.005,210.229 135,207.5C 133.89,205.963 132.39,205.297 130.5,205.5C 130.676,201.808 129.009,199.808 125.5,199.5C 124.267,195.868 121.601,194.202 117.5,194.5C 117.439,191.95 116.106,190.45 113.5,190C 111.115,189.444 108.782,189.61 106.5,190.5C 106.082,189.778 105.416,189.278 104.5,189C 106.087,188.138 107.754,187.471 109.5,187C 110.833,186.333 110.833,185.667 109.5,185C 113.245,185.035 113.912,184.035 111.5,182C 107.319,181.909 103.985,180.243 101.5,177C 103.708,176.809 105.708,176.309 107.5,175.5C 108.531,176.355 109.697,177.022 111,177.5C 112.73,176.351 114.396,176.351 116,177.5C 117.489,176.576 117.656,175.576 116.5,174.5C 113.717,173.537 111.05,172.37 108.5,171C 111.363,169.738 114.03,168.238 116.5,166.5 Z"/></g>
<g><path style="opacity:1" fill="#5b469b" d="M 316.5,195.5 C 318.915,196.814 321.748,197.481 325,197.5C 330.836,197.871 336.669,198.204 342.5,198.5C 342.5,199.5 342.5,200.5 342.5,201.5C 343.552,201.351 344.552,201.517 345.5,202C 344.071,204.69 343.071,207.523 342.5,210.5C 343.5,210.5 344.5,210.5 345.5,210.5C 343.295,212.346 340.961,214.013 338.5,215.5C 335.348,214.959 332.848,215.959 331,218.5C 329.667,217.167 328.333,217.167 327,218.5C 325.748,215.986 325.248,213.32 325.5,210.5C 322.5,210.5 319.5,210.5 316.5,210.5C 316.5,207.5 316.5,204.5 316.5,201.5C 313.5,201.5 310.5,201.5 307.5,201.5C 307.5,199.833 307.5,198.167 307.5,196.5C 296.167,196.5 284.833,196.5 273.5,196.5C 273.688,194.897 273.188,193.563 272,192.5C 263.871,192.869 255.705,193.202 247.5,193.5C 247.5,194.833 247.5,196.167 247.5,197.5C 245.833,197.5 244.167,197.5 242.5,197.5C 242.5,196.167 242.5,194.833 242.5,193.5C 239.833,193.5 237.167,193.5 234.5,193.5C 235.899,189.824 237.232,186.158 238.5,182.5C 238.5,181.833 238.833,181.5 239.5,181.5C 239.351,182.552 239.517,183.552 240,184.5C 241.667,183.5 243,182.167 244,180.5C 243.737,181.951 243.904,183.284 244.5,184.5C 245.853,182.262 247.853,180.929 250.5,180.5C 251.757,178.321 253.257,176.321 255,174.5C 256.344,177.498 256.511,180.498 255.5,183.5C 257.401,184.545 259.067,185.878 260.5,187.5C 264.411,187.692 268.411,187.859 272.5,188C 273.191,189.067 273.691,190.234 274,191.5C 276.333,190.167 278.667,190.167 281,191.5C 281.681,189.105 282.515,186.772 283.5,184.5C 284.572,187.204 285.572,189.87 286.5,192.5C 287.833,192.5 289.167,192.5 290.5,192.5C 290.5,193.5 290.5,194.5 290.5,195.5C 296.206,195.829 301.872,195.495 307.5,194.5C 304.914,193.52 302.247,193.187 299.5,193.5C 299.5,192.5 299.5,191.5 299.5,190.5C 305.146,191.31 310.813,191.976 316.5,192.5C 316.5,193.5 316.5,194.5 316.5,195.5 Z"/></g>
<g><path style="opacity:1" fill="#58499e" d="M 338.5,215.5 C 332.414,220.423 325.747,224.423 318.5,227.5C 314.991,227.542 311.658,226.876 308.5,225.5C 308.323,223.019 309.323,221.186 311.5,220C 310.234,219.691 309.067,219.191 308,218.5C 307.503,215.854 307.336,213.187 307.5,210.5C 301.794,210.829 296.128,210.495 290.5,209.5C 287.321,208.411 284.655,206.577 282.5,204C 284.301,203.683 284.634,203.016 283.5,202C 277.175,201.5 270.842,201.334 264.5,201.5C 264.5,200.5 264.5,199.5 264.5,198.5C 258.667,199.949 253,199.616 247.5,197.5C 247.5,196.167 247.5,194.833 247.5,193.5C 255.705,193.202 263.871,192.869 272,192.5C 273.188,193.563 273.688,194.897 273.5,196.5C 284.833,196.5 296.167,196.5 307.5,196.5C 307.5,198.167 307.5,199.833 307.5,201.5C 310.5,201.5 313.5,201.5 316.5,201.5C 316.5,204.5 316.5,207.5 316.5,210.5C 319.5,210.5 322.5,210.5 325.5,210.5C 325.248,213.32 325.748,215.986 327,218.5C 328.333,217.167 329.667,217.167 331,218.5C 332.848,215.959 335.348,214.959 338.5,215.5 Z"/></g>
<g><path style="opacity:1" fill="#5a9ed5" d="M 137.5,171.5 C 141.355,173.286 145.355,174.786 149.5,176C 152.752,177.566 155.752,179.399 158.5,181.5C 155.472,181.79 153.472,183.457 152.5,186.5C 154.461,188.25 155.794,190.417 156.5,193C 155.707,195.432 155.374,197.766 155.5,200C 158.238,202.026 158.904,204.526 157.5,207.5C 158.415,210.087 159.415,212.587 160.5,215C 160.415,216.107 160.081,217.107 159.5,218C 160.357,218.689 161.023,219.522 161.5,220.5C 160.37,221.622 159.703,222.956 159.5,224.5C 153.64,222.437 147.64,220.77 141.5,219.5C 145.244,218.102 144.911,216.769 140.5,215.5C 140.389,214.883 140.056,214.383 139.5,214C 140.938,213.781 142.271,213.281 143.5,212.5C 142.61,211.289 142.61,209.955 143.5,208.5C 141.745,205.321 140.245,201.987 139,198.5C 135.884,195.966 134.384,192.633 134.5,188.5C 133.022,188.762 131.689,188.429 130.5,187.5C 131.025,186.808 131.692,186.308 132.5,186C 129.713,183.974 128.047,181.64 127.5,179C 128.308,178.692 128.975,178.192 129.5,177.5C 128.674,176.549 128.508,175.549 129,174.5C 130.399,174.501 131.899,174.835 133.5,175.5C 134.909,174.151 136.243,172.818 137.5,171.5 Z"/></g>
<g><path style="opacity:1" fill="#554da0" d="M 238.5,182.5 C 237.232,186.158 235.899,189.824 234.5,193.5C 237.167,193.5 239.833,193.5 242.5,193.5C 242.5,194.833 242.5,196.167 242.5,197.5C 244.167,197.5 245.833,197.5 247.5,197.5C 253,199.616 258.667,199.949 264.5,198.5C 264.5,199.5 264.5,200.5 264.5,201.5C 270.842,201.334 277.175,201.5 283.5,202C 284.634,203.016 284.301,203.683 282.5,204C 284.655,206.577 287.321,208.411 290.5,209.5C 296.128,210.495 301.794,210.829 307.5,210.5C 307.336,213.187 307.503,215.854 308,218.5C 309.067,219.191 310.234,219.691 311.5,220C 309.323,221.186 308.323,223.019 308.5,225.5C 311.658,226.876 314.991,227.542 318.5,227.5C 318.092,228.643 317.425,229.643 316.5,230.5C 310.841,234.171 305.508,238.171 300.5,242.5C 297.994,241.25 295.327,240.584 292.5,240.5C 292.33,239.178 292.663,238.011 293.5,237C 292.552,236.517 291.552,236.351 290.5,236.5C 290.5,237.5 290.5,238.5 290.5,239.5C 288.058,239.646 287.391,238.813 288.5,237C 286.527,236.505 284.527,236.338 282.5,236.5C 282.703,234.61 282.037,233.11 280.5,232C 278.697,231.363 277.364,230.197 276.5,228.5C 275.264,227.754 273.93,227.421 272.5,227.5C 272.723,224.886 271.556,223.219 269,222.5C 268.071,217.575 266.404,217.242 264,221.5C 260.473,214.665 254.973,210.665 247.5,209.5C 247.5,208.5 247.5,207.5 247.5,206.5C 246.127,206.657 244.793,206.49 243.5,206C 242.274,204.365 240.941,202.865 239.5,201.5C 238.833,202.167 238.167,202.833 237.5,203.5C 236.618,202.24 235.618,201.074 234.5,200C 231.407,199.93 228.407,200.264 225.5,201C 226.928,198.815 228.595,196.815 230.5,195C 229.619,194.292 228.953,193.458 228.5,192.5C 231.5,188.833 234.833,185.5 238.5,182.5 Z"/></g>
<g><path style="opacity:1" fill="#321b6d" d="M 450.5,213.5 C 449.21,214.058 448.377,215.058 448,216.5C 447.481,215.484 446.647,214.818 445.5,214.5C 440.416,213.418 435.416,212.084 430.5,210.5C 429.328,210.919 428.328,211.585 427.5,212.5C 414.054,210.974 400.554,209.974 387,209.5C 385.97,209.836 385.47,210.503 385.5,211.5C 385.19,213.144 384.19,214.144 382.5,214.5C 381.922,210.469 380.088,207.136 377,204.5C 376.51,203.207 376.343,201.873 376.5,200.5C 385.76,196.997 395.427,195.33 405.5,195.5C 411.5,196 417.5,196.5 423.5,197C 433.244,200.056 442.077,204.89 450,211.5C 450.464,212.094 450.631,212.761 450.5,213.5 Z"/></g>
<g><path style="opacity:1" fill="#33b7e9" d="M 116.5,166.5 C 114.03,168.238 111.363,169.738 108.5,171C 111.05,172.37 113.717,173.537 116.5,174.5C 117.656,175.576 117.489,176.576 116,177.5C 114.396,176.351 112.73,176.351 111,177.5C 109.697,177.022 108.531,176.355 107.5,175.5C 105.167,175.5 102.833,175.5 100.5,175.5C 100.5,176.5 100.5,177.5 100.5,178.5C 96.7783,179.017 93.1117,179.85 89.5,181C 89.0257,182.729 88.0257,183.895 86.5,184.5C 83.8333,184.5 81.1667,184.5 78.5,184.5C 78.8333,187.5 77.5,188.833 74.5,188.5C 74.7135,190.144 74.3802,191.644 73.5,193C 70.9402,192.562 68.4402,192.729 66,193.5C 65.6667,197.5 65.3333,201.5 65,205.5C 63.3866,204.378 62.2199,204.878 61.5,207C 60.451,207.492 59.451,207.326 58.5,206.5C 57.5,206.833 56.8333,207.5 56.5,208.5C 57.5175,209.852 58.8508,210.852 60.5,211.5C 59.3595,212.425 59.3595,213.259 60.5,214C 59.2298,214.9 58.2298,216.066 57.5,217.5C 55.0843,216.681 54.9176,217.348 57,219.5C 58.01,225.064 57.3433,230.398 55,235.5C 54.6667,234.833 54.3333,234.167 54,233.5C 53.8333,234.667 53.6667,235.833 53.5,237C 55.346,240.843 56.6793,245.01 57.5,249.5C 58.1818,248.757 58.8485,248.091 59.5,247.5C 58.4748,250.575 57.4748,253.575 56.5,256.5C 55.5,256.5 54.5,256.5 53.5,256.5C 52.7503,252.565 51.2503,248.898 49,245.5C 48.6667,247.167 48.3333,248.833 48,250.5C 46.3333,249.167 44.6667,247.833 43,246.5C 35.7277,246.687 28.561,248.021 21.5,250.5C 21.6287,252.216 21.962,253.883 22.5,255.5C 21.8826,255.611 21.3826,255.944 21,256.5C 20.1826,250.984 20.3493,245.65 21.5,240.5C 22.2679,239.737 22.7679,238.737 23,237.5C 27.9111,238.927 32.7444,238.594 37.5,236.5C 38.3958,233.856 39.2291,231.19 40,228.5C 42.3004,231.651 44.467,231.818 46.5,229C 47.741,221.36 50.241,214.194 54,207.5C 54.7504,206.874 55.5838,206.374 56.5,206C 56.201,204.68 56.0343,203.18 56,201.5C 54.907,203.349 53.5737,205.016 52,206.5C 51.7398,204.382 50.7398,202.716 49,201.5C 48.3333,197.5 48.3333,193.5 49,189.5C 50.6255,189.146 52.4588,189.146 54.5,189.5C 54.2837,191.681 55.117,193.347 57,194.5C 59.0408,193.577 61.2075,193.244 63.5,193.5C 63.7233,190.216 64.3899,187.049 65.5,184C 63.8925,184.019 62.2259,184.185 60.5,184.5C 59.969,187.237 59.1356,189.904 58,192.5C 57.6667,190.833 57.3333,189.167 57,187.5C 56.6667,187.833 56.3333,188.167 56,188.5C 55.5,187.5 55,186.5 54.5,185.5C 56.4882,183.292 58.8215,181.625 61.5,180.5C 63.5,178.5 65.5,176.5 67.5,174.5C 69.1288,173.375 70.6288,172.041 72,170.5C 74.7292,169.475 77.7292,169.475 81,170.5C 81.3742,169.584 81.8742,168.75 82.5,168C 93.7469,165.446 105.08,164.946 116.5,166.5 Z"/></g>
<g><path style="opacity:1" fill="#5bbcea" d="M 86.5,184.5 C 86.3505,185.552 86.5172,186.552 87,187.5C 88.016,186.366 88.6827,186.699 89,188.5C 89.8928,187.289 90.7261,187.289 91.5,188.5C 86.4662,192.369 81.2995,196.036 76,199.5C 75.088,201.659 74.2546,203.825 73.5,206C 74.5914,208.064 74.7581,210.231 74,212.5C 72.3333,213.5 71,214.833 70,216.5C 69.4625,221.171 68.9625,225.838 68.5,230.5C 67.5,230.5 66.5,230.5 65.5,230.5C 65.2148,232.288 65.5481,233.955 66.5,235.5C 68.2141,234.391 68.8808,235.058 68.5,237.5C 67.2905,237.932 66.2905,238.599 65.5,239.5C 65.7852,241.288 65.4519,242.955 64.5,244.5C 62.4908,245.065 60.8241,246.065 59.5,247.5C 58.8485,248.091 58.1818,248.757 57.5,249.5C 56.6793,245.01 55.346,240.843 53.5,237C 53.6667,235.833 53.8333,234.667 54,233.5C 54.3333,234.167 54.6667,234.833 55,235.5C 57.3433,230.398 58.01,225.064 57,219.5C 54.9176,217.348 55.0843,216.681 57.5,217.5C 58.2298,216.066 59.2298,214.9 60.5,214C 59.3595,213.259 59.3595,212.425 60.5,211.5C 58.8508,210.852 57.5175,209.852 56.5,208.5C 56.8333,207.5 57.5,206.833 58.5,206.5C 59.451,207.326 60.451,207.492 61.5,207C 62.2199,204.878 63.3866,204.378 65,205.5C 65.3333,201.5 65.6667,197.5 66,193.5C 68.4402,192.729 70.9402,192.562 73.5,193C 74.3802,191.644 74.7135,190.144 74.5,188.5C 77.5,188.833 78.8333,187.5 78.5,184.5C 81.1667,184.5 83.8333,184.5 86.5,184.5 Z"/></g>
<g><path style="opacity:1" fill="#693293" d="M 461.5,218.5 C 458.071,213.236 453.738,208.736 448.5,205C 443.649,201.885 438.649,199.052 433.5,196.5C 434.287,194.896 435.62,194.229 437.5,194.5C 437.5,193.5 437.5,192.5 437.5,191.5C 434.833,191.5 432.167,191.5 429.5,191.5C 429.5,190.5 429.5,189.5 429.5,188.5C 432.247,188.813 434.914,188.48 437.5,187.5C 436.675,186.614 435.675,186.281 434.5,186.5C 433.048,185.698 431.382,185.198 429.5,185C 430.5,184.667 431.5,184.333 432.5,184C 425.513,179.867 419.18,174.701 413.5,168.5C 410.46,167.625 407.46,166.625 404.5,165.5C 396.968,158.537 387.968,154.871 377.5,154.5C 376.754,153.264 376.421,151.93 376.5,150.5C 371.905,149.352 367.238,148.519 362.5,148C 360.158,146.608 360.158,145.775 362.5,145.5C 364.262,145.643 365.929,145.309 367.5,144.5C 369.117,145.642 370.95,146.309 373,146.5C 377.2,145.533 381.367,145.533 385.5,146.5C 374.893,147.978 374.893,149.144 385.5,150C 389.643,152.545 393.81,154.045 398,154.5C 399.333,155.833 400.667,157.167 402,158.5C 402.333,158.167 402.667,157.833 403,157.5C 406.524,158.207 409.024,160.207 410.5,163.5C 411.167,163.167 411.833,162.833 412.5,162.5C 414.833,164 417.167,165.5 419.5,167C 420.337,168.011 420.67,169.178 420.5,170.5C 423.265,170.798 425.765,171.798 428,173.5C 428.718,172.549 429.551,172.383 430.5,173C 431.287,178.295 434.287,180.795 439.5,180.5C 439.5,181.833 439.5,183.167 439.5,184.5C 447.797,183.887 449.797,186.72 445.5,193C 448.035,196.032 450.368,199.199 452.5,202.5C 453.719,201.737 454.719,200.737 455.5,199.5C 457.478,202.926 458.978,206.593 460,210.5C 461.011,211.337 462.178,211.67 463.5,211.5C 463.532,214.076 462.865,216.409 461.5,218.5 Z"/></g>
<g><path style="opacity:1" fill="#3e247a" d="M 450.5,213.5 C 451.675,213.281 452.675,213.614 453.5,214.5C 455.843,217.862 458.176,221.196 460.5,224.5C 460.851,226.869 461.018,229.203 461,231.5C 459.33,227.943 457.164,227.609 454.5,230.5C 450.871,228.349 447.204,226.182 443.5,224C 436.578,223.597 430.078,222.097 424,219.5C 414.077,218.851 404.244,218.185 394.5,217.5C 394.5,216.5 394.5,215.5 394.5,214.5C 391.634,213.241 388.634,212.241 385.5,211.5C 385.47,210.503 385.97,209.836 387,209.5C 400.554,209.974 414.054,210.974 427.5,212.5C 428.328,211.585 429.328,210.919 430.5,210.5C 435.416,212.084 440.416,213.418 445.5,214.5C 446.647,214.818 447.481,215.484 448,216.5C 448.377,215.058 449.21,214.058 450.5,213.5 Z"/></g>
<g><path style="opacity:1" fill="#96ceed" d="M 134.5,218.5 C 126.826,218.334 119.159,218.5 111.5,219C 103.914,219.968 96.5803,221.802 89.5,224.5C 90.5981,223.603 90.5981,222.77 89.5,222C 91.6193,221.902 93.286,221.069 94.5,219.5C 93.675,218.614 92.675,218.281 91.5,218.5C 91.5,217.5 91.5,216.5 91.5,215.5C 93.1992,215.66 94.8659,215.494 96.5,215C 95.5,214.667 94.5,214.333 93.5,214C 95.5466,212.927 97.5466,211.761 99.5,210.5C 102.225,212.429 105.225,212.929 108.5,212C 107.167,211.667 105.833,211.333 104.5,211C 111.899,210.173 117.232,210.34 120.5,211.5C 120.5,212.5 120.5,213.5 120.5,214.5C 124.5,214.5 128.5,214.5 132.5,214.5C 132.527,216.199 133.194,217.533 134.5,218.5 Z"/></g>
<g><path style="opacity:1" fill="#236ab2" d="M 176.5,193.5 C 180.134,196.917 184.301,200.584 189,204.5C 190.094,206.078 190.928,207.745 191.5,209.5C 190.761,209.369 190.094,209.536 189.5,210C 190.516,210.519 191.182,211.353 191.5,212.5C 191.464,215.13 191.464,217.797 191.5,220.5C 190.054,222.618 189.387,224.951 189.5,227.5C 187.654,227.222 186.32,227.889 185.5,229.5C 186.747,231.042 186.747,232.542 185.5,234C 186.381,234.708 187.047,235.542 187.5,236.5C 185.955,238.805 183.955,239.138 181.5,237.5C 179.973,237.573 178.973,236.906 178.5,235.5C 180.337,235.361 180.67,234.694 179.5,233.5C 174.975,229.808 170.308,226.308 165.5,223C 166.793,222.51 168.127,222.343 169.5,222.5C 169.617,220.516 168.95,218.85 167.5,217.5C 168.383,216.452 169.05,215.285 169.5,214C 169.217,209.941 169.217,205.774 169.5,201.5C 172.187,201.664 174.854,201.497 177.5,201C 174.813,200.659 172.813,199.326 171.5,197C 173.167,196.667 174.833,196.333 176.5,196C 175.226,195.023 175.226,194.189 176.5,193.5 Z"/></g>
<g><path style="opacity:1" fill="#5256a6" d="M 228.5,192.5 C 228.953,193.458 229.619,194.292 230.5,195C 228.595,196.815 226.928,198.815 225.5,201C 228.407,200.264 231.407,199.93 234.5,200C 235.618,201.074 236.618,202.24 237.5,203.5C 238.167,202.833 238.833,202.167 239.5,201.5C 240.941,202.865 242.274,204.365 243.5,206C 244.793,206.49 246.127,206.657 247.5,206.5C 247.5,207.5 247.5,208.5 247.5,209.5C 254.973,210.665 260.473,214.665 264,221.5C 266.404,217.242 268.071,217.575 269,222.5C 271.556,223.219 272.723,224.886 272.5,227.5C 273.93,227.421 275.264,227.754 276.5,228.5C 277.364,230.197 278.697,231.363 280.5,232C 282.037,233.11 282.703,234.61 282.5,236.5C 284.527,236.338 286.527,236.505 288.5,237C 287.391,238.813 288.058,239.646 290.5,239.5C 290.5,238.5 290.5,237.5 290.5,236.5C 291.552,236.351 292.552,236.517 293.5,237C 292.663,238.011 292.33,239.178 292.5,240.5C 295.327,240.584 297.994,241.25 300.5,242.5C 300.5,243.833 300.5,245.167 300.5,246.5C 299.844,245.722 299.011,245.056 298,244.5C 296.756,246.576 294.923,247.576 292.5,247.5C 291.969,250.779 289.969,252.113 286.5,251.5C 286.737,252.791 286.404,253.791 285.5,254.5C 284.127,254.657 282.793,254.49 281.5,254C 280.488,250.328 278.155,248.995 274.5,250C 276.595,250.556 276.762,251.056 275,251.5C 273.274,251.054 271.774,250.221 270.5,249C 271.167,248.667 271.833,248.333 272.5,248C 269.888,245.849 269.888,245.015 272.5,245.5C 273.521,244.998 273.688,244.332 273,243.5C 269.897,241.697 267.063,239.53 264.5,237C 263.167,236.333 261.833,236.333 260.5,237C 260.833,237.333 261.167,237.667 261.5,238C 259.741,238.798 258.074,238.631 256.5,237.5C 255.687,236.186 254.687,235.019 253.5,234C 254.517,232.951 254.684,231.784 254,230.5C 253.667,231.167 253.333,231.833 253,232.5C 250.137,228.312 247.303,224.146 244.5,220C 242.579,219.64 240.912,218.806 239.5,217.5C 238.672,218.415 237.672,219.081 236.5,219.5C 234.547,218.844 232.547,218.511 230.5,218.5C 230.5,217.167 230.5,215.833 230.5,214.5C 227.664,213.224 224.664,212.558 221.5,212.5C 221.768,214.099 221.434,215.432 220.5,216.5C 219.778,216.082 219.278,215.416 219,214.5C 216.976,216.884 214.809,217.051 212.5,215C 214.213,213.622 215.547,211.955 216.5,210C 215.956,209.283 215.289,208.783 214.5,208.5C 216.398,205.94 218.231,203.273 220,200.5C 221.067,199.809 222.234,199.309 223.5,199C 224.582,196.313 226.249,194.146 228.5,192.5 Z"/></g>
<g><path style="opacity:1" fill="#4487c5" d="M 158.5,181.5 C 160.229,182.117 161.729,183.117 163,184.5C 163.333,184.167 163.667,183.833 164,183.5C 164.465,184.931 165.299,186.097 166.5,187C 170.036,188.929 173.369,191.096 176.5,193.5C 175.226,194.189 175.226,195.023 176.5,196C 174.833,196.333 173.167,196.667 171.5,197C 172.813,199.326 174.813,200.659 177.5,201C 174.854,201.497 172.187,201.664 169.5,201.5C 169.217,205.774 169.217,209.941 169.5,214C 169.05,215.285 168.383,216.452 167.5,217.5C 168.95,218.85 169.617,220.516 169.5,222.5C 168.127,222.343 166.793,222.51 165.5,223C 170.308,226.308 174.975,229.808 179.5,233.5C 180.67,234.694 180.337,235.361 178.5,235.5C 173.419,232.442 168.086,229.775 162.5,227.5C 161.712,226.23 160.712,225.23 159.5,224.5C 159.703,222.956 160.37,221.622 161.5,220.5C 161.023,219.522 160.357,218.689 159.5,218C 160.081,217.107 160.415,216.107 160.5,215C 159.415,212.587 158.415,210.087 157.5,207.5C 158.904,204.526 158.238,202.026 155.5,200C 155.374,197.766 155.707,195.432 156.5,193C 155.794,190.417 154.461,188.25 152.5,186.5C 153.472,183.457 155.472,181.79 158.5,181.5 Z"/></g>
<g><path style="opacity:1" fill="#80c3eb" d="M 140.5,215.5 C 144.911,216.769 145.244,218.102 141.5,219.5C 139.194,219.007 136.861,218.674 134.5,218.5C 133.194,217.533 132.527,216.199 132.5,214.5C 128.5,214.5 124.5,214.5 120.5,214.5C 120.5,213.5 120.5,212.5 120.5,211.5C 117.232,210.34 111.899,210.173 104.5,211C 105.833,211.333 107.167,211.667 108.5,212C 105.225,212.929 102.225,212.429 99.5,210.5C 97.5466,211.761 95.5466,212.927 93.5,214C 94.5,214.333 95.5,214.667 96.5,215C 94.8659,215.494 93.1992,215.66 91.5,215.5C 91.5,216.5 91.5,217.5 91.5,218.5C 92.675,218.281 93.675,218.614 94.5,219.5C 93.286,221.069 91.6193,221.902 89.5,222C 90.5981,222.77 90.5981,223.603 89.5,224.5C 88.9717,225.721 88.305,226.887 87.5,228C 80.8288,230.843 75.1622,235.01 70.5,240.5C 68.8828,239.962 67.2161,239.629 65.5,239.5C 66.2905,238.599 67.2905,237.932 68.5,237.5C 70.337,234.895 72.6703,232.728 75.5,231C 74.8333,229.667 74.1667,228.333 73.5,227C 75.9784,225.062 76.1451,222.895 74,220.5C 72.8007,224.186 72.4674,223.853 73,219.5C 74.8602,216.728 77.1935,214.395 80,212.5C 80.7999,208.36 83.1332,205.36 87,203.5C 88.2234,199.397 91.0568,197.23 95.5,197C 94.3774,195.956 93.0441,195.29 91.5,195C 96.3678,193.19 101.368,191.69 106.5,190.5C 108.782,189.61 111.115,189.444 113.5,190C 116.106,190.45 117.439,191.95 117.5,194.5C 121.601,194.202 124.267,195.868 125.5,199.5C 129.009,199.808 130.676,201.808 130.5,205.5C 132.39,205.297 133.89,205.963 135,207.5C 135.005,210.229 136.171,212.229 138.5,213.5C 137.391,215.214 138.058,215.881 140.5,215.5 Z"/></g>
<g><path style="opacity:1" fill="#4f61ad" d="M 214.5,208.5 C 215.289,208.783 215.956,209.283 216.5,210C 215.547,211.955 214.213,213.622 212.5,215C 214.809,217.051 216.976,216.884 219,214.5C 219.278,215.416 219.778,216.082 220.5,216.5C 224.257,217.632 227.59,220.132 230.5,224C 233.433,225.04 236.099,226.54 238.5,228.5C 240.269,230.557 242.269,232.39 244.5,234C 244.234,237.201 245.4,237.367 248,234.5C 251.676,239.342 255.842,243.675 260.5,247.5C 264.904,249.106 268.904,251.273 272.5,254C 273.693,256.87 274.693,259.704 275.5,262.5C 275.158,263.338 274.492,263.672 273.5,263.5C 270.801,263.534 268.301,262.867 266,261.5C 265.517,262.448 265.351,263.448 265.5,264.5C 263.857,264.52 262.524,263.853 261.5,262.5C 260.748,259.737 259.748,257.07 258.5,254.5C 257.675,253.614 256.675,253.281 255.5,253.5C 255.798,256.336 255.131,256.836 253.5,255C 253.833,254.667 254.167,254.333 254.5,254C 250.526,249.374 245.526,246.374 239.5,245C 236.097,240.412 231.763,237.245 226.5,235.5C 225.5,233.833 224.167,232.5 222.5,231.5C 221.534,229.604 221.201,227.604 221.5,225.5C 217.889,225.044 214.556,225.711 211.5,227.5C 210.548,225.955 210.215,224.288 210.5,222.5C 209.5,222.5 208.5,222.5 207.5,222.5C 207.843,220.517 207.176,219.183 205.5,218.5C 208.454,215.208 211.454,211.875 214.5,208.5 Z"/></g>
<g><path style="opacity:0.825" fill="#786bb0" d="M 366.5,204.5 C 362.044,206.892 357.377,209.058 352.5,211C 334.979,223.493 317.645,235.326 300.5,246.5C 300.5,245.167 300.5,243.833 300.5,242.5C 305.508,238.171 310.841,234.171 316.5,230.5C 317.425,229.643 318.092,228.643 318.5,227.5C 325.747,224.423 332.414,220.423 338.5,215.5C 340.961,214.013 343.295,212.346 345.5,210.5C 350.167,208.167 354.833,205.833 359.5,203.5C 361.675,203.318 363.675,202.651 365.5,201.5C 368.028,202.169 368.028,203.002 365.5,204C 365.728,204.399 366.062,204.565 366.5,204.5 Z"/></g>
<g><path style="opacity:1" fill="#4a2d85" d="M 385.5,211.5 C 388.634,212.241 391.634,213.241 394.5,214.5C 394.5,215.5 394.5,216.5 394.5,217.5C 404.244,218.185 414.077,218.851 424,219.5C 430.078,222.097 436.578,223.597 443.5,224C 447.204,226.182 450.871,228.349 454.5,230.5C 457.164,227.609 459.33,227.943 461,231.5C 461.018,229.203 460.851,226.869 460.5,224.5C 464.007,229.847 465.674,235.847 465.5,242.5C 465.5,243.167 465.5,243.833 465.5,244.5C 463.824,243.817 463.157,242.483 463.5,240.5C 455.178,240.058 447.178,238.224 439.5,235C 431.956,234.544 424.789,232.711 418,229.5C 416.221,230.479 414.555,230.146 413,228.5C 410.054,230.361 406.887,230.861 403.5,230C 398.496,227.5 393.829,224.5 389.5,221C 388.207,220.51 386.873,220.343 385.5,220.5C 385.657,219.127 385.49,217.793 385,216.5C 383.692,217.151 382.859,216.485 382.5,214.5C 384.19,214.144 385.19,213.144 385.5,211.5 Z"/></g>
<g><path style="opacity:1" fill="#4a67b1" d="M 205.5,218.5 C 207.176,219.183 207.843,220.517 207.5,222.5C 208.5,222.5 209.5,222.5 210.5,222.5C 210.215,224.288 210.548,225.955 211.5,227.5C 214.556,225.711 217.889,225.044 221.5,225.5C 221.201,227.604 221.534,229.604 222.5,231.5C 224.167,232.5 225.5,233.833 226.5,235.5C 231.763,237.245 236.097,240.412 239.5,245C 245.526,246.374 250.526,249.374 254.5,254C 254.167,254.333 253.833,254.667 253.5,255C 255.131,256.836 255.798,256.336 255.5,253.5C 256.675,253.281 257.675,253.614 258.5,254.5C 259.748,257.07 260.748,259.737 261.5,262.5C 262.524,263.853 263.857,264.52 265.5,264.5C 265.351,263.448 265.517,262.448 266,261.5C 268.301,262.867 270.801,263.534 273.5,263.5C 267.657,270.095 260.99,275.762 253.5,280.5C 252.167,280.833 250.833,281.167 249.5,281.5C 250.058,280.21 251.058,279.377 252.5,279C 252.167,278.667 251.833,278.333 251.5,278C 252.448,277.517 253.448,277.351 254.5,277.5C 254.616,274.09 252.95,272.756 249.5,273.5C 249.5,272.5 249.5,271.5 249.5,270.5C 254.067,270.726 254.4,269.226 250.5,266C 247.433,263.307 243.766,261.973 239.5,262C 238.391,259.117 236.724,256.617 234.5,254.5C 233.311,253.571 231.978,253.238 230.5,253.5C 230.5,252.167 230.5,250.833 230.5,249.5C 227.545,248.841 224.545,248.508 221.5,248.5C 220.473,244.783 218.639,241.45 216,238.5C 218.028,245.584 220.195,252.751 222.5,260C 222,260.5 221.5,261 221,261.5C 219.275,260.536 217.441,259.869 215.5,259.5C 213.468,258.952 212.468,257.619 212.5,255.5C 207.553,253.342 203.219,250.175 199.5,246C 197.116,244.098 194.449,242.931 191.5,242.5C 191.523,240.073 192.023,237.74 193,235.5C 198.575,230.774 202.742,225.107 205.5,218.5 Z"/></g>
<g><path style="opacity:1" fill="#19baed" d="M 61.5,180.5 C 58.8215,181.625 56.4882,183.292 54.5,185.5C 55,186.5 55.5,187.5 56,188.5C 56.3333,188.167 56.6667,187.833 57,187.5C 57.3333,189.167 57.6667,190.833 58,192.5C 59.1356,189.904 59.969,187.237 60.5,184.5C 62.2259,184.185 63.8925,184.019 65.5,184C 64.3899,187.049 63.7233,190.216 63.5,193.5C 61.2075,193.244 59.0408,193.577 57,194.5C 55.117,193.347 54.2837,191.681 54.5,189.5C 52.4588,189.146 50.6255,189.146 49,189.5C 48.3333,193.5 48.3333,197.5 49,201.5C 50.7398,202.716 51.7398,204.382 52,206.5C 53.5737,205.016 54.907,203.349 56,201.5C 56.0343,203.18 56.201,204.68 56.5,206C 55.5838,206.374 54.7504,206.874 54,207.5C 50.241,214.194 47.741,221.36 46.5,229C 44.467,231.818 42.3004,231.651 40,228.5C 39.2291,231.19 38.3958,233.856 37.5,236.5C 32.7444,238.594 27.9111,238.927 23,237.5C 22.7679,238.737 22.2679,239.737 21.5,240.5C 22.4346,234.125 23.6013,227.791 25,221.5C 28.8365,215.16 32.1698,208.494 35,201.5C 39.679,196.321 44.5124,191.321 49.5,186.5C 52.1963,185.149 54.5296,183.316 56.5,181C 58.1341,180.506 59.8008,180.34 61.5,180.5 Z"/></g>
<g><path style="opacity:1" fill="#505baa" d="M 285.5,254.5 C 281.878,256.787 278.545,259.453 275.5,262.5C 274.693,259.704 273.693,256.87 272.5,254C 268.904,251.273 264.904,249.106 260.5,247.5C 255.842,243.675 251.676,239.342 248,234.5C 245.4,237.367 244.234,237.201 244.5,234C 242.269,232.39 240.269,230.557 238.5,228.5C 236.099,226.54 233.433,225.04 230.5,224C 227.59,220.132 224.257,217.632 220.5,216.5C 221.434,215.432 221.768,214.099 221.5,212.5C 224.664,212.558 227.664,213.224 230.5,214.5C 230.5,215.833 230.5,217.167 230.5,218.5C 232.547,218.511 234.547,218.844 236.5,219.5C 237.672,219.081 238.672,218.415 239.5,217.5C 240.912,218.806 242.579,219.64 244.5,220C 247.303,224.146 250.137,228.312 253,232.5C 253.333,231.833 253.667,231.167 254,230.5C 254.684,231.784 254.517,232.951 253.5,234C 254.687,235.019 255.687,236.186 256.5,237.5C 258.074,238.631 259.741,238.798 261.5,238C 261.167,237.667 260.833,237.333 260.5,237C 261.833,236.333 263.167,236.333 264.5,237C 267.063,239.53 269.897,241.697 273,243.5C 273.688,244.332 273.521,244.998 272.5,245.5C 269.888,245.015 269.888,245.849 272.5,248C 271.833,248.333 271.167,248.667 270.5,249C 271.774,250.221 273.274,251.054 275,251.5C 276.762,251.056 276.595,250.556 274.5,250C 278.155,248.995 280.488,250.328 281.5,254C 282.793,254.49 284.127,254.657 285.5,254.5 Z"/></g>
<g><path style="opacity:1" fill="#1c4996" d="M 191.5,209.5 C 195.191,212.708 198.524,215.542 201.5,218C 202.252,218.671 202.586,219.504 202.5,220.5C 198.688,226.046 194.354,231.379 189.5,236.5C 188.833,236.5 188.167,236.5 187.5,236.5C 187.047,235.542 186.381,234.708 185.5,234C 186.747,232.542 186.747,231.042 185.5,229.5C 186.32,227.889 187.654,227.222 189.5,227.5C 189.387,224.951 190.054,222.618 191.5,220.5C 191.464,217.797 191.464,215.13 191.5,212.5C 191.182,211.353 190.516,210.519 189.5,210C 190.094,209.536 190.761,209.369 191.5,209.5 Z"/></g>
<g><path style="opacity:1" fill="#50368e" d="M 376.5,200.5 C 376.343,201.873 376.51,203.207 377,204.5C 380.088,207.136 381.922,210.469 382.5,214.5C 382.859,216.485 383.692,217.151 385,216.5C 385.49,217.793 385.657,219.127 385.5,220.5C 386.873,220.343 388.207,220.51 389.5,221C 393.829,224.5 398.496,227.5 403.5,230C 406.887,230.861 410.054,230.361 413,228.5C 414.555,230.146 416.221,230.479 418,229.5C 424.789,232.711 431.956,234.544 439.5,235C 447.178,238.224 455.178,240.058 463.5,240.5C 463.157,242.483 463.824,243.817 465.5,244.5C 465.695,248.915 465.195,253.249 464,257.5C 462.782,255.981 461.282,254.814 459.5,254C 459.833,253.667 460.167,253.333 460.5,253C 453.481,252.743 447.148,250.743 441.5,247C 438.447,246.821 435.447,246.321 432.5,245.5C 434.078,244.702 435.744,244.202 437.5,244C 434.24,243.216 431.073,243.383 428,244.5C 426.184,243.671 424.351,242.837 422.5,242C 413.068,240.983 403.735,239.317 394.5,237C 395.214,235.657 394.88,234.324 393.5,233C 394.406,231.301 394.739,229.467 394.5,227.5C 390.124,228.148 387.124,226.482 385.5,222.5C 384.749,223.376 384.249,224.376 384,225.5C 383.667,223.5 383.333,221.5 383,219.5C 381.989,218.663 380.822,218.33 379.5,218.5C 376.759,214.597 374.759,210.264 373.5,205.5C 373.5,203.833 373.5,202.167 373.5,200.5C 374.5,200.5 375.5,200.5 376.5,200.5 Z"/></g>
<g><path style="opacity:1" fill="#584599" d="M 379.5,218.5 C 380.822,218.33 381.989,218.663 383,219.5C 383.333,221.5 383.667,223.5 384,225.5C 384.249,224.376 384.749,223.376 385.5,222.5C 387.124,226.482 390.124,228.148 394.5,227.5C 394.739,229.467 394.406,231.301 393.5,233C 394.88,234.324 395.214,235.657 394.5,237C 403.735,239.317 413.068,240.983 422.5,242C 424.351,242.837 426.184,243.671 428,244.5C 431.073,243.383 434.24,243.216 437.5,244C 435.744,244.202 434.078,244.702 432.5,245.5C 435.447,246.321 438.447,246.821 441.5,247C 447.148,250.743 453.481,252.743 460.5,253C 460.167,253.333 459.833,253.667 459.5,254C 461.282,254.814 462.782,255.981 464,257.5C 465.195,253.249 465.695,248.915 465.5,244.5C 465.5,243.833 465.5,243.167 465.5,242.5C 466.649,251.011 466.649,259.677 465.5,268.5C 464.691,266.708 464.191,264.708 464,262.5C 463.517,263.448 463.351,264.448 463.5,265.5C 462.5,265.5 461.5,265.5 460.5,265.5C 460.5,264.5 460.5,263.5 460.5,262.5C 458.516,262.383 456.85,263.05 455.5,264.5C 453.609,262.984 451.609,261.65 449.5,260.5C 442.528,258.905 435.528,257.572 428.5,256.5C 428.5,255.5 428.5,254.5 428.5,253.5C 419.965,253.165 411.632,251.999 403.5,250C 401.007,247.92 398.341,246.086 395.5,244.5C 394.692,246.423 394.192,248.423 394,250.5C 392.88,245.636 391.046,241.136 388.5,237C 389.601,234.708 388.768,233.208 386,232.5C 385.667,230.5 385.333,228.5 385,226.5C 384.578,228.426 383.411,229.426 381.5,229.5C 380.358,225.929 379.691,222.262 379.5,218.5 Z"/></g>
<g><path style="opacity:1" fill="#4777bd" d="M 205.5,218.5 C 202.742,225.107 198.575,230.774 193,235.5C 192.023,237.74 191.523,240.073 191.5,242.5C 194.449,242.931 197.116,244.098 199.5,246C 203.219,250.175 207.553,253.342 212.5,255.5C 212.468,257.619 213.468,258.952 215.5,259.5C 218.135,261.468 220.468,263.802 222.5,266.5C 224.382,267.093 226.215,267.76 228,268.5C 228.333,268.167 228.667,267.833 229,267.5C 230.634,270.569 233.134,272.569 236.5,273.5C 237.76,276.011 239.427,278.344 241.5,280.5C 244.301,281.204 246.968,281.538 249.5,281.5C 250.833,281.167 252.167,280.833 253.5,280.5C 252.058,281.82 251.392,283.486 251.5,285.5C 248.465,285.347 246.465,286.68 245.5,289.5C 243.202,290.31 240.868,291.144 238.5,292C 238.833,292.333 239.167,292.667 239.5,293C 237.935,294.412 236.269,295.579 234.5,296.5C 233.5,296.5 232.5,296.5 231.5,296.5C 231.361,292.889 229.694,290.223 226.5,288.5C 225.5,287.167 224.5,287.167 223.5,288.5C 218.053,283.301 212.387,278.301 206.5,273.5C 204.78,272.066 202.78,271.233 200.5,271C 200.047,268.307 198.547,266.473 196,265.5C 195.517,264.552 195.351,263.552 195.5,262.5C 193.801,262.66 192.134,262.494 190.5,262C 188.187,259.575 186.52,256.742 185.5,253.5C 184.571,254.689 184.238,256.022 184.5,257.5C 180.088,256.384 179.754,254.718 183.5,252.5C 183.333,252.167 183.167,251.833 183,251.5C 180.993,252.669 178.827,253.335 176.5,253.5C 178.823,250.677 181.323,248.01 184,245.5C 184.483,244.552 184.649,243.552 184.5,242.5C 185.833,242.5 187.167,242.5 188.5,242.5C 188.393,240.097 189.393,238.264 191.5,237C 190.906,236.536 190.239,236.369 189.5,236.5C 194.354,231.379 198.688,226.046 202.5,220.5C 203.5,219.833 204.5,219.167 205.5,218.5 Z"/></g>
<g><path style="opacity:1" fill="#4b6eb4" d="M 249.5,281.5 C 246.968,281.538 244.301,281.204 241.5,280.5C 239.427,278.344 237.76,276.011 236.5,273.5C 233.134,272.569 230.634,270.569 229,267.5C 228.667,267.833 228.333,268.167 228,268.5C 226.215,267.76 224.382,267.093 222.5,266.5C 220.468,263.802 218.135,261.468 215.5,259.5C 217.441,259.869 219.275,260.536 221,261.5C 221.5,261 222,260.5 222.5,260C 220.195,252.751 218.028,245.584 216,238.5C 218.639,241.45 220.473,244.783 221.5,248.5C 224.545,248.508 227.545,248.841 230.5,249.5C 230.5,250.833 230.5,252.167 230.5,253.5C 231.978,253.238 233.311,253.571 234.5,254.5C 236.724,256.617 238.391,259.117 239.5,262C 243.766,261.973 247.433,263.307 250.5,266C 254.4,269.226 254.067,270.726 249.5,270.5C 249.5,271.5 249.5,272.5 249.5,273.5C 252.95,272.756 254.616,274.09 254.5,277.5C 253.448,277.351 252.448,277.517 251.5,278C 251.833,278.333 252.167,278.667 252.5,279C 251.058,279.377 250.058,280.21 249.5,281.5 Z"/></g>
<g><path style="opacity:1" fill="#5c52a3" d="M 465.5,268.5 C 465.715,270.179 465.048,271.179 463.5,271.5C 462.749,270.427 461.749,270.26 460.5,271C 459.993,273.566 458.826,275.733 457,277.5C 454.716,275.515 452.049,274.182 449,273.5C 442.569,274.391 436.069,274.391 429.5,273.5C 429.13,269.04 426.63,266.707 422,266.5C 418.855,267.802 415.855,267.468 413,265.5C 409.826,266.71 406.659,266.71 403.5,265.5C 401.8,262.961 400.3,260.295 399,257.5C 397.915,258.293 396.748,258.96 395.5,259.5C 394.667,257.5 393.833,255.5 393,253.5C 392.333,254.833 391.667,254.833 391,253.5C 390.517,252.552 390.351,251.552 390.5,250.5C 389.178,250.33 388.011,250.663 387,251.5C 386.155,249.389 385.322,247.389 384.5,245.5C 385.069,239.782 384.069,234.448 381.5,229.5C 383.411,229.426 384.578,228.426 385,226.5C 385.333,228.5 385.667,230.5 386,232.5C 388.768,233.208 389.601,234.708 388.5,237C 391.046,241.136 392.88,245.636 394,250.5C 394.192,248.423 394.692,246.423 395.5,244.5C 398.341,246.086 401.007,247.92 403.5,250C 411.632,251.999 419.965,253.165 428.5,253.5C 428.5,254.5 428.5,255.5 428.5,256.5C 435.528,257.572 442.528,258.905 449.5,260.5C 451.609,261.65 453.609,262.984 455.5,264.5C 456.85,263.05 458.516,262.383 460.5,262.5C 460.5,263.5 460.5,264.5 460.5,265.5C 461.5,265.5 462.5,265.5 463.5,265.5C 463.351,264.448 463.517,263.448 464,262.5C 464.191,264.708 464.691,266.708 465.5,268.5 Z"/></g>
<g><path style="opacity:1" fill="#119ad4" d="M 56.5,256.5 C 54.6554,259.479 53.4887,262.812 53,266.5C 50.9431,267.978 49.6098,269.978 49,272.5C 44.8864,269.584 40.553,267.917 36,267.5C 35.3828,268.449 35.5494,269.282 36.5,270C 34.8988,270.273 33.3988,270.773 32,271.5C 30.5391,270.117 29.7058,270.451 29.5,272.5C 24.9234,267.871 22.5901,262.204 22.5,255.5C 21.962,253.883 21.6287,252.216 21.5,250.5C 28.561,248.021 35.7277,246.687 43,246.5C 44.6667,247.833 46.3333,249.167 48,250.5C 48.3333,248.833 48.6667,247.167 49,245.5C 51.2503,248.898 52.7503,252.565 53.5,256.5C 54.5,256.5 55.5,256.5 56.5,256.5 Z"/></g>
<g><path style="opacity:1" fill="#467fc2" d="M 234.5,296.5 C 231.94,297.22 230.107,298.887 229,301.5C 227.667,300.167 226.333,300.167 225,301.5C 224.517,300.552 224.351,299.552 224.5,298.5C 223.5,298.5 222.5,298.5 221.5,298.5C 221.5,296.833 221.5,295.167 221.5,293.5C 217.727,293.737 214.06,293.237 210.5,292C 209.034,290.448 208.034,288.614 207.5,286.5C 203.518,283.936 199.684,281.269 196,278.5C 194.612,279.554 193.112,279.72 191.5,279C 192.458,277.853 192.125,276.853 190.5,276C 188.913,275.138 187.246,274.471 185.5,274C 183.833,268.333 180.167,264.667 174.5,263C 175.711,262.107 175.711,261.274 174.5,260.5C 172.618,262.693 172.118,262.027 173,258.5C 174.481,257.529 175.315,256.196 175.5,254.5C 175.5,253.833 175.833,253.5 176.5,253.5C 178.827,253.335 180.993,252.669 183,251.5C 183.167,251.833 183.333,252.167 183.5,252.5C 179.754,254.718 180.088,256.384 184.5,257.5C 184.238,256.022 184.571,254.689 185.5,253.5C 186.52,256.742 188.187,259.575 190.5,262C 192.134,262.494 193.801,262.66 195.5,262.5C 195.351,263.552 195.517,264.552 196,265.5C 198.547,266.473 200.047,268.307 200.5,271C 202.78,271.233 204.78,272.066 206.5,273.5C 212.387,278.301 218.053,283.301 223.5,288.5C 224.5,287.167 225.5,287.167 226.5,288.5C 229.694,290.223 231.361,292.889 231.5,296.5C 232.5,296.5 233.5,296.5 234.5,296.5 Z"/></g>
<g><path style="opacity:1" fill="#5b5fac" d="M 384.5,245.5 C 385.322,247.389 386.155,249.389 387,251.5C 388.011,250.663 389.178,250.33 390.5,250.5C 390.351,251.552 390.517,252.552 391,253.5C 391.667,254.833 392.333,254.833 393,253.5C 393.833,255.5 394.667,257.5 395.5,259.5C 396.748,258.96 397.915,258.293 399,257.5C 400.3,260.295 401.8,262.961 403.5,265.5C 406.659,266.71 409.826,266.71 413,265.5C 415.855,267.468 418.855,267.802 422,266.5C 426.63,266.707 429.13,269.04 429.5,273.5C 436.069,274.391 442.569,274.391 449,273.5C 452.049,274.182 454.716,275.515 457,277.5C 458.826,275.733 459.993,273.566 460.5,271C 461.749,270.26 462.749,270.427 463.5,271.5C 462.193,275.76 460.86,280.093 459.5,284.5C 458.817,284.863 458.15,285.196 457.5,285.5C 454.154,284.964 450.82,284.297 447.5,283.5C 443.731,283.404 439.898,283.738 436,284.5C 432.207,283.311 428.707,282.311 425.5,281.5C 424.106,281.621 422.772,281.954 421.5,282.5C 420.614,281.675 420.281,280.675 420.5,279.5C 417.5,279.5 414.5,279.5 411.5,279.5C 411.5,278.5 411.5,277.5 411.5,276.5C 405.961,277.362 401.128,276.028 397,272.5C 395.221,275.276 394.221,274.943 394,271.5C 393.433,274.168 392.933,276.834 392.5,279.5C 390.744,278.448 390.077,276.781 390.5,274.5C 389.5,274.5 388.5,274.5 387.5,274.5C 387.444,277.394 386.61,280.061 385,282.5C 384.308,281.975 383.808,281.308 383.5,280.5C 384.485,278.902 384.651,277.235 384,275.5C 383.667,276.5 383.333,277.5 383,278.5C 382.79,276.942 382.29,275.609 381.5,274.5C 382.31,272.202 383.144,269.868 384,267.5C 384.5,260.174 384.666,252.841 384.5,245.5 Z"/></g>
<g><path style="opacity:1" fill="#a06db1" d="M 415.5,191.5 C 415.833,191.5 416.167,191.5 416.5,191.5C 422.168,192.815 427.835,194.481 433.5,196.5C 438.649,199.052 443.649,201.885 448.5,205C 453.738,208.736 458.071,213.236 461.5,218.5C 464.239,224.553 467.072,230.553 470,236.5C 470.198,234.618 470.698,232.952 471.5,231.5C 473.777,253.471 470.611,274.138 462,293.5C 459.614,298.226 456.78,302.56 453.5,306.5C 452.363,305.211 451.03,304.211 449.5,303.5C 449.83,299.979 451.33,296.979 454,294.5C 455.741,291.691 456.908,288.691 457.5,285.5C 458.15,285.196 458.817,284.863 459.5,284.5C 460.86,280.093 462.193,275.76 463.5,271.5C 465.048,271.179 465.715,270.179 465.5,268.5C 466.649,259.677 466.649,251.011 465.5,242.5C 465.674,235.847 464.007,229.847 460.5,224.5C 458.176,221.196 455.843,217.862 453.5,214.5C 452.675,213.614 451.675,213.281 450.5,213.5C 450.631,212.761 450.464,212.094 450,211.5C 442.077,204.89 433.244,200.056 423.5,197C 417.5,196.5 411.5,196 405.5,195.5C 395.427,195.33 385.76,196.997 376.5,200.5C 375.5,200.5 374.5,200.5 373.5,200.5C 373.5,202.167 373.5,203.833 373.5,205.5C 372.842,204.602 372.176,203.602 371.5,202.5C 369.925,203.456 368.258,204.123 366.5,204.5C 366.062,204.565 365.728,204.399 365.5,204C 368.028,203.002 368.028,202.169 365.5,201.5C 363.675,202.651 361.675,203.318 359.5,203.5C 360.167,202.833 360.833,202.167 361.5,201.5C 370.022,197.999 378.688,194.999 387.5,192.5C 396.78,191.553 406.114,191.22 415.5,191.5 Z"/></g>
<g><path style="opacity:0.212" fill="#548ec6" d="M 300.5,246.5 C 284.623,260.543 268.29,274.043 251.5,287C 256.929,291.04 262.595,294.54 268.5,297.5C 267.263,298.965 266.263,300.632 265.5,302.5C 263.859,301.853 262.526,300.853 261.5,299.5C 256.99,296.907 253.323,293.407 250.5,289C 248.893,289.019 247.226,289.185 245.5,289.5C 246.465,286.68 248.465,285.347 251.5,285.5C 251.392,283.486 252.058,281.82 253.5,280.5C 260.99,275.762 267.657,270.095 273.5,263.5C 274.492,263.672 275.158,263.338 275.5,262.5C 278.545,259.453 281.878,256.787 285.5,254.5C 286.404,253.791 286.737,252.791 286.5,251.5C 289.969,252.113 291.969,250.779 292.5,247.5C 294.923,247.576 296.756,246.576 298,244.5C 299.011,245.056 299.844,245.722 300.5,246.5 Z"/></g>
<g><path style="opacity:1" fill="#458ecd" d="M 187.5,236.5 C 188.167,236.5 188.833,236.5 189.5,236.5C 190.239,236.369 190.906,236.536 191.5,237C 189.393,238.264 188.393,240.097 188.5,242.5C 187.167,242.5 185.833,242.5 184.5,242.5C 184.649,243.552 184.483,244.552 184,245.5C 181.323,248.01 178.823,250.677 176.5,253.5C 175.833,253.5 175.5,253.833 175.5,254.5C 172.666,256.502 170.333,259.002 168.5,262C 169.489,264.23 168.822,266.064 166.5,267.5C 167.833,268.5 167.833,269.5 166.5,270.5C 168.413,271.051 170.413,271.218 172.5,271C 175.597,273.219 178.263,275.886 180.5,279C 182.473,279.495 184.473,279.662 186.5,279.5C 186.215,281.288 186.548,282.955 187.5,284.5C 191.091,287.142 194.758,289.642 198.5,292C 199.833,293.667 201.167,295.333 202.5,297C 207.573,298.576 211.24,301.742 213.5,306.5C 215.432,305.48 217.432,305.313 219.5,306C 220.598,306.77 220.598,307.603 219.5,308.5C 216.767,308.948 214.601,310.281 213,312.5C 212.316,310.641 211.316,308.974 210,307.5C 208.742,309.764 207.575,312.098 206.5,314.5C 204.556,313.811 202.556,313.311 200.5,313C 202.584,311.001 201.918,309.501 198.5,308.5C 197.558,308.608 196.725,308.941 196,309.5C 194.222,304.703 191.222,300.703 187,297.5C 186.506,295.866 186.34,294.199 186.5,292.5C 181.733,291.947 178.066,289.614 175.5,285.5C 174.117,288.076 173.283,287.742 173,284.5C 170.444,283.781 169.277,282.114 169.5,279.5C 165.872,279.631 163.372,277.964 162,274.5C 161.667,274.833 161.333,275.167 161,275.5C 160.333,274.167 160.333,272.833 161,271.5C 163.059,269.496 164.559,267.163 165.5,264.5C 166.72,262.716 166.72,261.05 165.5,259.5C 171.991,253.509 178.325,247.342 184.5,241C 183.29,239.961 182.29,238.794 181.5,237.5C 183.955,239.138 185.955,238.805 187.5,236.5 Z"/></g>
<g><path style="opacity:1" fill="#2986c4" d="M 65.5,239.5 C 67.2161,239.629 68.8828,239.962 70.5,240.5C 68.8455,244.535 66.3455,247.869 63,250.5C 62.589,254.23 61.2557,257.564 59,260.5C 57.168,271.143 57.0013,281.81 58.5,292.5C 56.5976,293.511 54.5976,293.678 52.5,293C 42.6255,288.435 34.9588,281.602 29.5,272.5C 29.7058,270.451 30.5391,270.117 32,271.5C 33.3988,270.773 34.8988,270.273 36.5,270C 35.5494,269.282 35.3828,268.449 36,267.5C 40.553,267.917 44.8864,269.584 49,272.5C 49.6098,269.978 50.9431,267.978 53,266.5C 53.4887,262.812 54.6554,259.479 56.5,256.5C 57.4748,253.575 58.4748,250.575 59.5,247.5C 60.8241,246.065 62.4908,245.065 64.5,244.5C 65.4519,242.955 65.7852,241.288 65.5,239.5 Z"/></g>
<g><path style="opacity:1" fill="#88d4f3" d="M 67.5,174.5 C 65.5,176.5 63.5,178.5 61.5,180.5C 59.8008,180.34 58.1341,180.506 56.5,181C 54.5296,183.316 52.1963,185.149 49.5,186.5C 44.5124,191.321 39.679,196.321 35,201.5C 32.1698,208.494 28.8365,215.16 25,221.5C 23.6013,227.791 22.4346,234.125 21.5,240.5C 20.3493,245.65 20.1826,250.984 21,256.5C 21.3826,255.944 21.8826,255.611 22.5,255.5C 22.5901,262.204 24.9234,267.871 29.5,272.5C 34.9588,281.602 42.6255,288.435 52.5,293C 54.5976,293.678 56.5976,293.511 58.5,292.5C 66.0783,297.478 74.4116,299.478 83.5,298.5C 83.5674,299.959 83.2341,301.292 82.5,302.5C 76.8387,302.093 71.172,301.76 65.5,301.5C 65.5,300.5 65.5,299.5 65.5,298.5C 63.8333,298.5 62.1667,298.5 60.5,298.5C 57.8127,298.664 55.146,298.497 52.5,298C 47.8381,295.002 43.1714,292.002 38.5,289C 30.2745,283.089 24.4411,275.255 21,265.5C 19.8118,266.563 19.3118,267.897 19.5,269.5C 18.7784,269.082 18.2784,268.416 18,267.5C 16.0883,255.162 16.0883,242.829 18,230.5C 20.325,225.393 21.825,220.393 22.5,215.5C 25.7388,213.851 27.2388,211.184 27,207.5C 36.7079,194.116 48.5412,183.283 62.5,175C 64.1341,174.506 65.8008,174.34 67.5,174.5 Z"/></g>
<g><path style="opacity:1" fill="#3b92d0" d="M 165.5,264.5 C 164.559,267.163 163.059,269.496 161,271.5C 160.333,272.833 160.333,274.167 161,275.5C 161.333,275.167 161.667,274.833 162,274.5C 163.372,277.964 165.872,279.631 169.5,279.5C 169.277,282.114 170.444,283.781 173,284.5C 173.283,287.742 174.117,288.076 175.5,285.5C 178.066,289.614 181.733,291.947 186.5,292.5C 186.34,294.199 186.506,295.866 187,297.5C 191.222,300.703 194.222,304.703 196,309.5C 196.725,308.941 197.558,308.608 198.5,308.5C 201.918,309.501 202.584,311.001 200.5,313C 202.556,313.311 204.556,313.811 206.5,314.5C 207.575,312.098 208.742,309.764 210,307.5C 211.316,308.974 212.316,310.641 213,312.5C 214.601,310.281 216.767,308.948 219.5,308.5C 218.833,309.833 218.167,311.167 217.5,312.5C 214.659,315.173 211.659,317.673 208.5,320C 207.551,320.617 206.718,320.451 206,319.5C 205.293,321.081 204.46,322.581 203.5,324C 199.725,325.387 196.058,327.054 192.5,329C 190.917,330.758 189.25,332.258 187.5,333.5C 187.302,331.425 187.135,329.425 187,327.5C 189.992,324.653 193.492,322.986 197.5,322.5C 198.135,318.538 196.802,317.205 193.5,318.5C 191.618,317.469 189.618,316.635 187.5,316C 187.833,315.667 188.167,315.333 188.5,315C 187.027,314.29 186.36,313.124 186.5,311.5C 184.159,311.008 182.159,309.841 180.5,308C 178.527,307.505 176.527,307.338 174.5,307.5C 174.528,305.418 173.861,303.584 172.5,302C 169.583,300.472 166.583,299.139 163.5,298C 164.061,296.434 163.394,295.101 161.5,294C 157.535,291.737 153.535,289.57 149.5,287.5C 150.59,286.391 150.59,285.391 149.5,284.5C 148.264,285.246 146.93,285.579 145.5,285.5C 145.737,284.209 145.404,283.209 144.5,282.5C 148.451,278.418 152.784,274.752 157.5,271.5C 158.386,270.675 158.719,269.675 158.5,268.5C 161.078,267.587 163.411,266.254 165.5,264.5 Z"/></g>
<g><path style="opacity:1" fill="#4386c6" d="M 175.5,254.5 C 175.315,256.196 174.481,257.529 173,258.5C 172.118,262.027 172.618,262.693 174.5,260.5C 175.711,261.274 175.711,262.107 174.5,263C 180.167,264.667 183.833,268.333 185.5,274C 187.246,274.471 188.913,275.138 190.5,276C 192.125,276.853 192.458,277.853 191.5,279C 193.112,279.72 194.612,279.554 196,278.5C 199.684,281.269 203.518,283.936 207.5,286.5C 208.034,288.614 209.034,290.448 210.5,292C 214.06,293.237 217.727,293.737 221.5,293.5C 221.5,295.167 221.5,296.833 221.5,298.5C 222.5,298.5 223.5,298.5 224.5,298.5C 224.351,299.552 224.517,300.552 225,301.5C 226.333,300.167 227.667,300.167 229,301.5C 230.107,298.887 231.94,297.22 234.5,296.5C 236.269,295.579 237.935,294.412 239.5,293C 239.167,292.667 238.833,292.333 238.5,292C 240.868,291.144 243.202,290.31 245.5,289.5C 243.481,292.367 241.148,295.033 238.5,297.5C 237.675,298.386 236.675,298.719 235.5,298.5C 235.5,299.5 235.5,300.5 235.5,301.5C 233.692,301.491 232.025,301.991 230.5,303C 226.419,306.688 222.086,309.855 217.5,312.5C 218.167,311.167 218.833,309.833 219.5,308.5C 220.598,307.603 220.598,306.77 219.5,306C 217.432,305.313 215.432,305.48 213.5,306.5C 211.24,301.742 207.573,298.576 202.5,297C 201.167,295.333 199.833,293.667 198.5,292C 194.758,289.642 191.091,287.142 187.5,284.5C 186.548,282.955 186.215,281.288 186.5,279.5C 184.473,279.662 182.473,279.495 180.5,279C 178.263,275.886 175.597,273.219 172.5,271C 170.413,271.218 168.413,271.051 166.5,270.5C 167.833,269.5 167.833,268.5 166.5,267.5C 168.822,266.064 169.489,264.23 168.5,262C 170.333,259.002 172.666,256.502 175.5,254.5 Z"/></g>
<g><path style="opacity:1" fill="#5766ae" d="M 457.5,285.5 C 456.908,288.691 455.741,291.691 454,294.5C 451.33,296.979 449.83,299.979 449.5,303.5C 446.108,305.049 443.108,307.216 440.5,310C 439.552,310.483 438.552,310.649 437.5,310.5C 437.5,310.167 437.5,309.833 437.5,309.5C 441.115,308.696 443.448,306.529 444.5,303C 445.793,302.51 447.127,302.343 448.5,302.5C 448.357,300.738 448.691,299.071 449.5,297.5C 447.838,296.673 446.505,295.507 445.5,294C 439.186,293.153 432.853,292.487 426.5,292C 425.643,291.311 424.977,290.478 424.5,289.5C 417.524,288.669 410.524,288.169 403.5,288C 399.298,285.422 396.131,281.922 394,277.5C 393.722,278.416 393.222,279.082 392.5,279.5C 392.933,276.834 393.433,274.168 394,271.5C 394.221,274.943 395.221,275.276 397,272.5C 401.128,276.028 405.961,277.362 411.5,276.5C 411.5,277.5 411.5,278.5 411.5,279.5C 414.5,279.5 417.5,279.5 420.5,279.5C 420.281,280.675 420.614,281.675 421.5,282.5C 422.772,281.954 424.106,281.621 425.5,281.5C 428.707,282.311 432.207,283.311 436,284.5C 439.898,283.738 443.731,283.404 447.5,283.5C 450.82,284.297 454.154,284.964 457.5,285.5 Z"/></g>
<g><path style="opacity:0.78" fill="#75b8e2" d="M 165.5,259.5 C 166.72,261.05 166.72,262.716 165.5,264.5C 163.411,266.254 161.078,267.587 158.5,268.5C 158.719,269.675 158.386,270.675 157.5,271.5C 152.784,274.752 148.451,278.418 144.5,282.5C 141.46,283.68 138.794,285.347 136.5,287.5C 133.886,287.277 132.219,288.444 131.5,291C 129.51,292.751 127.177,293.751 124.5,294C 123.619,294.708 122.953,295.542 122.5,296.5C 115.34,299.124 108.006,301.124 100.5,302.5C 94.5,302.5 88.5,302.5 82.5,302.5C 83.2341,301.292 83.5674,299.959 83.5,298.5C 96.9602,298.726 109.96,296.559 122.5,292C 129.387,286.726 136.72,282.226 144.5,278.5C 144.33,277.178 144.663,276.011 145.5,275C 148.5,273.333 151.5,271.667 154.5,270C 157.739,265.303 161.405,261.803 165.5,259.5 Z"/></g>
<g><path style="opacity:1" fill="#289ad4" d="M 60.5,298.5 C 61.98,304.217 64.3133,309.55 67.5,314.5C 65.5342,313.2 63.3676,312.2 61,311.5C 59.8315,312.009 58.9981,312.842 58.5,314C 54.5092,314.642 50.5092,315.142 46.5,315.5C 44.9826,315.489 43.8159,314.823 43,313.5C 39.3799,308.211 35.3799,303.211 31,298.5C 30.6667,296.833 30.3333,295.167 30,293.5C 24.8609,286.201 21.3609,278.201 19.5,269.5C 19.3118,267.897 19.8118,266.563 21,265.5C 24.4411,275.255 30.2745,283.089 38.5,289C 43.1714,292.002 47.8381,295.002 52.5,298C 55.146,298.497 57.8127,298.664 60.5,298.5 Z"/></g>
<g><path style="opacity:1" fill="#5371b6" d="M 381.5,274.5 C 382.29,275.609 382.79,276.942 383,278.5C 383.333,277.5 383.667,276.5 384,275.5C 384.651,277.235 384.485,278.902 383.5,280.5C 383.808,281.308 384.308,281.975 385,282.5C 386.61,280.061 387.444,277.394 387.5,274.5C 388.5,274.5 389.5,274.5 390.5,274.5C 390.077,276.781 390.744,278.448 392.5,279.5C 393.222,279.082 393.722,278.416 394,277.5C 396.131,281.922 399.298,285.422 403.5,288C 410.524,288.169 417.524,288.669 424.5,289.5C 424.977,290.478 425.643,291.311 426.5,292C 432.853,292.487 439.186,293.153 445.5,294C 446.505,295.507 447.838,296.673 449.5,297.5C 448.691,299.071 448.357,300.738 448.5,302.5C 447.127,302.343 445.793,302.51 444.5,303C 443.448,306.529 441.115,308.696 437.5,309.5C 437.5,308.167 437.5,306.833 437.5,305.5C 434.282,305.651 433.949,306.484 436.5,308C 433.833,308.667 431.167,308.667 428.5,308C 430.246,307.529 431.913,306.862 433.5,306C 423.528,305.12 413.695,303.62 404,301.5C 400.826,302.71 397.659,302.71 394.5,301.5C 392.978,297.436 390.311,294.436 386.5,292.5C 385.719,293.729 385.219,295.062 385,296.5C 384.138,294.913 383.471,293.246 383,291.5C 382.25,292.126 381.416,292.626 380.5,293C 381.833,294.333 381.833,295.667 380.5,297C 378.527,297.495 376.527,297.662 374.5,297.5C 377.601,290.103 379.934,282.437 381.5,274.5 Z"/></g>
<g><path style="opacity:1" fill="#3099d3" d="M 144.5,282.5 C 145.404,283.209 145.737,284.209 145.5,285.5C 146.93,285.579 148.264,285.246 149.5,284.5C 150.59,285.391 150.59,286.391 149.5,287.5C 153.535,289.57 157.535,291.737 161.5,294C 163.394,295.101 164.061,296.434 163.5,298C 166.583,299.139 169.583,300.472 172.5,302C 173.861,303.584 174.528,305.418 174.5,307.5C 176.527,307.338 178.527,307.505 180.5,308C 182.159,309.841 184.159,311.008 186.5,311.5C 186.36,313.124 187.027,314.29 188.5,315C 188.167,315.333 187.833,315.667 187.5,316C 189.618,316.635 191.618,317.469 193.5,318.5C 196.802,317.205 198.135,318.538 197.5,322.5C 193.492,322.986 189.992,324.653 187,327.5C 187.135,329.425 187.302,331.425 187.5,333.5C 182.688,336.07 177.688,338.404 172.5,340.5C 172.461,339.417 172.127,338.417 171.5,337.5C 175.07,334.865 178.736,332.365 182.5,330C 181.437,328.812 180.103,328.312 178.5,328.5C 178.799,326.396 178.466,324.396 177.5,322.5C 176.784,324.482 175.617,326.149 174,327.5C 171.631,326.073 171.131,324.239 172.5,322C 171.667,321.167 170.833,320.333 170,319.5C 169.751,320.624 169.251,321.624 168.5,322.5C 165.185,318.517 161.185,315.517 156.5,313.5C 155.36,309.747 153.526,309.081 151,311.5C 148.949,309.191 149.116,307.024 151.5,305C 149.04,303.542 146.873,301.709 145,299.5C 142.304,295.32 139.47,291.32 136.5,287.5C 138.794,285.347 141.46,283.68 144.5,282.5 Z"/></g>
<g><path style="opacity:1" fill="#4d7dbf" d="M 437.5,309.5 C 437.5,309.833 437.5,310.167 437.5,310.5C 436.516,313.837 434.183,315.337 430.5,315C 427.737,317.943 424.404,319.776 420.5,320.5C 420.881,319.069 421.881,318.236 423.5,318C 419.859,317.356 416.359,317.856 413,319.5C 402.168,318.82 391.334,317.82 380.5,316.5C 380.719,315.325 380.386,314.325 379.5,313.5C 377.765,312.943 376.098,312.61 374.5,312.5C 377.976,310.141 378.309,307.474 375.5,304.5C 375.062,307.556 373.895,310.223 372,312.5C 370.691,310.109 369.691,310.109 369,312.5C 368.667,311.833 368.333,311.167 368,310.5C 367.329,311.252 366.496,311.586 365.5,311.5C 369.296,307.366 372.296,302.699 374.5,297.5C 376.527,297.662 378.527,297.495 380.5,297C 381.833,295.667 381.833,294.333 380.5,293C 381.416,292.626 382.25,292.126 383,291.5C 383.471,293.246 384.138,294.913 385,296.5C 385.219,295.062 385.719,293.729 386.5,292.5C 390.311,294.436 392.978,297.436 394.5,301.5C 397.659,302.71 400.826,302.71 404,301.5C 413.695,303.62 423.528,305.12 433.5,306C 431.913,306.862 430.246,307.529 428.5,308C 431.167,308.667 433.833,308.667 436.5,308C 433.949,306.484 434.282,305.651 437.5,305.5C 437.5,306.833 437.5,308.167 437.5,309.5 Z"/></g>
<g><path style="opacity:1" fill="#274f9c" d="M 261.5,299.5 C 260.043,301.785 258.043,303.618 255.5,305C 256.784,306.297 256.617,307.464 255,308.5C 252.053,308.091 249.386,307.091 247,305.5C 246.541,312.955 245.041,312.955 242.5,305.5C 241.167,305.5 239.833,305.5 238.5,305.5C 237.512,304.205 236.512,302.872 235.5,301.5C 235.5,300.5 235.5,299.5 235.5,298.5C 236.675,298.719 237.675,298.386 238.5,297.5C 241.148,295.033 243.481,292.367 245.5,289.5C 247.226,289.185 248.893,289.019 250.5,289C 253.323,293.407 256.99,296.907 261.5,299.5 Z"/></g>
<g><path style="opacity:1" fill="#27a3dc" d="M 122.5,296.5 C 121.472,297.787 121.805,298.954 123.5,300C 122.147,302.316 122.813,303.316 125.5,303C 126.191,301.933 126.691,300.766 127,299.5C 129.598,303.278 133.098,305.611 137.5,306.5C 139.644,310.582 142.978,313.248 147.5,314.5C 149.379,320.152 153.379,323.318 159.5,324C 162.834,328.673 166.167,333.339 169.5,338C 169.138,339.434 168.472,340.601 167.5,341.5C 165.703,342.73 163.703,343.396 161.5,343.5C 161.179,341.952 160.179,341.285 158.5,341.5C 157.316,340.312 157.316,339.145 158.5,338C 157.167,337.333 156.167,336.333 155.5,335C 155.833,334 156.167,333 156.5,332C 152.227,330.97 147.894,330.303 143.5,330C 155.447,329.149 155.447,327.982 143.5,326.5C 140.416,323.166 136.749,320.666 132.5,319C 130.21,316.921 128.543,314.421 127.5,311.5C 126.757,312.908 125.923,314.241 125,315.5C 123.829,314.107 122.329,313.273 120.5,313C 121.591,310.936 121.758,308.769 121,306.5C 119.644,305.62 118.144,305.286 116.5,305.5C 116.778,303.654 116.111,302.32 114.5,301.5C 113.024,303.571 111.024,304.571 108.5,304.5C 105.873,303.908 103.206,303.575 100.5,303.5C 100.5,303.167 100.5,302.833 100.5,302.5C 108.006,301.124 115.34,299.124 122.5,296.5 Z"/></g>
<g><path style="opacity:1" fill="#22a5df" d="M 158.5,341.5 C 152.889,341.722 147.389,341.056 142,339.5C 140.699,338.902 139.865,337.902 139.5,336.5C 140.052,334.997 140.052,333.331 139.5,331.5C 137.833,331.5 136.167,331.5 134.5,331.5C 134.649,332.552 134.483,333.552 134,334.5C 132.118,331.377 129.785,328.711 127,326.5C 126.505,324.527 126.338,322.527 126.5,320.5C 120.251,319.084 114.251,317.084 108.5,314.5C 108.785,312.712 108.452,311.045 107.5,309.5C 106.019,308.52 104.685,307.353 103.5,306C 105.382,305.802 107.048,305.302 108.5,304.5C 111.024,304.571 113.024,303.571 114.5,301.5C 116.111,302.32 116.778,303.654 116.5,305.5C 118.144,305.286 119.644,305.62 121,306.5C 121.758,308.769 121.591,310.936 120.5,313C 122.329,313.273 123.829,314.107 125,315.5C 125.923,314.241 126.757,312.908 127.5,311.5C 128.543,314.421 130.21,316.921 132.5,319C 136.749,320.666 140.416,323.166 143.5,326.5C 155.447,327.982 155.447,329.149 143.5,330C 147.894,330.303 152.227,330.97 156.5,332C 156.167,333 155.833,334 155.5,335C 156.167,336.333 157.167,337.333 158.5,338C 157.316,339.145 157.316,340.312 158.5,341.5 Z"/></g>
<g><path style="opacity:1" fill="#1eaae2" d="M 100.5,303.5 C 103.206,303.575 105.873,303.908 108.5,304.5C 107.048,305.302 105.382,305.802 103.5,306C 104.685,307.353 106.019,308.52 107.5,309.5C 108.452,311.045 108.785,312.712 108.5,314.5C 114.251,317.084 120.251,319.084 126.5,320.5C 126.338,322.527 126.505,324.527 127,326.5C 129.785,328.711 132.118,331.377 134,334.5C 134.483,333.552 134.649,332.552 134.5,331.5C 136.167,331.5 137.833,331.5 139.5,331.5C 140.052,333.331 140.052,334.997 139.5,336.5C 139.865,337.902 140.699,338.902 142,339.5C 147.389,341.056 152.889,341.722 158.5,341.5C 160.179,341.285 161.179,341.952 161.5,343.5C 161.047,344.458 160.381,345.292 159.5,346C 154.475,346.855 149.475,347.688 144.5,348.5C 144.441,346.278 143.275,345.278 141,345.5C 139.019,347.118 136.852,348.451 134.5,349.5C 130.578,348.784 130.578,348.117 134.5,347.5C 134.5,346.5 134.5,345.5 134.5,344.5C 130.167,344.5 125.833,344.5 121.5,344.5C 121.5,343.5 121.5,342.5 121.5,341.5C 122.675,341.719 123.675,341.386 124.5,340.5C 124,340.167 123.5,339.833 123,339.5C 121.31,340.149 119.477,340.149 117.5,339.5C 117.66,337.801 117.494,336.134 117,334.5C 113.02,328.779 107.52,326.446 100.5,327.5C 101.157,324.159 99.8237,322.159 96.5,321.5C 95.2441,317.984 93.2441,314.984 90.5,312.5C 89.5745,311.359 88.7412,311.359 88,312.5C 87.1667,310.333 85.6667,308.833 83.5,308C 83.9574,307.586 84.2907,307.086 84.5,306.5C 81.8929,305.682 79.2263,305.182 76.5,305C 84.6772,304.829 92.6772,304.329 100.5,303.5 Z"/></g>
<g><path style="opacity:0.933" fill="#2facde" d="M 268.5,297.5 C 277.987,303.089 287.653,308.089 297.5,312.5C 297.5,313.5 297.5,314.5 297.5,315.5C 298.873,315.343 300.207,315.51 301.5,316C 296.356,317.259 292.022,315.926 288.5,312C 283.031,310.097 277.698,307.93 272.5,305.5C 270.453,303.925 268.119,302.925 265.5,302.5C 266.263,300.632 267.263,298.965 268.5,297.5 Z"/></g>
<g><path style="opacity:1" fill="#507ebf" d="M 272.5,305.5 C 277.698,307.93 283.031,310.097 288.5,312C 292.022,315.926 296.356,317.259 301.5,316C 300.207,315.51 298.873,315.343 297.5,315.5C 297.5,314.5 297.5,313.5 297.5,312.5C 301.856,312.927 305.689,314.594 309,317.5C 309.893,316.919 310.893,316.585 312,316.5C 313.904,318.051 316.07,319.217 318.5,320C 325.663,320.933 332.663,322.433 339.5,324.5C 339.804,325.15 340.137,325.817 340.5,326.5C 338,326.833 335.5,327.167 333,327.5C 327.406,326.787 321.906,325.62 316.5,324C 313.446,323.179 310.446,323.345 307.5,324.5C 305.33,326.086 302.996,327.42 300.5,328.5C 299.827,330.689 298.827,332.689 297.5,334.5C 298.025,335.192 298.692,335.692 299.5,336C 295.975,336.179 292.641,336.679 289.5,337.5C 281.827,336.977 274.494,335.31 267.5,332.5C 267.629,334.216 267.962,335.883 268.5,337.5C 262.845,333.177 257.512,328.51 252.5,323.5C 255.779,322.508 259.112,322.341 262.5,323C 263.874,326.41 264.541,326.243 264.5,322.5C 266.5,322.5 268.5,322.5 270.5,322.5C 270.854,320.459 270.854,318.626 270.5,317C 272.481,316.395 272.815,315.395 271.5,314C 273.384,313.784 275.051,313.117 276.5,312C 273.778,310.728 272.444,308.561 272.5,305.5 Z"/></g>
<g><path style="opacity:1" fill="#3a6cb2" d="M 261.5,299.5 C 262.526,300.853 263.859,301.853 265.5,302.5C 268.119,302.925 270.453,303.925 272.5,305.5C 272.444,308.561 273.778,310.728 276.5,312C 275.051,313.117 273.384,313.784 271.5,314C 272.815,315.395 272.481,316.395 270.5,317C 270.854,318.626 270.854,320.459 270.5,322.5C 268.5,322.5 266.5,322.5 264.5,322.5C 264.541,326.243 263.874,326.41 262.5,323C 259.112,322.341 255.779,322.508 252.5,323.5C 248.898,319.395 245.065,315.395 241,311.5C 239.878,309.593 239.045,307.593 238.5,305.5C 239.833,305.5 241.167,305.5 242.5,305.5C 245.041,312.955 246.541,312.955 247,305.5C 249.386,307.091 252.053,308.091 255,308.5C 256.617,307.464 256.784,306.297 255.5,305C 258.043,303.618 260.043,301.785 261.5,299.5 Z"/></g>
<g><path style="opacity:1" fill="#2c9ed7" d="M 136.5,287.5 C 139.47,291.32 142.304,295.32 145,299.5C 146.873,301.709 149.04,303.542 151.5,305C 149.116,307.024 148.949,309.191 151,311.5C 153.526,309.081 155.36,309.747 156.5,313.5C 161.185,315.517 165.185,318.517 168.5,322.5C 169.251,321.624 169.751,320.624 170,319.5C 170.833,320.333 171.667,321.167 172.5,322C 171.131,324.239 171.631,326.073 174,327.5C 175.617,326.149 176.784,324.482 177.5,322.5C 178.466,324.396 178.799,326.396 178.5,328.5C 180.103,328.312 181.437,328.812 182.5,330C 178.736,332.365 175.07,334.865 171.5,337.5C 172.127,338.417 172.461,339.417 172.5,340.5C 170.958,341.301 169.292,341.634 167.5,341.5C 168.472,340.601 169.138,339.434 169.5,338C 166.167,333.339 162.834,328.673 159.5,324C 153.379,323.318 149.379,320.152 147.5,314.5C 142.978,313.248 139.644,310.582 137.5,306.5C 133.098,305.611 129.598,303.278 127,299.5C 126.691,300.766 126.191,301.933 125.5,303C 122.813,303.316 122.147,302.316 123.5,300C 121.805,298.954 121.472,297.787 122.5,296.5C 122.953,295.542 123.619,294.708 124.5,294C 127.177,293.751 129.51,292.751 131.5,291C 132.219,288.444 133.886,287.277 136.5,287.5 Z"/></g>
<g><path style="opacity:1" fill="#5272b8" d="M 339.5,324.5 C 343.88,325.695 348.213,325.695 352.5,324.5C 353.931,325.082 355.264,325.915 356.5,327C 360.699,327.528 364.699,328.361 368.5,329.5C 364.818,329.335 361.152,329.501 357.5,330C 356.944,330.383 356.611,330.883 356.5,331.5C 346.783,330.187 337.783,331.853 329.5,336.5C 316.215,338.707 302.882,339.04 289.5,337.5C 292.641,336.679 295.975,336.179 299.5,336C 298.692,335.692 298.025,335.192 297.5,334.5C 298.827,332.689 299.827,330.689 300.5,328.5C 302.996,327.42 305.33,326.086 307.5,324.5C 310.446,323.345 313.446,323.179 316.5,324C 321.906,325.62 327.406,326.787 333,327.5C 335.5,327.167 338,326.833 340.5,326.5C 340.137,325.817 339.804,325.15 339.5,324.5 Z"/></g>
<g><path style="opacity:1" fill="#4589c7" d="M 420.5,320.5 C 415.138,323.17 409.471,325.336 403.5,327C 391.894,328.707 380.227,329.54 368.5,329.5C 364.699,328.361 360.699,327.528 356.5,327C 355.264,325.915 353.931,325.082 352.5,324.5C 355.472,322.359 357.972,319.692 360,316.5C 360.333,316.833 360.667,317.167 361,317.5C 362.277,315.253 363.777,313.253 365.5,311.5C 366.496,311.586 367.329,311.252 368,310.5C 368.333,311.167 368.667,311.833 369,312.5C 369.691,310.109 370.691,310.109 372,312.5C 373.895,310.223 375.062,307.556 375.5,304.5C 378.309,307.474 377.976,310.141 374.5,312.5C 376.098,312.61 377.765,312.943 379.5,313.5C 380.386,314.325 380.719,315.325 380.5,316.5C 391.334,317.82 402.168,318.82 413,319.5C 416.359,317.856 419.859,317.356 423.5,318C 421.881,318.236 420.881,319.069 420.5,320.5 Z"/></g>
<g><path style="opacity:1" fill="#19b0e5" d="M 60.5,298.5 C 62.1667,298.5 63.8333,298.5 65.5,298.5C 65.5,299.5 65.5,300.5 65.5,301.5C 71.172,301.76 76.8387,302.093 82.5,302.5C 88.5,302.5 94.5,302.5 100.5,302.5C 100.5,302.833 100.5,303.167 100.5,303.5C 92.6772,304.329 84.6772,304.829 76.5,305C 79.2263,305.182 81.8929,305.682 84.5,306.5C 84.2907,307.086 83.9574,307.586 83.5,308C 85.6667,308.833 87.1667,310.333 88,312.5C 88.7412,311.359 89.5745,311.359 90.5,312.5C 93.2441,314.984 95.2441,317.984 96.5,321.5C 99.8237,322.159 101.157,324.159 100.5,327.5C 107.52,326.446 113.02,328.779 117,334.5C 117.494,336.134 117.66,337.801 117.5,339.5C 119.477,340.149 121.31,340.149 123,339.5C 123.5,339.833 124,340.167 124.5,340.5C 123.675,341.386 122.675,341.719 121.5,341.5C 121.5,342.5 121.5,343.5 121.5,344.5C 125.833,344.5 130.167,344.5 134.5,344.5C 134.5,345.5 134.5,346.5 134.5,347.5C 130.578,348.117 130.578,348.784 134.5,349.5C 136.852,348.451 139.019,347.118 141,345.5C 143.275,345.278 144.441,346.278 144.5,348.5C 143.711,348.783 143.044,349.283 142.5,350C 135.508,350.5 128.508,350.666 121.5,350.5C 122.808,349.768 124.142,348.934 125.5,348C 115.338,345.274 105.338,342.274 95.5,339C 92.1198,335.093 88.1198,332.26 83.5,330.5C 82.4035,328.465 80.7368,327.132 78.5,326.5C 74.9446,322.262 71.278,318.262 67.5,314.5C 64.3133,309.55 61.98,304.217 60.5,298.5 Z"/></g>
<g><path style="opacity:1" fill="#138ecd" d="M 67.5,314.5 C 71.278,318.262 74.9446,322.262 78.5,326.5C 80.7368,327.132 82.4035,328.465 83.5,330.5C 88.1198,332.26 92.1198,335.093 95.5,339C 105.338,342.274 115.338,345.274 125.5,348C 124.142,348.934 122.808,349.768 121.5,350.5C 116.489,350.666 111.489,350.499 106.5,350C 101.323,348.039 95.99,346.706 90.5,346C 87.2108,343.522 83.5442,341.856 79.5,341C 76.6399,338.446 73.3065,336.779 69.5,336C 66.9328,332.717 63.2662,330.05 58.5,328C 54.6355,324.796 50.8022,321.629 47,318.5C 46.5172,317.552 46.3505,316.552 46.5,315.5C 50.5092,315.142 54.5092,314.642 58.5,314C 58.9981,312.842 59.8315,312.009 61,311.5C 63.3676,312.2 65.5342,313.2 67.5,314.5 Z"/></g>
<g><path style="opacity:1" fill="#7a64aa" d="M 449.5,303.5 C 451.03,304.211 452.363,305.211 453.5,306.5C 441.545,323.793 426.211,337.127 407.5,346.5C 404.894,345.15 404.894,343.65 407.5,342C 410.018,340.036 412.684,339.37 415.5,340C 418.357,336.144 421.857,332.977 426,330.5C 426.667,329.833 426.667,329.167 426,328.5C 425.167,329.333 424.333,330.167 423.5,331C 419.779,331.574 416.279,332.74 413,334.5C 412.308,333.975 411.808,333.308 411.5,332.5C 407.167,332.167 402.833,331.833 398.5,331.5C 385.492,332.677 372.492,332.677 359.5,331.5C 358.5,331.5 357.5,331.5 356.5,331.5C 356.611,330.883 356.944,330.383 357.5,330C 361.152,329.501 364.818,329.335 368.5,329.5C 380.227,329.54 391.894,328.707 403.5,327C 409.471,325.336 415.138,323.17 420.5,320.5C 424.404,319.776 427.737,317.943 430.5,315C 434.183,315.337 436.516,313.837 437.5,310.5C 438.552,310.649 439.552,310.483 440.5,310C 443.108,307.216 446.108,305.049 449.5,303.5 Z"/></g>
<g><path style="opacity:1" fill="#655fab" d="M 407.5,346.5 C 404.749,349.209 401.416,350.875 397.5,351.5C 397.03,350.307 396.03,349.64 394.5,349.5C 391.488,350.172 388.488,350.839 385.5,351.5C 385.5,350.5 385.5,349.5 385.5,348.5C 386.5,348.5 387.5,348.5 388.5,348.5C 388.286,346.856 388.62,345.356 389.5,344C 387.473,343.502 385.473,343.669 383.5,344.5C 381.601,343.271 379.601,342.105 377.5,341C 378.833,340.333 380.167,339.667 381.5,339C 379.028,337.604 376.362,336.77 373.5,336.5C 367.652,338.937 362.985,337.271 359.5,331.5C 372.492,332.677 385.492,332.677 398.5,331.5C 402.833,331.833 407.167,332.167 411.5,332.5C 411.808,333.308 412.308,333.975 413,334.5C 416.279,332.74 419.779,331.574 423.5,331C 424.333,330.167 425.167,329.333 426,328.5C 426.667,329.167 426.667,329.833 426,330.5C 421.857,332.977 418.357,336.144 415.5,340C 412.684,339.37 410.018,340.036 407.5,342C 404.894,343.65 404.894,345.15 407.5,346.5 Z"/></g>
<g><path style="opacity:1" fill="#525eab" d="M 356.5,331.5 C 357.5,331.5 358.5,331.5 359.5,331.5C 362.985,337.271 367.652,338.937 373.5,336.5C 376.362,336.77 379.028,337.604 381.5,339C 380.167,339.667 378.833,340.333 377.5,341C 379.601,342.105 381.601,343.271 383.5,344.5C 385.473,343.669 387.473,343.502 389.5,344C 388.62,345.356 388.286,346.856 388.5,348.5C 387.5,348.5 386.5,348.5 385.5,348.5C 385.5,349.5 385.5,350.5 385.5,351.5C 388.488,350.839 391.488,350.172 394.5,349.5C 396.03,349.64 397.03,350.307 397.5,351.5C 388.345,354.741 379.012,357.408 369.5,359.5C 368.584,359.457 367.917,359.124 367.5,358.5C 367.804,357.85 368.137,357.183 368.5,356.5C 360.718,355.524 353.218,353.524 346,350.5C 342.47,352.135 341.304,351.135 342.5,347.5C 339.774,345.635 336.774,344.635 333.5,344.5C 333.95,340.776 332.283,338.609 328.5,338C 329.056,337.617 329.389,337.117 329.5,336.5C 337.783,331.853 346.783,330.187 356.5,331.5 Z"/></g>
<g><path style="opacity:0.997" fill="#435fab" d="M 289.5,337.5 C 302.882,339.04 316.215,338.707 329.5,336.5C 329.389,337.117 329.056,337.617 328.5,338C 332.283,338.609 333.95,340.776 333.5,344.5C 336.774,344.635 339.774,345.635 342.5,347.5C 341.304,351.135 342.47,352.135 346,350.5C 353.218,353.524 360.718,355.524 368.5,356.5C 368.137,357.183 367.804,357.85 367.5,358.5C 365.171,360.049 362.504,360.883 359.5,361C 349.833,361.667 340.167,361.667 330.5,361C 319.403,358.719 308.07,356.053 296.5,353C 291.5,351.416 287,348.916 283,345.5C 282.586,345.957 282.086,346.291 281.5,346.5C 277.664,342.751 273.33,339.751 268.5,337.5C 267.962,335.883 267.629,334.216 267.5,332.5C 274.494,335.31 281.827,336.977 289.5,337.5 Z"/></g>
</svg>
