<?xml version="1.0" encoding="UTF-8"?>
<!DOCTYPE svg PUBLIC "-//W3C//DTD SVG 1.1//EN" "http://www.w3.org/Graphics/SVG/1.1/DTD/svg11.dtd">
<svg xmlns="http://www.w3.org/2000/svg" version="1.1" width="264px" height="176px" style="shape-rendering:geometricPrecision; text-rendering:geometricPrecision; image-rendering:optimizeQuality; fill-rule:evenodd; clip-rule:evenodd" xmlns:xlink="http://www.w3.org/1999/xlink">
<g><path style="opacity:1" fill="#dde53e" d="M 235.5,31.5 C 235.703,33.0443 236.37,34.3777 237.5,35.5C 235.754,36.3953 233.92,37.062 232,37.5C 222.541,36.5386 213.041,36.2053 203.5,36.5C 203.5,35.5 203.5,34.5 203.5,33.5C 199.5,33.5 195.5,33.5 191.5,33.5C 191.665,30.1501 191.498,26.8168 191,23.5C 190.768,22.2625 190.268,21.2625 189.5,20.5C 191.934,17.3028 194.601,14.3028 197.5,11.5C 200.826,13.6659 203.993,15.9992 207,18.5C 209.057,17.8603 211.223,18.0269 213.5,19C 220.211,24.1999 227.545,28.3666 235.5,31.5 Z"/></g>
<g><path style="opacity:1" fill="#dee540" d="M 69.5,11.5 C 70.344,13.7593 72.0107,14.7593 74.5,14.5C 75.3721,20.7889 75.7054,27.1222 75.5,33.5C 64.7538,33.0128 58.0871,33.3462 55.5,34.5C 55.5,36.1667 55.5,37.8333 55.5,39.5C 51.8333,39.5 48.1667,39.5 44.5,39.5C 44.6495,38.448 44.4828,37.448 44,36.5C 43.5,37.6667 42.6667,38.5 41.5,39C 38.854,39.4974 36.1873,39.6641 33.5,39.5C 33.7852,37.712 33.4519,36.0453 32.5,34.5C 30.512,36.1472 29.1787,35.8139 28.5,33.5C 31.7154,31.2818 35.382,30.1152 39.5,30C 41.1134,27.5788 42.4467,25.0788 43.5,22.5C 49.7697,18.6924 56.1031,14.859 62.5,11C 64.8473,10.6664 67.1806,10.833 69.5,11.5 Z"/></g>
<g><path style="opacity:1" fill="#d8de3f" d="M 69.5,11.5 C 72.7845,11.2693 75.2845,12.6026 77,15.5C 78.3696,21.7416 78.8696,28.0749 78.5,34.5C 77.8501,34.8039 77.1835,35.1373 76.5,35.5C 75.5108,39.1073 75.1774,42.774 75.5,46.5C 74.6981,47.9516 74.1981,49.6183 74,51.5C 73.5065,49.8659 73.3398,48.1992 73.5,46.5C 63.3271,46.6406 52.9938,46.6406 42.5,46.5C 42.5,48.5 42.5,50.5 42.5,52.5C 40.8333,52.5 39.1667,52.5 37.5,52.5C 37.7989,50.396 37.4656,48.396 36.5,46.5C 35.5318,47.4891 34.3651,48.1557 33,48.5C 29.2666,45.8531 25.6,45.8531 22,48.5C 21.1268,48.2645 20.2935,47.9312 19.5,47.5C 18.4095,45.2095 17.9095,42.8762 18,40.5C 21.5309,38.1461 25.0309,35.8127 28.5,33.5C 29.1787,35.8139 30.512,36.1472 32.5,34.5C 33.4519,36.0453 33.7852,37.712 33.5,39.5C 36.1873,39.6641 38.854,39.4974 41.5,39C 42.6667,38.5 43.5,37.6667 44,36.5C 44.4828,37.448 44.6495,38.448 44.5,39.5C 48.1667,39.5 51.8333,39.5 55.5,39.5C 55.5,37.8333 55.5,36.1667 55.5,34.5C 58.0871,33.3462 64.7538,33.0128 75.5,33.5C 75.7054,27.1222 75.3721,20.7889 74.5,14.5C 72.0107,14.7593 70.344,13.7593 69.5,11.5 Z"/></g>
<g><path style="opacity:1" fill="#d7dd3d" d="M 189.5,20.5 C 190.268,21.2625 190.768,22.2625 191,23.5C 191.498,26.8168 191.665,30.1501 191.5,33.5C 195.5,33.5 199.5,33.5 203.5,33.5C 203.5,34.5 203.5,35.5 203.5,36.5C 213.041,36.2053 222.541,36.5386 232,37.5C 233.92,37.062 235.754,36.3953 237.5,35.5C 236.37,34.3777 235.703,33.0443 235.5,31.5C 237.339,32.5077 238.672,34.0077 239.5,36C 241.167,36.3333 242.833,36.6667 244.5,37C 245.895,39.7848 247.228,42.6181 248.5,45.5C 250.007,46.7388 251.174,46.4054 252,44.5C 252.483,45.448 252.649,46.448 252.5,47.5C 250.926,47.9371 249.759,48.9371 249,50.5C 247.284,49.4477 246.284,50.1144 246,52.5C 244.054,49.8612 243.054,46.8612 243,43.5C 242.667,43.1667 242.333,42.8333 242,42.5C 241.51,43.7932 241.343,45.1266 241.5,46.5C 233.167,46.5 224.833,46.5 216.5,46.5C 216.5,47.5 216.5,48.5 216.5,49.5C 212.167,49.5 207.833,49.5 203.5,49.5C 203.5,48.5 203.5,47.5 203.5,46.5C 199.5,46.5 195.5,46.5 191.5,46.5C 191.587,43.4017 191.087,43.0684 190,45.5C 189.79,43.9419 189.29,42.6085 188.5,41.5C 188.5,34.8333 188.5,28.1667 188.5,21.5C 189.167,21.5 189.5,21.1667 189.5,20.5 Z"/></g>
<g><path style="opacity:0.959" fill="#dce24e" d="M 253.5,59.5 C 252.539,57.7354 252.205,55.7354 252.5,53.5C 252.5,51.5 252.5,49.5 252.5,47.5C 252.649,46.448 252.483,45.448 252,44.5C 251.174,46.4054 250.007,46.7388 248.5,45.5C 247.228,42.6181 245.895,39.7848 244.5,37C 242.833,36.6667 241.167,36.3333 239.5,36C 238.672,34.0077 237.339,32.5077 235.5,31.5C 227.545,28.3666 220.211,24.1999 213.5,19C 211.223,18.0269 209.057,17.8603 207,18.5C 203.993,15.9992 200.826,13.6659 197.5,11.5C 194.601,14.3028 191.934,17.3028 189.5,20.5C 189.5,21.1667 189.167,21.5 188.5,21.5C 189.753,12.7573 194.753,9.25729 203.5,11C 214.167,17 224.833,23 235.5,29C 241.276,32.4437 246.776,36.2771 252,40.5C 253.416,46.7145 253.916,53.0478 253.5,59.5 Z"/></g>
<g><path style="opacity:1" fill="#d2d83d" d="M 43.5,22.5 C 42.4467,25.0788 41.1134,27.5788 39.5,30C 35.382,30.1152 31.7154,31.2818 28.5,33.5C 25.0309,35.8127 21.5309,38.1461 18,40.5C 17.9095,42.8762 18.4095,45.2095 19.5,47.5C 20.2935,47.9312 21.1268,48.2645 22,48.5C 25.6,45.8531 29.2666,45.8531 33,48.5C 34.3651,48.1557 35.5318,47.4891 36.5,46.5C 37.4656,48.396 37.7989,50.396 37.5,52.5C 39.1667,52.5 40.8333,52.5 42.5,52.5C 42.5,50.5 42.5,48.5 42.5,46.5C 52.9938,46.6406 63.3271,46.6406 73.5,46.5C 73.3398,48.1992 73.5065,49.8659 74,51.5C 74.1981,49.6183 74.6981,47.9516 75.5,46.5C 75.5,50.5 75.5,54.5 75.5,58.5C 57.3366,58.6339 39.3366,59.6339 21.5,61.5C 20.7836,60.689 19.9503,60.0223 19,59.5C 17.5838,60.5733 16.2504,60.5733 15,59.5C 14.8138,56.9644 14.3138,54.631 13.5,52.5C 12.9159,49.0172 13.7492,46.0172 16,43.5C 16.49,42.2068 16.6567,40.8734 16.5,39.5C 24.9578,33.0971 33.9578,27.4305 43.5,22.5 Z"/></g>
<g><path style="opacity:1" fill="#d2d73c" d="M 188.5,41.5 C 189.29,42.6085 189.79,43.9419 190,45.5C 191.087,43.0684 191.587,43.4017 191.5,46.5C 195.5,46.5 199.5,46.5 203.5,46.5C 203.5,47.5 203.5,48.5 203.5,49.5C 207.833,49.5 212.167,49.5 216.5,49.5C 216.5,48.5 216.5,47.5 216.5,46.5C 224.833,46.5 233.167,46.5 241.5,46.5C 241.343,45.1266 241.51,43.7932 242,42.5C 242.333,42.8333 242.667,43.1667 243,43.5C 243.054,46.8612 244.054,49.8612 246,52.5C 246.284,50.1144 247.284,49.4477 249,50.5C 249.759,48.9371 250.926,47.9371 252.5,47.5C 252.5,49.5 252.5,51.5 252.5,53.5C 251.776,55.2184 251.109,57.0517 250.5,59C 234.837,59.4999 219.17,59.6666 203.5,59.5C 203.5,58.5 203.5,57.5 203.5,56.5C 200.379,56.5382 197.379,57.2048 194.5,58.5C 192.258,57.9094 190.258,56.9094 188.5,55.5C 188.5,50.8333 188.5,46.1667 188.5,41.5 Z"/></g>
<g><path style="opacity:1" fill="#ccd13c" d="M 78.5,34.5 C 78.5,45.8333 78.5,57.1667 78.5,68.5C 77.596,69.209 77.2627,70.209 77.5,71.5C 63.8333,71.5 50.1667,71.5 36.5,71.5C 36.5,69.8333 36.5,68.1667 36.5,66.5C 32.5,66.5 28.5,66.5 24.5,66.5C 24.767,68.9711 23.767,70.6378 21.5,71.5C 19.0634,70.2587 16.5634,69.2587 14,68.5C 13.5006,63.1771 13.334,57.8437 13.5,52.5C 14.3138,54.631 14.8138,56.9644 15,59.5C 16.2504,60.5733 17.5838,60.5733 19,59.5C 19.9503,60.0223 20.7836,60.689 21.5,61.5C 39.3366,59.6339 57.3366,58.6339 75.5,58.5C 75.5,54.5 75.5,50.5 75.5,46.5C 75.1774,42.774 75.5108,39.1073 76.5,35.5C 77.1835,35.1373 77.8501,34.8039 78.5,34.5 Z"/></g>
<g><path style="opacity:0.953" fill="#6dd94b" d="M 149.5,61.5 C 148.833,62.1667 148.167,62.8333 147.5,63.5C 132.703,59.3806 118.869,61.3806 106,69.5C 103.901,70.2865 101.734,70.6199 99.5,70.5C 114.585,58.7497 131.252,55.7497 149.5,61.5 Z"/></g>
<g><path style="opacity:1" fill="#c8cd3c" d="M 16.5,39.5 C 16.6567,40.8734 16.49,42.2068 16,43.5C 13.7492,46.0172 12.9159,49.0172 13.5,52.5C 13.334,57.8437 13.5006,63.1771 14,68.5C 16.5634,69.2587 19.0634,70.2587 21.5,71.5C 23.767,70.6378 24.767,68.9711 24.5,66.5C 28.5,66.5 32.5,66.5 36.5,66.5C 36.5,68.1667 36.5,69.8333 36.5,71.5C 50.1667,71.5 63.8333,71.5 77.5,71.5C 77.2627,70.209 77.596,69.209 78.5,68.5C 78.1818,73.0323 78.5151,77.3656 79.5,81.5C 79.1667,82.1667 78.8333,82.8333 78.5,83.5C 68.5112,88.6083 58.8445,94.275 49.5,100.5C 37.6672,106.582 26.0006,112.915 14.5,119.5C 13.7784,119.082 13.2784,118.416 13,117.5C 12.3333,92.8333 12.3333,68.1667 13,43.5C 13.66,41.6763 14.8267,40.343 16.5,39.5 Z"/></g>
<g><path style="opacity:1" fill="#62d83b" d="M 147.5,63.5 C 150.889,64.6311 154.222,65.9645 157.5,67.5C 158.386,68.325 158.719,69.325 158.5,70.5C 155.232,71.8222 151.565,72.4888 147.5,72.5C 141.067,72.5876 134.733,71.9209 128.5,70.5C 127.452,71.3829 126.285,72.0496 125,72.5C 120.644,70.4001 117.477,71.4001 115.5,75.5C 114.719,74.2634 113.719,73.2634 112.5,72.5C 110.867,74.503 108.867,75.8363 106.5,76.5C 106.657,75.1266 106.49,73.7932 106,72.5C 104.115,74.02 101.949,75.02 99.5,75.5C 99.4214,73.8717 99.0881,72.2051 98.5,70.5C 98.8333,70.5 99.1667,70.5 99.5,70.5C 101.734,70.6199 103.901,70.2865 106,69.5C 118.869,61.3806 132.703,59.3806 147.5,63.5 Z"/></g>
<g><path style="opacity:1" fill="#5dcd39" d="M 98.5,70.5 C 99.0881,72.2051 99.4214,73.8717 99.5,75.5C 101.949,75.02 104.115,74.02 106,72.5C 106.49,73.7932 106.657,75.1266 106.5,76.5C 108.867,75.8363 110.867,74.503 112.5,72.5C 113.719,73.2634 114.719,74.2634 115.5,75.5C 117.477,71.4001 120.644,70.4001 125,72.5C 126.285,72.0496 127.452,71.3829 128.5,70.5C 134.733,71.9209 141.067,72.5876 147.5,72.5C 151.565,72.4888 155.232,71.8222 158.5,70.5C 159.451,71.9297 160.451,73.4297 161.5,75C 135.874,78.571 110.374,82.4043 85,86.5C 84.3645,85.0337 83.5312,83.7003 82.5,82.5C 85.4363,80.8618 88.4363,79.5285 91.5,78.5C 91.5,77.5 91.5,76.5 91.5,75.5C 95.8383,75.3781 96.1716,75.0447 92.5,74.5C 94.4632,73.1798 96.4632,71.8465 98.5,70.5 Z"/></g>
<g><path style="opacity:1" fill="#c8ce3a" d="M 252.5,53.5 C 252.205,55.7354 252.539,57.7354 253.5,59.5C 253.5,67.8333 253.5,76.1667 253.5,84.5C 252.883,84.6107 252.383,84.944 252,85.5C 251.824,82.1182 251.324,78.7848 250.5,75.5C 244.444,78.726 238.277,79.0593 232,76.5C 227.838,77.787 223.671,77.787 219.5,76.5C 212.612,78.742 205.612,79.0753 198.5,77.5C 192.276,77.5708 191.943,79.0708 197.5,82C 195.687,84.7815 193.354,85.1148 190.5,83C 189.934,82.0053 189.267,81.172 188.5,80.5C 188.5,72.1667 188.5,63.8333 188.5,55.5C 190.258,56.9094 192.258,57.9094 194.5,58.5C 197.379,57.2048 200.379,56.5382 203.5,56.5C 203.5,57.5 203.5,58.5 203.5,59.5C 219.17,59.6666 234.837,59.4999 250.5,59C 251.109,57.0517 251.776,55.2184 252.5,53.5 Z"/></g>
<g><path style="opacity:1" fill="#bccc32" d="M 253.5,84.5 C 253.5,89.1667 253.5,93.8333 253.5,98.5C 252.527,96.0521 252.194,93.3854 252.5,90.5C 250.152,90.6695 247.818,91.0029 245.5,91.5C 243.714,91.3038 242.381,90.4705 241.5,89C 228.258,88.178 215.091,88.3446 202,89.5C 200.261,87.682 198.094,86.682 195.5,86.5C 191.719,86.7037 189.386,85.037 188.5,81.5C 188.5,81.1667 188.5,80.8333 188.5,80.5C 189.267,81.172 189.934,82.0053 190.5,83C 193.354,85.1148 195.687,84.7815 197.5,82C 191.943,79.0708 192.276,77.5708 198.5,77.5C 205.612,79.0753 212.612,78.742 219.5,76.5C 223.671,77.787 227.838,77.787 232,76.5C 238.277,79.0593 244.444,78.726 250.5,75.5C 251.324,78.7848 251.824,82.1182 252,85.5C 252.383,84.944 252.883,84.6107 253.5,84.5 Z"/></g>
<g><path style="opacity:1" fill="#5ac238" d="M 149.5,61.5 C 158.115,64.8056 166.115,69.1389 173.5,74.5C 173.5,75.8333 173.5,77.1667 173.5,78.5C 175.655,78.372 177.655,78.872 179.5,80C 178.956,80.7172 178.289,81.2172 177.5,81.5C 173.455,81.6425 169.621,81.6425 166,81.5C 163.964,82.102 162.13,83.102 160.5,84.5C 159.751,82.9884 158.584,81.9884 157,81.5C 151.444,83.912 145.611,85.2454 139.5,85.5C 131.189,84.4253 122.855,84.2587 114.5,85C 111.469,88.0517 108.302,88.2184 105,85.5C 99.6762,87.3202 94.1762,88.9868 88.5,90.5C 85.5585,90.1462 82.7252,89.4795 80,88.5C 79.4436,86.1152 79.6103,83.7819 80.5,81.5C 84.1638,78.6654 88.1638,76.332 92.5,74.5C 96.1716,75.0447 95.8383,75.3781 91.5,75.5C 91.5,76.5 91.5,77.5 91.5,78.5C 88.4363,79.5285 85.4363,80.8618 82.5,82.5C 83.5312,83.7003 84.3645,85.0337 85,86.5C 110.374,82.4043 135.874,78.571 161.5,75C 160.451,73.4297 159.451,71.9297 158.5,70.5C 158.719,69.325 158.386,68.325 157.5,67.5C 154.222,65.9645 150.889,64.6311 147.5,63.5C 148.167,62.8333 148.833,62.1667 149.5,61.5 Z"/></g>
<g><path style="opacity:1" fill="#56bb34" d="M 79.5,81.5 C 79.8333,81.5 80.1667,81.5 80.5,81.5C 79.6103,83.7819 79.4436,86.1152 80,88.5C 82.7252,89.4795 85.5585,90.1462 88.5,90.5C 94.1762,88.9868 99.6762,87.3202 105,85.5C 108.302,88.2184 111.469,88.0517 114.5,85C 122.855,84.2587 131.189,84.4253 139.5,85.5C 145.611,85.2454 151.444,83.912 157,81.5C 158.584,81.9884 159.751,82.9884 160.5,84.5C 162.13,83.102 163.964,82.102 166,81.5C 169.621,81.6425 173.455,81.6425 177.5,81.5C 177.056,83.1132 176.056,84.2798 174.5,85C 165.218,84.416 156.218,85.916 147.5,89.5C 146.719,90.7366 145.719,91.7366 144.5,92.5C 138.915,92.069 133.415,91.7357 128,91.5C 123.813,91.5648 119.98,92.7315 116.5,95C 112.463,95.6067 108.463,95.44 104.5,94.5C 104.5,95.5 104.5,96.5 104.5,97.5C 95.7707,97.8603 87.104,97.8603 78.5,97.5C 77.8333,97.5 77.5,97.8333 77.5,98.5C 76.5222,98.189 75.8555,97.5223 75.5,96.5C 75.9944,92.0033 76.9944,87.67 78.5,83.5C 78.8333,82.8333 79.1667,82.1667 79.5,81.5 Z"/></g>
<g><path style="opacity:1" fill="#b0cc2b" d="M 195.5,86.5 C 198.094,86.682 200.261,87.682 202,89.5C 215.091,88.3446 228.258,88.178 241.5,89C 242.381,90.4705 243.714,91.3038 245.5,91.5C 247.818,91.0029 250.152,90.6695 252.5,90.5C 252.194,93.3854 252.527,96.0521 253.5,98.5C 253.825,105.687 253.491,112.687 252.5,119.5C 251.833,119.5 251.167,119.5 250.5,119.5C 251.907,115.317 252.574,110.984 252.5,106.5C 250.362,106.297 248.695,105.297 247.5,103.5C 246.305,105.297 244.638,106.297 242.5,106.5C 242.798,103.664 242.131,103.164 240.5,105C 240.833,105.333 241.167,105.667 241.5,106C 235.799,108.377 231.132,107.377 227.5,103C 223.811,101.487 220.145,99.9869 216.5,98.5C 210.976,94.9072 204.976,92.0739 198.5,90C 197.29,88.9609 196.29,87.7942 195.5,86.5 Z"/></g>
<g><path style="opacity:1" fill="#348f39" d="M 150.5,96.5 C 152.485,99.7319 155.485,101.399 159.5,101.5C 161.874,104.007 164.541,106.007 167.5,107.5C 164.422,107.38 161.755,106.38 159.5,104.5C 155.844,102.918 152.344,100.918 149,98.5C 146.112,98.0227 143.279,97.3561 140.5,96.5C 139.614,97.325 139.281,98.325 139.5,99.5C 130.815,99.536 122.149,99.2026 113.5,98.5C 117.702,97.0008 122.035,95.5008 126.5,94C 134.714,93.0797 142.714,93.9131 150.5,96.5 Z"/></g>
<g><path style="opacity:1" fill="#338b41" d="M 159.5,104.5 C 157.856,104.286 156.356,104.62 155,105.5C 153.422,102.236 151.256,101.736 148.5,104C 137.936,104.467 127.269,104.134 116.5,103C 118.815,101.632 118.815,100.799 116.5,100.5C 111.899,102.803 107.566,105.469 103.5,108.5C 100.598,109.578 97.5979,110.244 94.5,110.5C 96.1392,109.527 97.4726,108.194 98.5,106.5C 104.4,105.327 109.4,102.66 113.5,98.5C 122.149,99.2026 130.815,99.536 139.5,99.5C 139.281,98.325 139.614,97.325 140.5,96.5C 143.279,97.3561 146.112,98.0227 149,98.5C 152.344,100.918 155.844,102.918 159.5,104.5 Z"/></g>
<g><path style="opacity:1" fill="#8bbe38" d="M 186.5,81.5 C 187.167,81.5 187.833,81.5 188.5,81.5C 189.386,85.037 191.719,86.7037 195.5,86.5C 196.29,87.7942 197.29,88.9609 198.5,90C 204.976,92.0739 210.976,94.9072 216.5,98.5C 218.473,99.806 220.139,101.473 221.5,103.5C 219.856,102.634 218.189,102.134 216.5,102C 218.607,103.264 219.607,105.097 219.5,107.5C 214.203,108.275 208.87,108.608 203.5,108.5C 203.5,107.5 203.5,106.5 203.5,105.5C 199.452,105.605 195.452,105.272 191.5,104.5C 189.719,109.932 189.052,115.599 189.5,121.5C 189.167,121.5 188.833,121.5 188.5,121.5C 188.5,120.833 188.5,120.167 188.5,119.5C 188.5,115.167 188.5,110.833 188.5,106.5C 188.5,101.5 188.5,96.5 188.5,91.5C 188.689,87.963 188.023,84.6297 186.5,81.5 Z"/></g>
<g><path style="opacity:1" fill="#4fad32" d="M 173.5,74.5 C 178.284,76.0579 182.618,78.3912 186.5,81.5C 188.023,84.6297 188.689,87.963 188.5,91.5C 187.901,94.9524 186.068,95.9524 183,94.5C 177.488,97.0068 171.654,98.1735 165.5,98C 164.638,100.734 163.805,100.901 163,98.5C 162.612,99.428 161.945,100.095 161,100.5C 157.634,98.7302 154.134,97.3969 150.5,96.5C 142.714,93.9131 134.714,93.0797 126.5,94C 122.035,95.5008 117.702,97.0008 113.5,98.5C 109.4,102.66 104.4,105.327 98.5,106.5C 92.2587,105.307 86.4254,106.307 81,109.5C 79.0111,105.747 78.1778,101.747 78.5,97.5C 87.104,97.8603 95.7707,97.8603 104.5,97.5C 104.5,96.5 104.5,95.5 104.5,94.5C 108.463,95.44 112.463,95.6067 116.5,95C 119.98,92.7315 123.813,91.5648 128,91.5C 133.415,91.7357 138.915,92.069 144.5,92.5C 145.719,91.7366 146.719,90.7366 147.5,89.5C 156.218,85.916 165.218,84.416 174.5,85C 176.056,84.2798 177.056,83.1132 177.5,81.5C 178.289,81.2172 178.956,80.7172 179.5,80C 177.655,78.872 175.655,78.372 173.5,78.5C 173.5,77.1667 173.5,75.8333 173.5,74.5 Z"/></g>
<g><path style="opacity:1" fill="#469b2c" d="M 188.5,91.5 C 188.5,96.5 188.5,101.5 188.5,106.5C 186.511,105.519 184.511,104.519 182.5,103.5C 178.516,105.834 174.183,107.167 169.5,107.5C 168.833,107.5 168.167,107.5 167.5,107.5C 164.541,106.007 161.874,104.007 159.5,101.5C 155.485,101.399 152.485,99.7319 150.5,96.5C 154.134,97.3969 157.634,98.7302 161,100.5C 161.945,100.095 162.612,99.428 163,98.5C 163.805,100.901 164.638,100.734 165.5,98C 171.654,98.1735 177.488,97.0068 183,94.5C 186.068,95.9524 187.901,94.9524 188.5,91.5 Z"/></g>
<g><path style="opacity:1" fill="#8abe39" d="M 78.5,83.5 C 76.9944,87.67 75.9944,92.0033 75.5,96.5C 75.8555,97.5223 76.5222,98.189 77.5,98.5C 77.5,105.5 77.5,112.5 77.5,119.5C 76.603,120.598 75.7697,120.598 75,119.5C 74.5065,117.866 74.3398,116.199 74.5,114.5C 72.5,114.5 70.5,114.5 68.5,114.5C 68.5,115.5 68.5,116.5 68.5,117.5C 62.1667,117.5 55.8333,117.5 49.5,117.5C 49.5,116.5 49.5,115.5 49.5,114.5C 48.1266,114.343 46.7932,114.51 45.5,115C 46.8882,115.889 46.7215,116.389 45,116.5C 44.5,116.333 44,116.167 43.5,116C 44.8333,115 44.8333,114 43.5,113C 41.1902,112.503 38.8568,112.337 36.5,112.5C 36.2865,110.856 36.6198,109.356 37.5,108C 40.737,106.548 44.0703,105.381 47.5,104.5C 48.8532,103.476 49.5198,102.143 49.5,100.5C 58.8445,94.275 68.5112,88.6083 78.5,83.5 Z"/></g>
<g><path style="opacity:1" fill="#92bf3b" d="M 221.5,103.5 C 222.873,103.343 224.207,103.51 225.5,104C 232.994,110.689 241.328,115.856 250.5,119.5C 251.167,119.5 251.833,119.5 252.5,119.5C 252.5,120.167 252.167,120.5 251.5,120.5C 250.07,120.421 248.736,120.754 247.5,121.5C 246.833,120.833 246.167,120.167 245.5,119.5C 244.108,120.605 242.941,121.939 242,123.5C 241.517,122.552 241.351,121.552 241.5,120.5C 237.5,120.5 233.5,120.5 229.5,120.5C 229.5,119.5 229.5,118.5 229.5,117.5C 234.099,118.901 235.766,117.234 234.5,112.5C 231.495,115.063 228.162,115.729 224.5,114.5C 223.808,115.025 223.308,115.692 223,116.5C 220.811,113.907 218.644,113.907 216.5,116.5C 211.88,117.493 207.214,117.827 202.5,117.5C 202.5,118.5 202.5,119.5 202.5,120.5C 201.167,120.5 199.833,120.5 198.5,120.5C 198.5,119.5 198.5,118.5 198.5,117.5C 196.076,117.192 193.743,117.526 191.5,118.5C 190.754,119.736 190.421,121.07 190.5,122.5C 189.833,122.5 189.5,122.167 189.5,121.5C 189.052,115.599 189.719,109.932 191.5,104.5C 195.452,105.272 199.452,105.605 203.5,105.5C 203.5,106.5 203.5,107.5 203.5,108.5C 208.87,108.608 214.203,108.275 219.5,107.5C 219.607,105.097 218.607,103.264 216.5,102C 218.189,102.134 219.856,102.634 221.5,103.5 Z"/></g>
<g><path style="opacity:1" fill="#4da22e" d="M 78.5,97.5 C 78.1778,101.747 79.0111,105.747 81,109.5C 86.4254,106.307 92.2587,105.307 98.5,106.5C 97.4726,108.194 96.1392,109.527 94.5,110.5C 91.3801,111.86 88.0468,112.693 84.5,113C 83.4178,114.33 82.7512,115.83 82.5,117.5C 82.5,118.167 82.5,118.833 82.5,119.5C 80.4862,119.392 78.8195,120.058 77.5,121.5C 77.5,120.833 77.5,120.167 77.5,119.5C 77.5,112.5 77.5,105.5 77.5,98.5C 77.5,97.8333 77.8333,97.5 78.5,97.5 Z"/></g>
<g><path style="opacity:1" fill="#328348" d="M 159.5,104.5 C 161.755,106.38 164.422,107.38 167.5,107.5C 167.369,108.239 167.536,108.906 168,109.5C 169.302,110.085 170.469,110.751 171.5,111.5C 167.587,110.559 163.754,109.225 160,107.5C 158.806,108.43 157.473,109.097 156,109.5C 143.081,109.805 130.081,109.472 117,108.5C 114.551,108.861 112.218,109.528 110,110.5C 108.211,108.771 106.044,108.104 103.5,108.5C 107.566,105.469 111.899,102.803 116.5,100.5C 118.815,100.799 118.815,101.632 116.5,103C 127.269,104.134 137.936,104.467 148.5,104C 151.256,101.736 153.422,102.236 155,105.5C 156.356,104.62 157.856,104.286 159.5,104.5 Z"/></g>
<g><path style="opacity:1" fill="#a3cb26" d="M 216.5,98.5 C 220.145,99.9869 223.811,101.487 227.5,103C 231.132,107.377 235.799,108.377 241.5,106C 241.167,105.667 240.833,105.333 240.5,105C 242.131,103.164 242.798,103.664 242.5,106.5C 244.638,106.297 246.305,105.297 247.5,103.5C 248.695,105.297 250.362,106.297 252.5,106.5C 252.574,110.984 251.907,115.317 250.5,119.5C 241.328,115.856 232.994,110.689 225.5,104C 224.207,103.51 222.873,103.343 221.5,103.5C 220.139,101.473 218.473,99.806 216.5,98.5 Z"/></g>
<g><path style="opacity:1" fill="#337f4d" d="M 171.5,111.5 C 171.5,111.833 171.5,112.167 171.5,112.5C 169.253,112.915 167.086,113.582 165,114.5C 159.667,113.833 154.333,113.167 149,112.5C 139.362,112.889 129.695,112.889 120,112.5C 111.851,113.76 103.685,114.76 95.5,115.5C 94.914,115.291 94.414,114.957 94,114.5C 91.4582,116.182 88.6249,117.182 85.5,117.5C 88.5246,115.348 91.5246,113.015 94.5,110.5C 97.5979,110.244 100.598,109.578 103.5,108.5C 106.044,108.104 108.211,108.771 110,110.5C 112.218,109.528 114.551,108.861 117,108.5C 130.081,109.472 143.081,109.805 156,109.5C 157.473,109.097 158.806,108.43 160,107.5C 163.754,109.225 167.587,110.559 171.5,111.5 Z"/></g>
<g><path style="opacity:1" fill="#408c27" d="M 188.5,106.5 C 188.5,110.833 188.5,115.167 188.5,119.5C 184.761,118.93 182.428,116.764 181.5,113C 177.045,112.021 173.045,110.188 169.5,107.5C 174.183,107.167 178.516,105.834 182.5,103.5C 184.511,104.519 186.511,105.519 188.5,106.5 Z"/></g>
<g><path style="opacity:1" fill="#3b8537" d="M 167.5,107.5 C 168.167,107.5 168.833,107.5 169.5,107.5C 173.045,110.188 177.045,112.021 181.5,113C 182.428,116.764 184.761,118.93 188.5,119.5C 188.5,120.167 188.5,120.833 188.5,121.5C 185.044,119.379 181.377,117.712 177.5,116.5C 175.999,114.634 173.999,113.301 171.5,112.5C 171.5,112.167 171.5,111.833 171.5,111.5C 170.469,110.751 169.302,110.085 168,109.5C 167.536,108.906 167.369,108.239 167.5,107.5 Z"/></g>
<g><path style="opacity:1" fill="#48973a" d="M 94.5,110.5 C 91.5246,113.015 88.5246,115.348 85.5,117.5C 84.5,117.5 83.5,117.5 82.5,117.5C 82.7512,115.83 83.4178,114.33 84.5,113C 88.0468,112.693 91.3801,111.86 94.5,110.5 Z"/></g>
<g><path style="opacity:1" fill="#347a54" d="M 171.5,112.5 C 173.999,113.301 175.999,114.634 177.5,116.5C 173.43,118.033 169.596,117.7 166,115.5C 164.111,116.93 161.945,117.597 159.5,117.5C 156.409,116.594 153.242,115.928 150,115.5C 147.443,115.957 144.943,116.624 142.5,117.5C 132.564,115.569 122.731,114.903 113,115.5C 108.307,118.678 103.474,119.011 98.5,116.5C 96.4024,116.957 94.7358,117.957 93.5,119.5C 89.3812,119.548 85.7145,120.215 82.5,121.5C 82.5,120.833 82.5,120.167 82.5,119.5C 82.5,118.833 82.5,118.167 82.5,117.5C 83.5,117.5 84.5,117.5 85.5,117.5C 88.6249,117.182 91.4582,116.182 94,114.5C 94.414,114.957 94.914,115.291 95.5,115.5C 103.685,114.76 111.851,113.76 120,112.5C 129.695,112.889 139.362,112.889 149,112.5C 154.333,113.167 159.667,113.833 165,114.5C 167.086,113.582 169.253,112.915 171.5,112.5 Z"/></g>
<g><path style="opacity:1" fill="#357757" d="M 177.5,116.5 C 181.377,117.712 185.044,119.379 188.5,121.5C 188.5,122.833 188.5,124.167 188.5,125.5C 187.596,124.791 187.263,123.791 187.5,122.5C 182.554,119.93 177.221,118.597 171.5,118.5C 162.336,119.762 153.169,119.762 144,118.5C 138.278,118.698 132.612,119.365 127,120.5C 124.825,120.166 122.992,119.166 121.5,117.5C 119.979,118.937 118.145,119.604 116,119.5C 108.47,119.396 100.97,119.396 93.5,119.5C 94.7358,117.957 96.4024,116.957 98.5,116.5C 103.474,119.011 108.307,118.678 113,115.5C 122.731,114.903 132.564,115.569 142.5,117.5C 144.943,116.624 147.443,115.957 150,115.5C 153.242,115.928 156.409,116.594 159.5,117.5C 161.945,117.597 164.111,116.93 166,115.5C 169.596,117.7 173.43,118.033 177.5,116.5 Z"/></g>
<g><path style="opacity:1" fill="#36725a" d="M 188.5,125.5 C 188.825,132.687 188.491,139.687 187.5,146.5C 187.5,144.167 187.5,141.833 187.5,139.5C 187.5,137.167 187.5,134.833 187.5,132.5C 187.66,130.801 187.494,129.134 187,127.5C 185.951,129.107 184.451,129.773 182.5,129.5C 182.808,127.076 182.474,124.743 181.5,122.5C 156.537,123.145 131.703,123.145 107,122.5C 101.484,122.607 95.9838,122.941 90.5,123.5C 88.6161,123.716 86.9494,124.383 85.5,125.5C 84.7492,124.624 84.2492,123.624 84,122.5C 82.951,124.107 81.451,124.773 79.5,124.5C 79.5,128.167 79.5,131.833 79.5,135.5C 79.185,139.371 79.5184,143.038 80.5,146.5C 80.5,147.167 80.5,147.833 80.5,148.5C 79.8333,148.167 79.1667,147.833 78.5,147.5C 78.5,146.833 78.5,146.167 78.5,145.5C 78.3337,138.159 78.5003,130.826 79,123.5C 79.7096,122.027 80.8762,121.36 82.5,121.5C 85.7145,120.215 89.3812,119.548 93.5,119.5C 100.97,119.396 108.47,119.396 116,119.5C 118.145,119.604 119.979,118.937 121.5,117.5C 122.992,119.166 124.825,120.166 127,120.5C 132.612,119.365 138.278,118.698 144,118.5C 153.169,119.762 162.336,119.762 171.5,118.5C 177.221,118.597 182.554,119.93 187.5,122.5C 187.263,123.791 187.596,124.791 188.5,125.5 Z"/></g>
<g><path style="opacity:1" fill="#99be40" d="M 251.5,120.5 C 249.42,124.086 246.754,127.253 243.5,130C 235.611,135.107 227.611,139.941 219.5,144.5C 220.684,143.312 220.684,142.145 219.5,141C 209.806,135.155 200.139,129.322 190.5,123.5C 190.5,123.167 190.5,122.833 190.5,122.5C 190.421,121.07 190.754,119.736 191.5,118.5C 193.743,117.526 196.076,117.192 198.5,117.5C 198.5,118.5 198.5,119.5 198.5,120.5C 199.833,120.5 201.167,120.5 202.5,120.5C 202.5,119.5 202.5,118.5 202.5,117.5C 207.214,117.827 211.88,117.493 216.5,116.5C 218.644,113.907 220.811,113.907 223,116.5C 223.308,115.692 223.808,115.025 224.5,114.5C 228.162,115.729 231.495,115.063 234.5,112.5C 235.766,117.234 234.099,118.901 229.5,117.5C 229.5,118.5 229.5,119.5 229.5,120.5C 233.5,120.5 237.5,120.5 241.5,120.5C 241.351,121.552 241.517,122.552 242,123.5C 242.941,121.939 244.108,120.605 245.5,119.5C 246.167,120.167 246.833,120.833 247.5,121.5C 248.736,120.754 250.07,120.421 251.5,120.5 Z"/></g>
<g><path style="opacity:1" fill="#356d60" d="M 187.5,132.5 C 176.651,128.698 165.317,127.198 153.5,128C 153.002,126.842 152.169,126.009 151,125.5C 148.901,127.534 146.568,127.868 144,126.5C 142.405,127.356 141.572,128.689 141.5,130.5C 133.948,127.876 126.614,128.543 119.5,132.5C 120.791,131.527 120.791,130.527 119.5,129.5C 118.009,128.756 116.509,128.09 115,127.5C 109.387,127.663 103.72,127.997 98,128.5C 95.8369,127.359 93.5036,126.693 91,126.5C 88.7448,126.61 87.0781,127.61 86,129.5C 85.1667,128.5 84.3333,127.5 83.5,126.5C 81.7711,128.851 81.1044,131.518 81.5,134.5C 81.1583,135.338 80.4916,135.672 79.5,135.5C 79.5,131.833 79.5,128.167 79.5,124.5C 81.451,124.773 82.951,124.107 84,122.5C 84.2492,123.624 84.7492,124.624 85.5,125.5C 86.9494,124.383 88.6161,123.716 90.5,123.5C 95.9838,122.941 101.484,122.607 107,122.5C 131.703,123.145 156.537,123.145 181.5,122.5C 182.474,124.743 182.808,127.076 182.5,129.5C 184.451,129.773 185.951,129.107 187,127.5C 187.494,129.134 187.66,130.801 187.5,132.5 Z"/></g>
<g><path style="opacity:1" fill="#96bf3e" d="M 49.5,100.5 C 49.5198,102.143 48.8532,103.476 47.5,104.5C 44.0703,105.381 40.737,106.548 37.5,108C 36.6198,109.356 36.2865,110.856 36.5,112.5C 38.8568,112.337 41.1902,112.503 43.5,113C 44.8333,114 44.8333,115 43.5,116C 44,116.167 44.5,116.333 45,116.5C 46.7215,116.389 46.8882,115.889 45.5,115C 46.7932,114.51 48.1266,114.343 49.5,114.5C 49.5,115.5 49.5,116.5 49.5,117.5C 55.8333,117.5 62.1667,117.5 68.5,117.5C 68.5,116.5 68.5,115.5 68.5,114.5C 70.5,114.5 72.5,114.5 74.5,114.5C 74.3398,116.199 74.5065,117.866 75,119.5C 75.7697,120.598 76.603,120.598 77.5,119.5C 77.5,120.167 77.5,120.833 77.5,121.5C 67.6321,127.819 57.6321,134.153 47.5,140.5C 46.5748,141.357 45.9081,142.357 45.5,143.5C 34.8831,137.945 25.0498,131.278 16,123.5C 15.2086,122.255 14.7086,120.922 14.5,119.5C 26.0006,112.915 37.6672,106.582 49.5,100.5 Z"/></g>
<g><path style="opacity:1" fill="#487a39" d="M 82.5,119.5 C 82.5,120.167 82.5,120.833 82.5,121.5C 80.8762,121.36 79.7096,122.027 79,123.5C 78.5003,130.826 78.3337,138.159 78.5,145.5C 77.5076,137.684 77.1743,129.684 77.5,121.5C 78.8195,120.058 80.4862,119.392 82.5,119.5 Z"/></g>
<g><path style="opacity:0.999" fill="#376767" d="M 119.5,132.5 C 117.909,134.633 115.909,136.299 113.5,137.5C 104.758,135.735 95.7583,134.902 86.5,135C 84.701,133.964 83.0343,133.797 81.5,134.5C 81.1044,131.518 81.7711,128.851 83.5,126.5C 84.3333,127.5 85.1667,128.5 86,129.5C 87.0781,127.61 88.7448,126.61 91,126.5C 93.5036,126.693 95.8369,127.359 98,128.5C 103.72,127.997 109.387,127.663 115,127.5C 116.509,128.09 118.009,128.756 119.5,129.5C 120.791,130.527 120.791,131.527 119.5,132.5 Z"/></g>
<g><path style="opacity:1" fill="#376866" d="M 187.5,132.5 C 187.5,134.833 187.5,137.167 187.5,139.5C 186.751,138.469 186.085,137.302 185.5,136C 182.833,135.667 180.167,135.333 177.5,135C 168.553,133.863 159.887,133.363 151.5,133.5C 151.213,134.2 150.88,134.867 150.5,135.5C 147.738,133.404 144.738,131.738 141.5,130.5C 141.572,128.689 142.405,127.356 144,126.5C 146.568,127.868 148.901,127.534 151,125.5C 152.169,126.009 153.002,126.842 153.5,128C 165.317,127.198 176.651,128.698 187.5,132.5 Z"/></g>
<g><path style="opacity:1" fill="#385f6c" d="M 113.5,137.5 C 111.858,138.803 110.191,140.136 108.5,141.5C 107.699,139.958 107.366,138.292 107.5,136.5C 101.043,137.85 94.2099,138.85 87,139.5C 85.2341,138.767 83.4008,138.433 81.5,138.5C 81.1667,141.167 80.8333,143.833 80.5,146.5C 79.5184,143.038 79.185,139.371 79.5,135.5C 80.4916,135.672 81.1583,135.338 81.5,134.5C 83.0343,133.797 84.701,133.964 86.5,135C 95.7583,134.902 104.758,135.735 113.5,137.5 Z"/></g>
<g><path style="opacity:1" fill="#38606c" d="M 187.5,139.5 C 187.5,141.833 187.5,144.167 187.5,146.5C 186.833,147.167 186.167,147.833 185.5,148.5C 185.5,147.833 185.5,147.167 185.5,146.5C 184.933,144.302 184.933,141.969 185.5,139.5C 178.825,139.334 172.158,139.5 165.5,140C 162.949,140.002 160.949,140.836 159.5,142.5C 156.19,140.518 153.19,138.185 150.5,135.5C 150.88,134.867 151.213,134.2 151.5,133.5C 159.887,133.363 168.553,133.863 177.5,135C 180.167,135.333 182.833,135.667 185.5,136C 186.085,137.302 186.751,138.469 187.5,139.5 Z"/></g>
<g><path style="opacity:1" fill="#3a5b71" d="M 108.5,141.5 C 105.525,144.323 102.192,146.656 98.5,148.5C 98.3921,146.791 98.2254,144.791 98,142.5C 94.1785,141.164 90.6785,141.83 87.5,144.5C 86.377,142.711 85.0436,142.378 83.5,143.5C 84.1667,144.167 84.8333,144.833 85.5,145.5C 83.6684,146.057 82.3351,147.057 81.5,148.5C 81.1667,148.5 80.8333,148.5 80.5,148.5C 80.5,147.833 80.5,147.167 80.5,146.5C 80.8333,143.833 81.1667,141.167 81.5,138.5C 83.4008,138.433 85.2341,138.767 87,139.5C 94.2099,138.85 101.043,137.85 107.5,136.5C 107.366,138.292 107.699,139.958 108.5,141.5 Z"/></g>
<g><path style="opacity:1" fill="#395b73" d="M 185.5,146.5 C 180.864,145.851 176.198,145.351 171.5,145C 170.421,144.044 169.255,143.211 168,142.5C 167.338,143.984 166.504,145.317 165.5,146.5C 163.223,145.551 161.223,144.218 159.5,142.5C 160.949,140.836 162.949,140.002 165.5,140C 172.158,139.5 178.825,139.334 185.5,139.5C 184.933,141.969 184.933,144.302 185.5,146.5 Z"/></g>
<g><path style="opacity:1" fill="#7dae21" d="M 77.5,121.5 C 77.1743,129.684 77.5076,137.684 78.5,145.5C 78.5,146.167 78.5,146.833 78.5,147.5C 79.7778,149.799 81.1111,152.132 82.5,154.5C 82.1373,155.183 81.8039,155.85 81.5,156.5C 75.8236,156.666 70.1569,156.499 64.5,156C 57.7589,152.307 51.4256,148.14 45.5,143.5C 45.9081,142.357 46.5748,141.357 47.5,140.5C 57.6321,134.153 67.6321,127.819 77.5,121.5 Z"/></g>
<g><path style="opacity:1" fill="#7bae1e" d="M 190.5,123.5 C 200.139,129.322 209.806,135.155 219.5,141C 220.684,142.145 220.684,143.312 219.5,144.5C 214.073,149.058 208.073,152.891 201.5,156C 196.177,156.499 190.844,156.666 185.5,156.5C 186.135,152.757 187.635,149.424 190,146.5C 190.5,138.841 190.666,131.174 190.5,123.5 Z"/></g>
<g><path style="opacity:1" fill="#3a5679" d="M 98.5,148.5 C 96.2297,150.975 93.563,152.975 90.5,154.5C 90.5,154.167 90.5,153.833 90.5,153.5C 87.1268,152.644 84.1268,150.977 81.5,148.5C 82.3351,147.057 83.6684,146.057 85.5,145.5C 84.8333,144.833 84.1667,144.167 83.5,143.5C 85.0436,142.378 86.377,142.711 87.5,144.5C 90.6785,141.83 94.1785,141.164 98,142.5C 98.2254,144.791 98.3921,146.791 98.5,148.5 Z"/></g>
<g><path style="opacity:1" fill="#3b5576" d="M 185.5,146.5 C 185.5,147.167 185.5,147.833 185.5,148.5C 185.167,149.167 184.833,149.833 184.5,150.5C 180.696,150.28 177.363,151.28 174.5,153.5C 171.19,151.518 168.19,149.185 165.5,146.5C 166.504,145.317 167.338,143.984 168,142.5C 169.255,143.211 170.421,144.044 171.5,145C 176.198,145.351 180.864,145.851 185.5,146.5 Z"/></g>
<g><path style="opacity:1" fill="#436847" d="M 80.5,148.5 C 80.8333,148.5 81.1667,148.5 81.5,148.5C 84.1268,150.977 87.1268,152.644 90.5,153.5C 85.7551,154.461 82.4218,152.794 80.5,148.5 Z"/></g>
<g><path style="opacity:1" fill="#426058" d="M 184.5,150.5 C 182.12,152.405 179.453,153.738 176.5,154.5C 175.508,154.672 174.842,154.338 174.5,153.5C 177.363,151.28 180.696,150.28 184.5,150.5 Z"/></g>
<g><path style="opacity:0.835" fill="#71a138" d="M 188.5,121.5 C 188.833,121.5 189.167,121.5 189.5,121.5C 189.5,122.167 189.833,122.5 190.5,122.5C 190.5,122.833 190.5,123.167 190.5,123.5C 190.666,131.174 190.5,138.841 190,146.5C 187.635,149.424 186.135,152.757 185.5,156.5C 182.162,156.935 179.162,156.268 176.5,154.5C 179.453,153.738 182.12,152.405 184.5,150.5C 184.833,149.833 185.167,149.167 185.5,148.5C 186.167,147.833 186.833,147.167 187.5,146.5C 188.491,139.687 188.825,132.687 188.5,125.5C 188.5,124.167 188.5,122.833 188.5,121.5 Z"/></g>
<g><path style="opacity:0.173" fill="#71a533" d="M 78.5,147.5 C 79.1667,147.833 79.8333,148.167 80.5,148.5C 82.4218,152.794 85.7551,154.461 90.5,153.5C 90.5,153.833 90.5,154.167 90.5,154.5C 87.8375,156.268 84.8375,156.935 81.5,156.5C 81.8039,155.85 82.1373,155.183 82.5,154.5C 81.1111,152.132 79.7778,149.799 78.5,147.5 Z"/></g>
</svg>
